<?xml version="1.0" encoding="UTF-8" standalone="no"?>
<svg
   xmlns:dc="http://purl.org/dc/elements/1.1/"
   xmlns:cc="http://creativecommons.org/ns#"
   xmlns:rdf="http://www.w3.org/1999/02/22-rdf-syntax-ns#"
   xmlns:svg="http://www.w3.org/2000/svg"
   xmlns="http://www.w3.org/2000/svg"
   xmlns:sodipodi="http://sodipodi.sourceforge.net/DTD/sodipodi-0.dtd"
   xmlns:inkscape="http://www.inkscape.org/namespaces/inkscape"
   version="1.1"
   id="svg851"
   xml:space="preserve"
   width="842.88531"
   height="238.29466"
   viewBox="0 0 842.88531 238.29466"
   sodipodi:docname="AerospaceVillageLogo.svg"
   inkscape:version="1.0.2 (1.0.2+r75+1)"><metadata
     id="metadata857"><rdf:RDF><cc:Work
         rdf:about=""><dc:format>image/svg+xml</dc:format><dc:type
           rdf:resource="http://purl.org/dc/dcmitype/StillImage" /><dc:title></dc:title></cc:Work></rdf:RDF></metadata><defs
     id="defs855"><clipPath
       clipPathUnits="userSpaceOnUse"
       id="clipPath875"><path
         d="M 0,178.721 H 632.164 V 0 H 0 Z"
         id="path873" /></clipPath></defs><sodipodi:namedview
     pagecolor="#ffffff"
     bordercolor="#666666"
     borderopacity="1"
     objecttolerance="10"
     gridtolerance="10"
     guidetolerance="10"
     inkscape:pageopacity="0"
     inkscape:pageshadow="2"
     inkscape:window-width="1920"
     inkscape:window-height="1043"
     id="namedview853"
     showgrid="false"
     inkscape:zoom="1.2439601"
     inkscape:cx="450.07573"
     inkscape:cy="144.90947"
     inkscape:window-x="0"
     inkscape:window-y="0"
     inkscape:window-maximized="1"
     inkscape:current-layer="g871" /><g
     id="g859"
     inkscape:groupmode="layer"
     inkscape:label="F.SilkS"
     transform="matrix(1.3333333,0,0,-1.3333333,0,238.29467)"><g
       id="g861"
       transform="translate(144.3701,103.7894)"
       style="display:inline"><path
         d="m 0,0 h 9.726 l 4.382,6.775 h 0.048 L 18.82,13.87 H 18.813 L 27.741,27.5 36.667,13.87 H 24.175 L 19.51,6.775 H 41.291 L 45.755,0 h 9.724 L 27.741,40.653 Z"
         style="fill:#282561;fill-opacity:1;fill-rule:nonzero;stroke:none"
         id="path863" /></g><g
       id="g865"
       transform="translate(206.5498,103.7894)"
       style="display:inline"><path
         d="M 0,0 H 40.415 V 6.855 H 8.688 v 10.203 h 25.987 v 6.297 H 8.688 v 9.726 h 31.727 v 6.935 L 0,40.016 Z"
         style="fill:#282561;fill-opacity:1;fill-rule:nonzero;stroke:none"
         id="path867" /></g><g
       id="g869"
       style="display:inline"><g
         id="g871"
         clip-path="url(#clipPath875)"
         style="display:inline"><g
           id="g877"
           transform="translate(283.7978,123.9569)"><path
             d="M 0,0 H -17.378 V 12.115 H 0 c 6.616,0 7.732,-3.347 7.732,-5.978 C 7.732,3.268 6.616,0 0,0 m 17.059,6.137 c 0,6.218 -4.306,13.711 -15.785,13.711 h -27.34 v -40.015 h 8.688 V -7.654 H -0.24 l 8.449,-12.513 h 9.726 l -9.247,13.79 c 5.979,2.39 8.371,7.653 8.371,12.514"
             style="fill:#282561;fill-opacity:1;fill-rule:nonzero;stroke:none"
             id="path879" /></g><g
           id="g881"
           transform="translate(336.8901,110.6444)"><path
             d="m 0,0 c -10.841,0 -18.731,5.021 -18.731,13.074 0,8.209 7.89,13.072 18.731,13.072 10.841,0 18.732,-4.863 18.732,-13.072 C 18.732,5.021 10.841,0 0,0 m 0,33.798 c -15.544,0 -28.059,-7.733 -28.059,-20.724 0,-12.836 12.515,-20.726 28.059,-20.726 15.623,0 28.06,7.89 28.06,20.726 0,12.991 -12.437,20.724 -28.06,20.724"
             style="fill:#282561;fill-opacity:1;fill-rule:nonzero;stroke:none"
             id="path883" /></g><g
           id="g885"
           transform="translate(381.7758,132.4852)"><path
             d="m 0,0 c 0,3.905 7.095,4.704 14.108,4.704 7.334,0 12.913,-0.877 16.501,-1.913 l 0.399,7.253 c -2.71,0.718 -10.202,1.914 -18.333,1.914 -9.008,0 -21.283,-1.437 -21.283,-12.277 0,-18.174 34.353,-7.652 34.353,-16.659 0,-4.305 -7.491,-5.262 -15.781,-5.262 -6.696,0 -12.594,0.559 -18.892,1.675 l -0.318,-7.254 c 5.897,-1.036 13.55,-1.674 20.406,-1.674 11.24,0 23.116,1.754 23.116,12.834 C 34.276,1.914 0,-8.29 0,0"
             style="fill:#282561;fill-opacity:1;fill-rule:nonzero;stroke:none"
             id="path887" /></g><g
           id="g889"
           transform="translate(451.8471,124.1957)"><path
             d="M 0,0 H -16.979 V 12.036 H 0 c 7.094,0 8.37,-3.348 8.37,-5.977 C 8.37,3.348 7.094,0 0,0 m 1.834,19.609 h -27.502 v -40.015 h 8.689 V -7.573 H 1.834 c 11.479,0 15.782,7.414 15.782,13.632 0,6.216 -4.303,13.55 -15.782,13.55"
             style="fill:#282561;fill-opacity:1;fill-rule:nonzero;stroke:none"
             id="path891" /></g><g
           id="g893"
           transform="translate(524.5561,123.7182)"><path
             d="m 0,0 c 0,-13.313 11.08,-20.726 28.854,-20.726 7.095,0 13.074,1.196 18.415,3.588 v 7.731 c -3.588,-1.992 -10.443,-3.747 -18.015,-3.747 -12.676,0 -19.929,4.943 -19.929,13.154 0,8.209 7.334,13.152 19.689,13.152 7.97,0 14.348,-1.994 18.255,-4.305 v 8.211 C 41.928,19.529 36.028,20.725 28.854,20.725 11.08,20.725 0,13.311 0,0"
             style="fill:#282561;fill-opacity:1;fill-rule:nonzero;stroke:none"
             id="path895" /></g><g
           id="g897"
           transform="translate(582.7495,103.7894)"><path
             d="M 0,0 H 40.415 V 6.855 H 8.689 v 10.203 h 25.987 v 6.297 H 8.689 v 9.726 h 31.726 v 6.935 L 0,40.016 Z"
             style="fill:#282561;fill-opacity:1;fill-rule:nonzero;stroke:none"
             id="path899" /></g><g
           id="g901"
           transform="translate(495.4555,144.4428)"><path
             d="m 0,0 -27.741,-40.653 h 9.726 L 0,-13.154 8.928,-26.783 H -3.65 l -4.665,-7.095 h 21.866 l 4.464,-6.775 h 9.724 z"
             style="fill:#282561;fill-opacity:1;fill-rule:nonzero;stroke:none"
             id="path903" /></g><g
           id="g905"
           transform="translate(171.3125,35.7523)"><path
             d="M 0,0 -16.659,27.104 H -26.942 L 0,-13.709 27.102,27.104 H 16.899 Z"
             style="fill:#282561;fill-opacity:1;fill-rule:nonzero;stroke:none"
             id="path907" /></g><path
           d="m 205.115,22.839 h 8.688 v 40.016 h -8.688 z"
           style="fill:#282561;fill-opacity:1;fill-rule:nonzero;stroke:none"
           id="path909" /><g
           id="g911"
           transform="translate(236.0463,62.8559)"><path
             d="m 0,0 h -8.688 v -40.016 h 37.862 v 7.494 H 0 Z"
             style="fill:#282561;fill-opacity:1;fill-rule:nonzero;stroke:none"
             id="path913" /></g><g
           id="g915"
           transform="translate(282.6025,62.8559)"
           style="display:inline"><path
             d="m 0,0 h -8.688 v -40.016 h 37.862 v 7.494 H 0 Z"
             style="fill:#282561;fill-opacity:1;fill-rule:nonzero;stroke:none"
             id="path917" /></g><g
           id="g919"
           transform="translate(401.4643,44.1225)"
           style="display:inline"><path
             d="m 0,0 v -6.455 h 13.79 c -2.789,-6.219 -10.762,-8.053 -16.978,-8.053 -10.682,0 -18.574,5.024 -18.574,13.551 0,10.044 10.524,12.993 18.654,12.993 8.05,0 14.267,-2.151 19.847,-4.782 v 7.732 c -5.58,2.79 -12.674,4.385 -20.246,4.385 -13.951,0 -27.58,-6.457 -27.58,-20.566 0,-13.472 12.832,-20.884 27.419,-20.884 14.429,0 27.264,6.934 27.264,19.927 0,0.957 -0.08,1.434 -0.08,2.152 z"
             style="fill:#282561;fill-opacity:1;fill-rule:nonzero;stroke:none"
             id="path921" /></g><g
           id="g923"
           transform="translate(474.646,55.9203)"
           style="display:inline"><path
             d="M 0,0 V 6.936 H -40.414 V -33.081 H 0 v 6.854 h -31.727 v 10.205 h 25.988 v 6.297 H -31.727 V 0 Z"
             style="fill:#282561;fill-opacity:1;fill-rule:nonzero;stroke:none"
             id="path925" /></g><g
           id="g927"
           transform="translate(341.3569,63.4935)"
           style="display:inline"><path
             d="m 0,0 -27.741,-40.653 h 9.725 L 0,-13.154 8.927,-26.784 H -3.64 l -4.665,-7.095 h 21.856 l 4.463,-6.774 h 9.724 z"
             style="fill:#282561;fill-opacity:1;fill-rule:nonzero;stroke:none"
             id="path929" /></g><g
           id="g963"
           transform="translate(69.6025,93.9745)"
           style="display:inline"><path
             d="M 0,0 H -21.436 C -20.202,16.088 -9.87,30.614 0,42.954 Z M -21.436,-6.248 H 0 v -42.954 c -9.87,12.339 -20.202,26.867 -21.436,42.954 M -46.109,0 c 1.387,23.273 18.505,42.172 40.712,46.078 C -15.421,33.582 -26.524,17.806 -27.604,0 Z m 18.505,-6.248 c 1.234,-17.806 12.183,-33.583 22.207,-46.078 -22.207,3.906 -39.325,22.805 -40.712,46.078 z m 39.17,-46.078 c 10.024,12.495 21.128,28.272 22.206,46.078 H 52.278 C 50.89,-29.521 33.772,-48.42 11.566,-52.326 M 6.168,-6.248 H 27.604 C 26.371,-22.335 16.038,-36.863 6.168,-49.202 Z M 27.604,0 H 6.168 V 42.954 C 16.038,30.614 26.371,16.244 27.604,0 M 11.566,46.078 C 33.772,42.172 50.89,23.273 52.278,0 H 33.772 C 32.694,17.806 21.59,33.582 11.566,46.078 M 3.084,56.23 c -32.385,0 -58.601,-26.553 -58.601,-59.354 0,-32.801 26.216,-59.355 58.601,-59.355 32.385,0 58.601,26.554 58.601,59.355 0,32.801 -26.216,59.354 -58.601,59.354"
             style="display:inline;fill:#282561;fill-opacity:1;fill-rule:nonzero;stroke:none"
             id="path965" /></g><g
           id="g967"
           transform="translate(131.5439,143.9393)"
           style="display:inline"><path
             d="m 0,0 -5.535,6.595 -1.678,-23.393 17.926,15.122 -8.729,0.604 c 2.123,4.228 4.015,8.6 5.239,13.365 0.374,1.486 0.656,3.026 0.734,4.671 0.066,1.628 -0.011,3.431 -0.985,5.302 -0.285,0.452 -0.515,0.926 -0.932,1.318 l -0.59,0.598 c -0.216,0.173 -0.456,0.32 -0.69,0.473 -0.238,0.149 -0.478,0.306 -0.721,0.43 l -0.752,0.274 c -0.516,0.204 -1.009,0.293 -1.496,0.342 -1.953,0.228 -3.707,-0.061 -5.266,-0.509 -6.282,-1.833 -11.241,-5.229 -16.155,-8.628 -4.854,-3.469 -9.456,-7.201 -13.893,-11.095 -17.608,-15.733 -33.151,-33.435 -47.41,-52.071 -7.041,-9.389 -13.91,-18.93 -20.08,-28.953 -6.175,-10.012 -12.05,-20.258 -16.591,-31.297 -1.129,-2.765 -2.202,-5.56 -3.08,-8.47 -0.885,-2.908 -1.597,-5.906 -1.832,-9.152 -0.065,-1.646 -0.054,-3.35 0.45,-5.198 0.168,-0.473 0.346,-0.943 0.535,-1.403 0.255,-0.467 0.558,-0.928 0.859,-1.372 0.382,-0.414 0.792,-0.822 1.225,-1.18 0.468,-0.335 0.962,-0.608 1.478,-0.81 2.089,-0.772 3.98,-0.515 5.597,-0.149 1.643,0.379 3.094,1.004 4.487,1.681 2.765,1.375 5.265,3.025 7.666,4.77 2.405,1.741 4.687,3.605 6.89,5.55 4.431,3.857 8.555,8.007 12.524,12.285 -4.525,-3.684 -9.132,-7.248 -13.863,-10.577 -4.748,-3.258 -9.627,-6.481 -14.768,-8.494 -1.273,-0.48 -2.565,-0.88 -3.78,-1.073 -1.211,-0.206 -2.359,-0.138 -2.996,0.198 -0.61,0.316 -0.928,0.811 -1.153,1.811 -0.186,0.992 -0.141,2.228 0.005,3.48 0.83,5.142 3.037,10.494 5.438,15.593 2.417,5.141 5.259,10.124 8.138,15.084 2.899,4.953 5.971,9.821 9.16,14.616 6.426,9.561 13.069,19.004 20.153,28.121 7.07,9.126 14.28,18.156 21.907,26.812 7.609,8.664 15.389,17.196 23.733,25.085 4.127,3.99 8.38,7.836 12.827,11.372 2.227,1.755 4.501,3.437 6.837,4.959 2.316,1.525 4.737,2.923 7.134,3.764 1.197,0.463 2.383,0.668 3.322,0.637 C 2.236,21.02 2.743,20.79 3.212,20.126 3.688,19.447 3.919,18.237 3.971,16.981 4.032,15.716 3.922,14.356 3.708,12.994 3.013,8.645 1.597,4.295 0,0"
             style="fill:#2cace2;fill-opacity:1;fill-rule:nonzero;stroke:none"
             id="path969" /></g></g></g></g></svg>
