%TF.GenerationSoftware,KiCad,Pcbnew,5.1.6-c6e7f7d~86~ubuntu18.04.1*%
%TF.CreationDate,2021-04-18T13:50:28-04:00*%
%TF.ProjectId,avBadge_2021,61764261-6467-4655-9f32-3032312e6b69,rev?*%
%TF.SameCoordinates,Original*%
%TF.FileFunction,Soldermask,Top*%
%TF.FilePolarity,Negative*%
%FSLAX46Y46*%
G04 Gerber Fmt 4.6, Leading zero omitted, Abs format (unit mm)*
G04 Created by KiCad (PCBNEW 5.1.6-c6e7f7d~86~ubuntu18.04.1) date 2021-04-18 13:50:28*
%MOMM*%
%LPD*%
G01*
G04 APERTURE LIST*
%ADD10C,1.000000*%
%ADD11C,2.500000*%
%ADD12O,1.700000X1.700000*%
%ADD13R,1.700000X1.700000*%
%ADD14R,1.800000X1.100000*%
G04 APERTURE END LIST*
D10*
X143324200Y-99349560D02*
G75*
G03*
X143324200Y-99349560I-500000J0D01*
G01*
X143202280Y-111760000D02*
G75*
G03*
X143202280Y-111760000I-500000J0D01*
G01*
X171431840Y-101351080D02*
G75*
G03*
X171431840Y-101351080I-500000J0D01*
G01*
X178726720Y-101366320D02*
G75*
G03*
X178726720Y-101366320I-500000J0D01*
G01*
X173824520Y-101366320D02*
G75*
G03*
X173824520Y-101366320I-500000J0D01*
G01*
X176334040Y-101351080D02*
G75*
G03*
X176334040Y-101351080I-500000J0D01*
G01*
X184777000Y-101208840D02*
G75*
G03*
X184777000Y-101208840I-500000J0D01*
G01*
X192071880Y-101224080D02*
G75*
G03*
X192071880Y-101224080I-500000J0D01*
G01*
X187169680Y-101224080D02*
G75*
G03*
X187169680Y-101224080I-500000J0D01*
G01*
X189679200Y-101208840D02*
G75*
G03*
X189679200Y-101208840I-500000J0D01*
G01*
X194850640Y-134122160D02*
G75*
G03*
X194850640Y-134122160I-500000J0D01*
G01*
X192457960Y-134106920D02*
G75*
G03*
X192457960Y-134106920I-500000J0D01*
G01*
X189948440Y-134122160D02*
G75*
G03*
X189948440Y-134122160I-500000J0D01*
G01*
X187555760Y-134106920D02*
G75*
G03*
X187555760Y-134106920I-500000J0D01*
G01*
X175363760Y-134066280D02*
G75*
G03*
X175363760Y-134066280I-500000J0D01*
G01*
X172971080Y-134051040D02*
G75*
G03*
X172971080Y-134051040I-500000J0D01*
G01*
X170700320Y-134040880D02*
G75*
G03*
X170700320Y-134040880I-500000J0D01*
G01*
X168307640Y-134025640D02*
G75*
G03*
X168307640Y-134025640I-500000J0D01*
G01*
D11*
%TO.C,D3*%
X202501500Y-138811000D03*
%TD*%
%TO.C,D4*%
X163131500Y-138747500D03*
%TD*%
%TO.C,D9*%
X181622700Y-108940600D03*
%TD*%
%TO.C,D10*%
X181698900Y-117398800D03*
%TD*%
%TO.C,D11*%
X182092600Y-127546100D03*
%TD*%
D12*
%TO.C,J1*%
X163817300Y-84810600D03*
D13*
X166357300Y-84810600D03*
D12*
X163817300Y-82270600D03*
X166357300Y-82270600D03*
X163817300Y-79730600D03*
X166357300Y-79730600D03*
%TD*%
D14*
%TO.C,SW1*%
X100393100Y-135310800D03*
X106693100Y-135310800D03*
X100393100Y-139110800D03*
X106693100Y-139110800D03*
%TD*%
M02*
