%TF.GenerationSoftware,KiCad,Pcbnew,5.1.10-88a1d61d58~88~ubuntu20.04.1*%
%TF.CreationDate,2021-05-29T11:29:45-04:00*%
%TF.ProjectId,avBadge_2021,61764261-6467-4655-9f32-3032312e6b69,rev?*%
%TF.SameCoordinates,Original*%
%TF.FileFunction,Paste,Bot*%
%TF.FilePolarity,Positive*%
%FSLAX46Y46*%
G04 Gerber Fmt 4.6, Leading zero omitted, Abs format (unit mm)*
G04 Created by KiCad (PCBNEW 5.1.10-88a1d61d58~88~ubuntu20.04.1) date 2021-05-29 11:29:45*
%MOMM*%
%LPD*%
G01*
G04 APERTURE LIST*
%ADD10R,2.500000X1.200000*%
%ADD11R,0.550000X1.500000*%
%ADD12R,1.500000X0.550000*%
%ADD13R,1.080000X1.250000*%
%ADD14R,0.900000X0.800000*%
%ADD15R,1.400000X0.800000*%
%ADD16R,1.400000X2.600000*%
%ADD17R,2.600000X1.400000*%
G04 APERTURE END LIST*
D10*
%TO.C,SW1*%
X113223040Y-139391400D03*
X113223040Y-136891400D03*
X113223040Y-134391400D03*
X118723040Y-139391400D03*
X118723040Y-136891400D03*
X118723040Y-134391400D03*
%TD*%
D11*
%TO.C,U1*%
X112836040Y-92043360D03*
X113636040Y-92043360D03*
X114436040Y-92043360D03*
X115236040Y-92043360D03*
X116036040Y-92043360D03*
X116836040Y-92043360D03*
X117636040Y-92043360D03*
X118436040Y-92043360D03*
D12*
X119836040Y-90643360D03*
X119836040Y-89843360D03*
X119836040Y-89043360D03*
X119836040Y-88243360D03*
X119836040Y-87443360D03*
X119836040Y-86643360D03*
X119836040Y-85843360D03*
X119836040Y-85043360D03*
D11*
X118436040Y-83643360D03*
X117636040Y-83643360D03*
X116836040Y-83643360D03*
X116036040Y-83643360D03*
X115236040Y-83643360D03*
X114436040Y-83643360D03*
X113636040Y-83643360D03*
D12*
X111436040Y-85043360D03*
X111436040Y-85843360D03*
X111436040Y-86643360D03*
X111436040Y-87443360D03*
X111436040Y-88243360D03*
X111436040Y-89043360D03*
X111436040Y-89843360D03*
X111436040Y-90643360D03*
D11*
X112836040Y-83643360D03*
%TD*%
D13*
%TO.C,D5*%
X159043760Y-119969280D03*
X162163760Y-119969280D03*
%TD*%
%TO.C,C1*%
G36*
G01*
X108173681Y-86796580D02*
X106923679Y-86796580D01*
G75*
G02*
X106673680Y-86546581I0J249999D01*
G01*
X106673680Y-85921579D01*
G75*
G02*
X106923679Y-85671580I249999J0D01*
G01*
X108173681Y-85671580D01*
G75*
G02*
X108423680Y-85921579I0J-249999D01*
G01*
X108423680Y-86546581D01*
G75*
G02*
X108173681Y-86796580I-249999J0D01*
G01*
G37*
G36*
G01*
X108173681Y-89721580D02*
X106923679Y-89721580D01*
G75*
G02*
X106673680Y-89471581I0J249999D01*
G01*
X106673680Y-88846579D01*
G75*
G02*
X106923679Y-88596580I249999J0D01*
G01*
X108173681Y-88596580D01*
G75*
G02*
X108423680Y-88846579I0J-249999D01*
G01*
X108423680Y-89471581D01*
G75*
G02*
X108173681Y-89721580I-249999J0D01*
G01*
G37*
%TD*%
%TO.C,C2*%
G36*
G01*
X179151441Y-108863020D02*
X177901439Y-108863020D01*
G75*
G02*
X177651440Y-108613021I0J249999D01*
G01*
X177651440Y-107988019D01*
G75*
G02*
X177901439Y-107738020I249999J0D01*
G01*
X179151441Y-107738020D01*
G75*
G02*
X179401440Y-107988019I0J-249999D01*
G01*
X179401440Y-108613021D01*
G75*
G02*
X179151441Y-108863020I-249999J0D01*
G01*
G37*
G36*
G01*
X179151441Y-111788020D02*
X177901439Y-111788020D01*
G75*
G02*
X177651440Y-111538021I0J249999D01*
G01*
X177651440Y-110913019D01*
G75*
G02*
X177901439Y-110663020I249999J0D01*
G01*
X179151441Y-110663020D01*
G75*
G02*
X179401440Y-110913019I0J-249999D01*
G01*
X179401440Y-111538021D01*
G75*
G02*
X179151441Y-111788020I-249999J0D01*
G01*
G37*
%TD*%
%TO.C,D3*%
X198617400Y-125846840D03*
X201737400Y-125846840D03*
%TD*%
%TO.C,R2*%
G36*
G01*
X170839020Y-86263319D02*
X170839020Y-87513321D01*
G75*
G02*
X170589021Y-87763320I-249999J0D01*
G01*
X169964019Y-87763320D01*
G75*
G02*
X169714020Y-87513321I0J249999D01*
G01*
X169714020Y-86263319D01*
G75*
G02*
X169964019Y-86013320I249999J0D01*
G01*
X170589021Y-86013320D01*
G75*
G02*
X170839020Y-86263319I0J-249999D01*
G01*
G37*
G36*
G01*
X173764020Y-86263319D02*
X173764020Y-87513321D01*
G75*
G02*
X173514021Y-87763320I-249999J0D01*
G01*
X172889019Y-87763320D01*
G75*
G02*
X172639020Y-87513321I0J249999D01*
G01*
X172639020Y-86263319D01*
G75*
G02*
X172889019Y-86013320I249999J0D01*
G01*
X173514021Y-86013320D01*
G75*
G02*
X173764020Y-86263319I0J-249999D01*
G01*
G37*
%TD*%
%TO.C,R1*%
G36*
G01*
X170463100Y-79344359D02*
X170463100Y-80594361D01*
G75*
G02*
X170213101Y-80844360I-249999J0D01*
G01*
X169588099Y-80844360D01*
G75*
G02*
X169338100Y-80594361I0J249999D01*
G01*
X169338100Y-79344359D01*
G75*
G02*
X169588099Y-79094360I249999J0D01*
G01*
X170213101Y-79094360D01*
G75*
G02*
X170463100Y-79344359I0J-249999D01*
G01*
G37*
G36*
G01*
X173388100Y-79344359D02*
X173388100Y-80594361D01*
G75*
G02*
X173138101Y-80844360I-249999J0D01*
G01*
X172513099Y-80844360D01*
G75*
G02*
X172263100Y-80594361I0J249999D01*
G01*
X172263100Y-79344359D01*
G75*
G02*
X172513099Y-79094360I249999J0D01*
G01*
X173138101Y-79094360D01*
G75*
G02*
X173388100Y-79344359I0J-249999D01*
G01*
G37*
%TD*%
%TO.C,R4*%
G36*
G01*
X157919800Y-84912361D02*
X157919800Y-83662359D01*
G75*
G02*
X158169799Y-83412360I249999J0D01*
G01*
X158794801Y-83412360D01*
G75*
G02*
X159044800Y-83662359I0J-249999D01*
G01*
X159044800Y-84912361D01*
G75*
G02*
X158794801Y-85162360I-249999J0D01*
G01*
X158169799Y-85162360D01*
G75*
G02*
X157919800Y-84912361I0J249999D01*
G01*
G37*
G36*
G01*
X154994800Y-84912361D02*
X154994800Y-83662359D01*
G75*
G02*
X155244799Y-83412360I249999J0D01*
G01*
X155869801Y-83412360D01*
G75*
G02*
X156119800Y-83662359I0J-249999D01*
G01*
X156119800Y-84912361D01*
G75*
G02*
X155869801Y-85162360I-249999J0D01*
G01*
X155244799Y-85162360D01*
G75*
G02*
X154994800Y-84912361I0J249999D01*
G01*
G37*
%TD*%
%TO.C,R3*%
G36*
G01*
X158493840Y-78516641D02*
X158493840Y-77266639D01*
G75*
G02*
X158743839Y-77016640I249999J0D01*
G01*
X159368841Y-77016640D01*
G75*
G02*
X159618840Y-77266639I0J-249999D01*
G01*
X159618840Y-78516641D01*
G75*
G02*
X159368841Y-78766640I-249999J0D01*
G01*
X158743839Y-78766640D01*
G75*
G02*
X158493840Y-78516641I0J249999D01*
G01*
G37*
G36*
G01*
X155568840Y-78516641D02*
X155568840Y-77266639D01*
G75*
G02*
X155818839Y-77016640I249999J0D01*
G01*
X156443841Y-77016640D01*
G75*
G02*
X156693840Y-77266639I0J-249999D01*
G01*
X156693840Y-78516641D01*
G75*
G02*
X156443841Y-78766640I-249999J0D01*
G01*
X155818839Y-78766640D01*
G75*
G02*
X155568840Y-78516641I0J249999D01*
G01*
G37*
%TD*%
%TO.C,R6*%
G36*
G01*
X170767900Y-83337239D02*
X170767900Y-84587241D01*
G75*
G02*
X170517901Y-84837240I-249999J0D01*
G01*
X169892899Y-84837240D01*
G75*
G02*
X169642900Y-84587241I0J249999D01*
G01*
X169642900Y-83337239D01*
G75*
G02*
X169892899Y-83087240I249999J0D01*
G01*
X170517901Y-83087240D01*
G75*
G02*
X170767900Y-83337239I0J-249999D01*
G01*
G37*
G36*
G01*
X173692900Y-83337239D02*
X173692900Y-84587241D01*
G75*
G02*
X173442901Y-84837240I-249999J0D01*
G01*
X172817899Y-84837240D01*
G75*
G02*
X172567900Y-84587241I0J249999D01*
G01*
X172567900Y-83337239D01*
G75*
G02*
X172817899Y-83087240I249999J0D01*
G01*
X173442901Y-83087240D01*
G75*
G02*
X173692900Y-83337239I0J-249999D01*
G01*
G37*
%TD*%
%TO.C,R5*%
G36*
G01*
X170666300Y-76535119D02*
X170666300Y-77785121D01*
G75*
G02*
X170416301Y-78035120I-249999J0D01*
G01*
X169791299Y-78035120D01*
G75*
G02*
X169541300Y-77785121I0J249999D01*
G01*
X169541300Y-76535119D01*
G75*
G02*
X169791299Y-76285120I249999J0D01*
G01*
X170416301Y-76285120D01*
G75*
G02*
X170666300Y-76535119I0J-249999D01*
G01*
G37*
G36*
G01*
X173591300Y-76535119D02*
X173591300Y-77785121D01*
G75*
G02*
X173341301Y-78035120I-249999J0D01*
G01*
X172716299Y-78035120D01*
G75*
G02*
X172466300Y-77785121I0J249999D01*
G01*
X172466300Y-76535119D01*
G75*
G02*
X172716299Y-76285120I249999J0D01*
G01*
X173341301Y-76285120D01*
G75*
G02*
X173591300Y-76535119I0J-249999D01*
G01*
G37*
%TD*%
%TO.C,R8*%
G36*
G01*
X205223220Y-129870361D02*
X205223220Y-128620359D01*
G75*
G02*
X205473219Y-128370360I249999J0D01*
G01*
X206098221Y-128370360D01*
G75*
G02*
X206348220Y-128620359I0J-249999D01*
G01*
X206348220Y-129870361D01*
G75*
G02*
X206098221Y-130120360I-249999J0D01*
G01*
X205473219Y-130120360D01*
G75*
G02*
X205223220Y-129870361I0J249999D01*
G01*
G37*
G36*
G01*
X202298220Y-129870361D02*
X202298220Y-128620359D01*
G75*
G02*
X202548219Y-128370360I249999J0D01*
G01*
X203173221Y-128370360D01*
G75*
G02*
X203423220Y-128620359I0J-249999D01*
G01*
X203423220Y-129870361D01*
G75*
G02*
X203173221Y-130120360I-249999J0D01*
G01*
X202548219Y-130120360D01*
G75*
G02*
X202298220Y-129870361I0J249999D01*
G01*
G37*
%TD*%
%TO.C,R10*%
G36*
G01*
X168118900Y-117561521D02*
X168118900Y-116311519D01*
G75*
G02*
X168368899Y-116061520I249999J0D01*
G01*
X168993901Y-116061520D01*
G75*
G02*
X169243900Y-116311519I0J-249999D01*
G01*
X169243900Y-117561521D01*
G75*
G02*
X168993901Y-117811520I-249999J0D01*
G01*
X168368899Y-117811520D01*
G75*
G02*
X168118900Y-117561521I0J249999D01*
G01*
G37*
G36*
G01*
X165193900Y-117561521D02*
X165193900Y-116311519D01*
G75*
G02*
X165443899Y-116061520I249999J0D01*
G01*
X166068901Y-116061520D01*
G75*
G02*
X166318900Y-116311519I0J-249999D01*
G01*
X166318900Y-117561521D01*
G75*
G02*
X166068901Y-117811520I-249999J0D01*
G01*
X165443899Y-117811520D01*
G75*
G02*
X165193900Y-117561521I0J249999D01*
G01*
G37*
%TD*%
%TO.C,R9*%
G36*
G01*
X120436340Y-102940959D02*
X120436340Y-104190961D01*
G75*
G02*
X120186341Y-104440960I-249999J0D01*
G01*
X119561339Y-104440960D01*
G75*
G02*
X119311340Y-104190961I0J249999D01*
G01*
X119311340Y-102940959D01*
G75*
G02*
X119561339Y-102690960I249999J0D01*
G01*
X120186341Y-102690960D01*
G75*
G02*
X120436340Y-102940959I0J-249999D01*
G01*
G37*
G36*
G01*
X123361340Y-102940959D02*
X123361340Y-104190961D01*
G75*
G02*
X123111341Y-104440960I-249999J0D01*
G01*
X122486339Y-104440960D01*
G75*
G02*
X122236340Y-104190961I0J249999D01*
G01*
X122236340Y-102940959D01*
G75*
G02*
X122486339Y-102690960I249999J0D01*
G01*
X123111341Y-102690960D01*
G75*
G02*
X123361340Y-102940959I0J-249999D01*
G01*
G37*
%TD*%
%TO.C,R13*%
G36*
G01*
X170723399Y-112451180D02*
X171973401Y-112451180D01*
G75*
G02*
X172223400Y-112701179I0J-249999D01*
G01*
X172223400Y-113326181D01*
G75*
G02*
X171973401Y-113576180I-249999J0D01*
G01*
X170723399Y-113576180D01*
G75*
G02*
X170473400Y-113326181I0J249999D01*
G01*
X170473400Y-112701179D01*
G75*
G02*
X170723399Y-112451180I249999J0D01*
G01*
G37*
G36*
G01*
X170723399Y-109526180D02*
X171973401Y-109526180D01*
G75*
G02*
X172223400Y-109776179I0J-249999D01*
G01*
X172223400Y-110401181D01*
G75*
G02*
X171973401Y-110651180I-249999J0D01*
G01*
X170723399Y-110651180D01*
G75*
G02*
X170473400Y-110401181I0J249999D01*
G01*
X170473400Y-109776179D01*
G75*
G02*
X170723399Y-109526180I249999J0D01*
G01*
G37*
%TD*%
%TO.C,R14*%
G36*
G01*
X183266380Y-127396401D02*
X183266380Y-126146399D01*
G75*
G02*
X183516379Y-125896400I249999J0D01*
G01*
X184141381Y-125896400D01*
G75*
G02*
X184391380Y-126146399I0J-249999D01*
G01*
X184391380Y-127396401D01*
G75*
G02*
X184141381Y-127646400I-249999J0D01*
G01*
X183516379Y-127646400D01*
G75*
G02*
X183266380Y-127396401I0J249999D01*
G01*
G37*
G36*
G01*
X180341380Y-127396401D02*
X180341380Y-126146399D01*
G75*
G02*
X180591379Y-125896400I249999J0D01*
G01*
X181216381Y-125896400D01*
G75*
G02*
X181466380Y-126146399I0J-249999D01*
G01*
X181466380Y-127396401D01*
G75*
G02*
X181216381Y-127646400I-249999J0D01*
G01*
X180591379Y-127646400D01*
G75*
G02*
X180341380Y-127396401I0J249999D01*
G01*
G37*
%TD*%
%TO.C,R15*%
G36*
G01*
X167260380Y-128752761D02*
X167260380Y-127502759D01*
G75*
G02*
X167510379Y-127252760I249999J0D01*
G01*
X168135381Y-127252760D01*
G75*
G02*
X168385380Y-127502759I0J-249999D01*
G01*
X168385380Y-128752761D01*
G75*
G02*
X168135381Y-129002760I-249999J0D01*
G01*
X167510379Y-129002760D01*
G75*
G02*
X167260380Y-128752761I0J249999D01*
G01*
G37*
G36*
G01*
X164335380Y-128752761D02*
X164335380Y-127502759D01*
G75*
G02*
X164585379Y-127252760I249999J0D01*
G01*
X165210381Y-127252760D01*
G75*
G02*
X165460380Y-127502759I0J-249999D01*
G01*
X165460380Y-128752761D01*
G75*
G02*
X165210381Y-129002760I-249999J0D01*
G01*
X164585379Y-129002760D01*
G75*
G02*
X164335380Y-128752761I0J249999D01*
G01*
G37*
%TD*%
%TO.C,R16*%
G36*
G01*
X208967180Y-102458681D02*
X208967180Y-101208679D01*
G75*
G02*
X209217179Y-100958680I249999J0D01*
G01*
X209842181Y-100958680D01*
G75*
G02*
X210092180Y-101208679I0J-249999D01*
G01*
X210092180Y-102458681D01*
G75*
G02*
X209842181Y-102708680I-249999J0D01*
G01*
X209217179Y-102708680D01*
G75*
G02*
X208967180Y-102458681I0J249999D01*
G01*
G37*
G36*
G01*
X206042180Y-102458681D02*
X206042180Y-101208679D01*
G75*
G02*
X206292179Y-100958680I249999J0D01*
G01*
X206917181Y-100958680D01*
G75*
G02*
X207167180Y-101208679I0J-249999D01*
G01*
X207167180Y-102458681D01*
G75*
G02*
X206917181Y-102708680I-249999J0D01*
G01*
X206292179Y-102708680D01*
G75*
G02*
X206042180Y-102458681I0J249999D01*
G01*
G37*
%TD*%
%TO.C,R18*%
G36*
G01*
X186584700Y-105689561D02*
X186584700Y-104439559D01*
G75*
G02*
X186834699Y-104189560I249999J0D01*
G01*
X187459701Y-104189560D01*
G75*
G02*
X187709700Y-104439559I0J-249999D01*
G01*
X187709700Y-105689561D01*
G75*
G02*
X187459701Y-105939560I-249999J0D01*
G01*
X186834699Y-105939560D01*
G75*
G02*
X186584700Y-105689561I0J249999D01*
G01*
G37*
G36*
G01*
X183659700Y-105689561D02*
X183659700Y-104439559D01*
G75*
G02*
X183909699Y-104189560I249999J0D01*
G01*
X184534701Y-104189560D01*
G75*
G02*
X184784700Y-104439559I0J-249999D01*
G01*
X184784700Y-105689561D01*
G75*
G02*
X184534701Y-105939560I-249999J0D01*
G01*
X183909699Y-105939560D01*
G75*
G02*
X183659700Y-105689561I0J249999D01*
G01*
G37*
%TD*%
%TO.C,R19*%
G36*
G01*
X195408660Y-98110201D02*
X195408660Y-96860199D01*
G75*
G02*
X195658659Y-96610200I249999J0D01*
G01*
X196283661Y-96610200D01*
G75*
G02*
X196533660Y-96860199I0J-249999D01*
G01*
X196533660Y-98110201D01*
G75*
G02*
X196283661Y-98360200I-249999J0D01*
G01*
X195658659Y-98360200D01*
G75*
G02*
X195408660Y-98110201I0J249999D01*
G01*
G37*
G36*
G01*
X192483660Y-98110201D02*
X192483660Y-96860199D01*
G75*
G02*
X192733659Y-96610200I249999J0D01*
G01*
X193358661Y-96610200D01*
G75*
G02*
X193608660Y-96860199I0J-249999D01*
G01*
X193608660Y-98110201D01*
G75*
G02*
X193358661Y-98360200I-249999J0D01*
G01*
X192733659Y-98360200D01*
G75*
G02*
X192483660Y-98110201I0J249999D01*
G01*
G37*
%TD*%
%TO.C,R20*%
G36*
G01*
X184959100Y-120492681D02*
X184959100Y-119242679D01*
G75*
G02*
X185209099Y-118992680I249999J0D01*
G01*
X185834101Y-118992680D01*
G75*
G02*
X186084100Y-119242679I0J-249999D01*
G01*
X186084100Y-120492681D01*
G75*
G02*
X185834101Y-120742680I-249999J0D01*
G01*
X185209099Y-120742680D01*
G75*
G02*
X184959100Y-120492681I0J249999D01*
G01*
G37*
G36*
G01*
X182034100Y-120492681D02*
X182034100Y-119242679D01*
G75*
G02*
X182284099Y-118992680I249999J0D01*
G01*
X182909101Y-118992680D01*
G75*
G02*
X183159100Y-119242679I0J-249999D01*
G01*
X183159100Y-120492681D01*
G75*
G02*
X182909101Y-120742680I-249999J0D01*
G01*
X182284099Y-120742680D01*
G75*
G02*
X182034100Y-120492681I0J249999D01*
G01*
G37*
%TD*%
D14*
%TO.C,Q1*%
X176147480Y-111257120D03*
X174147480Y-110307120D03*
X174147480Y-112207120D03*
%TD*%
D15*
%TO.C,D2*%
X167624760Y-83843200D03*
X162424760Y-83843200D03*
X162424760Y-85293200D03*
X167624760Y-85293200D03*
%TD*%
D16*
%TO.C,D6*%
X186356640Y-126425960D03*
X191556640Y-126425960D03*
%TD*%
%TO.C,D7*%
X165020640Y-122600720D03*
X170220640Y-122600720D03*
%TD*%
%TO.C,D8*%
X199762760Y-95920560D03*
X204962760Y-95920560D03*
%TD*%
%TO.C,D10*%
X187956840Y-109844840D03*
X193156840Y-109844840D03*
%TD*%
%TO.C,D11*%
X193951240Y-102870000D03*
X199151240Y-102870000D03*
%TD*%
%TO.C,D12*%
X182688880Y-115890040D03*
X187888880Y-115890040D03*
%TD*%
%TO.C,R7*%
G36*
G01*
X120278860Y-107573919D02*
X120278860Y-108823921D01*
G75*
G02*
X120028861Y-109073920I-249999J0D01*
G01*
X119403859Y-109073920D01*
G75*
G02*
X119153860Y-108823921I0J249999D01*
G01*
X119153860Y-107573919D01*
G75*
G02*
X119403859Y-107323920I249999J0D01*
G01*
X120028861Y-107323920D01*
G75*
G02*
X120278860Y-107573919I0J-249999D01*
G01*
G37*
G36*
G01*
X123203860Y-107573919D02*
X123203860Y-108823921D01*
G75*
G02*
X122953861Y-109073920I-249999J0D01*
G01*
X122328859Y-109073920D01*
G75*
G02*
X122078860Y-108823921I0J249999D01*
G01*
X122078860Y-107573919D01*
G75*
G02*
X122328859Y-107323920I249999J0D01*
G01*
X122953861Y-107323920D01*
G75*
G02*
X123203860Y-107573919I0J-249999D01*
G01*
G37*
%TD*%
%TO.C,R11*%
G36*
G01*
X211349700Y-94808201D02*
X211349700Y-93558199D01*
G75*
G02*
X211599699Y-93308200I249999J0D01*
G01*
X212224701Y-93308200D01*
G75*
G02*
X212474700Y-93558199I0J-249999D01*
G01*
X212474700Y-94808201D01*
G75*
G02*
X212224701Y-95058200I-249999J0D01*
G01*
X211599699Y-95058200D01*
G75*
G02*
X211349700Y-94808201I0J249999D01*
G01*
G37*
G36*
G01*
X208424700Y-94808201D02*
X208424700Y-93558199D01*
G75*
G02*
X208674699Y-93308200I249999J0D01*
G01*
X209299701Y-93308200D01*
G75*
G02*
X209549700Y-93558199I0J-249999D01*
G01*
X209549700Y-94808201D01*
G75*
G02*
X209299701Y-95058200I-249999J0D01*
G01*
X208674699Y-95058200D01*
G75*
G02*
X208424700Y-94808201I0J249999D01*
G01*
G37*
%TD*%
%TO.C,R12*%
G36*
G01*
X120526700Y-98490879D02*
X120526700Y-99740881D01*
G75*
G02*
X120276701Y-99990880I-249999J0D01*
G01*
X119651699Y-99990880D01*
G75*
G02*
X119401700Y-99740881I0J249999D01*
G01*
X119401700Y-98490879D01*
G75*
G02*
X119651699Y-98240880I249999J0D01*
G01*
X120276701Y-98240880D01*
G75*
G02*
X120526700Y-98490879I0J-249999D01*
G01*
G37*
G36*
G01*
X123451700Y-98490879D02*
X123451700Y-99740881D01*
G75*
G02*
X123201701Y-99990880I-249999J0D01*
G01*
X122576699Y-99990880D01*
G75*
G02*
X122326700Y-99740881I0J249999D01*
G01*
X122326700Y-98490879D01*
G75*
G02*
X122576699Y-98240880I249999J0D01*
G01*
X123201701Y-98240880D01*
G75*
G02*
X123451700Y-98490879I0J-249999D01*
G01*
G37*
%TD*%
D15*
%TO.C,D1*%
X167553640Y-78653640D03*
X162353640Y-78653640D03*
X162353640Y-77203640D03*
X167553640Y-77203640D03*
%TD*%
D17*
%TO.C,D4*%
X206664560Y-87220440D03*
X206664560Y-92420440D03*
%TD*%
%TO.C,D9*%
X201437240Y-86087600D03*
X201437240Y-91287600D03*
%TD*%
%TO.C,R17*%
G36*
G01*
X194219940Y-91521441D02*
X194219940Y-90271439D01*
G75*
G02*
X194469939Y-90021440I249999J0D01*
G01*
X195094941Y-90021440D01*
G75*
G02*
X195344940Y-90271439I0J-249999D01*
G01*
X195344940Y-91521441D01*
G75*
G02*
X195094941Y-91771440I-249999J0D01*
G01*
X194469939Y-91771440D01*
G75*
G02*
X194219940Y-91521441I0J249999D01*
G01*
G37*
G36*
G01*
X197144940Y-91521441D02*
X197144940Y-90271439D01*
G75*
G02*
X197394939Y-90021440I249999J0D01*
G01*
X198019941Y-90021440D01*
G75*
G02*
X198269940Y-90271439I0J-249999D01*
G01*
X198269940Y-91521441D01*
G75*
G02*
X198019941Y-91771440I-249999J0D01*
G01*
X197394939Y-91771440D01*
G75*
G02*
X197144940Y-91521441I0J249999D01*
G01*
G37*
%TD*%
M02*
