M48
; DRILL file {KiCad 5.1.10-88a1d61d58~88~ubuntu20.04.1} date Fri May  7 16:03:40 2021
; FORMAT={-:-/ absolute / inch / decimal}
; #@! TF.CreationDate,2021-05-07T16:03:40-04:00
; #@! TF.GenerationSoftware,Kicad,Pcbnew,5.1.10-88a1d61d58~88~ubuntu20.04.1
; #@! TF.FileFunction,Plated,1,2,PTH
FMAT,2
INCH
T1C0.0157
T2C0.0315
T3C0.0354
%
G90
G05
T1
X4.1542Y-3.5
X4.1884Y-3.7362
X4.2532Y-3.6156
X4.3666Y-4.0802
X4.4114Y-4.151
X4.4622Y-3.718
X4.4654Y-3.811
X4.4784Y-4.7928
X4.5858Y-4.0506
X4.5858Y-4.1158
X4.6201Y-4.891
X4.7282Y-4.3014
X4.7822Y-4.3988
X4.7834Y-3.8242
X4.8434Y-3.8478
X4.8754Y-4.2464
X4.8786Y-3.5276
X4.9304Y-5.0344
X4.937Y-4.056
X4.956Y-4.1824
X4.9686Y-4.2544
X4.9902Y-4.0518
X5.0038Y-3.9102
X5.0551Y-3.8815
X5.059Y-4.2554
X5.1264Y-4.3958
X5.1568Y-4.0984
X5.3542Y-3.8516
X6.0002Y-3.3352
X6.1058Y-5.1008
T2
X4.4933Y-4.4768
X4.5918Y-4.4942
X4.6903Y-4.5116
T3
X3.7489Y-3.4229
X3.8196Y-3.3522
X3.8196Y-3.4936
X3.8903Y-3.4229
X3.8903Y-3.5643
X3.961Y-3.4936
T0
M30
