%TF.GenerationSoftware,KiCad,Pcbnew,5.1.10-88a1d61d58~88~ubuntu20.04.1*%
%TF.CreationDate,2021-05-07T16:03:34-04:00*%
%TF.ProjectId,avBadge_2021,61764261-6467-4655-9f32-3032312e6b69,rev?*%
%TF.SameCoordinates,Original*%
%TF.FileFunction,Copper,L1,Top*%
%TF.FilePolarity,Positive*%
%FSLAX46Y46*%
G04 Gerber Fmt 4.6, Leading zero omitted, Abs format (unit mm)*
G04 Created by KiCad (PCBNEW 5.1.10-88a1d61d58~88~ubuntu20.04.1) date 2021-05-07 16:03:34*
%MOMM*%
%LPD*%
G01*
G04 APERTURE LIST*
%TA.AperFunction,NonConductor*%
%ADD10C,0.150000*%
%TD*%
%TA.AperFunction,NonConductor*%
%ADD11C,0.100000*%
%TD*%
%TA.AperFunction,EtchedComponent*%
%ADD12C,0.100000*%
%TD*%
%TA.AperFunction,SMDPad,CuDef*%
%ADD13C,1.524000*%
%TD*%
%TA.AperFunction,ComponentPad*%
%ADD14C,1.200000*%
%TD*%
%TA.AperFunction,ComponentPad*%
%ADD15C,0.100000*%
%TD*%
%TA.AperFunction,ViaPad*%
%ADD16C,0.800000*%
%TD*%
%TA.AperFunction,Conductor*%
%ADD17C,0.254000*%
%TD*%
%TA.AperFunction,Conductor*%
%ADD18C,0.100000*%
%TD*%
G04 APERTURE END LIST*
D10*
X206222600Y-81808320D02*
X206664560Y-83073240D01*
X204510640Y-81772760D02*
X203972160Y-82834480D01*
D11*
G36*
X206034640Y-79700120D02*
G01*
X206430880Y-80055720D01*
X206451200Y-80426560D01*
X203916280Y-80396080D01*
X203845160Y-80401160D01*
X204129640Y-79903320D01*
X205044040Y-79532480D01*
X206034640Y-79700120D01*
G37*
X206034640Y-79700120D02*
X206430880Y-80055720D01*
X206451200Y-80426560D01*
X203916280Y-80396080D01*
X203845160Y-80401160D01*
X204129640Y-79903320D01*
X205044040Y-79532480D01*
X206034640Y-79700120D01*
G36*
X207147160Y-81051400D02*
G01*
X206913480Y-81549240D01*
X206471520Y-81828640D01*
X205587600Y-81991200D01*
X204576680Y-81909920D01*
X203875640Y-81564480D01*
X203347320Y-81041240D01*
X203032360Y-80457040D01*
X204881480Y-80431640D01*
X205130400Y-80406240D01*
X207264000Y-80375760D01*
X207147160Y-81051400D01*
G37*
X207147160Y-81051400D02*
X206913480Y-81549240D01*
X206471520Y-81828640D01*
X205587600Y-81991200D01*
X204576680Y-81909920D01*
X203875640Y-81564480D01*
X203347320Y-81041240D01*
X203032360Y-80457040D01*
X204881480Y-80431640D01*
X205130400Y-80406240D01*
X207264000Y-80375760D01*
X207147160Y-81051400D01*
D12*
%TO.C,S1*%
G36*
X99811332Y-112584802D02*
G01*
X103652479Y-111866773D01*
X103741358Y-114941072D01*
X99904657Y-115799553D01*
X99811332Y-112584802D01*
G37*
G36*
X113398612Y-118795102D02*
G01*
X115885357Y-119766506D01*
X114883105Y-122808661D01*
X114144387Y-125437985D01*
X111925506Y-123890278D01*
X111938262Y-123674232D01*
X113398612Y-118795102D01*
G37*
G36*
X116656022Y-120272688D02*
G01*
X120138555Y-121855127D01*
X118198352Y-128183603D01*
X114954981Y-125979873D01*
X116656022Y-120272688D01*
G37*
G36*
X123832128Y-123149701D02*
G01*
X129053976Y-125366695D01*
X126703548Y-133802258D01*
X121735366Y-130211846D01*
X123832128Y-123149701D01*
G37*
G36*
X116709156Y-130894918D02*
G01*
X118554709Y-132277670D01*
X115957347Y-134903662D01*
X114079647Y-133167162D01*
X116709156Y-130894918D01*
G37*
G36*
X178581039Y-72896334D02*
G01*
X165298644Y-77781307D01*
X166191613Y-78620016D01*
X165298644Y-79459241D01*
X164405159Y-78620016D01*
X165298644Y-77781307D01*
X178581039Y-72896334D01*
X153487480Y-72963513D01*
X163189730Y-83202165D01*
X167412728Y-83273995D01*
X167088201Y-86542529D01*
X163728715Y-86304301D01*
X163189730Y-83202165D01*
X153487480Y-72963513D01*
X155912656Y-90631169D01*
X175340410Y-90597062D01*
X178581039Y-72896334D01*
G37*
G36*
X156865569Y-91763399D02*
G01*
X163608308Y-122602350D01*
X165442823Y-122859697D01*
X188907539Y-112321324D01*
X189093057Y-112468602D01*
X191153915Y-110354002D01*
X191069166Y-110219643D01*
X198217049Y-101810336D01*
X198252707Y-101875966D01*
X200283072Y-97525327D01*
X199920820Y-97526914D01*
X200015390Y-97269565D01*
X200377642Y-97267977D01*
X206192789Y-97220431D01*
X206112174Y-97482430D01*
X205750440Y-97503623D01*
X205831054Y-97241625D01*
X206192789Y-97220431D01*
X200377642Y-97267977D01*
X200283072Y-97525327D01*
X198252707Y-101875966D01*
X197724056Y-102560678D01*
X197688398Y-102495048D01*
X198217049Y-101810336D01*
X191069166Y-110219643D01*
X192325419Y-108818177D01*
X193495374Y-107739175D01*
X193410107Y-107604814D01*
X194666362Y-106203350D01*
X195763970Y-104996705D01*
X195679219Y-104862347D01*
X196935474Y-103460881D01*
X199614896Y-100429542D01*
X199650554Y-100495171D01*
X200761079Y-97524811D01*
X200398827Y-97526398D01*
X200493397Y-97269049D01*
X200855649Y-97267977D01*
X200853064Y-97522268D01*
X200947631Y-97264921D01*
X205729769Y-97245752D01*
X205649153Y-97507750D01*
X205287936Y-97528944D01*
X205368033Y-97266945D01*
X205729769Y-97245752D01*
X200947631Y-97264921D01*
X201309883Y-97263850D01*
X201773422Y-97263850D01*
X201678852Y-97521199D01*
X201316601Y-97522787D01*
X201411171Y-97265437D01*
X201773422Y-97263850D01*
X201309883Y-97263850D01*
X201215315Y-97520681D01*
X200853064Y-97522268D01*
X200855649Y-97267977D01*
X200761079Y-97524811D01*
X199650554Y-100495171D01*
X199121903Y-101179884D01*
X201054086Y-98836874D01*
X201089742Y-98903020D01*
X200561093Y-99587733D01*
X200525436Y-99522105D01*
X201054086Y-98836874D01*
X199121903Y-101179884D01*
X199086248Y-101114254D01*
X199614896Y-100429542D01*
X196935474Y-103460881D01*
X197020222Y-103595241D01*
X195763970Y-104996705D01*
X194666362Y-106203350D01*
X194751111Y-106337709D01*
X193495374Y-107739175D01*
X192325419Y-108818177D01*
X192410167Y-108952535D01*
X191153915Y-110354002D01*
X189093057Y-112468602D01*
X187458017Y-114526356D01*
X204718978Y-97563051D01*
X204357243Y-97584244D01*
X204437858Y-97322243D01*
X204799076Y-97301050D01*
X205276566Y-97274698D01*
X205195951Y-97536696D01*
X204834217Y-97557889D01*
X204914831Y-97295888D01*
X205276566Y-97274698D01*
X204799076Y-97301050D01*
X204718978Y-97563051D01*
X187458017Y-114526356D01*
X187273015Y-114379079D01*
X188907539Y-112321324D01*
X165442823Y-122859697D01*
X164717801Y-123905113D01*
X162882771Y-123647764D01*
X163608308Y-122602350D01*
X156865569Y-91763399D01*
X156865569Y-133999065D01*
X166027799Y-122947546D01*
X167862314Y-123204896D01*
X183686670Y-119184470D01*
X183871672Y-119331232D01*
X182237147Y-121389502D01*
X182051627Y-121242225D01*
X183686670Y-119184470D01*
X167862314Y-123204896D01*
X167137292Y-124250828D01*
X165302779Y-123993479D01*
X166027799Y-122947546D01*
X156865569Y-133999065D01*
X213657450Y-133999065D01*
X169439479Y-124562952D01*
X167604964Y-124305605D01*
X168330502Y-123260191D01*
X170165014Y-123517022D01*
X170676612Y-123598154D01*
X172511125Y-123855504D01*
X185246783Y-125899307D01*
X187085428Y-126125131D01*
X187671956Y-126203162D01*
X189510604Y-126428989D01*
X188803153Y-127487323D01*
X186964505Y-127261496D01*
X187671956Y-126203162D01*
X187085428Y-126125131D01*
X186377980Y-127183465D01*
X184539332Y-126957640D01*
X185246783Y-125899307D01*
X172511125Y-123855504D01*
X171785587Y-124901433D01*
X169951075Y-124644084D01*
X170676612Y-123598154D01*
X170165014Y-123517022D01*
X169439479Y-124562952D01*
X213657450Y-133999065D01*
X213657450Y-91763399D01*
X186277210Y-115696312D01*
X186462212Y-115843590D01*
X189979308Y-126476014D01*
X191817956Y-126701841D01*
X192331105Y-126773670D01*
X194169750Y-126999497D01*
X193462301Y-128057831D01*
X191623654Y-127832003D01*
X192331105Y-126773670D01*
X191817956Y-126701841D01*
X191111023Y-127759656D01*
X189272376Y-127534347D01*
X189979308Y-126476014D01*
X186462212Y-115843590D01*
X184827685Y-117901344D01*
X184642167Y-117754067D01*
X186277210Y-115696312D01*
X213657450Y-91763399D01*
X156865569Y-91763399D01*
G37*
G36*
X141330680Y-130868420D02*
G01*
X138054080Y-141970760D01*
X130228340Y-136255760D01*
X132930900Y-126972060D01*
X141330680Y-130868420D01*
G37*
X141330680Y-130868420D02*
X138054080Y-141970760D01*
X130228340Y-136255760D01*
X132930900Y-126972060D01*
X141330680Y-130868420D01*
%TD*%
D13*
%TO.P,S1,3*%
%TO.N,Net-(R12-Pad2)*%
X125128020Y-128120140D03*
%TO.P,S1,2*%
%TO.N,Net-(R9-Pad2)*%
X117350540Y-124231400D03*
%TO.P,S1,1*%
%TO.N,Net-(R7-Pad2)*%
X113682780Y-122092720D03*
%TO.P,S1,4*%
%TO.N,VCC*%
X116301520Y-132816600D03*
X101650800Y-114018060D03*
%TD*%
D14*
%TO.P,P1,1*%
%TO.N,Net-(P1-Pad1)*%
X114130308Y-113711614D03*
%TO.P,P1,2*%
%TO.N,Net-(P1-Pad2)*%
X116631720Y-114152680D03*
%TA.AperFunction,ComponentPad*%
D15*
%TO.P,P1,3*%
%TO.N,GND*%
G36*
X118438058Y-115080442D02*
G01*
X118646436Y-113898672D01*
X119828206Y-114107050D01*
X119619828Y-115288820D01*
X118438058Y-115080442D01*
G37*
%TD.AperFunction*%
%TD*%
%TO.P,J1,6*%
%TO.N,GND*%
%TA.AperFunction,ComponentPad*%
G36*
G01*
X100044258Y-89303125D02*
X100044258Y-89303125D01*
G75*
G02*
X100044258Y-88171755I565685J565685D01*
G01*
X100044258Y-88171755D01*
G75*
G02*
X101175628Y-88171755I565685J-565685D01*
G01*
X101175628Y-88171755D01*
G75*
G02*
X101175628Y-89303125I-565685J-565685D01*
G01*
X101175628Y-89303125D01*
G75*
G02*
X100044258Y-89303125I-565685J565685D01*
G01*
G37*
%TD.AperFunction*%
%TO.P,J1,5*%
%TO.N,Net-(J1-Pad5)*%
%TA.AperFunction,ComponentPad*%
G36*
G01*
X98248206Y-91099176D02*
X98248206Y-91099176D01*
G75*
G02*
X98248206Y-89967806I565685J565685D01*
G01*
X98248206Y-89967806D01*
G75*
G02*
X99379576Y-89967806I565685J-565685D01*
G01*
X99379576Y-89967806D01*
G75*
G02*
X99379576Y-91099176I-565685J-565685D01*
G01*
X99379576Y-91099176D01*
G75*
G02*
X98248206Y-91099176I-565685J565685D01*
G01*
G37*
%TD.AperFunction*%
%TO.P,J1,4*%
%TO.N,Net-(J1-Pad4)*%
%TA.AperFunction,ComponentPad*%
G36*
G01*
X98248206Y-87507074D02*
X98248206Y-87507074D01*
G75*
G02*
X98248206Y-86375704I565685J565685D01*
G01*
X98248206Y-86375704D01*
G75*
G02*
X99379576Y-86375704I565685J-565685D01*
G01*
X99379576Y-86375704D01*
G75*
G02*
X99379576Y-87507074I-565685J-565685D01*
G01*
X99379576Y-87507074D01*
G75*
G02*
X98248206Y-87507074I-565685J565685D01*
G01*
G37*
%TD.AperFunction*%
%TO.P,J1,3*%
%TO.N,Net-(J1-Pad3)*%
%TA.AperFunction,ComponentPad*%
G36*
G01*
X96452155Y-89303125D02*
X96452155Y-89303125D01*
G75*
G02*
X96452155Y-88171755I565685J565685D01*
G01*
X96452155Y-88171755D01*
G75*
G02*
X97583525Y-88171755I565685J-565685D01*
G01*
X97583525Y-88171755D01*
G75*
G02*
X97583525Y-89303125I-565685J-565685D01*
G01*
X97583525Y-89303125D01*
G75*
G02*
X96452155Y-89303125I-565685J565685D01*
G01*
G37*
%TD.AperFunction*%
%TA.AperFunction,ComponentPad*%
%TO.P,J1,2*%
%TO.N,VCC*%
G36*
X97017840Y-86276709D02*
G01*
X95886469Y-85145338D01*
X97017840Y-84013967D01*
X98149211Y-85145338D01*
X97017840Y-86276709D01*
G37*
%TD.AperFunction*%
%TO.P,J1,1*%
%TO.N,Net-(J1-Pad1)*%
%TA.AperFunction,ComponentPad*%
G36*
G01*
X94656104Y-87507074D02*
X94656104Y-87507074D01*
G75*
G02*
X94656104Y-86375704I565685J565685D01*
G01*
X94656104Y-86375704D01*
G75*
G02*
X95787474Y-86375704I565685J-565685D01*
G01*
X95787474Y-86375704D01*
G75*
G02*
X95787474Y-87507074I-565685J-565685D01*
G01*
X95787474Y-87507074D01*
G75*
G02*
X94656104Y-87507074I-565685J565685D01*
G01*
G37*
%TD.AperFunction*%
%TD*%
D16*
%TO.N,GND*%
X116479320Y-102885240D03*
X116479320Y-104540881D03*
X113421160Y-96799400D03*
X113339880Y-94437200D03*
X108031280Y-91836240D03*
X105515680Y-88901000D03*
%TO.N,VCC*%
X110911640Y-103637080D03*
X155087320Y-129560320D03*
%TO.N,Net-(J1-Pad1)*%
X127097440Y-99318160D03*
%TO.N,Net-(J1-Pad3)*%
X128400599Y-98591159D03*
%TO.N,Net-(J1-Pad4)*%
X106385360Y-94899480D03*
%TO.N,Net-(J1-Pad5)*%
X123835160Y-107858560D03*
%TO.N,Net-(R2-Pad1)*%
X121497440Y-97135600D03*
X123916440Y-89601040D03*
%TO.N,Net-(R3-Pad1)*%
X112049560Y-105435400D03*
X126202440Y-108061878D03*
X128497440Y-108086882D03*
%TO.N,Net-(R4-Pad1)*%
X126751080Y-102915720D03*
X152405080Y-84714080D03*
%TO.N,Net-(D4-Pad2)*%
X123022360Y-97734120D03*
X135996680Y-97830640D03*
%TO.N,Net-(R6-Pad1)*%
X125882400Y-106232960D03*
X130982720Y-104099360D03*
%TO.N,Net-(R7-Pad2)*%
X113751360Y-121737120D03*
%TO.N,Net-(R9-Pad2)*%
X121467880Y-111729520D03*
X117350540Y-124231400D03*
%TO.N,Net-(R12-Pad2)*%
X125232160Y-127873760D03*
X120097440Y-109254400D03*
%TO.N,Net-(R13-Pad2)*%
X130210560Y-111652760D03*
X125399800Y-103022400D03*
%TD*%
D17*
%TO.N,GND*%
X116479320Y-102885240D02*
X116479320Y-104531160D01*
X116479320Y-104531160D02*
X116479320Y-104540881D01*
X113421160Y-96799400D02*
X113421160Y-94437200D01*
X113421160Y-94437200D02*
X113339880Y-94437200D01*
X108031280Y-91416600D02*
X108031280Y-91836240D01*
X105515680Y-88901000D02*
X108031280Y-91416600D01*
%TO.N,VCC*%
X116301520Y-132816600D02*
X103657400Y-132816600D01*
X101650800Y-130810000D02*
X101650800Y-114018060D01*
X103657400Y-132816600D02*
X101650800Y-130810000D01*
X101650800Y-114018060D02*
X101650800Y-112897920D01*
X101650800Y-112897920D02*
X110911640Y-103637080D01*
X155087320Y-129560320D02*
X141838680Y-142808960D01*
X126293880Y-142808960D02*
X116301520Y-132816600D01*
X141838680Y-142808960D02*
X126293880Y-142808960D01*
%TO.N,Net-(J1-Pad1)*%
X96889751Y-86941389D02*
X95221789Y-86941389D01*
X109266522Y-99318160D02*
X96889751Y-86941389D01*
X127097440Y-99318160D02*
X109266522Y-99318160D01*
%TO.N,Net-(J1-Pad3)*%
X96882387Y-83686957D02*
X98551037Y-83686957D01*
X94094788Y-87482350D02*
X94094788Y-86474556D01*
X94094788Y-86474556D02*
X96882387Y-83686957D01*
X95349878Y-88737440D02*
X94094788Y-87482350D01*
X97017840Y-88737440D02*
X95349878Y-88737440D01*
X113455239Y-98591159D02*
X128400599Y-98591159D01*
X98551037Y-83686957D02*
X113455239Y-98591159D01*
%TO.N,Net-(J1-Pad4)*%
X106385360Y-94899480D02*
X106385360Y-92745560D01*
X106385360Y-92745560D02*
X106380280Y-92745560D01*
X100581189Y-86941389D02*
X98813891Y-86941389D01*
X106385360Y-92745560D02*
X100581189Y-86941389D01*
%TO.N,Net-(J1-Pad5)*%
X98813891Y-90533491D02*
X108122720Y-99842320D01*
X108122720Y-99842320D02*
X123479560Y-99842320D01*
X123479560Y-99842320D02*
X123835160Y-100197920D01*
X123835160Y-100197920D02*
X123835160Y-107858560D01*
%TO.N,Net-(R2-Pad1)*%
X121497440Y-97135600D02*
X121497440Y-91979400D01*
X123875800Y-89601040D02*
X123916440Y-89601040D01*
X121497440Y-91979400D02*
X123875800Y-89601040D01*
%TO.N,Net-(R3-Pad1)*%
X123486199Y-108585561D02*
X125673559Y-108585561D01*
X120336038Y-105435400D02*
X123486199Y-108585561D01*
X112049560Y-105435400D02*
X120336038Y-105435400D01*
X126197242Y-108061878D02*
X126202440Y-108061878D01*
X125673559Y-108585561D02*
X126197242Y-108061878D01*
%TO.N,Net-(R4-Pad1)*%
X126751080Y-102915720D02*
X134203440Y-102915720D01*
X134203440Y-102915720D02*
X152405080Y-84714080D01*
%TO.N,Net-(D4-Pad2)*%
X123022360Y-97734120D02*
X135900160Y-97734120D01*
X135900160Y-97734120D02*
X135996680Y-97830640D01*
%TO.N,Net-(R6-Pad1)*%
X130559521Y-112379761D02*
X130982720Y-111956562D01*
X129861599Y-112379761D02*
X130559521Y-112379761D01*
X129483559Y-112001721D02*
X129861599Y-112379761D01*
X129483559Y-110148963D02*
X129483559Y-112001721D01*
X125882400Y-106547804D02*
X129483559Y-110148963D01*
X125882400Y-106232960D02*
X125882400Y-106547804D01*
X130982720Y-111956562D02*
X130982720Y-104099360D01*
%TO.N,Net-(R9-Pad2)*%
X121467880Y-120114060D02*
X117350540Y-124231400D01*
X121467880Y-111729520D02*
X121467880Y-120114060D01*
%TO.N,Net-(R12-Pad2)*%
X125128020Y-114284980D02*
X125128020Y-128120140D01*
X120097440Y-109254400D02*
X125128020Y-114284980D01*
%TO.N,Net-(R13-Pad2)*%
X130210560Y-111652760D02*
X130210560Y-107767120D01*
X125465840Y-103022400D02*
X125399800Y-103022400D01*
X130210560Y-107767120D02*
X125465840Y-103022400D01*
%TD*%
%TO.N,GND*%
X214340000Y-90962615D02*
X195773822Y-91128399D01*
X176085473Y-91128399D01*
X178034118Y-80461667D01*
X202347376Y-80461667D01*
X202350337Y-80489901D01*
X202350104Y-80518296D01*
X202357292Y-80556226D01*
X202361319Y-80594626D01*
X202369711Y-80621757D01*
X202374996Y-80649646D01*
X202389412Y-80685451D01*
X202400823Y-80722345D01*
X202414324Y-80747328D01*
X202424926Y-80773661D01*
X202429406Y-80782111D01*
X202585320Y-81071306D01*
X202585320Y-84292440D01*
X202587098Y-84313615D01*
X202593635Y-84337637D01*
X202604733Y-84359923D01*
X202619965Y-84379616D01*
X202638747Y-84395958D01*
X202660356Y-84408323D01*
X202683962Y-84416234D01*
X202708658Y-84419387D01*
X207991858Y-84571787D01*
X208018641Y-84569718D01*
X208042559Y-84562807D01*
X208064670Y-84551364D01*
X208084123Y-84535827D01*
X208100171Y-84516793D01*
X208112197Y-84494994D01*
X208119740Y-84471268D01*
X208122509Y-84446526D01*
X208198709Y-78706126D01*
X208196811Y-78682503D01*
X208190128Y-78658520D01*
X208178894Y-78636303D01*
X208163542Y-78616703D01*
X208144661Y-78600475D01*
X208122977Y-78588243D01*
X208099323Y-78580476D01*
X208074608Y-78577473D01*
X202938728Y-78460633D01*
X202909230Y-78463419D01*
X202885515Y-78470997D01*
X202863733Y-78483055D01*
X202844723Y-78499131D01*
X202829215Y-78518607D01*
X202605695Y-78864047D01*
X202594987Y-78884439D01*
X202587760Y-78908264D01*
X202585320Y-78933040D01*
X202585320Y-79940285D01*
X202572636Y-79952850D01*
X202543056Y-79977659D01*
X202525264Y-79999778D01*
X202505088Y-80019764D01*
X202483456Y-80051750D01*
X202459261Y-80081829D01*
X202446103Y-80106984D01*
X202430196Y-80130506D01*
X202415189Y-80166085D01*
X202397298Y-80200290D01*
X202389276Y-80227524D01*
X202378241Y-80253686D01*
X202370433Y-80291491D01*
X202359522Y-80328531D01*
X202356942Y-80356810D01*
X202351200Y-80384612D01*
X202350883Y-80423221D01*
X202347376Y-80461667D01*
X178034118Y-80461667D01*
X179415403Y-72900625D01*
X196525033Y-72900625D01*
X196525033Y-73524015D01*
X196646650Y-74135425D01*
X196885210Y-74711362D01*
X197231547Y-75229691D01*
X197672349Y-75670493D01*
X198190678Y-76016830D01*
X198766615Y-76255390D01*
X199378025Y-76377007D01*
X200001415Y-76377007D01*
X200612825Y-76255390D01*
X201188762Y-76016830D01*
X201707091Y-75670493D01*
X202147893Y-75229691D01*
X202494230Y-74711362D01*
X202732790Y-74135425D01*
X202854407Y-73524015D01*
X202854407Y-72900625D01*
X202732790Y-72289215D01*
X202494230Y-71713278D01*
X202147893Y-71194949D01*
X201707091Y-70754147D01*
X201188762Y-70407810D01*
X200612825Y-70169250D01*
X200001415Y-70047633D01*
X199378025Y-70047633D01*
X198766615Y-70169250D01*
X198190678Y-70407810D01*
X197672349Y-70754147D01*
X197231547Y-71194949D01*
X196885210Y-71713278D01*
X196646650Y-72289215D01*
X196525033Y-72900625D01*
X179415403Y-72900625D01*
X179469252Y-72605863D01*
X179471315Y-72581926D01*
X179468658Y-72557172D01*
X179461222Y-72533412D01*
X179449294Y-72511559D01*
X179433331Y-72492453D01*
X179413948Y-72476828D01*
X179391890Y-72465285D01*
X179368003Y-72458268D01*
X179343206Y-72456045D01*
X179039901Y-72458706D01*
X179033538Y-72450835D01*
X179028960Y-72447015D01*
X179025125Y-72442448D01*
X178991583Y-72415504D01*
X178959709Y-72386595D01*
X178948464Y-72379837D01*
X178938389Y-72371428D01*
X178933152Y-72368567D01*
X178928507Y-72364836D01*
X178890380Y-72344925D01*
X178853489Y-72322752D01*
X178841146Y-72318306D01*
X178829629Y-72312015D01*
X178823933Y-72310225D01*
X178818654Y-72307468D01*
X178777380Y-72295340D01*
X178736891Y-72280757D01*
X178723919Y-72278793D01*
X178711400Y-72274859D01*
X178705472Y-72274210D01*
X178699751Y-72272529D01*
X178656907Y-72268649D01*
X178614357Y-72262208D01*
X178601242Y-72262802D01*
X178588205Y-72261375D01*
X178579339Y-72261336D01*
X153485780Y-72328515D01*
X153445737Y-72332549D01*
X153405519Y-72333824D01*
X153394450Y-72336383D01*
X153383121Y-72337147D01*
X153372956Y-72339882D01*
X153362474Y-72340938D01*
X153323968Y-72352676D01*
X153284774Y-72361737D01*
X153274420Y-72366394D01*
X153263447Y-72369346D01*
X153254004Y-72374005D01*
X153243929Y-72377076D01*
X153208449Y-72396063D01*
X153171748Y-72412569D01*
X153162488Y-72419154D01*
X153152306Y-72424177D01*
X153143947Y-72430582D01*
X153134661Y-72435551D01*
X153103541Y-72461071D01*
X153070749Y-72484389D01*
X153062951Y-72492640D01*
X153053932Y-72499550D01*
X153046976Y-72507456D01*
X153038832Y-72514135D01*
X153038771Y-72514209D01*
X153018354Y-72523208D01*
X152997969Y-72537501D01*
X152980764Y-72555496D01*
X152967400Y-72576502D01*
X152958392Y-72599711D01*
X152954923Y-72619459D01*
X152941046Y-72645289D01*
X152919613Y-72679344D01*
X152915547Y-72689945D01*
X152909842Y-72699770D01*
X152906422Y-72709735D01*
X152901440Y-72719009D01*
X152889645Y-72757478D01*
X152875232Y-72795055D01*
X152873301Y-72806252D01*
X152869616Y-72816991D01*
X152868198Y-72827425D01*
X152865110Y-72837495D01*
X152861011Y-72877525D01*
X152854172Y-72917183D01*
X152854453Y-72928539D01*
X152852923Y-72939792D01*
X152853558Y-72950300D01*
X152852485Y-72960780D01*
X152856241Y-73000852D01*
X152857235Y-73041075D01*
X152858379Y-73049867D01*
X154096773Y-82071698D01*
X155210163Y-91257162D01*
X155218907Y-91290481D01*
X155230643Y-91312437D01*
X155246437Y-91331683D01*
X155265683Y-91347477D01*
X155287639Y-91359213D01*
X155311464Y-91366440D01*
X155336240Y-91368880D01*
X156371632Y-91368880D01*
X156341622Y-91404645D01*
X156340549Y-91406597D01*
X156339130Y-91408312D01*
X156337189Y-91411901D01*
X156334629Y-91415078D01*
X156308761Y-91464418D01*
X156299713Y-91480877D01*
X155756746Y-91485725D01*
X155732040Y-91488377D01*
X155708278Y-91495807D01*
X155686423Y-91507730D01*
X155667313Y-91523688D01*
X155651684Y-91543067D01*
X155640136Y-91565124D01*
X155633113Y-91589009D01*
X155630885Y-91613805D01*
X155950254Y-128988841D01*
X155891257Y-128900546D01*
X155747094Y-128756383D01*
X155577576Y-128643115D01*
X155389218Y-128565094D01*
X155189259Y-128525320D01*
X154985381Y-128525320D01*
X154785422Y-128565094D01*
X154597064Y-128643115D01*
X154427546Y-128756383D01*
X154283383Y-128900546D01*
X154170115Y-129070064D01*
X154092094Y-129258422D01*
X154052320Y-129458381D01*
X154052320Y-129517689D01*
X141523050Y-142046960D01*
X138745801Y-142046960D01*
X139173417Y-140598036D01*
X142654365Y-130760926D01*
X142658578Y-130746277D01*
X142661604Y-130721566D01*
X142659751Y-130696738D01*
X142653090Y-130672750D01*
X142641877Y-130650521D01*
X142626543Y-130630908D01*
X142607677Y-130614663D01*
X142586004Y-130602410D01*
X138279308Y-128697888D01*
X133219146Y-126350659D01*
X133172599Y-126334372D01*
X133126948Y-126315714D01*
X133109621Y-126312336D01*
X133092958Y-126306506D01*
X133044129Y-126299570D01*
X132995730Y-126290135D01*
X132978079Y-126290187D01*
X132960599Y-126287704D01*
X132911350Y-126290384D01*
X132862041Y-126290530D01*
X132844736Y-126294010D01*
X132843559Y-126294074D01*
X132166924Y-125994850D01*
X132146348Y-125987788D01*
X132121719Y-125984149D01*
X132096853Y-125985385D01*
X132072706Y-125991449D01*
X132050206Y-126002106D01*
X132030218Y-126016948D01*
X132013509Y-126035405D01*
X132000722Y-126056766D01*
X131992348Y-126080212D01*
X129426948Y-136346892D01*
X129423504Y-136368338D01*
X129424115Y-136393227D01*
X129429570Y-136417518D01*
X129439659Y-136440278D01*
X129453995Y-136460633D01*
X129472026Y-136477800D01*
X129644435Y-136612348D01*
X129671282Y-136648950D01*
X129701831Y-136693953D01*
X129710751Y-136702759D01*
X129718167Y-136712869D01*
X129758260Y-136749659D01*
X129796971Y-136787874D01*
X129807431Y-136794779D01*
X129816670Y-136803257D01*
X129824354Y-136808951D01*
X130945559Y-137627747D01*
X136608302Y-142046960D01*
X126609511Y-142046960D01*
X118267392Y-133704842D01*
X119665781Y-132627651D01*
X119691225Y-132601413D01*
X119703756Y-132579901D01*
X119711850Y-132556357D01*
X119715195Y-132531686D01*
X119713663Y-132506837D01*
X119707312Y-132482764D01*
X119696387Y-132460393D01*
X119681308Y-132440583D01*
X119662653Y-132424095D01*
X119146350Y-132051087D01*
X119141313Y-132034522D01*
X119121879Y-131998146D01*
X119104867Y-131960571D01*
X119092737Y-131943602D01*
X119082913Y-131925214D01*
X119056784Y-131893306D01*
X119032798Y-131859751D01*
X119017611Y-131845468D01*
X119004396Y-131829331D01*
X118972555Y-131803096D01*
X118942518Y-131774849D01*
X118935460Y-131769483D01*
X117089907Y-130386731D01*
X117044108Y-130358948D01*
X116999104Y-130329980D01*
X116991211Y-130326860D01*
X116983948Y-130322454D01*
X116933628Y-130304098D01*
X116883851Y-130284421D01*
X116875500Y-130282893D01*
X116867523Y-130279983D01*
X116814612Y-130271752D01*
X116761945Y-130262116D01*
X116753455Y-130262239D01*
X116745065Y-130260934D01*
X116691577Y-130263137D01*
X116671939Y-130263422D01*
X116111733Y-129858695D01*
X116093644Y-129847793D01*
X116070352Y-129839000D01*
X116045792Y-129834920D01*
X116020908Y-129835710D01*
X115996657Y-129841339D01*
X115973969Y-129851592D01*
X115953718Y-129866073D01*
X115936681Y-129884227D01*
X115923513Y-129905356D01*
X115713142Y-130330879D01*
X113458015Y-132054600D01*
X103973031Y-132054600D01*
X102412800Y-130494370D01*
X102412800Y-124005649D01*
X111165660Y-124005649D01*
X111167664Y-124030465D01*
X111174472Y-124054412D01*
X111185820Y-124076572D01*
X111201274Y-124096091D01*
X111220239Y-124112221D01*
X111389170Y-124229441D01*
X111418510Y-124267673D01*
X111449340Y-124310386D01*
X111456183Y-124316763D01*
X111461880Y-124324186D01*
X111501465Y-124358957D01*
X111540008Y-124394873D01*
X111547962Y-124399801D01*
X111554990Y-124405974D01*
X111562226Y-124411097D01*
X113781107Y-125958804D01*
X113817846Y-125979418D01*
X113853215Y-126002293D01*
X113871770Y-126009674D01*
X113889187Y-126019447D01*
X113929228Y-126032532D01*
X113968368Y-126048102D01*
X113988004Y-126051739D01*
X114006987Y-126057942D01*
X114027970Y-126060480D01*
X114438267Y-126345181D01*
X114443362Y-126351655D01*
X114464318Y-126382954D01*
X114481591Y-126400225D01*
X114496706Y-126419429D01*
X114525320Y-126443949D01*
X114551955Y-126470581D01*
X114572256Y-126484169D01*
X114590811Y-126500070D01*
X114598109Y-126505104D01*
X117841480Y-128708834D01*
X117856226Y-128716872D01*
X126770119Y-134902141D01*
X126797870Y-134916692D01*
X126821923Y-134923119D01*
X126846767Y-134924729D01*
X126871448Y-134921461D01*
X126895018Y-134913442D01*
X126916569Y-134900978D01*
X126935276Y-134884549D01*
X126950417Y-134864786D01*
X126961412Y-134842450D01*
X127207716Y-134186595D01*
X127215609Y-134177784D01*
X127240129Y-134136413D01*
X127266444Y-134096153D01*
X127271673Y-134083189D01*
X127278796Y-134071172D01*
X127294814Y-134025826D01*
X127312807Y-133981222D01*
X127315247Y-133972698D01*
X127393459Y-133691999D01*
X130456452Y-125535890D01*
X130461858Y-125517296D01*
X130464553Y-125492546D01*
X130462368Y-125467746D01*
X130455386Y-125443848D01*
X130443877Y-125421772D01*
X130428281Y-125402366D01*
X130409200Y-125386374D01*
X130387365Y-125374413D01*
X129595093Y-125036657D01*
X129588958Y-125024615D01*
X129562120Y-124990505D01*
X129537334Y-124954883D01*
X129523885Y-124941910D01*
X129512326Y-124927218D01*
X129479367Y-124898964D01*
X129448140Y-124868841D01*
X129432429Y-124858728D01*
X129418235Y-124846560D01*
X129380414Y-124825245D01*
X129343933Y-124801762D01*
X129326557Y-124794893D01*
X129310270Y-124785714D01*
X129302133Y-124782193D01*
X125890020Y-123333542D01*
X125890020Y-114322402D01*
X125893706Y-114284979D01*
X125885671Y-114203400D01*
X125878994Y-114135602D01*
X125835422Y-113991965D01*
X125764665Y-113859588D01*
X125669442Y-113743558D01*
X125640373Y-113719702D01*
X121132440Y-109211770D01*
X121132440Y-109152461D01*
X121092666Y-108952502D01*
X121014645Y-108764144D01*
X120901377Y-108594626D01*
X120757214Y-108450463D01*
X120587696Y-108337195D01*
X120399338Y-108259174D01*
X120199379Y-108219400D01*
X119995501Y-108219400D01*
X119795542Y-108259174D01*
X119607184Y-108337195D01*
X119437666Y-108450463D01*
X119293503Y-108594626D01*
X119180235Y-108764144D01*
X119102214Y-108952502D01*
X119062440Y-109152461D01*
X119062440Y-109356339D01*
X119102214Y-109556298D01*
X119180235Y-109744656D01*
X119293503Y-109914174D01*
X119437666Y-110058337D01*
X119607184Y-110171605D01*
X119795542Y-110249626D01*
X119995501Y-110289400D01*
X120054810Y-110289400D01*
X120749549Y-110984140D01*
X120663943Y-111069746D01*
X120550675Y-111239264D01*
X120472654Y-111427622D01*
X120432880Y-111627581D01*
X120432880Y-111831459D01*
X120472654Y-112031418D01*
X120550675Y-112219776D01*
X120663943Y-112389294D01*
X120705880Y-112431231D01*
X120705881Y-119798428D01*
X119690224Y-120814085D01*
X116414969Y-119417801D01*
X116410162Y-119409008D01*
X116397695Y-119394077D01*
X116387341Y-119377614D01*
X116358067Y-119346620D01*
X116330729Y-119313881D01*
X116315594Y-119301653D01*
X116302244Y-119287518D01*
X116267510Y-119262802D01*
X116234332Y-119235995D01*
X116217115Y-119226942D01*
X116201269Y-119215666D01*
X116162379Y-119198160D01*
X116124642Y-119178316D01*
X116116406Y-119175032D01*
X113629661Y-118203628D01*
X113606824Y-118197192D01*
X113584933Y-118188052D01*
X113547328Y-118180427D01*
X113510376Y-118170014D01*
X113486715Y-118168136D01*
X113480843Y-118166946D01*
X112394005Y-117703613D01*
X112365479Y-117695235D01*
X112340644Y-117693490D01*
X112315945Y-117696623D01*
X112292333Y-117704514D01*
X112270713Y-117716861D01*
X112251918Y-117733187D01*
X112236669Y-117752867D01*
X112225552Y-117775144D01*
X112218995Y-117799161D01*
X111167435Y-123986601D01*
X111165660Y-124005649D01*
X102412800Y-124005649D01*
X102412800Y-116137102D01*
X104257161Y-115909403D01*
X104289119Y-115901135D01*
X104311182Y-115889602D01*
X104330572Y-115873985D01*
X104346543Y-115854887D01*
X104358480Y-115833039D01*
X104365926Y-115809282D01*
X104368595Y-115784529D01*
X104388798Y-113589977D01*
X112895308Y-113589977D01*
X112895308Y-113833251D01*
X112942768Y-114071850D01*
X113035865Y-114296606D01*
X113171021Y-114498881D01*
X113343041Y-114670901D01*
X113545316Y-114806057D01*
X113770072Y-114899154D01*
X114008671Y-114946614D01*
X114251945Y-114946614D01*
X114490544Y-114899154D01*
X114715300Y-114806057D01*
X114917575Y-114670901D01*
X115089595Y-114498881D01*
X115224751Y-114296606D01*
X115317848Y-114071850D01*
X115325964Y-114031043D01*
X115396720Y-114031043D01*
X115396720Y-114274317D01*
X115444180Y-114512916D01*
X115537277Y-114737672D01*
X115672433Y-114939947D01*
X115844453Y-115111967D01*
X116046728Y-115247123D01*
X116271484Y-115340220D01*
X116510083Y-115387680D01*
X116753357Y-115387680D01*
X116991956Y-115340220D01*
X117216712Y-115247123D01*
X117418987Y-115111967D01*
X117436593Y-115094361D01*
X117800138Y-115094361D01*
X117815111Y-115218546D01*
X117854024Y-115337423D01*
X117915381Y-115446425D01*
X117996823Y-115541361D01*
X118095222Y-115618586D01*
X118206796Y-115675130D01*
X118327258Y-115708820D01*
X118637268Y-115760364D01*
X118758181Y-115675699D01*
X119071314Y-115675699D01*
X119200085Y-115859604D01*
X119509028Y-115917198D01*
X119633747Y-115926740D01*
X119757932Y-115911767D01*
X119876809Y-115872854D01*
X119985811Y-115811497D01*
X120080747Y-115730055D01*
X120157972Y-115631656D01*
X120214516Y-115520082D01*
X120248206Y-115399620D01*
X120299750Y-115089610D01*
X120170978Y-114905705D01*
X119236149Y-114740870D01*
X119071314Y-115675699D01*
X118758181Y-115675699D01*
X118821173Y-115631592D01*
X118986008Y-114696763D01*
X118051179Y-114531928D01*
X117867274Y-114660699D01*
X117809680Y-114969642D01*
X117800138Y-115094361D01*
X117436593Y-115094361D01*
X117591007Y-114939947D01*
X117726163Y-114737672D01*
X117819260Y-114512916D01*
X117823673Y-114490729D01*
X119280256Y-114490729D01*
X120215085Y-114655564D01*
X120398990Y-114526793D01*
X120456584Y-114217850D01*
X120466126Y-114093131D01*
X120451153Y-113968946D01*
X120412240Y-113850069D01*
X120350883Y-113741067D01*
X120269441Y-113646131D01*
X120171042Y-113568906D01*
X120059468Y-113512362D01*
X119939006Y-113478672D01*
X119628996Y-113427128D01*
X119445091Y-113555900D01*
X119280256Y-114490729D01*
X117823673Y-114490729D01*
X117866720Y-114274317D01*
X117866720Y-114097882D01*
X117966514Y-114097882D01*
X118095286Y-114281787D01*
X119030115Y-114446622D01*
X119194950Y-113511793D01*
X119066179Y-113327888D01*
X118757236Y-113270294D01*
X118632517Y-113260752D01*
X118508332Y-113275725D01*
X118389455Y-113314638D01*
X118280453Y-113375995D01*
X118185517Y-113457437D01*
X118108292Y-113555836D01*
X118051748Y-113667410D01*
X118018058Y-113787872D01*
X117966514Y-114097882D01*
X117866720Y-114097882D01*
X117866720Y-114031043D01*
X117819260Y-113792444D01*
X117726163Y-113567688D01*
X117591007Y-113365413D01*
X117418987Y-113193393D01*
X117216712Y-113058237D01*
X116991956Y-112965140D01*
X116753357Y-112917680D01*
X116510083Y-112917680D01*
X116271484Y-112965140D01*
X116046728Y-113058237D01*
X115844453Y-113193393D01*
X115672433Y-113365413D01*
X115537277Y-113567688D01*
X115444180Y-113792444D01*
X115396720Y-114031043D01*
X115325964Y-114031043D01*
X115365308Y-113833251D01*
X115365308Y-113589977D01*
X115317848Y-113351378D01*
X115224751Y-113126622D01*
X115089595Y-112924347D01*
X114917575Y-112752327D01*
X114715300Y-112617171D01*
X114490544Y-112524074D01*
X114251945Y-112476614D01*
X114008671Y-112476614D01*
X113770072Y-112524074D01*
X113545316Y-112617171D01*
X113343041Y-112752327D01*
X113171021Y-112924347D01*
X113035865Y-113126622D01*
X112942768Y-113351378D01*
X112895308Y-113589977D01*
X104388798Y-113589977D01*
X104409235Y-111370009D01*
X104407976Y-111350969D01*
X104402074Y-111326782D01*
X104391566Y-111304212D01*
X104376857Y-111284125D01*
X104358796Y-111267554D01*
X110954270Y-104672080D01*
X111013579Y-104672080D01*
X111213538Y-104632306D01*
X111401896Y-104554285D01*
X111571414Y-104441017D01*
X111715577Y-104296854D01*
X111828845Y-104127336D01*
X111906866Y-103938978D01*
X111946640Y-103739019D01*
X111946640Y-103535141D01*
X111906866Y-103335182D01*
X111828845Y-103146824D01*
X111715577Y-102977306D01*
X111571414Y-102833143D01*
X111401896Y-102719875D01*
X111213538Y-102641854D01*
X111013579Y-102602080D01*
X110809701Y-102602080D01*
X110609742Y-102641854D01*
X110421384Y-102719875D01*
X110251866Y-102833143D01*
X110107703Y-102977306D01*
X109994435Y-103146824D01*
X109916414Y-103335182D01*
X109876640Y-103535141D01*
X109876640Y-103594450D01*
X101927948Y-111543142D01*
X101212704Y-111676843D01*
X99260569Y-111954304D01*
X99229149Y-111962996D01*
X99207262Y-111974861D01*
X99188110Y-111990768D01*
X99172430Y-112010106D01*
X99160823Y-112032131D01*
X99153737Y-112055998D01*
X99151442Y-112080788D01*
X99176842Y-116393708D01*
X99177797Y-116408521D01*
X99183255Y-116432812D01*
X99193346Y-116455571D01*
X99207684Y-116475924D01*
X99225717Y-116493089D01*
X99246753Y-116506406D01*
X99269982Y-116515364D01*
X99294512Y-116519617D01*
X99319401Y-116519003D01*
X100888801Y-116325250D01*
X100888800Y-130772577D01*
X100885114Y-130810000D01*
X100888800Y-130847423D01*
X100888800Y-130847425D01*
X100899826Y-130959377D01*
X100943398Y-131103014D01*
X100943399Y-131103015D01*
X101014155Y-131235392D01*
X101047258Y-131275728D01*
X101109378Y-131351422D01*
X101138454Y-131375284D01*
X103092120Y-133328951D01*
X103115978Y-133358022D01*
X103145048Y-133381879D01*
X103232007Y-133453245D01*
X103290519Y-133484520D01*
X103364385Y-133524002D01*
X103508022Y-133567574D01*
X103619974Y-133578600D01*
X103619977Y-133578600D01*
X103657400Y-133582286D01*
X103694823Y-133578600D01*
X113596029Y-133578600D01*
X113596295Y-133578983D01*
X113620264Y-133602104D01*
X113642038Y-133627296D01*
X113648505Y-133633361D01*
X115526205Y-135369861D01*
X115565382Y-135399558D01*
X115603308Y-135430806D01*
X115614672Y-135436921D01*
X115624968Y-135444726D01*
X115669170Y-135466249D01*
X115712440Y-135489534D01*
X115724783Y-135493328D01*
X115736391Y-135498980D01*
X115783924Y-135511506D01*
X115830901Y-135525945D01*
X115843741Y-135527269D01*
X115856231Y-135530560D01*
X115905300Y-135533615D01*
X115954178Y-135538654D01*
X115967031Y-135537458D01*
X115979922Y-135538261D01*
X116028649Y-135531727D01*
X116077575Y-135527176D01*
X116089952Y-135523507D01*
X116102753Y-135521790D01*
X116149276Y-135505918D01*
X116196394Y-135491949D01*
X116207825Y-135485944D01*
X116220045Y-135481775D01*
X116262590Y-135457174D01*
X116306107Y-135434314D01*
X116316155Y-135426202D01*
X116327331Y-135419740D01*
X116364290Y-135387342D01*
X116402535Y-135356467D01*
X116408814Y-135350207D01*
X117079459Y-134672169D01*
X125728601Y-143321312D01*
X125743938Y-143340000D01*
X88660000Y-143340000D01*
X88660000Y-86474556D01*
X93329102Y-86474556D01*
X93332789Y-86511989D01*
X93332788Y-87444926D01*
X93329102Y-87482350D01*
X93332788Y-87519773D01*
X93332788Y-87519775D01*
X93343814Y-87631727D01*
X93387386Y-87775364D01*
X93420323Y-87836985D01*
X93458143Y-87907742D01*
X93497771Y-87956028D01*
X93553366Y-88023772D01*
X93582442Y-88047634D01*
X94784599Y-89249792D01*
X94808456Y-89278862D01*
X94924486Y-89374085D01*
X95056863Y-89444842D01*
X95200500Y-89488414D01*
X95312452Y-89499440D01*
X95312454Y-89499440D01*
X95349877Y-89503126D01*
X95387300Y-89499440D01*
X95801133Y-89499440D01*
X95903203Y-89652199D01*
X96103081Y-89852077D01*
X96338113Y-90009120D01*
X96599266Y-90117293D01*
X96876505Y-90172440D01*
X97159175Y-90172440D01*
X97433448Y-90117883D01*
X97378891Y-90392156D01*
X97378891Y-90674826D01*
X97434038Y-90952065D01*
X97542211Y-91213218D01*
X97699254Y-91448250D01*
X97899132Y-91648128D01*
X98134164Y-91805171D01*
X98395317Y-91913344D01*
X98672556Y-91968491D01*
X98955226Y-91968491D01*
X99135418Y-91932648D01*
X107557440Y-100354671D01*
X107581298Y-100383742D01*
X107697328Y-100478965D01*
X107767607Y-100516530D01*
X107817803Y-100543360D01*
X107829705Y-100549722D01*
X107973342Y-100593294D01*
X108085294Y-100604320D01*
X108085296Y-100604320D01*
X108122719Y-100608006D01*
X108160142Y-100604320D01*
X123073160Y-100604320D01*
X123073161Y-107094892D01*
X120901322Y-104923054D01*
X120877460Y-104893978D01*
X120761430Y-104798755D01*
X120629053Y-104727998D01*
X120485416Y-104684426D01*
X120373464Y-104673400D01*
X120373461Y-104673400D01*
X120336038Y-104669714D01*
X120298615Y-104673400D01*
X112751271Y-104673400D01*
X112709334Y-104631463D01*
X112539816Y-104518195D01*
X112351458Y-104440174D01*
X112151499Y-104400400D01*
X111947621Y-104400400D01*
X111747662Y-104440174D01*
X111559304Y-104518195D01*
X111389786Y-104631463D01*
X111245623Y-104775626D01*
X111132355Y-104945144D01*
X111054334Y-105133502D01*
X111014560Y-105333461D01*
X111014560Y-105537339D01*
X111054334Y-105737298D01*
X111132355Y-105925656D01*
X111245623Y-106095174D01*
X111389786Y-106239337D01*
X111559304Y-106352605D01*
X111747662Y-106430626D01*
X111947621Y-106470400D01*
X112151499Y-106470400D01*
X112351458Y-106430626D01*
X112539816Y-106352605D01*
X112709334Y-106239337D01*
X112751271Y-106197400D01*
X120020408Y-106197400D01*
X122920920Y-109097913D01*
X122944777Y-109126983D01*
X123060807Y-109222206D01*
X123193184Y-109292963D01*
X123336821Y-109336535D01*
X123448773Y-109347561D01*
X123448775Y-109347561D01*
X123486198Y-109351247D01*
X123523621Y-109347561D01*
X125636136Y-109347561D01*
X125673559Y-109351247D01*
X125710982Y-109347561D01*
X125710985Y-109347561D01*
X125822937Y-109336535D01*
X125966574Y-109292963D01*
X126098951Y-109222206D01*
X126214981Y-109126983D01*
X126238843Y-109097907D01*
X126239872Y-109096878D01*
X126304379Y-109096878D01*
X126504338Y-109057104D01*
X126692696Y-108979083D01*
X126862214Y-108865815D01*
X126992497Y-108735532D01*
X128721559Y-110464594D01*
X128721560Y-111964288D01*
X128717873Y-112001721D01*
X128732586Y-112151099D01*
X128776158Y-112294736D01*
X128846914Y-112427113D01*
X128904272Y-112497003D01*
X128942138Y-112543143D01*
X128971208Y-112567000D01*
X129296315Y-112892107D01*
X129320177Y-112921183D01*
X129436207Y-113016406D01*
X129568584Y-113087163D01*
X129712221Y-113130735D01*
X129824173Y-113141761D01*
X129824175Y-113141761D01*
X129861598Y-113145447D01*
X129899021Y-113141761D01*
X130522098Y-113141761D01*
X130559521Y-113145447D01*
X130596944Y-113141761D01*
X130596947Y-113141761D01*
X130708899Y-113130735D01*
X130852536Y-113087163D01*
X130984913Y-113016406D01*
X131100943Y-112921183D01*
X131124805Y-112892107D01*
X131495067Y-112521845D01*
X131524142Y-112497984D01*
X131619365Y-112381954D01*
X131690122Y-112249577D01*
X131733694Y-112105940D01*
X131744720Y-111993988D01*
X131744720Y-111993985D01*
X131748406Y-111956562D01*
X131744720Y-111919139D01*
X131744720Y-104801071D01*
X131786657Y-104759134D01*
X131899925Y-104589616D01*
X131977946Y-104401258D01*
X132017720Y-104201299D01*
X132017720Y-103997421D01*
X131977946Y-103797462D01*
X131928347Y-103677720D01*
X134166017Y-103677720D01*
X134203440Y-103681406D01*
X134240863Y-103677720D01*
X134240866Y-103677720D01*
X134352818Y-103666694D01*
X134496455Y-103623122D01*
X134628832Y-103552365D01*
X134744862Y-103457142D01*
X134768724Y-103428066D01*
X152447711Y-85749080D01*
X152507019Y-85749080D01*
X152706978Y-85709306D01*
X152895336Y-85631285D01*
X153064854Y-85518017D01*
X153209017Y-85373854D01*
X153322285Y-85204336D01*
X153400306Y-85015978D01*
X153440080Y-84816019D01*
X153440080Y-84612141D01*
X153400306Y-84412182D01*
X153322285Y-84223824D01*
X153209017Y-84054306D01*
X153064854Y-83910143D01*
X152895336Y-83796875D01*
X152706978Y-83718854D01*
X152507019Y-83679080D01*
X152303141Y-83679080D01*
X152103182Y-83718854D01*
X151914824Y-83796875D01*
X151745306Y-83910143D01*
X151601143Y-84054306D01*
X151487875Y-84223824D01*
X151409854Y-84412182D01*
X151370080Y-84612141D01*
X151370080Y-84671449D01*
X133887810Y-102153720D01*
X127452791Y-102153720D01*
X127410854Y-102111783D01*
X127241336Y-101998515D01*
X127052978Y-101920494D01*
X126853019Y-101880720D01*
X126649141Y-101880720D01*
X126449182Y-101920494D01*
X126260824Y-101998515D01*
X126091306Y-102111783D01*
X126014646Y-102188443D01*
X125890056Y-102105195D01*
X125701698Y-102027174D01*
X125501739Y-101987400D01*
X125297861Y-101987400D01*
X125097902Y-102027174D01*
X124909544Y-102105195D01*
X124740026Y-102218463D01*
X124597160Y-102361329D01*
X124597160Y-100235342D01*
X124600846Y-100197919D01*
X124596511Y-100153905D01*
X124589248Y-100080160D01*
X126395729Y-100080160D01*
X126437666Y-100122097D01*
X126607184Y-100235365D01*
X126795542Y-100313386D01*
X126995501Y-100353160D01*
X127199379Y-100353160D01*
X127399338Y-100313386D01*
X127587696Y-100235365D01*
X127757214Y-100122097D01*
X127901377Y-99977934D01*
X128014645Y-99808416D01*
X128092666Y-99620058D01*
X128099339Y-99586512D01*
X128298660Y-99626159D01*
X128502538Y-99626159D01*
X128702497Y-99586385D01*
X128890855Y-99508364D01*
X129060373Y-99395096D01*
X129204536Y-99250933D01*
X129317804Y-99081415D01*
X129395825Y-98893057D01*
X129435599Y-98693098D01*
X129435599Y-98496120D01*
X135198449Y-98496120D01*
X135336906Y-98634577D01*
X135506424Y-98747845D01*
X135694782Y-98825866D01*
X135894741Y-98865640D01*
X136098619Y-98865640D01*
X136298578Y-98825866D01*
X136486936Y-98747845D01*
X136656454Y-98634577D01*
X136800617Y-98490414D01*
X136913885Y-98320896D01*
X136991906Y-98132538D01*
X137031680Y-97932579D01*
X137031680Y-97728701D01*
X136991906Y-97528742D01*
X136913885Y-97340384D01*
X136800617Y-97170866D01*
X136656454Y-97026703D01*
X136486936Y-96913435D01*
X136298578Y-96835414D01*
X136098619Y-96795640D01*
X135894741Y-96795640D01*
X135694782Y-96835414D01*
X135506424Y-96913435D01*
X135418595Y-96972120D01*
X123724071Y-96972120D01*
X123682134Y-96930183D01*
X123512616Y-96816915D01*
X123324258Y-96738894D01*
X123124299Y-96699120D01*
X122920421Y-96699120D01*
X122720462Y-96738894D01*
X122532104Y-96816915D01*
X122494345Y-96842144D01*
X122492666Y-96833702D01*
X122414645Y-96645344D01*
X122301377Y-96475826D01*
X122259440Y-96433889D01*
X122259440Y-92295030D01*
X123918431Y-90636040D01*
X124018379Y-90636040D01*
X124218338Y-90596266D01*
X124406696Y-90518245D01*
X124576214Y-90404977D01*
X124720377Y-90260814D01*
X124833645Y-90091296D01*
X124911666Y-89902938D01*
X124951440Y-89702979D01*
X124951440Y-89499101D01*
X124911666Y-89299142D01*
X124833645Y-89110784D01*
X124720377Y-88941266D01*
X124576214Y-88797103D01*
X124406696Y-88683835D01*
X124218338Y-88605814D01*
X124018379Y-88566040D01*
X123814501Y-88566040D01*
X123614542Y-88605814D01*
X123426184Y-88683835D01*
X123256666Y-88797103D01*
X123112503Y-88941266D01*
X122999235Y-89110784D01*
X122921214Y-89299142D01*
X122881440Y-89499101D01*
X122881440Y-89517769D01*
X120985089Y-91414121D01*
X120956019Y-91437978D01*
X120932162Y-91467048D01*
X120932161Y-91467049D01*
X120860795Y-91554008D01*
X120790039Y-91686385D01*
X120746467Y-91830022D01*
X120731754Y-91979400D01*
X120735441Y-92016833D01*
X120735440Y-96433889D01*
X120693503Y-96475826D01*
X120580235Y-96645344D01*
X120502214Y-96833702D01*
X120462440Y-97033661D01*
X120462440Y-97237539D01*
X120502214Y-97437498D01*
X120580235Y-97625856D01*
X120693503Y-97795374D01*
X120727288Y-97829159D01*
X113770869Y-97829159D01*
X99116321Y-83174611D01*
X99092459Y-83145535D01*
X98976429Y-83050312D01*
X98844052Y-82979555D01*
X98700415Y-82935983D01*
X98588463Y-82924957D01*
X98588460Y-82924957D01*
X98551037Y-82921271D01*
X98513614Y-82924957D01*
X96919809Y-82924957D01*
X96882386Y-82921271D01*
X96844963Y-82924957D01*
X96844961Y-82924957D01*
X96733009Y-82935983D01*
X96589372Y-82979555D01*
X96456995Y-83050312D01*
X96340965Y-83145535D01*
X96317108Y-83174605D01*
X93582437Y-85909277D01*
X93553367Y-85933134D01*
X93529510Y-85962204D01*
X93529509Y-85962205D01*
X93458143Y-86049164D01*
X93387387Y-86181541D01*
X93343815Y-86325178D01*
X93329102Y-86474556D01*
X88660000Y-86474556D01*
X88660000Y-72302465D01*
X98369273Y-72302465D01*
X98369273Y-72925855D01*
X98490890Y-73537265D01*
X98729450Y-74113202D01*
X99075787Y-74631531D01*
X99516589Y-75072333D01*
X100034918Y-75418670D01*
X100610855Y-75657230D01*
X101222265Y-75778847D01*
X101845655Y-75778847D01*
X102457065Y-75657230D01*
X103033002Y-75418670D01*
X103551331Y-75072333D01*
X103992133Y-74631531D01*
X104338470Y-74113202D01*
X104577030Y-73537265D01*
X104698647Y-72925855D01*
X104698647Y-72302465D01*
X104577030Y-71691055D01*
X104338470Y-71115118D01*
X103992133Y-70596789D01*
X103551331Y-70155987D01*
X103033002Y-69809650D01*
X102457065Y-69571090D01*
X101845655Y-69449473D01*
X101222265Y-69449473D01*
X100610855Y-69571090D01*
X100034918Y-69809650D01*
X99516589Y-70155987D01*
X99075787Y-70596789D01*
X98729450Y-71115118D01*
X98490890Y-71691055D01*
X98369273Y-72302465D01*
X88660000Y-72302465D01*
X88660000Y-66660000D01*
X214340000Y-66660000D01*
X214340000Y-90962615D01*
%TA.AperFunction,Conductor*%
D18*
G36*
X214340000Y-90962615D02*
G01*
X195773822Y-91128399D01*
X176085473Y-91128399D01*
X178034118Y-80461667D01*
X202347376Y-80461667D01*
X202350337Y-80489901D01*
X202350104Y-80518296D01*
X202357292Y-80556226D01*
X202361319Y-80594626D01*
X202369711Y-80621757D01*
X202374996Y-80649646D01*
X202389412Y-80685451D01*
X202400823Y-80722345D01*
X202414324Y-80747328D01*
X202424926Y-80773661D01*
X202429406Y-80782111D01*
X202585320Y-81071306D01*
X202585320Y-84292440D01*
X202587098Y-84313615D01*
X202593635Y-84337637D01*
X202604733Y-84359923D01*
X202619965Y-84379616D01*
X202638747Y-84395958D01*
X202660356Y-84408323D01*
X202683962Y-84416234D01*
X202708658Y-84419387D01*
X207991858Y-84571787D01*
X208018641Y-84569718D01*
X208042559Y-84562807D01*
X208064670Y-84551364D01*
X208084123Y-84535827D01*
X208100171Y-84516793D01*
X208112197Y-84494994D01*
X208119740Y-84471268D01*
X208122509Y-84446526D01*
X208198709Y-78706126D01*
X208196811Y-78682503D01*
X208190128Y-78658520D01*
X208178894Y-78636303D01*
X208163542Y-78616703D01*
X208144661Y-78600475D01*
X208122977Y-78588243D01*
X208099323Y-78580476D01*
X208074608Y-78577473D01*
X202938728Y-78460633D01*
X202909230Y-78463419D01*
X202885515Y-78470997D01*
X202863733Y-78483055D01*
X202844723Y-78499131D01*
X202829215Y-78518607D01*
X202605695Y-78864047D01*
X202594987Y-78884439D01*
X202587760Y-78908264D01*
X202585320Y-78933040D01*
X202585320Y-79940285D01*
X202572636Y-79952850D01*
X202543056Y-79977659D01*
X202525264Y-79999778D01*
X202505088Y-80019764D01*
X202483456Y-80051750D01*
X202459261Y-80081829D01*
X202446103Y-80106984D01*
X202430196Y-80130506D01*
X202415189Y-80166085D01*
X202397298Y-80200290D01*
X202389276Y-80227524D01*
X202378241Y-80253686D01*
X202370433Y-80291491D01*
X202359522Y-80328531D01*
X202356942Y-80356810D01*
X202351200Y-80384612D01*
X202350883Y-80423221D01*
X202347376Y-80461667D01*
X178034118Y-80461667D01*
X179415403Y-72900625D01*
X196525033Y-72900625D01*
X196525033Y-73524015D01*
X196646650Y-74135425D01*
X196885210Y-74711362D01*
X197231547Y-75229691D01*
X197672349Y-75670493D01*
X198190678Y-76016830D01*
X198766615Y-76255390D01*
X199378025Y-76377007D01*
X200001415Y-76377007D01*
X200612825Y-76255390D01*
X201188762Y-76016830D01*
X201707091Y-75670493D01*
X202147893Y-75229691D01*
X202494230Y-74711362D01*
X202732790Y-74135425D01*
X202854407Y-73524015D01*
X202854407Y-72900625D01*
X202732790Y-72289215D01*
X202494230Y-71713278D01*
X202147893Y-71194949D01*
X201707091Y-70754147D01*
X201188762Y-70407810D01*
X200612825Y-70169250D01*
X200001415Y-70047633D01*
X199378025Y-70047633D01*
X198766615Y-70169250D01*
X198190678Y-70407810D01*
X197672349Y-70754147D01*
X197231547Y-71194949D01*
X196885210Y-71713278D01*
X196646650Y-72289215D01*
X196525033Y-72900625D01*
X179415403Y-72900625D01*
X179469252Y-72605863D01*
X179471315Y-72581926D01*
X179468658Y-72557172D01*
X179461222Y-72533412D01*
X179449294Y-72511559D01*
X179433331Y-72492453D01*
X179413948Y-72476828D01*
X179391890Y-72465285D01*
X179368003Y-72458268D01*
X179343206Y-72456045D01*
X179039901Y-72458706D01*
X179033538Y-72450835D01*
X179028960Y-72447015D01*
X179025125Y-72442448D01*
X178991583Y-72415504D01*
X178959709Y-72386595D01*
X178948464Y-72379837D01*
X178938389Y-72371428D01*
X178933152Y-72368567D01*
X178928507Y-72364836D01*
X178890380Y-72344925D01*
X178853489Y-72322752D01*
X178841146Y-72318306D01*
X178829629Y-72312015D01*
X178823933Y-72310225D01*
X178818654Y-72307468D01*
X178777380Y-72295340D01*
X178736891Y-72280757D01*
X178723919Y-72278793D01*
X178711400Y-72274859D01*
X178705472Y-72274210D01*
X178699751Y-72272529D01*
X178656907Y-72268649D01*
X178614357Y-72262208D01*
X178601242Y-72262802D01*
X178588205Y-72261375D01*
X178579339Y-72261336D01*
X153485780Y-72328515D01*
X153445737Y-72332549D01*
X153405519Y-72333824D01*
X153394450Y-72336383D01*
X153383121Y-72337147D01*
X153372956Y-72339882D01*
X153362474Y-72340938D01*
X153323968Y-72352676D01*
X153284774Y-72361737D01*
X153274420Y-72366394D01*
X153263447Y-72369346D01*
X153254004Y-72374005D01*
X153243929Y-72377076D01*
X153208449Y-72396063D01*
X153171748Y-72412569D01*
X153162488Y-72419154D01*
X153152306Y-72424177D01*
X153143947Y-72430582D01*
X153134661Y-72435551D01*
X153103541Y-72461071D01*
X153070749Y-72484389D01*
X153062951Y-72492640D01*
X153053932Y-72499550D01*
X153046976Y-72507456D01*
X153038832Y-72514135D01*
X153038771Y-72514209D01*
X153018354Y-72523208D01*
X152997969Y-72537501D01*
X152980764Y-72555496D01*
X152967400Y-72576502D01*
X152958392Y-72599711D01*
X152954923Y-72619459D01*
X152941046Y-72645289D01*
X152919613Y-72679344D01*
X152915547Y-72689945D01*
X152909842Y-72699770D01*
X152906422Y-72709735D01*
X152901440Y-72719009D01*
X152889645Y-72757478D01*
X152875232Y-72795055D01*
X152873301Y-72806252D01*
X152869616Y-72816991D01*
X152868198Y-72827425D01*
X152865110Y-72837495D01*
X152861011Y-72877525D01*
X152854172Y-72917183D01*
X152854453Y-72928539D01*
X152852923Y-72939792D01*
X152853558Y-72950300D01*
X152852485Y-72960780D01*
X152856241Y-73000852D01*
X152857235Y-73041075D01*
X152858379Y-73049867D01*
X154096773Y-82071698D01*
X155210163Y-91257162D01*
X155218907Y-91290481D01*
X155230643Y-91312437D01*
X155246437Y-91331683D01*
X155265683Y-91347477D01*
X155287639Y-91359213D01*
X155311464Y-91366440D01*
X155336240Y-91368880D01*
X156371632Y-91368880D01*
X156341622Y-91404645D01*
X156340549Y-91406597D01*
X156339130Y-91408312D01*
X156337189Y-91411901D01*
X156334629Y-91415078D01*
X156308761Y-91464418D01*
X156299713Y-91480877D01*
X155756746Y-91485725D01*
X155732040Y-91488377D01*
X155708278Y-91495807D01*
X155686423Y-91507730D01*
X155667313Y-91523688D01*
X155651684Y-91543067D01*
X155640136Y-91565124D01*
X155633113Y-91589009D01*
X155630885Y-91613805D01*
X155950254Y-128988841D01*
X155891257Y-128900546D01*
X155747094Y-128756383D01*
X155577576Y-128643115D01*
X155389218Y-128565094D01*
X155189259Y-128525320D01*
X154985381Y-128525320D01*
X154785422Y-128565094D01*
X154597064Y-128643115D01*
X154427546Y-128756383D01*
X154283383Y-128900546D01*
X154170115Y-129070064D01*
X154092094Y-129258422D01*
X154052320Y-129458381D01*
X154052320Y-129517689D01*
X141523050Y-142046960D01*
X138745801Y-142046960D01*
X139173417Y-140598036D01*
X142654365Y-130760926D01*
X142658578Y-130746277D01*
X142661604Y-130721566D01*
X142659751Y-130696738D01*
X142653090Y-130672750D01*
X142641877Y-130650521D01*
X142626543Y-130630908D01*
X142607677Y-130614663D01*
X142586004Y-130602410D01*
X138279308Y-128697888D01*
X133219146Y-126350659D01*
X133172599Y-126334372D01*
X133126948Y-126315714D01*
X133109621Y-126312336D01*
X133092958Y-126306506D01*
X133044129Y-126299570D01*
X132995730Y-126290135D01*
X132978079Y-126290187D01*
X132960599Y-126287704D01*
X132911350Y-126290384D01*
X132862041Y-126290530D01*
X132844736Y-126294010D01*
X132843559Y-126294074D01*
X132166924Y-125994850D01*
X132146348Y-125987788D01*
X132121719Y-125984149D01*
X132096853Y-125985385D01*
X132072706Y-125991449D01*
X132050206Y-126002106D01*
X132030218Y-126016948D01*
X132013509Y-126035405D01*
X132000722Y-126056766D01*
X131992348Y-126080212D01*
X129426948Y-136346892D01*
X129423504Y-136368338D01*
X129424115Y-136393227D01*
X129429570Y-136417518D01*
X129439659Y-136440278D01*
X129453995Y-136460633D01*
X129472026Y-136477800D01*
X129644435Y-136612348D01*
X129671282Y-136648950D01*
X129701831Y-136693953D01*
X129710751Y-136702759D01*
X129718167Y-136712869D01*
X129758260Y-136749659D01*
X129796971Y-136787874D01*
X129807431Y-136794779D01*
X129816670Y-136803257D01*
X129824354Y-136808951D01*
X130945559Y-137627747D01*
X136608302Y-142046960D01*
X126609511Y-142046960D01*
X118267392Y-133704842D01*
X119665781Y-132627651D01*
X119691225Y-132601413D01*
X119703756Y-132579901D01*
X119711850Y-132556357D01*
X119715195Y-132531686D01*
X119713663Y-132506837D01*
X119707312Y-132482764D01*
X119696387Y-132460393D01*
X119681308Y-132440583D01*
X119662653Y-132424095D01*
X119146350Y-132051087D01*
X119141313Y-132034522D01*
X119121879Y-131998146D01*
X119104867Y-131960571D01*
X119092737Y-131943602D01*
X119082913Y-131925214D01*
X119056784Y-131893306D01*
X119032798Y-131859751D01*
X119017611Y-131845468D01*
X119004396Y-131829331D01*
X118972555Y-131803096D01*
X118942518Y-131774849D01*
X118935460Y-131769483D01*
X117089907Y-130386731D01*
X117044108Y-130358948D01*
X116999104Y-130329980D01*
X116991211Y-130326860D01*
X116983948Y-130322454D01*
X116933628Y-130304098D01*
X116883851Y-130284421D01*
X116875500Y-130282893D01*
X116867523Y-130279983D01*
X116814612Y-130271752D01*
X116761945Y-130262116D01*
X116753455Y-130262239D01*
X116745065Y-130260934D01*
X116691577Y-130263137D01*
X116671939Y-130263422D01*
X116111733Y-129858695D01*
X116093644Y-129847793D01*
X116070352Y-129839000D01*
X116045792Y-129834920D01*
X116020908Y-129835710D01*
X115996657Y-129841339D01*
X115973969Y-129851592D01*
X115953718Y-129866073D01*
X115936681Y-129884227D01*
X115923513Y-129905356D01*
X115713142Y-130330879D01*
X113458015Y-132054600D01*
X103973031Y-132054600D01*
X102412800Y-130494370D01*
X102412800Y-124005649D01*
X111165660Y-124005649D01*
X111167664Y-124030465D01*
X111174472Y-124054412D01*
X111185820Y-124076572D01*
X111201274Y-124096091D01*
X111220239Y-124112221D01*
X111389170Y-124229441D01*
X111418510Y-124267673D01*
X111449340Y-124310386D01*
X111456183Y-124316763D01*
X111461880Y-124324186D01*
X111501465Y-124358957D01*
X111540008Y-124394873D01*
X111547962Y-124399801D01*
X111554990Y-124405974D01*
X111562226Y-124411097D01*
X113781107Y-125958804D01*
X113817846Y-125979418D01*
X113853215Y-126002293D01*
X113871770Y-126009674D01*
X113889187Y-126019447D01*
X113929228Y-126032532D01*
X113968368Y-126048102D01*
X113988004Y-126051739D01*
X114006987Y-126057942D01*
X114027970Y-126060480D01*
X114438267Y-126345181D01*
X114443362Y-126351655D01*
X114464318Y-126382954D01*
X114481591Y-126400225D01*
X114496706Y-126419429D01*
X114525320Y-126443949D01*
X114551955Y-126470581D01*
X114572256Y-126484169D01*
X114590811Y-126500070D01*
X114598109Y-126505104D01*
X117841480Y-128708834D01*
X117856226Y-128716872D01*
X126770119Y-134902141D01*
X126797870Y-134916692D01*
X126821923Y-134923119D01*
X126846767Y-134924729D01*
X126871448Y-134921461D01*
X126895018Y-134913442D01*
X126916569Y-134900978D01*
X126935276Y-134884549D01*
X126950417Y-134864786D01*
X126961412Y-134842450D01*
X127207716Y-134186595D01*
X127215609Y-134177784D01*
X127240129Y-134136413D01*
X127266444Y-134096153D01*
X127271673Y-134083189D01*
X127278796Y-134071172D01*
X127294814Y-134025826D01*
X127312807Y-133981222D01*
X127315247Y-133972698D01*
X127393459Y-133691999D01*
X130456452Y-125535890D01*
X130461858Y-125517296D01*
X130464553Y-125492546D01*
X130462368Y-125467746D01*
X130455386Y-125443848D01*
X130443877Y-125421772D01*
X130428281Y-125402366D01*
X130409200Y-125386374D01*
X130387365Y-125374413D01*
X129595093Y-125036657D01*
X129588958Y-125024615D01*
X129562120Y-124990505D01*
X129537334Y-124954883D01*
X129523885Y-124941910D01*
X129512326Y-124927218D01*
X129479367Y-124898964D01*
X129448140Y-124868841D01*
X129432429Y-124858728D01*
X129418235Y-124846560D01*
X129380414Y-124825245D01*
X129343933Y-124801762D01*
X129326557Y-124794893D01*
X129310270Y-124785714D01*
X129302133Y-124782193D01*
X125890020Y-123333542D01*
X125890020Y-114322402D01*
X125893706Y-114284979D01*
X125885671Y-114203400D01*
X125878994Y-114135602D01*
X125835422Y-113991965D01*
X125764665Y-113859588D01*
X125669442Y-113743558D01*
X125640373Y-113719702D01*
X121132440Y-109211770D01*
X121132440Y-109152461D01*
X121092666Y-108952502D01*
X121014645Y-108764144D01*
X120901377Y-108594626D01*
X120757214Y-108450463D01*
X120587696Y-108337195D01*
X120399338Y-108259174D01*
X120199379Y-108219400D01*
X119995501Y-108219400D01*
X119795542Y-108259174D01*
X119607184Y-108337195D01*
X119437666Y-108450463D01*
X119293503Y-108594626D01*
X119180235Y-108764144D01*
X119102214Y-108952502D01*
X119062440Y-109152461D01*
X119062440Y-109356339D01*
X119102214Y-109556298D01*
X119180235Y-109744656D01*
X119293503Y-109914174D01*
X119437666Y-110058337D01*
X119607184Y-110171605D01*
X119795542Y-110249626D01*
X119995501Y-110289400D01*
X120054810Y-110289400D01*
X120749549Y-110984140D01*
X120663943Y-111069746D01*
X120550675Y-111239264D01*
X120472654Y-111427622D01*
X120432880Y-111627581D01*
X120432880Y-111831459D01*
X120472654Y-112031418D01*
X120550675Y-112219776D01*
X120663943Y-112389294D01*
X120705880Y-112431231D01*
X120705881Y-119798428D01*
X119690224Y-120814085D01*
X116414969Y-119417801D01*
X116410162Y-119409008D01*
X116397695Y-119394077D01*
X116387341Y-119377614D01*
X116358067Y-119346620D01*
X116330729Y-119313881D01*
X116315594Y-119301653D01*
X116302244Y-119287518D01*
X116267510Y-119262802D01*
X116234332Y-119235995D01*
X116217115Y-119226942D01*
X116201269Y-119215666D01*
X116162379Y-119198160D01*
X116124642Y-119178316D01*
X116116406Y-119175032D01*
X113629661Y-118203628D01*
X113606824Y-118197192D01*
X113584933Y-118188052D01*
X113547328Y-118180427D01*
X113510376Y-118170014D01*
X113486715Y-118168136D01*
X113480843Y-118166946D01*
X112394005Y-117703613D01*
X112365479Y-117695235D01*
X112340644Y-117693490D01*
X112315945Y-117696623D01*
X112292333Y-117704514D01*
X112270713Y-117716861D01*
X112251918Y-117733187D01*
X112236669Y-117752867D01*
X112225552Y-117775144D01*
X112218995Y-117799161D01*
X111167435Y-123986601D01*
X111165660Y-124005649D01*
X102412800Y-124005649D01*
X102412800Y-116137102D01*
X104257161Y-115909403D01*
X104289119Y-115901135D01*
X104311182Y-115889602D01*
X104330572Y-115873985D01*
X104346543Y-115854887D01*
X104358480Y-115833039D01*
X104365926Y-115809282D01*
X104368595Y-115784529D01*
X104388798Y-113589977D01*
X112895308Y-113589977D01*
X112895308Y-113833251D01*
X112942768Y-114071850D01*
X113035865Y-114296606D01*
X113171021Y-114498881D01*
X113343041Y-114670901D01*
X113545316Y-114806057D01*
X113770072Y-114899154D01*
X114008671Y-114946614D01*
X114251945Y-114946614D01*
X114490544Y-114899154D01*
X114715300Y-114806057D01*
X114917575Y-114670901D01*
X115089595Y-114498881D01*
X115224751Y-114296606D01*
X115317848Y-114071850D01*
X115325964Y-114031043D01*
X115396720Y-114031043D01*
X115396720Y-114274317D01*
X115444180Y-114512916D01*
X115537277Y-114737672D01*
X115672433Y-114939947D01*
X115844453Y-115111967D01*
X116046728Y-115247123D01*
X116271484Y-115340220D01*
X116510083Y-115387680D01*
X116753357Y-115387680D01*
X116991956Y-115340220D01*
X117216712Y-115247123D01*
X117418987Y-115111967D01*
X117436593Y-115094361D01*
X117800138Y-115094361D01*
X117815111Y-115218546D01*
X117854024Y-115337423D01*
X117915381Y-115446425D01*
X117996823Y-115541361D01*
X118095222Y-115618586D01*
X118206796Y-115675130D01*
X118327258Y-115708820D01*
X118637268Y-115760364D01*
X118758181Y-115675699D01*
X119071314Y-115675699D01*
X119200085Y-115859604D01*
X119509028Y-115917198D01*
X119633747Y-115926740D01*
X119757932Y-115911767D01*
X119876809Y-115872854D01*
X119985811Y-115811497D01*
X120080747Y-115730055D01*
X120157972Y-115631656D01*
X120214516Y-115520082D01*
X120248206Y-115399620D01*
X120299750Y-115089610D01*
X120170978Y-114905705D01*
X119236149Y-114740870D01*
X119071314Y-115675699D01*
X118758181Y-115675699D01*
X118821173Y-115631592D01*
X118986008Y-114696763D01*
X118051179Y-114531928D01*
X117867274Y-114660699D01*
X117809680Y-114969642D01*
X117800138Y-115094361D01*
X117436593Y-115094361D01*
X117591007Y-114939947D01*
X117726163Y-114737672D01*
X117819260Y-114512916D01*
X117823673Y-114490729D01*
X119280256Y-114490729D01*
X120215085Y-114655564D01*
X120398990Y-114526793D01*
X120456584Y-114217850D01*
X120466126Y-114093131D01*
X120451153Y-113968946D01*
X120412240Y-113850069D01*
X120350883Y-113741067D01*
X120269441Y-113646131D01*
X120171042Y-113568906D01*
X120059468Y-113512362D01*
X119939006Y-113478672D01*
X119628996Y-113427128D01*
X119445091Y-113555900D01*
X119280256Y-114490729D01*
X117823673Y-114490729D01*
X117866720Y-114274317D01*
X117866720Y-114097882D01*
X117966514Y-114097882D01*
X118095286Y-114281787D01*
X119030115Y-114446622D01*
X119194950Y-113511793D01*
X119066179Y-113327888D01*
X118757236Y-113270294D01*
X118632517Y-113260752D01*
X118508332Y-113275725D01*
X118389455Y-113314638D01*
X118280453Y-113375995D01*
X118185517Y-113457437D01*
X118108292Y-113555836D01*
X118051748Y-113667410D01*
X118018058Y-113787872D01*
X117966514Y-114097882D01*
X117866720Y-114097882D01*
X117866720Y-114031043D01*
X117819260Y-113792444D01*
X117726163Y-113567688D01*
X117591007Y-113365413D01*
X117418987Y-113193393D01*
X117216712Y-113058237D01*
X116991956Y-112965140D01*
X116753357Y-112917680D01*
X116510083Y-112917680D01*
X116271484Y-112965140D01*
X116046728Y-113058237D01*
X115844453Y-113193393D01*
X115672433Y-113365413D01*
X115537277Y-113567688D01*
X115444180Y-113792444D01*
X115396720Y-114031043D01*
X115325964Y-114031043D01*
X115365308Y-113833251D01*
X115365308Y-113589977D01*
X115317848Y-113351378D01*
X115224751Y-113126622D01*
X115089595Y-112924347D01*
X114917575Y-112752327D01*
X114715300Y-112617171D01*
X114490544Y-112524074D01*
X114251945Y-112476614D01*
X114008671Y-112476614D01*
X113770072Y-112524074D01*
X113545316Y-112617171D01*
X113343041Y-112752327D01*
X113171021Y-112924347D01*
X113035865Y-113126622D01*
X112942768Y-113351378D01*
X112895308Y-113589977D01*
X104388798Y-113589977D01*
X104409235Y-111370009D01*
X104407976Y-111350969D01*
X104402074Y-111326782D01*
X104391566Y-111304212D01*
X104376857Y-111284125D01*
X104358796Y-111267554D01*
X110954270Y-104672080D01*
X111013579Y-104672080D01*
X111213538Y-104632306D01*
X111401896Y-104554285D01*
X111571414Y-104441017D01*
X111715577Y-104296854D01*
X111828845Y-104127336D01*
X111906866Y-103938978D01*
X111946640Y-103739019D01*
X111946640Y-103535141D01*
X111906866Y-103335182D01*
X111828845Y-103146824D01*
X111715577Y-102977306D01*
X111571414Y-102833143D01*
X111401896Y-102719875D01*
X111213538Y-102641854D01*
X111013579Y-102602080D01*
X110809701Y-102602080D01*
X110609742Y-102641854D01*
X110421384Y-102719875D01*
X110251866Y-102833143D01*
X110107703Y-102977306D01*
X109994435Y-103146824D01*
X109916414Y-103335182D01*
X109876640Y-103535141D01*
X109876640Y-103594450D01*
X101927948Y-111543142D01*
X101212704Y-111676843D01*
X99260569Y-111954304D01*
X99229149Y-111962996D01*
X99207262Y-111974861D01*
X99188110Y-111990768D01*
X99172430Y-112010106D01*
X99160823Y-112032131D01*
X99153737Y-112055998D01*
X99151442Y-112080788D01*
X99176842Y-116393708D01*
X99177797Y-116408521D01*
X99183255Y-116432812D01*
X99193346Y-116455571D01*
X99207684Y-116475924D01*
X99225717Y-116493089D01*
X99246753Y-116506406D01*
X99269982Y-116515364D01*
X99294512Y-116519617D01*
X99319401Y-116519003D01*
X100888801Y-116325250D01*
X100888800Y-130772577D01*
X100885114Y-130810000D01*
X100888800Y-130847423D01*
X100888800Y-130847425D01*
X100899826Y-130959377D01*
X100943398Y-131103014D01*
X100943399Y-131103015D01*
X101014155Y-131235392D01*
X101047258Y-131275728D01*
X101109378Y-131351422D01*
X101138454Y-131375284D01*
X103092120Y-133328951D01*
X103115978Y-133358022D01*
X103145048Y-133381879D01*
X103232007Y-133453245D01*
X103290519Y-133484520D01*
X103364385Y-133524002D01*
X103508022Y-133567574D01*
X103619974Y-133578600D01*
X103619977Y-133578600D01*
X103657400Y-133582286D01*
X103694823Y-133578600D01*
X113596029Y-133578600D01*
X113596295Y-133578983D01*
X113620264Y-133602104D01*
X113642038Y-133627296D01*
X113648505Y-133633361D01*
X115526205Y-135369861D01*
X115565382Y-135399558D01*
X115603308Y-135430806D01*
X115614672Y-135436921D01*
X115624968Y-135444726D01*
X115669170Y-135466249D01*
X115712440Y-135489534D01*
X115724783Y-135493328D01*
X115736391Y-135498980D01*
X115783924Y-135511506D01*
X115830901Y-135525945D01*
X115843741Y-135527269D01*
X115856231Y-135530560D01*
X115905300Y-135533615D01*
X115954178Y-135538654D01*
X115967031Y-135537458D01*
X115979922Y-135538261D01*
X116028649Y-135531727D01*
X116077575Y-135527176D01*
X116089952Y-135523507D01*
X116102753Y-135521790D01*
X116149276Y-135505918D01*
X116196394Y-135491949D01*
X116207825Y-135485944D01*
X116220045Y-135481775D01*
X116262590Y-135457174D01*
X116306107Y-135434314D01*
X116316155Y-135426202D01*
X116327331Y-135419740D01*
X116364290Y-135387342D01*
X116402535Y-135356467D01*
X116408814Y-135350207D01*
X117079459Y-134672169D01*
X125728601Y-143321312D01*
X125743938Y-143340000D01*
X88660000Y-143340000D01*
X88660000Y-86474556D01*
X93329102Y-86474556D01*
X93332789Y-86511989D01*
X93332788Y-87444926D01*
X93329102Y-87482350D01*
X93332788Y-87519773D01*
X93332788Y-87519775D01*
X93343814Y-87631727D01*
X93387386Y-87775364D01*
X93420323Y-87836985D01*
X93458143Y-87907742D01*
X93497771Y-87956028D01*
X93553366Y-88023772D01*
X93582442Y-88047634D01*
X94784599Y-89249792D01*
X94808456Y-89278862D01*
X94924486Y-89374085D01*
X95056863Y-89444842D01*
X95200500Y-89488414D01*
X95312452Y-89499440D01*
X95312454Y-89499440D01*
X95349877Y-89503126D01*
X95387300Y-89499440D01*
X95801133Y-89499440D01*
X95903203Y-89652199D01*
X96103081Y-89852077D01*
X96338113Y-90009120D01*
X96599266Y-90117293D01*
X96876505Y-90172440D01*
X97159175Y-90172440D01*
X97433448Y-90117883D01*
X97378891Y-90392156D01*
X97378891Y-90674826D01*
X97434038Y-90952065D01*
X97542211Y-91213218D01*
X97699254Y-91448250D01*
X97899132Y-91648128D01*
X98134164Y-91805171D01*
X98395317Y-91913344D01*
X98672556Y-91968491D01*
X98955226Y-91968491D01*
X99135418Y-91932648D01*
X107557440Y-100354671D01*
X107581298Y-100383742D01*
X107697328Y-100478965D01*
X107767607Y-100516530D01*
X107817803Y-100543360D01*
X107829705Y-100549722D01*
X107973342Y-100593294D01*
X108085294Y-100604320D01*
X108085296Y-100604320D01*
X108122719Y-100608006D01*
X108160142Y-100604320D01*
X123073160Y-100604320D01*
X123073161Y-107094892D01*
X120901322Y-104923054D01*
X120877460Y-104893978D01*
X120761430Y-104798755D01*
X120629053Y-104727998D01*
X120485416Y-104684426D01*
X120373464Y-104673400D01*
X120373461Y-104673400D01*
X120336038Y-104669714D01*
X120298615Y-104673400D01*
X112751271Y-104673400D01*
X112709334Y-104631463D01*
X112539816Y-104518195D01*
X112351458Y-104440174D01*
X112151499Y-104400400D01*
X111947621Y-104400400D01*
X111747662Y-104440174D01*
X111559304Y-104518195D01*
X111389786Y-104631463D01*
X111245623Y-104775626D01*
X111132355Y-104945144D01*
X111054334Y-105133502D01*
X111014560Y-105333461D01*
X111014560Y-105537339D01*
X111054334Y-105737298D01*
X111132355Y-105925656D01*
X111245623Y-106095174D01*
X111389786Y-106239337D01*
X111559304Y-106352605D01*
X111747662Y-106430626D01*
X111947621Y-106470400D01*
X112151499Y-106470400D01*
X112351458Y-106430626D01*
X112539816Y-106352605D01*
X112709334Y-106239337D01*
X112751271Y-106197400D01*
X120020408Y-106197400D01*
X122920920Y-109097913D01*
X122944777Y-109126983D01*
X123060807Y-109222206D01*
X123193184Y-109292963D01*
X123336821Y-109336535D01*
X123448773Y-109347561D01*
X123448775Y-109347561D01*
X123486198Y-109351247D01*
X123523621Y-109347561D01*
X125636136Y-109347561D01*
X125673559Y-109351247D01*
X125710982Y-109347561D01*
X125710985Y-109347561D01*
X125822937Y-109336535D01*
X125966574Y-109292963D01*
X126098951Y-109222206D01*
X126214981Y-109126983D01*
X126238843Y-109097907D01*
X126239872Y-109096878D01*
X126304379Y-109096878D01*
X126504338Y-109057104D01*
X126692696Y-108979083D01*
X126862214Y-108865815D01*
X126992497Y-108735532D01*
X128721559Y-110464594D01*
X128721560Y-111964288D01*
X128717873Y-112001721D01*
X128732586Y-112151099D01*
X128776158Y-112294736D01*
X128846914Y-112427113D01*
X128904272Y-112497003D01*
X128942138Y-112543143D01*
X128971208Y-112567000D01*
X129296315Y-112892107D01*
X129320177Y-112921183D01*
X129436207Y-113016406D01*
X129568584Y-113087163D01*
X129712221Y-113130735D01*
X129824173Y-113141761D01*
X129824175Y-113141761D01*
X129861598Y-113145447D01*
X129899021Y-113141761D01*
X130522098Y-113141761D01*
X130559521Y-113145447D01*
X130596944Y-113141761D01*
X130596947Y-113141761D01*
X130708899Y-113130735D01*
X130852536Y-113087163D01*
X130984913Y-113016406D01*
X131100943Y-112921183D01*
X131124805Y-112892107D01*
X131495067Y-112521845D01*
X131524142Y-112497984D01*
X131619365Y-112381954D01*
X131690122Y-112249577D01*
X131733694Y-112105940D01*
X131744720Y-111993988D01*
X131744720Y-111993985D01*
X131748406Y-111956562D01*
X131744720Y-111919139D01*
X131744720Y-104801071D01*
X131786657Y-104759134D01*
X131899925Y-104589616D01*
X131977946Y-104401258D01*
X132017720Y-104201299D01*
X132017720Y-103997421D01*
X131977946Y-103797462D01*
X131928347Y-103677720D01*
X134166017Y-103677720D01*
X134203440Y-103681406D01*
X134240863Y-103677720D01*
X134240866Y-103677720D01*
X134352818Y-103666694D01*
X134496455Y-103623122D01*
X134628832Y-103552365D01*
X134744862Y-103457142D01*
X134768724Y-103428066D01*
X152447711Y-85749080D01*
X152507019Y-85749080D01*
X152706978Y-85709306D01*
X152895336Y-85631285D01*
X153064854Y-85518017D01*
X153209017Y-85373854D01*
X153322285Y-85204336D01*
X153400306Y-85015978D01*
X153440080Y-84816019D01*
X153440080Y-84612141D01*
X153400306Y-84412182D01*
X153322285Y-84223824D01*
X153209017Y-84054306D01*
X153064854Y-83910143D01*
X152895336Y-83796875D01*
X152706978Y-83718854D01*
X152507019Y-83679080D01*
X152303141Y-83679080D01*
X152103182Y-83718854D01*
X151914824Y-83796875D01*
X151745306Y-83910143D01*
X151601143Y-84054306D01*
X151487875Y-84223824D01*
X151409854Y-84412182D01*
X151370080Y-84612141D01*
X151370080Y-84671449D01*
X133887810Y-102153720D01*
X127452791Y-102153720D01*
X127410854Y-102111783D01*
X127241336Y-101998515D01*
X127052978Y-101920494D01*
X126853019Y-101880720D01*
X126649141Y-101880720D01*
X126449182Y-101920494D01*
X126260824Y-101998515D01*
X126091306Y-102111783D01*
X126014646Y-102188443D01*
X125890056Y-102105195D01*
X125701698Y-102027174D01*
X125501739Y-101987400D01*
X125297861Y-101987400D01*
X125097902Y-102027174D01*
X124909544Y-102105195D01*
X124740026Y-102218463D01*
X124597160Y-102361329D01*
X124597160Y-100235342D01*
X124600846Y-100197919D01*
X124596511Y-100153905D01*
X124589248Y-100080160D01*
X126395729Y-100080160D01*
X126437666Y-100122097D01*
X126607184Y-100235365D01*
X126795542Y-100313386D01*
X126995501Y-100353160D01*
X127199379Y-100353160D01*
X127399338Y-100313386D01*
X127587696Y-100235365D01*
X127757214Y-100122097D01*
X127901377Y-99977934D01*
X128014645Y-99808416D01*
X128092666Y-99620058D01*
X128099339Y-99586512D01*
X128298660Y-99626159D01*
X128502538Y-99626159D01*
X128702497Y-99586385D01*
X128890855Y-99508364D01*
X129060373Y-99395096D01*
X129204536Y-99250933D01*
X129317804Y-99081415D01*
X129395825Y-98893057D01*
X129435599Y-98693098D01*
X129435599Y-98496120D01*
X135198449Y-98496120D01*
X135336906Y-98634577D01*
X135506424Y-98747845D01*
X135694782Y-98825866D01*
X135894741Y-98865640D01*
X136098619Y-98865640D01*
X136298578Y-98825866D01*
X136486936Y-98747845D01*
X136656454Y-98634577D01*
X136800617Y-98490414D01*
X136913885Y-98320896D01*
X136991906Y-98132538D01*
X137031680Y-97932579D01*
X137031680Y-97728701D01*
X136991906Y-97528742D01*
X136913885Y-97340384D01*
X136800617Y-97170866D01*
X136656454Y-97026703D01*
X136486936Y-96913435D01*
X136298578Y-96835414D01*
X136098619Y-96795640D01*
X135894741Y-96795640D01*
X135694782Y-96835414D01*
X135506424Y-96913435D01*
X135418595Y-96972120D01*
X123724071Y-96972120D01*
X123682134Y-96930183D01*
X123512616Y-96816915D01*
X123324258Y-96738894D01*
X123124299Y-96699120D01*
X122920421Y-96699120D01*
X122720462Y-96738894D01*
X122532104Y-96816915D01*
X122494345Y-96842144D01*
X122492666Y-96833702D01*
X122414645Y-96645344D01*
X122301377Y-96475826D01*
X122259440Y-96433889D01*
X122259440Y-92295030D01*
X123918431Y-90636040D01*
X124018379Y-90636040D01*
X124218338Y-90596266D01*
X124406696Y-90518245D01*
X124576214Y-90404977D01*
X124720377Y-90260814D01*
X124833645Y-90091296D01*
X124911666Y-89902938D01*
X124951440Y-89702979D01*
X124951440Y-89499101D01*
X124911666Y-89299142D01*
X124833645Y-89110784D01*
X124720377Y-88941266D01*
X124576214Y-88797103D01*
X124406696Y-88683835D01*
X124218338Y-88605814D01*
X124018379Y-88566040D01*
X123814501Y-88566040D01*
X123614542Y-88605814D01*
X123426184Y-88683835D01*
X123256666Y-88797103D01*
X123112503Y-88941266D01*
X122999235Y-89110784D01*
X122921214Y-89299142D01*
X122881440Y-89499101D01*
X122881440Y-89517769D01*
X120985089Y-91414121D01*
X120956019Y-91437978D01*
X120932162Y-91467048D01*
X120932161Y-91467049D01*
X120860795Y-91554008D01*
X120790039Y-91686385D01*
X120746467Y-91830022D01*
X120731754Y-91979400D01*
X120735441Y-92016833D01*
X120735440Y-96433889D01*
X120693503Y-96475826D01*
X120580235Y-96645344D01*
X120502214Y-96833702D01*
X120462440Y-97033661D01*
X120462440Y-97237539D01*
X120502214Y-97437498D01*
X120580235Y-97625856D01*
X120693503Y-97795374D01*
X120727288Y-97829159D01*
X113770869Y-97829159D01*
X99116321Y-83174611D01*
X99092459Y-83145535D01*
X98976429Y-83050312D01*
X98844052Y-82979555D01*
X98700415Y-82935983D01*
X98588463Y-82924957D01*
X98588460Y-82924957D01*
X98551037Y-82921271D01*
X98513614Y-82924957D01*
X96919809Y-82924957D01*
X96882386Y-82921271D01*
X96844963Y-82924957D01*
X96844961Y-82924957D01*
X96733009Y-82935983D01*
X96589372Y-82979555D01*
X96456995Y-83050312D01*
X96340965Y-83145535D01*
X96317108Y-83174605D01*
X93582437Y-85909277D01*
X93553367Y-85933134D01*
X93529510Y-85962204D01*
X93529509Y-85962205D01*
X93458143Y-86049164D01*
X93387387Y-86181541D01*
X93343815Y-86325178D01*
X93329102Y-86474556D01*
X88660000Y-86474556D01*
X88660000Y-72302465D01*
X98369273Y-72302465D01*
X98369273Y-72925855D01*
X98490890Y-73537265D01*
X98729450Y-74113202D01*
X99075787Y-74631531D01*
X99516589Y-75072333D01*
X100034918Y-75418670D01*
X100610855Y-75657230D01*
X101222265Y-75778847D01*
X101845655Y-75778847D01*
X102457065Y-75657230D01*
X103033002Y-75418670D01*
X103551331Y-75072333D01*
X103992133Y-74631531D01*
X104338470Y-74113202D01*
X104577030Y-73537265D01*
X104698647Y-72925855D01*
X104698647Y-72302465D01*
X104577030Y-71691055D01*
X104338470Y-71115118D01*
X103992133Y-70596789D01*
X103551331Y-70155987D01*
X103033002Y-69809650D01*
X102457065Y-69571090D01*
X101845655Y-69449473D01*
X101222265Y-69449473D01*
X100610855Y-69571090D01*
X100034918Y-69809650D01*
X99516589Y-70155987D01*
X99075787Y-70596789D01*
X98729450Y-71115118D01*
X98490890Y-71691055D01*
X98369273Y-72302465D01*
X88660000Y-72302465D01*
X88660000Y-66660000D01*
X214340000Y-66660000D01*
X214340000Y-90962615D01*
G37*
%TD.AperFunction*%
D17*
X100803691Y-88723298D02*
X100789548Y-88737440D01*
X101598212Y-89546104D01*
X101840980Y-89474860D01*
X101903902Y-89341733D01*
X105623361Y-93061192D01*
X105623360Y-94197769D01*
X105581423Y-94239706D01*
X105468155Y-94409224D01*
X105458508Y-94432515D01*
X101107731Y-90081738D01*
X101347363Y-89968477D01*
X101418607Y-89725709D01*
X100609943Y-88917045D01*
X100595801Y-88931188D01*
X100416196Y-88751583D01*
X100430338Y-88737440D01*
X100416196Y-88723298D01*
X100595801Y-88543693D01*
X100609943Y-88557835D01*
X100624086Y-88543693D01*
X100803691Y-88723298D01*
%TA.AperFunction,Conductor*%
D18*
G36*
X100803691Y-88723298D02*
G01*
X100789548Y-88737440D01*
X101598212Y-89546104D01*
X101840980Y-89474860D01*
X101903902Y-89341733D01*
X105623361Y-93061192D01*
X105623360Y-94197769D01*
X105581423Y-94239706D01*
X105468155Y-94409224D01*
X105458508Y-94432515D01*
X101107731Y-90081738D01*
X101347363Y-89968477D01*
X101418607Y-89725709D01*
X100609943Y-88917045D01*
X100595801Y-88931188D01*
X100416196Y-88751583D01*
X100430338Y-88737440D01*
X100416196Y-88723298D01*
X100595801Y-88543693D01*
X100609943Y-88557835D01*
X100624086Y-88543693D01*
X100803691Y-88723298D01*
G37*
%TD.AperFunction*%
%TD*%
M02*
