%TF.GenerationSoftware,KiCad,Pcbnew,5.1.6-c6e7f7d~86~ubuntu18.04.1*%
%TF.CreationDate,2021-04-18T13:50:28-04:00*%
%TF.ProjectId,avBadge_2021,61764261-6467-4655-9f32-3032312e6b69,rev?*%
%TF.SameCoordinates,Original*%
%TF.FileFunction,Legend,Top*%
%TF.FilePolarity,Positive*%
%FSLAX46Y46*%
G04 Gerber Fmt 4.6, Leading zero omitted, Abs format (unit mm)*
G04 Created by KiCad (PCBNEW 5.1.6-c6e7f7d~86~ubuntu18.04.1) date 2021-04-18 13:50:28*
%MOMM*%
%LPD*%
G01*
G04 APERTURE LIST*
%ADD10C,0.150000*%
G04 APERTURE END LIST*
D10*
X96528099Y-143077226D02*
X97004289Y-143077226D01*
X96432860Y-143362940D02*
X96766194Y-142362940D01*
X97099527Y-143362940D01*
X97813813Y-143315321D02*
X97718575Y-143362940D01*
X97528099Y-143362940D01*
X97432860Y-143315321D01*
X97385241Y-143220083D01*
X97385241Y-142839131D01*
X97432860Y-142743893D01*
X97528099Y-142696274D01*
X97718575Y-142696274D01*
X97813813Y-142743893D01*
X97861432Y-142839131D01*
X97861432Y-142934369D01*
X97385241Y-143029607D01*
X98290003Y-143362940D02*
X98290003Y-142696274D01*
X98290003Y-142886750D02*
X98337622Y-142791512D01*
X98385241Y-142743893D01*
X98480480Y-142696274D01*
X98575718Y-142696274D01*
X99051908Y-143362940D02*
X98956670Y-143315321D01*
X98909051Y-143267702D01*
X98861432Y-143172464D01*
X98861432Y-142886750D01*
X98909051Y-142791512D01*
X98956670Y-142743893D01*
X99051908Y-142696274D01*
X99194765Y-142696274D01*
X99290003Y-142743893D01*
X99337622Y-142791512D01*
X99385241Y-142886750D01*
X99385241Y-143172464D01*
X99337622Y-143267702D01*
X99290003Y-143315321D01*
X99194765Y-143362940D01*
X99051908Y-143362940D01*
X99766194Y-143315321D02*
X99861432Y-143362940D01*
X100051908Y-143362940D01*
X100147146Y-143315321D01*
X100194765Y-143220083D01*
X100194765Y-143172464D01*
X100147146Y-143077226D01*
X100051908Y-143029607D01*
X99909051Y-143029607D01*
X99813813Y-142981988D01*
X99766194Y-142886750D01*
X99766194Y-142839131D01*
X99813813Y-142743893D01*
X99909051Y-142696274D01*
X100051908Y-142696274D01*
X100147146Y-142743893D01*
X100623337Y-142696274D02*
X100623337Y-143696274D01*
X100623337Y-142743893D02*
X100718575Y-142696274D01*
X100909051Y-142696274D01*
X101004289Y-142743893D01*
X101051908Y-142791512D01*
X101099527Y-142886750D01*
X101099527Y-143172464D01*
X101051908Y-143267702D01*
X101004289Y-143315321D01*
X100909051Y-143362940D01*
X100718575Y-143362940D01*
X100623337Y-143315321D01*
X101956670Y-143362940D02*
X101956670Y-142839131D01*
X101909051Y-142743893D01*
X101813813Y-142696274D01*
X101623337Y-142696274D01*
X101528099Y-142743893D01*
X101956670Y-143315321D02*
X101861432Y-143362940D01*
X101623337Y-143362940D01*
X101528099Y-143315321D01*
X101480480Y-143220083D01*
X101480480Y-143124845D01*
X101528099Y-143029607D01*
X101623337Y-142981988D01*
X101861432Y-142981988D01*
X101956670Y-142934369D01*
X102861432Y-143315321D02*
X102766194Y-143362940D01*
X102575718Y-143362940D01*
X102480480Y-143315321D01*
X102432860Y-143267702D01*
X102385241Y-143172464D01*
X102385241Y-142886750D01*
X102432860Y-142791512D01*
X102480480Y-142743893D01*
X102575718Y-142696274D01*
X102766194Y-142696274D01*
X102861432Y-142743893D01*
X103670956Y-143315321D02*
X103575718Y-143362940D01*
X103385241Y-143362940D01*
X103290003Y-143315321D01*
X103242384Y-143220083D01*
X103242384Y-142839131D01*
X103290003Y-142743893D01*
X103385241Y-142696274D01*
X103575718Y-142696274D01*
X103670956Y-142743893D01*
X103718575Y-142839131D01*
X103718575Y-142934369D01*
X103242384Y-143029607D01*
X104766194Y-142362940D02*
X105099527Y-143362940D01*
X105432860Y-142362940D01*
X105766194Y-143362940D02*
X105766194Y-142696274D01*
X105766194Y-142362940D02*
X105718575Y-142410560D01*
X105766194Y-142458179D01*
X105813813Y-142410560D01*
X105766194Y-142362940D01*
X105766194Y-142458179D01*
X106385241Y-143362940D02*
X106290003Y-143315321D01*
X106242384Y-143220083D01*
X106242384Y-142362940D01*
X106909051Y-143362940D02*
X106813813Y-143315321D01*
X106766194Y-143220083D01*
X106766194Y-142362940D01*
X107718575Y-143362940D02*
X107718575Y-142839131D01*
X107670956Y-142743893D01*
X107575718Y-142696274D01*
X107385241Y-142696274D01*
X107290003Y-142743893D01*
X107718575Y-143315321D02*
X107623337Y-143362940D01*
X107385241Y-143362940D01*
X107290003Y-143315321D01*
X107242384Y-143220083D01*
X107242384Y-143124845D01*
X107290003Y-143029607D01*
X107385241Y-142981988D01*
X107623337Y-142981988D01*
X107718575Y-142934369D01*
X108623337Y-142696274D02*
X108623337Y-143505798D01*
X108575718Y-143601036D01*
X108528099Y-143648655D01*
X108432860Y-143696274D01*
X108290003Y-143696274D01*
X108194765Y-143648655D01*
X108623337Y-143315321D02*
X108528099Y-143362940D01*
X108337622Y-143362940D01*
X108242384Y-143315321D01*
X108194765Y-143267702D01*
X108147146Y-143172464D01*
X108147146Y-142886750D01*
X108194765Y-142791512D01*
X108242384Y-142743893D01*
X108337622Y-142696274D01*
X108528099Y-142696274D01*
X108623337Y-142743893D01*
X109480480Y-143315321D02*
X109385241Y-143362940D01*
X109194765Y-143362940D01*
X109099527Y-143315321D01*
X109051908Y-143220083D01*
X109051908Y-142839131D01*
X109099527Y-142743893D01*
X109194765Y-142696274D01*
X109385241Y-142696274D01*
X109480480Y-142743893D01*
X109528099Y-142839131D01*
X109528099Y-142934369D01*
X109051908Y-143029607D01*
X111051908Y-142839131D02*
X111194765Y-142886750D01*
X111242384Y-142934369D01*
X111290003Y-143029607D01*
X111290003Y-143172464D01*
X111242384Y-143267702D01*
X111194765Y-143315321D01*
X111099527Y-143362940D01*
X110718575Y-143362940D01*
X110718575Y-142362940D01*
X111051908Y-142362940D01*
X111147146Y-142410560D01*
X111194765Y-142458179D01*
X111242384Y-142553417D01*
X111242384Y-142648655D01*
X111194765Y-142743893D01*
X111147146Y-142791512D01*
X111051908Y-142839131D01*
X110718575Y-142839131D01*
X112147146Y-143362940D02*
X112147146Y-142839131D01*
X112099527Y-142743893D01*
X112004289Y-142696274D01*
X111813813Y-142696274D01*
X111718575Y-142743893D01*
X112147146Y-143315321D02*
X112051908Y-143362940D01*
X111813813Y-143362940D01*
X111718575Y-143315321D01*
X111670956Y-143220083D01*
X111670956Y-143124845D01*
X111718575Y-143029607D01*
X111813813Y-142981988D01*
X112051908Y-142981988D01*
X112147146Y-142934369D01*
X113051908Y-143362940D02*
X113051908Y-142362940D01*
X113051908Y-143315321D02*
X112956670Y-143362940D01*
X112766194Y-143362940D01*
X112670956Y-143315321D01*
X112623337Y-143267702D01*
X112575718Y-143172464D01*
X112575718Y-142886750D01*
X112623337Y-142791512D01*
X112670956Y-142743893D01*
X112766194Y-142696274D01*
X112956670Y-142696274D01*
X113051908Y-142743893D01*
X113956670Y-142696274D02*
X113956670Y-143505798D01*
X113909051Y-143601036D01*
X113861432Y-143648655D01*
X113766194Y-143696274D01*
X113623337Y-143696274D01*
X113528099Y-143648655D01*
X113956670Y-143315321D02*
X113861432Y-143362940D01*
X113670956Y-143362940D01*
X113575718Y-143315321D01*
X113528099Y-143267702D01*
X113480480Y-143172464D01*
X113480480Y-142886750D01*
X113528099Y-142791512D01*
X113575718Y-142743893D01*
X113670956Y-142696274D01*
X113861432Y-142696274D01*
X113956670Y-142743893D01*
X114813813Y-143315321D02*
X114718575Y-143362940D01*
X114528099Y-143362940D01*
X114432860Y-143315321D01*
X114385241Y-143220083D01*
X114385241Y-142839131D01*
X114432860Y-142743893D01*
X114528099Y-142696274D01*
X114718575Y-142696274D01*
X114813813Y-142743893D01*
X114861432Y-142839131D01*
X114861432Y-142934369D01*
X114385241Y-143029607D01*
X116004289Y-142458179D02*
X116051908Y-142410560D01*
X116147146Y-142362940D01*
X116385241Y-142362940D01*
X116480480Y-142410560D01*
X116528099Y-142458179D01*
X116575718Y-142553417D01*
X116575718Y-142648655D01*
X116528099Y-142791512D01*
X115956670Y-143362940D01*
X116575718Y-143362940D01*
X117194765Y-142362940D02*
X117290003Y-142362940D01*
X117385241Y-142410560D01*
X117432860Y-142458179D01*
X117480479Y-142553417D01*
X117528099Y-142743893D01*
X117528099Y-142981988D01*
X117480479Y-143172464D01*
X117432860Y-143267702D01*
X117385241Y-143315321D01*
X117290003Y-143362940D01*
X117194765Y-143362940D01*
X117099527Y-143315321D01*
X117051908Y-143267702D01*
X117004289Y-143172464D01*
X116956670Y-142981988D01*
X116956670Y-142743893D01*
X117004289Y-142553417D01*
X117051908Y-142458179D01*
X117099527Y-142410560D01*
X117194765Y-142362940D01*
X117909051Y-142458179D02*
X117956670Y-142410560D01*
X118051908Y-142362940D01*
X118290003Y-142362940D01*
X118385241Y-142410560D01*
X118432860Y-142458179D01*
X118480479Y-142553417D01*
X118480479Y-142648655D01*
X118432860Y-142791512D01*
X117861432Y-143362940D01*
X118480479Y-143362940D01*
X119432860Y-143362940D02*
X118861432Y-143362940D01*
X119147146Y-143362940D02*
X119147146Y-142362940D01*
X119051908Y-142505798D01*
X118956670Y-142601036D01*
X118861432Y-142648655D01*
M02*
