%TF.GenerationSoftware,KiCad,Pcbnew,5.1.10-88a1d61d58~88~ubuntu20.04.1*%
%TF.CreationDate,2021-05-07T16:03:34-04:00*%
%TF.ProjectId,avBadge_2021,61764261-6467-4655-9f32-3032312e6b69,rev?*%
%TF.SameCoordinates,Original*%
%TF.FileFunction,Legend,Bot*%
%TF.FilePolarity,Positive*%
%FSLAX46Y46*%
G04 Gerber Fmt 4.6, Leading zero omitted, Abs format (unit mm)*
G04 Created by KiCad (PCBNEW 5.1.10-88a1d61d58~88~ubuntu20.04.1) date 2021-05-07 16:03:34*
%MOMM*%
%LPD*%
G01*
G04 APERTURE LIST*
%ADD10C,0.150000*%
%ADD11C,0.120000*%
%ADD12C,0.400000*%
%ADD13C,0.200000*%
%ADD14C,0.100000*%
G04 APERTURE END LIST*
D10*
X207636167Y-142479780D02*
X207636167Y-143194066D01*
X207683786Y-143336923D01*
X207779024Y-143432161D01*
X207921881Y-143479780D01*
X208017120Y-143479780D01*
X206683786Y-143479780D02*
X207159977Y-143479780D01*
X207159977Y-142479780D01*
X205779024Y-143384542D02*
X205826643Y-143432161D01*
X205969500Y-143479780D01*
X206064739Y-143479780D01*
X206207596Y-143432161D01*
X206302834Y-143336923D01*
X206350453Y-143241685D01*
X206398072Y-143051209D01*
X206398072Y-142908352D01*
X206350453Y-142717876D01*
X206302834Y-142622638D01*
X206207596Y-142527400D01*
X206064739Y-142479780D01*
X205969500Y-142479780D01*
X205826643Y-142527400D01*
X205779024Y-142575019D01*
X205064739Y-142479780D02*
X205064739Y-143194066D01*
X205112358Y-143336923D01*
X205207596Y-143432161D01*
X205350453Y-143479780D01*
X205445691Y-143479780D01*
X204112358Y-143479780D02*
X204588548Y-143479780D01*
X204588548Y-142479780D01*
X203207596Y-143384542D02*
X203255215Y-143432161D01*
X203398072Y-143479780D01*
X203493310Y-143479780D01*
X203636167Y-143432161D01*
X203731405Y-143336923D01*
X203779024Y-143241685D01*
X203826643Y-143051209D01*
X203826643Y-142908352D01*
X203779024Y-142717876D01*
X203731405Y-142622638D01*
X203636167Y-142527400D01*
X203493310Y-142479780D01*
X203398072Y-142479780D01*
X203255215Y-142527400D01*
X203207596Y-142575019D01*
X202493310Y-142479780D02*
X202493310Y-143194066D01*
X202540929Y-143336923D01*
X202636167Y-143432161D01*
X202779024Y-143479780D01*
X202874262Y-143479780D01*
X201540929Y-143479780D02*
X202017120Y-143479780D01*
X202017120Y-142479780D01*
X200636167Y-143384542D02*
X200683786Y-143432161D01*
X200826643Y-143479780D01*
X200921881Y-143479780D01*
X201064739Y-143432161D01*
X201159977Y-143336923D01*
X201207596Y-143241685D01*
X201255215Y-143051209D01*
X201255215Y-142908352D01*
X201207596Y-142717876D01*
X201159977Y-142622638D01*
X201064739Y-142527400D01*
X200921881Y-142479780D01*
X200826643Y-142479780D01*
X200683786Y-142527400D01*
X200636167Y-142575019D01*
X199921881Y-142479780D02*
X199921881Y-143194066D01*
X199969500Y-143336923D01*
X200064739Y-143432161D01*
X200207596Y-143479780D01*
X200302834Y-143479780D01*
X198969500Y-143479780D02*
X199445691Y-143479780D01*
X199445691Y-142479780D01*
X198064739Y-143384542D02*
X198112358Y-143432161D01*
X198255215Y-143479780D01*
X198350453Y-143479780D01*
X198493310Y-143432161D01*
X198588548Y-143336923D01*
X198636167Y-143241685D01*
X198683786Y-143051209D01*
X198683786Y-142908352D01*
X198636167Y-142717876D01*
X198588548Y-142622638D01*
X198493310Y-142527400D01*
X198350453Y-142479780D01*
X198255215Y-142479780D01*
X198112358Y-142527400D01*
X198064739Y-142575019D01*
X118557389Y-138419022D02*
X117890722Y-138419022D01*
X117605008Y-139466641D02*
X118557389Y-139466641D01*
X118557389Y-137466641D01*
X117605008Y-137466641D01*
X116747865Y-138133308D02*
X116747865Y-139466641D01*
X116747865Y-138323784D02*
X116652627Y-138228546D01*
X116462151Y-138133308D01*
X116176437Y-138133308D01*
X115985960Y-138228546D01*
X115890722Y-138419022D01*
X115890722Y-139466641D01*
X114081199Y-138133308D02*
X114081199Y-139752356D01*
X114176437Y-139942832D01*
X114271675Y-140038070D01*
X114462151Y-140133308D01*
X114747865Y-140133308D01*
X114938341Y-140038070D01*
X114081199Y-139371403D02*
X114271675Y-139466641D01*
X114652627Y-139466641D01*
X114843103Y-139371403D01*
X114938341Y-139276165D01*
X115033580Y-139085689D01*
X115033580Y-138514260D01*
X114938341Y-138323784D01*
X114843103Y-138228546D01*
X114652627Y-138133308D01*
X114271675Y-138133308D01*
X114081199Y-138228546D01*
X113128818Y-139466641D02*
X113128818Y-138133308D01*
X113128818Y-137466641D02*
X113224056Y-137561880D01*
X113128818Y-137657118D01*
X113033580Y-137561880D01*
X113128818Y-137466641D01*
X113128818Y-137657118D01*
X112176437Y-138133308D02*
X112176437Y-139466641D01*
X112176437Y-138323784D02*
X112081199Y-138228546D01*
X111890722Y-138133308D01*
X111605008Y-138133308D01*
X111414532Y-138228546D01*
X111319294Y-138419022D01*
X111319294Y-139466641D01*
X109605008Y-139371403D02*
X109795484Y-139466641D01*
X110176437Y-139466641D01*
X110366913Y-139371403D01*
X110462151Y-139180927D01*
X110462151Y-138419022D01*
X110366913Y-138228546D01*
X110176437Y-138133308D01*
X109795484Y-138133308D01*
X109605008Y-138228546D01*
X109509770Y-138419022D01*
X109509770Y-138609499D01*
X110462151Y-138799975D01*
X107890722Y-139371403D02*
X108081199Y-139466641D01*
X108462151Y-139466641D01*
X108652627Y-139371403D01*
X108747865Y-139180927D01*
X108747865Y-138419022D01*
X108652627Y-138228546D01*
X108462151Y-138133308D01*
X108081199Y-138133308D01*
X107890722Y-138228546D01*
X107795484Y-138419022D01*
X107795484Y-138609499D01*
X108747865Y-138799975D01*
X106938341Y-139466641D02*
X106938341Y-138133308D01*
X106938341Y-138514260D02*
X106843103Y-138323784D01*
X106747865Y-138228546D01*
X106557389Y-138133308D01*
X106366913Y-138133308D01*
X105700246Y-139466641D02*
X105700246Y-138133308D01*
X105700246Y-137466641D02*
X105795484Y-137561880D01*
X105700246Y-137657118D01*
X105605008Y-137561880D01*
X105700246Y-137466641D01*
X105700246Y-137657118D01*
X104747865Y-138133308D02*
X104747865Y-139466641D01*
X104747865Y-138323784D02*
X104652627Y-138228546D01*
X104462151Y-138133308D01*
X104176437Y-138133308D01*
X103985960Y-138228546D01*
X103890722Y-138419022D01*
X103890722Y-139466641D01*
X102081199Y-138133308D02*
X102081199Y-139752356D01*
X102176437Y-139942832D01*
X102271675Y-140038070D01*
X102462151Y-140133308D01*
X102747865Y-140133308D01*
X102938341Y-140038070D01*
X102081199Y-139371403D02*
X102271675Y-139466641D01*
X102652627Y-139466641D01*
X102843103Y-139371403D01*
X102938341Y-139276165D01*
X103033580Y-139085689D01*
X103033580Y-138514260D01*
X102938341Y-138323784D01*
X102843103Y-138228546D01*
X102652627Y-138133308D01*
X102271675Y-138133308D01*
X102081199Y-138228546D01*
X99605008Y-139466641D02*
X99605008Y-137466641D01*
X99605008Y-138228546D02*
X99414532Y-138133308D01*
X99033580Y-138133308D01*
X98843103Y-138228546D01*
X98747865Y-138323784D01*
X98652627Y-138514260D01*
X98652627Y-139085689D01*
X98747865Y-139276165D01*
X98843103Y-139371403D01*
X99033580Y-139466641D01*
X99414532Y-139466641D01*
X99605008Y-139371403D01*
X97985960Y-138133308D02*
X97509770Y-139466641D01*
X97033580Y-138133308D02*
X97509770Y-139466641D01*
X97700246Y-139942832D01*
X97795484Y-140038070D01*
X97985960Y-140133308D01*
X96271675Y-139276165D02*
X96176437Y-139371403D01*
X96271675Y-139466641D01*
X96366913Y-139371403D01*
X96271675Y-139276165D01*
X96271675Y-139466641D01*
X96271675Y-138228546D02*
X96176437Y-138323784D01*
X96271675Y-138419022D01*
X96366913Y-138323784D01*
X96271675Y-138228546D01*
X96271675Y-138419022D01*
X93795484Y-139466641D02*
X93795484Y-137466641D01*
X93319294Y-137466641D01*
X93033580Y-137561880D01*
X92843103Y-137752356D01*
X92747865Y-137942832D01*
X92652627Y-138323784D01*
X92652627Y-138609499D01*
X92747865Y-138990451D01*
X92843103Y-139180927D01*
X93033580Y-139371403D01*
X93319294Y-139466641D01*
X93795484Y-139466641D01*
X90938341Y-139466641D02*
X90938341Y-138419022D01*
X91033580Y-138228546D01*
X91224056Y-138133308D01*
X91605008Y-138133308D01*
X91795484Y-138228546D01*
X90938341Y-139371403D02*
X91128818Y-139466641D01*
X91605008Y-139466641D01*
X91795484Y-139371403D01*
X91890722Y-139180927D01*
X91890722Y-138990451D01*
X91795484Y-138799975D01*
X91605008Y-138704737D01*
X91128818Y-138704737D01*
X90938341Y-138609499D01*
X89985960Y-138133308D02*
X89985960Y-139466641D01*
X89985960Y-138323784D02*
X89890722Y-138228546D01*
X89700246Y-138133308D01*
X89414532Y-138133308D01*
X89224056Y-138228546D01*
X89128818Y-138419022D01*
X89128818Y-139466641D01*
X118652627Y-142045213D02*
X117700246Y-142045213D01*
X118843103Y-142616641D02*
X118176437Y-140616641D01*
X117509770Y-142616641D01*
X116843103Y-142616641D02*
X116843103Y-141283308D01*
X116843103Y-141664260D02*
X116747865Y-141473784D01*
X116652627Y-141378546D01*
X116462151Y-141283308D01*
X116271675Y-141283308D01*
X115890722Y-141283308D02*
X115128818Y-141283308D01*
X115605008Y-140616641D02*
X115605008Y-142330927D01*
X115509770Y-142521403D01*
X115319294Y-142616641D01*
X115128818Y-142616641D01*
X114652627Y-141283308D02*
X114271675Y-142616641D01*
X113890722Y-141664260D01*
X113509770Y-142616641D01*
X113128818Y-141283308D01*
X112081199Y-142616641D02*
X112271675Y-142521403D01*
X112366913Y-142426165D01*
X112462151Y-142235689D01*
X112462151Y-141664260D01*
X112366913Y-141473784D01*
X112271675Y-141378546D01*
X112081199Y-141283308D01*
X111795484Y-141283308D01*
X111605008Y-141378546D01*
X111509770Y-141473784D01*
X111414532Y-141664260D01*
X111414532Y-142235689D01*
X111509770Y-142426165D01*
X111605008Y-142521403D01*
X111795484Y-142616641D01*
X112081199Y-142616641D01*
X110557389Y-142616641D02*
X110557389Y-141283308D01*
X110557389Y-141664260D02*
X110462151Y-141473784D01*
X110366913Y-141378546D01*
X110176437Y-141283308D01*
X109985960Y-141283308D01*
X109319294Y-142616641D02*
X109319294Y-140616641D01*
X109128818Y-141854737D02*
X108557389Y-142616641D01*
X108557389Y-141283308D02*
X109319294Y-142045213D01*
X106176437Y-142616641D02*
X106176437Y-140616641D01*
X106176437Y-141378546D02*
X105985960Y-141283308D01*
X105605008Y-141283308D01*
X105414532Y-141378546D01*
X105319294Y-141473784D01*
X105224056Y-141664260D01*
X105224056Y-142235689D01*
X105319294Y-142426165D01*
X105414532Y-142521403D01*
X105605008Y-142616641D01*
X105985960Y-142616641D01*
X106176437Y-142521403D01*
X104557389Y-141283308D02*
X104081199Y-142616641D01*
X103605008Y-141283308D02*
X104081199Y-142616641D01*
X104271675Y-143092832D01*
X104366913Y-143188070D01*
X104557389Y-143283308D01*
X102843103Y-142426165D02*
X102747865Y-142521403D01*
X102843103Y-142616641D01*
X102938341Y-142521403D01*
X102843103Y-142426165D01*
X102843103Y-142616641D01*
X102843103Y-141378546D02*
X102747865Y-141473784D01*
X102843103Y-141569022D01*
X102938341Y-141473784D01*
X102843103Y-141378546D01*
X102843103Y-141569022D01*
X100366913Y-142616641D02*
X100366913Y-140616641D01*
X99890722Y-140616641D01*
X99605008Y-140711880D01*
X99414532Y-140902356D01*
X99319294Y-141092832D01*
X99224056Y-141473784D01*
X99224056Y-141759499D01*
X99319294Y-142140451D01*
X99414532Y-142330927D01*
X99605008Y-142521403D01*
X99890722Y-142616641D01*
X100366913Y-142616641D01*
X97509770Y-142616641D02*
X97509770Y-141569022D01*
X97605008Y-141378546D01*
X97795484Y-141283308D01*
X98176437Y-141283308D01*
X98366913Y-141378546D01*
X97509770Y-142521403D02*
X97700246Y-142616641D01*
X98176437Y-142616641D01*
X98366913Y-142521403D01*
X98462151Y-142330927D01*
X98462151Y-142140451D01*
X98366913Y-141949975D01*
X98176437Y-141854737D01*
X97700246Y-141854737D01*
X97509770Y-141759499D01*
X96557389Y-141283308D02*
X96557389Y-142616641D01*
X96557389Y-141473784D02*
X96462151Y-141378546D01*
X96271675Y-141283308D01*
X95985960Y-141283308D01*
X95795484Y-141378546D01*
X95700246Y-141569022D01*
X95700246Y-142616641D01*
D11*
%TO.C,P1*%
X115190001Y-115015435D02*
X115572027Y-112848858D01*
X113238033Y-112437312D02*
X112856007Y-114603889D01*
X120407433Y-113701471D02*
X113238033Y-112437312D01*
X120025407Y-115868048D02*
X120407433Y-113701471D01*
X112856007Y-114603889D02*
X120025407Y-115868048D01*
D12*
%TO.C,D1*%
X167232940Y-80261460D02*
G75*
G03*
X167232940Y-80261460I-200000J0D01*
G01*
D11*
%TO.C,C1*%
X114463240Y-102471304D02*
X114463240Y-101267176D01*
X112643240Y-102471304D02*
X112643240Y-101267176D01*
%TO.C,C2*%
X181813880Y-114345344D02*
X181813880Y-113141216D01*
X179993880Y-114345344D02*
X179993880Y-113141216D01*
D13*
%TO.C,D3*%
X203506680Y-125696980D02*
G75*
G03*
X203506680Y-125696980I-100000J0D01*
G01*
%TO.C,D5*%
X163755680Y-121191020D02*
G75*
G03*
X163755680Y-121191020I-100000J0D01*
G01*
D11*
%TO.C,R2*%
X173157424Y-86420280D02*
X171953296Y-86420280D01*
X173157424Y-88240280D02*
X171953296Y-88240280D01*
%TO.C,R1*%
X173085384Y-79445440D02*
X171881256Y-79445440D01*
X173085384Y-81265440D02*
X171881256Y-81265440D01*
%TO.C,R4*%
X156417736Y-85197360D02*
X157621864Y-85197360D01*
X156417736Y-83377360D02*
X157621864Y-83377360D01*
%TO.C,R3*%
X156991776Y-78801640D02*
X158195904Y-78801640D01*
X156991776Y-76981640D02*
X158195904Y-76981640D01*
%TO.C,R6*%
X173152344Y-83407840D02*
X171948216Y-83407840D01*
X173152344Y-85227840D02*
X171948216Y-85227840D01*
%TO.C,R5*%
X172791664Y-76509200D02*
X171587536Y-76509200D01*
X172791664Y-78329200D02*
X171587536Y-78329200D01*
%TO.C,R8*%
X202225184Y-128081360D02*
X201021056Y-128081360D01*
X202225184Y-129901360D02*
X201021056Y-129901360D01*
%TO.C,R10*%
X163798976Y-118095440D02*
X165003104Y-118095440D01*
X163798976Y-116275440D02*
X165003104Y-116275440D01*
%TO.C,R9*%
X135727064Y-119181200D02*
X134522936Y-119181200D01*
X135727064Y-121001200D02*
X134522936Y-121001200D01*
%TO.C,R13*%
X172958384Y-110941440D02*
X171754256Y-110941440D01*
X172958384Y-112761440D02*
X171754256Y-112761440D01*
%TO.C,R14*%
X164411744Y-127441280D02*
X163207616Y-127441280D01*
X164411744Y-129261280D02*
X163207616Y-129261280D01*
%TO.C,R15*%
X187164896Y-131572680D02*
X188369024Y-131572680D01*
X187164896Y-129752680D02*
X188369024Y-129752680D01*
%TO.C,R16*%
X201193944Y-91144680D02*
X199989816Y-91144680D01*
X201193944Y-92964680D02*
X199989816Y-92964680D01*
%TO.C,R17*%
X207034856Y-90236720D02*
X208238984Y-90236720D01*
X207034856Y-88416720D02*
X208238984Y-88416720D01*
%TO.C,R18*%
X192704176Y-115636720D02*
X193908304Y-115636720D01*
X192704176Y-113816720D02*
X193908304Y-113816720D01*
%TO.C,R19*%
X200964256Y-108555200D02*
X202168384Y-108555200D01*
X200964256Y-106735200D02*
X202168384Y-106735200D01*
%TO.C,R20*%
X181463224Y-119176120D02*
X180259096Y-119176120D01*
X181463224Y-120996120D02*
X180259096Y-120996120D01*
%TO.C,Q1*%
X177849560Y-113131480D02*
X177849560Y-114061480D01*
X177849560Y-116291480D02*
X177849560Y-115361480D01*
X177849560Y-116291480D02*
X175689560Y-116291480D01*
X177849560Y-113131480D02*
X176389560Y-113131480D01*
D10*
%TO.C,BT1*%
X133836560Y-82397600D02*
G75*
G03*
X133836560Y-82397600I-10000000J0D01*
G01*
D12*
%TO.C,D2*%
X167106900Y-86663700D02*
G75*
G03*
X167106900Y-86663700I-200000J0D01*
G01*
%TO.C,D4*%
X201734720Y-79494380D02*
G75*
G03*
X201734720Y-79494380I-200000J0D01*
G01*
%TO.C,D6*%
X171715080Y-125158500D02*
G75*
G03*
X171715080Y-125158500I-200000J0D01*
G01*
%TO.C,D7*%
X192761520Y-128282700D02*
G75*
G03*
X192761520Y-128282700I-200000J0D01*
G01*
%TO.C,D8*%
X203304440Y-97594420D02*
G75*
G03*
X203304440Y-97594420I-200000J0D01*
G01*
%TO.C,D9*%
X208142180Y-93120520D02*
G75*
G03*
X208142180Y-93120520I-200000J0D01*
G01*
%TO.C,D10*%
X190550140Y-113117320D02*
G75*
G03*
X190550140Y-113117320I-200000J0D01*
G01*
%TO.C,D11*%
X201150520Y-105056940D02*
G75*
G03*
X201150520Y-105056940I-200000J0D01*
G01*
%TO.C,D12*%
X183951220Y-121057360D02*
G75*
G03*
X183951220Y-121057360I-200000J0D01*
G01*
D11*
%TO.C,R7*%
X129779384Y-119257400D02*
X128325256Y-119257400D01*
X129779384Y-121077400D02*
X128325256Y-121077400D01*
%TO.C,R11*%
X199254004Y-82047760D02*
X197799876Y-82047760D01*
X199254004Y-80227760D02*
X197799876Y-80227760D01*
%TO.C,R12*%
X138232504Y-124088480D02*
X136778376Y-124088480D01*
X138232504Y-125908480D02*
X136778376Y-125908480D01*
D14*
%TO.C,U1*%
X121147440Y-108811880D02*
X121047440Y-108811880D01*
X121047440Y-108811880D02*
X120697440Y-108461880D01*
X120697440Y-108461880D02*
X120697440Y-108361880D01*
X120697440Y-108361880D02*
X119397440Y-108361880D01*
X127897440Y-108811880D02*
X127447440Y-108811880D01*
X127897440Y-108811880D02*
X127897440Y-108361880D01*
X127897440Y-101611880D02*
X127897440Y-102061880D01*
X127897440Y-101611880D02*
X127447440Y-101611880D01*
X120697440Y-101611880D02*
X121147440Y-101611880D01*
X120697440Y-101611880D02*
X120697440Y-102061880D01*
D11*
%TO.C,VR1*%
X109125000Y-93797440D02*
X110925000Y-93797440D01*
X110925000Y-97017440D02*
X108475000Y-97017440D01*
%TO.C,P1*%
D10*
X117110431Y-117092511D02*
X117284079Y-116107703D01*
X116908915Y-116041551D01*
X116806854Y-116071909D01*
X116751690Y-116110536D01*
X116688256Y-116196058D01*
X116663449Y-116336745D01*
X116693807Y-116438805D01*
X116732434Y-116493969D01*
X116817956Y-116557403D01*
X117193121Y-116623555D01*
X115609772Y-116827904D02*
X116172519Y-116927131D01*
X115891145Y-116877518D02*
X116064794Y-115892710D01*
X116133778Y-116049935D01*
X116211031Y-116160264D01*
X116296554Y-116223697D01*
X113982520Y-110781803D02*
X113883292Y-111344550D01*
X114917714Y-111236825D02*
X113932906Y-111063177D01*
X114826755Y-111752677D02*
X114079258Y-112152763D01*
X114170217Y-111636911D02*
X114735797Y-112268528D01*
X117535473Y-112012705D02*
X117124399Y-111601747D01*
X117634700Y-111449958D02*
X116649892Y-111276310D01*
X116583741Y-111651475D01*
X116614098Y-111753535D01*
X116652725Y-111808700D01*
X116738247Y-111872133D01*
X116878934Y-111896940D01*
X116980994Y-111866582D01*
X117036159Y-111827956D01*
X117099592Y-111742433D01*
X117165744Y-111367269D01*
X117477590Y-112340975D02*
X116730093Y-112741061D01*
X116821051Y-112225209D02*
X117386631Y-112856826D01*
X119326775Y-111040343D02*
X119296417Y-110938283D01*
X119321224Y-110797596D01*
X119392927Y-110665178D01*
X119503256Y-110587925D01*
X119605316Y-110557567D01*
X119801167Y-110543747D01*
X119941854Y-110568554D01*
X120121168Y-110648525D01*
X120206690Y-110711959D01*
X120283943Y-110822288D01*
X120306032Y-110971244D01*
X120289494Y-111065035D01*
X120217792Y-111197453D01*
X120162627Y-111236080D01*
X119834358Y-111178197D01*
X119867434Y-110990614D01*
X120181998Y-111674678D02*
X119197190Y-111501030D01*
X120082770Y-112237425D01*
X119097962Y-112063777D01*
X120000080Y-112706381D02*
X119015273Y-112532733D01*
X118973928Y-112767211D01*
X118996017Y-112916167D01*
X119073270Y-113026496D01*
X119158792Y-113089930D01*
X119338106Y-113169901D01*
X119478792Y-113194708D01*
X119674644Y-113180888D01*
X119776704Y-113150531D01*
X119887033Y-113073277D01*
X119958736Y-112940859D01*
X120000080Y-112706381D01*
%TO.C,D1*%
X166353715Y-76847960D02*
X166353715Y-75847960D01*
X166115620Y-75847960D01*
X165972762Y-75895580D01*
X165877524Y-75990818D01*
X165829905Y-76086056D01*
X165782286Y-76276532D01*
X165782286Y-76419389D01*
X165829905Y-76609865D01*
X165877524Y-76705103D01*
X165972762Y-76800341D01*
X166115620Y-76847960D01*
X166353715Y-76847960D01*
X164829905Y-76847960D02*
X165401334Y-76847960D01*
X165115620Y-76847960D02*
X165115620Y-75847960D01*
X165210858Y-75990818D01*
X165306096Y-76086056D01*
X165401334Y-76133675D01*
%TO.C,C1*%
X115730382Y-101702573D02*
X115778001Y-101654954D01*
X115825620Y-101512097D01*
X115825620Y-101416859D01*
X115778001Y-101274001D01*
X115682763Y-101178763D01*
X115587525Y-101131144D01*
X115397049Y-101083525D01*
X115254192Y-101083525D01*
X115063716Y-101131144D01*
X114968478Y-101178763D01*
X114873240Y-101274001D01*
X114825620Y-101416859D01*
X114825620Y-101512097D01*
X114873240Y-101654954D01*
X114920859Y-101702573D01*
X115825620Y-102654954D02*
X115825620Y-102083525D01*
X115825620Y-102369240D02*
X114825620Y-102369240D01*
X114968478Y-102274001D01*
X115063716Y-102178763D01*
X115111335Y-102083525D01*
%TO.C,C2*%
X183081022Y-113576613D02*
X183128641Y-113528994D01*
X183176260Y-113386137D01*
X183176260Y-113290899D01*
X183128641Y-113148041D01*
X183033403Y-113052803D01*
X182938165Y-113005184D01*
X182747689Y-112957565D01*
X182604832Y-112957565D01*
X182414356Y-113005184D01*
X182319118Y-113052803D01*
X182223880Y-113148041D01*
X182176260Y-113290899D01*
X182176260Y-113386137D01*
X182223880Y-113528994D01*
X182271499Y-113576613D01*
X182271499Y-113957565D02*
X182223880Y-114005184D01*
X182176260Y-114100422D01*
X182176260Y-114338518D01*
X182223880Y-114433756D01*
X182271499Y-114481375D01*
X182366737Y-114528994D01*
X182461975Y-114528994D01*
X182604832Y-114481375D01*
X183176260Y-113909946D01*
X183176260Y-114528994D01*
%TO.C,D3*%
X201672415Y-127622560D02*
X201672415Y-126622560D01*
X201434320Y-126622560D01*
X201291462Y-126670180D01*
X201196224Y-126765418D01*
X201148605Y-126860656D01*
X201100986Y-127051132D01*
X201100986Y-127193989D01*
X201148605Y-127384465D01*
X201196224Y-127479703D01*
X201291462Y-127574941D01*
X201434320Y-127622560D01*
X201672415Y-127622560D01*
X200767653Y-126622560D02*
X200148605Y-126622560D01*
X200481939Y-127003513D01*
X200339081Y-127003513D01*
X200243843Y-127051132D01*
X200196224Y-127098751D01*
X200148605Y-127193989D01*
X200148605Y-127432084D01*
X200196224Y-127527322D01*
X200243843Y-127574941D01*
X200339081Y-127622560D01*
X200624796Y-127622560D01*
X200720034Y-127574941D01*
X200767653Y-127527322D01*
%TO.C,D5*%
X161921415Y-123116600D02*
X161921415Y-122116600D01*
X161683320Y-122116600D01*
X161540462Y-122164220D01*
X161445224Y-122259458D01*
X161397605Y-122354696D01*
X161349986Y-122545172D01*
X161349986Y-122688029D01*
X161397605Y-122878505D01*
X161445224Y-122973743D01*
X161540462Y-123068981D01*
X161683320Y-123116600D01*
X161921415Y-123116600D01*
X160445224Y-122116600D02*
X160921415Y-122116600D01*
X160969034Y-122592791D01*
X160921415Y-122545172D01*
X160826177Y-122497553D01*
X160588081Y-122497553D01*
X160492843Y-122545172D01*
X160445224Y-122592791D01*
X160397605Y-122688029D01*
X160397605Y-122926124D01*
X160445224Y-123021362D01*
X160492843Y-123068981D01*
X160588081Y-123116600D01*
X160826177Y-123116600D01*
X160921415Y-123068981D01*
X160969034Y-123021362D01*
%TO.C,R2*%
X172722026Y-85962660D02*
X173055360Y-85486470D01*
X173293455Y-85962660D02*
X173293455Y-84962660D01*
X172912502Y-84962660D01*
X172817264Y-85010280D01*
X172769645Y-85057899D01*
X172722026Y-85153137D01*
X172722026Y-85295994D01*
X172769645Y-85391232D01*
X172817264Y-85438851D01*
X172912502Y-85486470D01*
X173293455Y-85486470D01*
X172341074Y-85057899D02*
X172293455Y-85010280D01*
X172198217Y-84962660D01*
X171960121Y-84962660D01*
X171864883Y-85010280D01*
X171817264Y-85057899D01*
X171769645Y-85153137D01*
X171769645Y-85248375D01*
X171817264Y-85391232D01*
X172388693Y-85962660D01*
X171769645Y-85962660D01*
%TO.C,R1*%
X172649986Y-78987820D02*
X172983320Y-78511630D01*
X173221415Y-78987820D02*
X173221415Y-77987820D01*
X172840462Y-77987820D01*
X172745224Y-78035440D01*
X172697605Y-78083059D01*
X172649986Y-78178297D01*
X172649986Y-78321154D01*
X172697605Y-78416392D01*
X172745224Y-78464011D01*
X172840462Y-78511630D01*
X173221415Y-78511630D01*
X171697605Y-78987820D02*
X172269034Y-78987820D01*
X171983320Y-78987820D02*
X171983320Y-77987820D01*
X172078558Y-78130678D01*
X172173796Y-78225916D01*
X172269034Y-78273535D01*
%TO.C,R4*%
X157186466Y-86559740D02*
X157519800Y-86083550D01*
X157757895Y-86559740D02*
X157757895Y-85559740D01*
X157376942Y-85559740D01*
X157281704Y-85607360D01*
X157234085Y-85654979D01*
X157186466Y-85750217D01*
X157186466Y-85893074D01*
X157234085Y-85988312D01*
X157281704Y-86035931D01*
X157376942Y-86083550D01*
X157757895Y-86083550D01*
X156329323Y-85893074D02*
X156329323Y-86559740D01*
X156567419Y-85512121D02*
X156805514Y-86226407D01*
X156186466Y-86226407D01*
%TO.C,R3*%
X157760506Y-80164020D02*
X158093840Y-79687830D01*
X158331935Y-80164020D02*
X158331935Y-79164020D01*
X157950982Y-79164020D01*
X157855744Y-79211640D01*
X157808125Y-79259259D01*
X157760506Y-79354497D01*
X157760506Y-79497354D01*
X157808125Y-79592592D01*
X157855744Y-79640211D01*
X157950982Y-79687830D01*
X158331935Y-79687830D01*
X157427173Y-79164020D02*
X156808125Y-79164020D01*
X157141459Y-79544973D01*
X156998601Y-79544973D01*
X156903363Y-79592592D01*
X156855744Y-79640211D01*
X156808125Y-79735449D01*
X156808125Y-79973544D01*
X156855744Y-80068782D01*
X156903363Y-80116401D01*
X156998601Y-80164020D01*
X157284316Y-80164020D01*
X157379554Y-80116401D01*
X157427173Y-80068782D01*
%TO.C,R6*%
X172716946Y-82950220D02*
X173050280Y-82474030D01*
X173288375Y-82950220D02*
X173288375Y-81950220D01*
X172907422Y-81950220D01*
X172812184Y-81997840D01*
X172764565Y-82045459D01*
X172716946Y-82140697D01*
X172716946Y-82283554D01*
X172764565Y-82378792D01*
X172812184Y-82426411D01*
X172907422Y-82474030D01*
X173288375Y-82474030D01*
X171859803Y-81950220D02*
X172050280Y-81950220D01*
X172145518Y-81997840D01*
X172193137Y-82045459D01*
X172288375Y-82188316D01*
X172335994Y-82378792D01*
X172335994Y-82759744D01*
X172288375Y-82854982D01*
X172240756Y-82902601D01*
X172145518Y-82950220D01*
X171955041Y-82950220D01*
X171859803Y-82902601D01*
X171812184Y-82854982D01*
X171764565Y-82759744D01*
X171764565Y-82521649D01*
X171812184Y-82426411D01*
X171859803Y-82378792D01*
X171955041Y-82331173D01*
X172145518Y-82331173D01*
X172240756Y-82378792D01*
X172288375Y-82426411D01*
X172335994Y-82521649D01*
%TO.C,R5*%
X172356266Y-76051580D02*
X172689600Y-75575390D01*
X172927695Y-76051580D02*
X172927695Y-75051580D01*
X172546742Y-75051580D01*
X172451504Y-75099200D01*
X172403885Y-75146819D01*
X172356266Y-75242057D01*
X172356266Y-75384914D01*
X172403885Y-75480152D01*
X172451504Y-75527771D01*
X172546742Y-75575390D01*
X172927695Y-75575390D01*
X171451504Y-75051580D02*
X171927695Y-75051580D01*
X171975314Y-75527771D01*
X171927695Y-75480152D01*
X171832457Y-75432533D01*
X171594361Y-75432533D01*
X171499123Y-75480152D01*
X171451504Y-75527771D01*
X171403885Y-75623009D01*
X171403885Y-75861104D01*
X171451504Y-75956342D01*
X171499123Y-76003961D01*
X171594361Y-76051580D01*
X171832457Y-76051580D01*
X171927695Y-76003961D01*
X171975314Y-75956342D01*
%TO.C,R8*%
X201789786Y-127623740D02*
X202123120Y-127147550D01*
X202361215Y-127623740D02*
X202361215Y-126623740D01*
X201980262Y-126623740D01*
X201885024Y-126671360D01*
X201837405Y-126718979D01*
X201789786Y-126814217D01*
X201789786Y-126957074D01*
X201837405Y-127052312D01*
X201885024Y-127099931D01*
X201980262Y-127147550D01*
X202361215Y-127147550D01*
X201218358Y-127052312D02*
X201313596Y-127004693D01*
X201361215Y-126957074D01*
X201408834Y-126861836D01*
X201408834Y-126814217D01*
X201361215Y-126718979D01*
X201313596Y-126671360D01*
X201218358Y-126623740D01*
X201027881Y-126623740D01*
X200932643Y-126671360D01*
X200885024Y-126718979D01*
X200837405Y-126814217D01*
X200837405Y-126861836D01*
X200885024Y-126957074D01*
X200932643Y-127004693D01*
X201027881Y-127052312D01*
X201218358Y-127052312D01*
X201313596Y-127099931D01*
X201361215Y-127147550D01*
X201408834Y-127242788D01*
X201408834Y-127433264D01*
X201361215Y-127528502D01*
X201313596Y-127576121D01*
X201218358Y-127623740D01*
X201027881Y-127623740D01*
X200932643Y-127576121D01*
X200885024Y-127528502D01*
X200837405Y-127433264D01*
X200837405Y-127242788D01*
X200885024Y-127147550D01*
X200932643Y-127099931D01*
X201027881Y-127052312D01*
%TO.C,R10*%
X165043897Y-119457820D02*
X165377230Y-118981630D01*
X165615325Y-119457820D02*
X165615325Y-118457820D01*
X165234373Y-118457820D01*
X165139135Y-118505440D01*
X165091516Y-118553059D01*
X165043897Y-118648297D01*
X165043897Y-118791154D01*
X165091516Y-118886392D01*
X165139135Y-118934011D01*
X165234373Y-118981630D01*
X165615325Y-118981630D01*
X164091516Y-119457820D02*
X164662944Y-119457820D01*
X164377230Y-119457820D02*
X164377230Y-118457820D01*
X164472468Y-118600678D01*
X164567706Y-118695916D01*
X164662944Y-118743535D01*
X163472468Y-118457820D02*
X163377230Y-118457820D01*
X163281992Y-118505440D01*
X163234373Y-118553059D01*
X163186754Y-118648297D01*
X163139135Y-118838773D01*
X163139135Y-119076868D01*
X163186754Y-119267344D01*
X163234373Y-119362582D01*
X163281992Y-119410201D01*
X163377230Y-119457820D01*
X163472468Y-119457820D01*
X163567706Y-119410201D01*
X163615325Y-119362582D01*
X163662944Y-119267344D01*
X163710563Y-119076868D01*
X163710563Y-118838773D01*
X163662944Y-118648297D01*
X163615325Y-118553059D01*
X163567706Y-118505440D01*
X163472468Y-118457820D01*
%TO.C,R9*%
X135291666Y-118723580D02*
X135625000Y-118247390D01*
X135863095Y-118723580D02*
X135863095Y-117723580D01*
X135482142Y-117723580D01*
X135386904Y-117771200D01*
X135339285Y-117818819D01*
X135291666Y-117914057D01*
X135291666Y-118056914D01*
X135339285Y-118152152D01*
X135386904Y-118199771D01*
X135482142Y-118247390D01*
X135863095Y-118247390D01*
X134815476Y-118723580D02*
X134625000Y-118723580D01*
X134529761Y-118675961D01*
X134482142Y-118628342D01*
X134386904Y-118485485D01*
X134339285Y-118295009D01*
X134339285Y-117914057D01*
X134386904Y-117818819D01*
X134434523Y-117771200D01*
X134529761Y-117723580D01*
X134720238Y-117723580D01*
X134815476Y-117771200D01*
X134863095Y-117818819D01*
X134910714Y-117914057D01*
X134910714Y-118152152D01*
X134863095Y-118247390D01*
X134815476Y-118295009D01*
X134720238Y-118342628D01*
X134529761Y-118342628D01*
X134434523Y-118295009D01*
X134386904Y-118247390D01*
X134339285Y-118152152D01*
%TO.C,R13*%
X172999177Y-110483820D02*
X173332510Y-110007630D01*
X173570605Y-110483820D02*
X173570605Y-109483820D01*
X173189653Y-109483820D01*
X173094415Y-109531440D01*
X173046796Y-109579059D01*
X172999177Y-109674297D01*
X172999177Y-109817154D01*
X173046796Y-109912392D01*
X173094415Y-109960011D01*
X173189653Y-110007630D01*
X173570605Y-110007630D01*
X172046796Y-110483820D02*
X172618224Y-110483820D01*
X172332510Y-110483820D02*
X172332510Y-109483820D01*
X172427748Y-109626678D01*
X172522986Y-109721916D01*
X172618224Y-109769535D01*
X171713462Y-109483820D02*
X171094415Y-109483820D01*
X171427748Y-109864773D01*
X171284891Y-109864773D01*
X171189653Y-109912392D01*
X171142034Y-109960011D01*
X171094415Y-110055249D01*
X171094415Y-110293344D01*
X171142034Y-110388582D01*
X171189653Y-110436201D01*
X171284891Y-110483820D01*
X171570605Y-110483820D01*
X171665843Y-110436201D01*
X171713462Y-110388582D01*
%TO.C,R14*%
X164452537Y-126983660D02*
X164785870Y-126507470D01*
X165023965Y-126983660D02*
X165023965Y-125983660D01*
X164643013Y-125983660D01*
X164547775Y-126031280D01*
X164500156Y-126078899D01*
X164452537Y-126174137D01*
X164452537Y-126316994D01*
X164500156Y-126412232D01*
X164547775Y-126459851D01*
X164643013Y-126507470D01*
X165023965Y-126507470D01*
X163500156Y-126983660D02*
X164071584Y-126983660D01*
X163785870Y-126983660D02*
X163785870Y-125983660D01*
X163881108Y-126126518D01*
X163976346Y-126221756D01*
X164071584Y-126269375D01*
X162643013Y-126316994D02*
X162643013Y-126983660D01*
X162881108Y-125936041D02*
X163119203Y-126650327D01*
X162500156Y-126650327D01*
%TO.C,R15*%
X188409817Y-132935060D02*
X188743150Y-132458870D01*
X188981245Y-132935060D02*
X188981245Y-131935060D01*
X188600293Y-131935060D01*
X188505055Y-131982680D01*
X188457436Y-132030299D01*
X188409817Y-132125537D01*
X188409817Y-132268394D01*
X188457436Y-132363632D01*
X188505055Y-132411251D01*
X188600293Y-132458870D01*
X188981245Y-132458870D01*
X187457436Y-132935060D02*
X188028864Y-132935060D01*
X187743150Y-132935060D02*
X187743150Y-131935060D01*
X187838388Y-132077918D01*
X187933626Y-132173156D01*
X188028864Y-132220775D01*
X186552674Y-131935060D02*
X187028864Y-131935060D01*
X187076483Y-132411251D01*
X187028864Y-132363632D01*
X186933626Y-132316013D01*
X186695531Y-132316013D01*
X186600293Y-132363632D01*
X186552674Y-132411251D01*
X186505055Y-132506489D01*
X186505055Y-132744584D01*
X186552674Y-132839822D01*
X186600293Y-132887441D01*
X186695531Y-132935060D01*
X186933626Y-132935060D01*
X187028864Y-132887441D01*
X187076483Y-132839822D01*
%TO.C,R16*%
X201234737Y-90687060D02*
X201568070Y-90210870D01*
X201806165Y-90687060D02*
X201806165Y-89687060D01*
X201425213Y-89687060D01*
X201329975Y-89734680D01*
X201282356Y-89782299D01*
X201234737Y-89877537D01*
X201234737Y-90020394D01*
X201282356Y-90115632D01*
X201329975Y-90163251D01*
X201425213Y-90210870D01*
X201806165Y-90210870D01*
X200282356Y-90687060D02*
X200853784Y-90687060D01*
X200568070Y-90687060D02*
X200568070Y-89687060D01*
X200663308Y-89829918D01*
X200758546Y-89925156D01*
X200853784Y-89972775D01*
X199425213Y-89687060D02*
X199615689Y-89687060D01*
X199710927Y-89734680D01*
X199758546Y-89782299D01*
X199853784Y-89925156D01*
X199901403Y-90115632D01*
X199901403Y-90496584D01*
X199853784Y-90591822D01*
X199806165Y-90639441D01*
X199710927Y-90687060D01*
X199520451Y-90687060D01*
X199425213Y-90639441D01*
X199377594Y-90591822D01*
X199329975Y-90496584D01*
X199329975Y-90258489D01*
X199377594Y-90163251D01*
X199425213Y-90115632D01*
X199520451Y-90068013D01*
X199710927Y-90068013D01*
X199806165Y-90115632D01*
X199853784Y-90163251D01*
X199901403Y-90258489D01*
%TO.C,R17*%
X208279777Y-91599100D02*
X208613110Y-91122910D01*
X208851205Y-91599100D02*
X208851205Y-90599100D01*
X208470253Y-90599100D01*
X208375015Y-90646720D01*
X208327396Y-90694339D01*
X208279777Y-90789577D01*
X208279777Y-90932434D01*
X208327396Y-91027672D01*
X208375015Y-91075291D01*
X208470253Y-91122910D01*
X208851205Y-91122910D01*
X207327396Y-91599100D02*
X207898824Y-91599100D01*
X207613110Y-91599100D02*
X207613110Y-90599100D01*
X207708348Y-90741958D01*
X207803586Y-90837196D01*
X207898824Y-90884815D01*
X206994062Y-90599100D02*
X206327396Y-90599100D01*
X206755967Y-91599100D01*
%TO.C,R18*%
X193949097Y-116999100D02*
X194282430Y-116522910D01*
X194520525Y-116999100D02*
X194520525Y-115999100D01*
X194139573Y-115999100D01*
X194044335Y-116046720D01*
X193996716Y-116094339D01*
X193949097Y-116189577D01*
X193949097Y-116332434D01*
X193996716Y-116427672D01*
X194044335Y-116475291D01*
X194139573Y-116522910D01*
X194520525Y-116522910D01*
X192996716Y-116999100D02*
X193568144Y-116999100D01*
X193282430Y-116999100D02*
X193282430Y-115999100D01*
X193377668Y-116141958D01*
X193472906Y-116237196D01*
X193568144Y-116284815D01*
X192425287Y-116427672D02*
X192520525Y-116380053D01*
X192568144Y-116332434D01*
X192615763Y-116237196D01*
X192615763Y-116189577D01*
X192568144Y-116094339D01*
X192520525Y-116046720D01*
X192425287Y-115999100D01*
X192234811Y-115999100D01*
X192139573Y-116046720D01*
X192091954Y-116094339D01*
X192044335Y-116189577D01*
X192044335Y-116237196D01*
X192091954Y-116332434D01*
X192139573Y-116380053D01*
X192234811Y-116427672D01*
X192425287Y-116427672D01*
X192520525Y-116475291D01*
X192568144Y-116522910D01*
X192615763Y-116618148D01*
X192615763Y-116808624D01*
X192568144Y-116903862D01*
X192520525Y-116951481D01*
X192425287Y-116999100D01*
X192234811Y-116999100D01*
X192139573Y-116951481D01*
X192091954Y-116903862D01*
X192044335Y-116808624D01*
X192044335Y-116618148D01*
X192091954Y-116522910D01*
X192139573Y-116475291D01*
X192234811Y-116427672D01*
%TO.C,R19*%
X202209177Y-109917580D02*
X202542510Y-109441390D01*
X202780605Y-109917580D02*
X202780605Y-108917580D01*
X202399653Y-108917580D01*
X202304415Y-108965200D01*
X202256796Y-109012819D01*
X202209177Y-109108057D01*
X202209177Y-109250914D01*
X202256796Y-109346152D01*
X202304415Y-109393771D01*
X202399653Y-109441390D01*
X202780605Y-109441390D01*
X201256796Y-109917580D02*
X201828224Y-109917580D01*
X201542510Y-109917580D02*
X201542510Y-108917580D01*
X201637748Y-109060438D01*
X201732986Y-109155676D01*
X201828224Y-109203295D01*
X200780605Y-109917580D02*
X200590129Y-109917580D01*
X200494891Y-109869961D01*
X200447272Y-109822342D01*
X200352034Y-109679485D01*
X200304415Y-109489009D01*
X200304415Y-109108057D01*
X200352034Y-109012819D01*
X200399653Y-108965200D01*
X200494891Y-108917580D01*
X200685367Y-108917580D01*
X200780605Y-108965200D01*
X200828224Y-109012819D01*
X200875843Y-109108057D01*
X200875843Y-109346152D01*
X200828224Y-109441390D01*
X200780605Y-109489009D01*
X200685367Y-109536628D01*
X200494891Y-109536628D01*
X200399653Y-109489009D01*
X200352034Y-109441390D01*
X200304415Y-109346152D01*
%TO.C,R20*%
X181504017Y-118718500D02*
X181837350Y-118242310D01*
X182075445Y-118718500D02*
X182075445Y-117718500D01*
X181694493Y-117718500D01*
X181599255Y-117766120D01*
X181551636Y-117813739D01*
X181504017Y-117908977D01*
X181504017Y-118051834D01*
X181551636Y-118147072D01*
X181599255Y-118194691D01*
X181694493Y-118242310D01*
X182075445Y-118242310D01*
X181123064Y-117813739D02*
X181075445Y-117766120D01*
X180980207Y-117718500D01*
X180742112Y-117718500D01*
X180646874Y-117766120D01*
X180599255Y-117813739D01*
X180551636Y-117908977D01*
X180551636Y-118004215D01*
X180599255Y-118147072D01*
X181170683Y-118718500D01*
X180551636Y-118718500D01*
X179932588Y-117718500D02*
X179837350Y-117718500D01*
X179742112Y-117766120D01*
X179694493Y-117813739D01*
X179646874Y-117908977D01*
X179599255Y-118099453D01*
X179599255Y-118337548D01*
X179646874Y-118528024D01*
X179694493Y-118623262D01*
X179742112Y-118670881D01*
X179837350Y-118718500D01*
X179932588Y-118718500D01*
X180027826Y-118670881D01*
X180075445Y-118623262D01*
X180123064Y-118528024D01*
X180170683Y-118337548D01*
X180170683Y-118099453D01*
X180123064Y-117908977D01*
X180075445Y-117813739D01*
X180027826Y-117766120D01*
X179932588Y-117718500D01*
%TO.C,SW1*%
X148246293Y-78985561D02*
X148103436Y-79033180D01*
X147865340Y-79033180D01*
X147770102Y-78985561D01*
X147722483Y-78937942D01*
X147674864Y-78842704D01*
X147674864Y-78747466D01*
X147722483Y-78652228D01*
X147770102Y-78604609D01*
X147865340Y-78556990D01*
X148055817Y-78509371D01*
X148151055Y-78461752D01*
X148198674Y-78414133D01*
X148246293Y-78318895D01*
X148246293Y-78223657D01*
X148198674Y-78128419D01*
X148151055Y-78080800D01*
X148055817Y-78033180D01*
X147817721Y-78033180D01*
X147674864Y-78080800D01*
X147341531Y-78033180D02*
X147103436Y-79033180D01*
X146912960Y-78318895D01*
X146722483Y-79033180D01*
X146484388Y-78033180D01*
X145579626Y-79033180D02*
X146151055Y-79033180D01*
X145865340Y-79033180D02*
X145865340Y-78033180D01*
X145960579Y-78176038D01*
X146055817Y-78271276D01*
X146151055Y-78318895D01*
%TO.C,Q1*%
X177184798Y-117759099D02*
X177280036Y-117711480D01*
X177375274Y-117616241D01*
X177518131Y-117473384D01*
X177613369Y-117425765D01*
X177708607Y-117425765D01*
X177660988Y-117663860D02*
X177756226Y-117616241D01*
X177851464Y-117521003D01*
X177899083Y-117330527D01*
X177899083Y-116997194D01*
X177851464Y-116806718D01*
X177756226Y-116711480D01*
X177660988Y-116663860D01*
X177470512Y-116663860D01*
X177375274Y-116711480D01*
X177280036Y-116806718D01*
X177232417Y-116997194D01*
X177232417Y-117330527D01*
X177280036Y-117521003D01*
X177375274Y-117616241D01*
X177470512Y-117663860D01*
X177660988Y-117663860D01*
X176280036Y-117663860D02*
X176851464Y-117663860D01*
X176565750Y-117663860D02*
X176565750Y-116663860D01*
X176660988Y-116806718D01*
X176756226Y-116901956D01*
X176851464Y-116949575D01*
%TO.C,BT1*%
X124845794Y-73105971D02*
X124702937Y-73153590D01*
X124655318Y-73201209D01*
X124607699Y-73296447D01*
X124607699Y-73439304D01*
X124655318Y-73534542D01*
X124702937Y-73582161D01*
X124798175Y-73629780D01*
X125179127Y-73629780D01*
X125179127Y-72629780D01*
X124845794Y-72629780D01*
X124750556Y-72677400D01*
X124702937Y-72725019D01*
X124655318Y-72820257D01*
X124655318Y-72915495D01*
X124702937Y-73010733D01*
X124750556Y-73058352D01*
X124845794Y-73105971D01*
X125179127Y-73105971D01*
X124321984Y-72629780D02*
X123750556Y-72629780D01*
X124036270Y-73629780D02*
X124036270Y-72629780D01*
X122893413Y-73629780D02*
X123464841Y-73629780D01*
X123179127Y-73629780D02*
X123179127Y-72629780D01*
X123274365Y-72772638D01*
X123369603Y-72867876D01*
X123464841Y-72915495D01*
%TO.C,D2*%
X166227675Y-83250200D02*
X166227675Y-82250200D01*
X165989580Y-82250200D01*
X165846722Y-82297820D01*
X165751484Y-82393058D01*
X165703865Y-82488296D01*
X165656246Y-82678772D01*
X165656246Y-82821629D01*
X165703865Y-83012105D01*
X165751484Y-83107343D01*
X165846722Y-83202581D01*
X165989580Y-83250200D01*
X166227675Y-83250200D01*
X165275294Y-82345439D02*
X165227675Y-82297820D01*
X165132437Y-82250200D01*
X164894341Y-82250200D01*
X164799103Y-82297820D01*
X164751484Y-82345439D01*
X164703865Y-82440677D01*
X164703865Y-82535915D01*
X164751484Y-82678772D01*
X165322913Y-83250200D01*
X164703865Y-83250200D01*
%TO.C,D4*%
X209883439Y-82119695D02*
X210883439Y-82119695D01*
X210883439Y-81881600D01*
X210835820Y-81738742D01*
X210740581Y-81643504D01*
X210645343Y-81595885D01*
X210454867Y-81548266D01*
X210312010Y-81548266D01*
X210121534Y-81595885D01*
X210026296Y-81643504D01*
X209931058Y-81738742D01*
X209883439Y-81881600D01*
X209883439Y-82119695D01*
X210550105Y-80691123D02*
X209883439Y-80691123D01*
X210931058Y-80929219D02*
X210216772Y-81167314D01*
X210216772Y-80548266D01*
%TO.C,D6*%
X172518119Y-124781535D02*
X173518119Y-124781535D01*
X173518119Y-124543440D01*
X173470500Y-124400582D01*
X173375261Y-124305344D01*
X173280023Y-124257725D01*
X173089547Y-124210106D01*
X172946690Y-124210106D01*
X172756214Y-124257725D01*
X172660976Y-124305344D01*
X172565738Y-124400582D01*
X172518119Y-124543440D01*
X172518119Y-124781535D01*
X173518119Y-123352963D02*
X173518119Y-123543440D01*
X173470500Y-123638678D01*
X173422880Y-123686297D01*
X173280023Y-123781535D01*
X173089547Y-123829154D01*
X172708595Y-123829154D01*
X172613357Y-123781535D01*
X172565738Y-123733916D01*
X172518119Y-123638678D01*
X172518119Y-123448201D01*
X172565738Y-123352963D01*
X172613357Y-123305344D01*
X172708595Y-123257725D01*
X172946690Y-123257725D01*
X173041928Y-123305344D01*
X173089547Y-123352963D01*
X173137166Y-123448201D01*
X173137166Y-123638678D01*
X173089547Y-123733916D01*
X173041928Y-123781535D01*
X172946690Y-123829154D01*
%TO.C,D7*%
X193564559Y-127905735D02*
X194564559Y-127905735D01*
X194564559Y-127667640D01*
X194516940Y-127524782D01*
X194421701Y-127429544D01*
X194326463Y-127381925D01*
X194135987Y-127334306D01*
X193993130Y-127334306D01*
X193802654Y-127381925D01*
X193707416Y-127429544D01*
X193612178Y-127524782D01*
X193564559Y-127667640D01*
X193564559Y-127905735D01*
X194564559Y-127000973D02*
X194564559Y-126334306D01*
X193564559Y-126762878D01*
%TO.C,D8*%
X194755720Y-94969104D02*
X193755720Y-94969104D01*
X193755720Y-95207200D01*
X193803340Y-95350057D01*
X193898578Y-95445295D01*
X193993816Y-95492914D01*
X194184292Y-95540533D01*
X194327149Y-95540533D01*
X194517625Y-95492914D01*
X194612863Y-95445295D01*
X194708101Y-95350057D01*
X194755720Y-95207200D01*
X194755720Y-94969104D01*
X194184292Y-96111961D02*
X194136673Y-96016723D01*
X194089054Y-95969104D01*
X193993816Y-95921485D01*
X193946197Y-95921485D01*
X193850959Y-95969104D01*
X193803340Y-96016723D01*
X193755720Y-96111961D01*
X193755720Y-96302438D01*
X193803340Y-96397676D01*
X193850959Y-96445295D01*
X193946197Y-96492914D01*
X193993816Y-96492914D01*
X194089054Y-96445295D01*
X194136673Y-96397676D01*
X194184292Y-96302438D01*
X194184292Y-96111961D01*
X194231911Y-96016723D01*
X194279530Y-95969104D01*
X194374768Y-95921485D01*
X194565244Y-95921485D01*
X194660482Y-95969104D01*
X194708101Y-96016723D01*
X194755720Y-96111961D01*
X194755720Y-96302438D01*
X194708101Y-96397676D01*
X194660482Y-96445295D01*
X194565244Y-96492914D01*
X194374768Y-96492914D01*
X194279530Y-96445295D01*
X194231911Y-96397676D01*
X194184292Y-96302438D01*
%TO.C,D9*%
X206793055Y-102374000D02*
X206793055Y-101374000D01*
X206554960Y-101374000D01*
X206412102Y-101421620D01*
X206316864Y-101516858D01*
X206269245Y-101612096D01*
X206221626Y-101802572D01*
X206221626Y-101945429D01*
X206269245Y-102135905D01*
X206316864Y-102231143D01*
X206412102Y-102326381D01*
X206554960Y-102374000D01*
X206793055Y-102374000D01*
X205745436Y-102374000D02*
X205554960Y-102374000D01*
X205459721Y-102326381D01*
X205412102Y-102278762D01*
X205316864Y-102135905D01*
X205269245Y-101945429D01*
X205269245Y-101564477D01*
X205316864Y-101469239D01*
X205364483Y-101421620D01*
X205459721Y-101374000D01*
X205650198Y-101374000D01*
X205745436Y-101421620D01*
X205793055Y-101469239D01*
X205840674Y-101564477D01*
X205840674Y-101802572D01*
X205793055Y-101897810D01*
X205745436Y-101945429D01*
X205650198Y-101993048D01*
X205459721Y-101993048D01*
X205364483Y-101945429D01*
X205316864Y-101897810D01*
X205269245Y-101802572D01*
%TO.C,D10*%
X193451645Y-104768600D02*
X193451645Y-103768600D01*
X193213550Y-103768600D01*
X193070693Y-103816220D01*
X192975455Y-103911458D01*
X192927836Y-104006696D01*
X192880217Y-104197172D01*
X192880217Y-104340029D01*
X192927836Y-104530505D01*
X192975455Y-104625743D01*
X193070693Y-104720981D01*
X193213550Y-104768600D01*
X193451645Y-104768600D01*
X191927836Y-104768600D02*
X192499264Y-104768600D01*
X192213550Y-104768600D02*
X192213550Y-103768600D01*
X192308788Y-103911458D01*
X192404026Y-104006696D01*
X192499264Y-104054315D01*
X191308788Y-103768600D02*
X191213550Y-103768600D01*
X191118312Y-103816220D01*
X191070693Y-103863839D01*
X191023074Y-103959077D01*
X190975455Y-104149553D01*
X190975455Y-104387648D01*
X191023074Y-104578124D01*
X191070693Y-104673362D01*
X191118312Y-104720981D01*
X191213550Y-104768600D01*
X191308788Y-104768600D01*
X191404026Y-104720981D01*
X191451645Y-104673362D01*
X191499264Y-104578124D01*
X191546883Y-104387648D01*
X191546883Y-104149553D01*
X191499264Y-103959077D01*
X191451645Y-103863839D01*
X191404026Y-103816220D01*
X191308788Y-103768600D01*
%TO.C,D11*%
X192601800Y-101955434D02*
X191601800Y-101955434D01*
X191601800Y-102193529D01*
X191649420Y-102336386D01*
X191744658Y-102431624D01*
X191839896Y-102479243D01*
X192030372Y-102526862D01*
X192173229Y-102526862D01*
X192363705Y-102479243D01*
X192458943Y-102431624D01*
X192554181Y-102336386D01*
X192601800Y-102193529D01*
X192601800Y-101955434D01*
X192601800Y-103479243D02*
X192601800Y-102907815D01*
X192601800Y-103193529D02*
X191601800Y-103193529D01*
X191744658Y-103098291D01*
X191839896Y-103003053D01*
X191887515Y-102907815D01*
X192601800Y-104431624D02*
X192601800Y-103860196D01*
X192601800Y-104145910D02*
X191601800Y-104145910D01*
X191744658Y-104050672D01*
X191839896Y-103955434D01*
X191887515Y-103860196D01*
%TO.C,D12*%
X186852725Y-112708640D02*
X186852725Y-111708640D01*
X186614630Y-111708640D01*
X186471773Y-111756260D01*
X186376535Y-111851498D01*
X186328916Y-111946736D01*
X186281297Y-112137212D01*
X186281297Y-112280069D01*
X186328916Y-112470545D01*
X186376535Y-112565783D01*
X186471773Y-112661021D01*
X186614630Y-112708640D01*
X186852725Y-112708640D01*
X185328916Y-112708640D02*
X185900344Y-112708640D01*
X185614630Y-112708640D02*
X185614630Y-111708640D01*
X185709868Y-111851498D01*
X185805106Y-111946736D01*
X185900344Y-111994355D01*
X184947963Y-111803879D02*
X184900344Y-111756260D01*
X184805106Y-111708640D01*
X184567011Y-111708640D01*
X184471773Y-111756260D01*
X184424154Y-111803879D01*
X184376535Y-111899117D01*
X184376535Y-111994355D01*
X184424154Y-112137212D01*
X184995582Y-112708640D01*
X184376535Y-112708640D01*
%TO.C,R7*%
X129218986Y-118799780D02*
X129552320Y-118323590D01*
X129790415Y-118799780D02*
X129790415Y-117799780D01*
X129409462Y-117799780D01*
X129314224Y-117847400D01*
X129266605Y-117895019D01*
X129218986Y-117990257D01*
X129218986Y-118133114D01*
X129266605Y-118228352D01*
X129314224Y-118275971D01*
X129409462Y-118323590D01*
X129790415Y-118323590D01*
X128885653Y-117799780D02*
X128218986Y-117799780D01*
X128647558Y-118799780D01*
%TO.C,R11*%
X199169797Y-79770140D02*
X199503130Y-79293950D01*
X199741225Y-79770140D02*
X199741225Y-78770140D01*
X199360273Y-78770140D01*
X199265035Y-78817760D01*
X199217416Y-78865379D01*
X199169797Y-78960617D01*
X199169797Y-79103474D01*
X199217416Y-79198712D01*
X199265035Y-79246331D01*
X199360273Y-79293950D01*
X199741225Y-79293950D01*
X198217416Y-79770140D02*
X198788844Y-79770140D01*
X198503130Y-79770140D02*
X198503130Y-78770140D01*
X198598368Y-78912998D01*
X198693606Y-79008236D01*
X198788844Y-79055855D01*
X197265035Y-79770140D02*
X197836463Y-79770140D01*
X197550749Y-79770140D02*
X197550749Y-78770140D01*
X197645987Y-78912998D01*
X197741225Y-79008236D01*
X197836463Y-79055855D01*
%TO.C,R12*%
X138148297Y-123630860D02*
X138481630Y-123154670D01*
X138719725Y-123630860D02*
X138719725Y-122630860D01*
X138338773Y-122630860D01*
X138243535Y-122678480D01*
X138195916Y-122726099D01*
X138148297Y-122821337D01*
X138148297Y-122964194D01*
X138195916Y-123059432D01*
X138243535Y-123107051D01*
X138338773Y-123154670D01*
X138719725Y-123154670D01*
X137195916Y-123630860D02*
X137767344Y-123630860D01*
X137481630Y-123630860D02*
X137481630Y-122630860D01*
X137576868Y-122773718D01*
X137672106Y-122868956D01*
X137767344Y-122916575D01*
X136814963Y-122726099D02*
X136767344Y-122678480D01*
X136672106Y-122630860D01*
X136434011Y-122630860D01*
X136338773Y-122678480D01*
X136291154Y-122726099D01*
X136243535Y-122821337D01*
X136243535Y-122916575D01*
X136291154Y-123059432D01*
X136862582Y-123630860D01*
X136243535Y-123630860D01*
%TO.C,U1*%
X125059344Y-110914260D02*
X125059344Y-111723784D01*
X125011725Y-111819022D01*
X124964106Y-111866641D01*
X124868868Y-111914260D01*
X124678392Y-111914260D01*
X124583154Y-111866641D01*
X124535535Y-111819022D01*
X124487916Y-111723784D01*
X124487916Y-110914260D01*
X123487916Y-111914260D02*
X124059344Y-111914260D01*
X123773630Y-111914260D02*
X123773630Y-110914260D01*
X123868868Y-111057118D01*
X123964106Y-111152356D01*
X124059344Y-111199975D01*
%TO.C,VR1*%
X111334523Y-97759820D02*
X111001190Y-98759820D01*
X110667857Y-97759820D01*
X109763095Y-98759820D02*
X110096428Y-98283630D01*
X110334523Y-98759820D02*
X110334523Y-97759820D01*
X109953571Y-97759820D01*
X109858333Y-97807440D01*
X109810714Y-97855059D01*
X109763095Y-97950297D01*
X109763095Y-98093154D01*
X109810714Y-98188392D01*
X109858333Y-98236011D01*
X109953571Y-98283630D01*
X110334523Y-98283630D01*
X108810714Y-98759820D02*
X109382142Y-98759820D01*
X109096428Y-98759820D02*
X109096428Y-97759820D01*
X109191666Y-97902678D01*
X109286904Y-97997916D01*
X109382142Y-98045535D01*
%TD*%
M02*
