%TF.GenerationSoftware,KiCad,Pcbnew,5.1.6-c6e7f7d~86~ubuntu18.04.1*%
%TF.CreationDate,2021-04-18T13:50:28-04:00*%
%TF.ProjectId,avBadge_2021,61764261-6467-4655-9f32-3032312e6b69,rev?*%
%TF.SameCoordinates,Original*%
%TF.FileFunction,Soldermask,Bot*%
%TF.FilePolarity,Negative*%
%FSLAX46Y46*%
G04 Gerber Fmt 4.6, Leading zero omitted, Abs format (unit mm)*
G04 Created by KiCad (PCBNEW 5.1.6-c6e7f7d~86~ubuntu18.04.1) date 2021-04-18 13:50:28*
%MOMM*%
%LPD*%
G01*
G04 APERTURE LIST*
%ADD10C,1.600000*%
%ADD11C,17.900000*%
%ADD12R,1.370000X5.180000*%
%ADD13R,1.500000X0.900000*%
%ADD14R,1.180000X1.350000*%
%ADD15C,2.500000*%
%ADD16R,1.500000X2.700000*%
%ADD17O,1.700000X1.700000*%
%ADD18R,1.700000X1.700000*%
%ADD19R,1.000000X0.900000*%
%ADD20R,1.300000X2.600000*%
%ADD21R,0.700000X2.300000*%
G04 APERTURE END LIST*
D10*
%TO.C,D1*%
X143522600Y-111760000D02*
G75*
G03*
X143522600Y-111760000I-800000J0D01*
G01*
%TO.C,D2*%
X143421000Y-99275900D02*
G75*
G03*
X143421000Y-99275900I-800000J0D01*
G01*
%TO.C,D5*%
X172158560Y-133995260D02*
G75*
G03*
X172158560Y-133995260I-800000J0D01*
G01*
%TO.C,D6*%
X191424460Y-133995260D02*
G75*
G03*
X191424460Y-133995260I-800000J0D01*
G01*
%TO.C,D7*%
X175625660Y-101267360D02*
G75*
G03*
X175625660Y-101267360I-800000J0D01*
G01*
%TO.C,D8*%
X187919260Y-101203860D02*
G75*
G03*
X187919260Y-101203860I-800000J0D01*
G01*
%TD*%
D11*
%TO.C,BT1*%
X112750600Y-85166200D03*
D12*
X123735600Y-85166200D03*
X101765600Y-85166200D03*
%TD*%
%TO.C,C1*%
G36*
G01*
X157563500Y-84005700D02*
X156253500Y-84005700D01*
G75*
G02*
X155983500Y-83735700I0J270000D01*
G01*
X155983500Y-82925700D01*
G75*
G02*
X156253500Y-82655700I270000J0D01*
G01*
X157563500Y-82655700D01*
G75*
G02*
X157833500Y-82925700I0J-270000D01*
G01*
X157833500Y-83735700D01*
G75*
G02*
X157563500Y-84005700I-270000J0D01*
G01*
G37*
G36*
G01*
X157563500Y-81205700D02*
X156253500Y-81205700D01*
G75*
G02*
X155983500Y-80935700I0J270000D01*
G01*
X155983500Y-80125700D01*
G75*
G02*
X156253500Y-79855700I270000J0D01*
G01*
X157563500Y-79855700D01*
G75*
G02*
X157833500Y-80125700I0J-270000D01*
G01*
X157833500Y-80935700D01*
G75*
G02*
X157563500Y-81205700I-270000J0D01*
G01*
G37*
%TD*%
%TO.C,C2*%
G36*
G01*
X169638000Y-119717500D02*
X169638000Y-118407500D01*
G75*
G02*
X169908000Y-118137500I270000J0D01*
G01*
X170718000Y-118137500D01*
G75*
G02*
X170988000Y-118407500I0J-270000D01*
G01*
X170988000Y-119717500D01*
G75*
G02*
X170718000Y-119987500I-270000J0D01*
G01*
X169908000Y-119987500D01*
G75*
G02*
X169638000Y-119717500I0J270000D01*
G01*
G37*
G36*
G01*
X166838000Y-119717500D02*
X166838000Y-118407500D01*
G75*
G02*
X167108000Y-118137500I270000J0D01*
G01*
X167918000Y-118137500D01*
G75*
G02*
X168188000Y-118407500I0J-270000D01*
G01*
X168188000Y-119717500D01*
G75*
G02*
X167918000Y-119987500I-270000J0D01*
G01*
X167108000Y-119987500D01*
G75*
G02*
X166838000Y-119717500I0J270000D01*
G01*
G37*
%TD*%
D13*
%TO.C,D1*%
X145322600Y-111035000D03*
X140122600Y-111035000D03*
X140122600Y-112485000D03*
X145322600Y-112485000D03*
%TD*%
%TO.C,D2*%
X145221000Y-100000900D03*
X140021000Y-100000900D03*
X140021000Y-98550900D03*
X145221000Y-98550900D03*
%TD*%
D14*
%TO.C,D3*%
X204061500Y-138811000D03*
X200941500Y-138811000D03*
D15*
X202501500Y-138811000D03*
%TD*%
%TO.C,D4*%
X163131500Y-138747500D03*
D14*
X164691500Y-138747500D03*
X161571500Y-138747500D03*
%TD*%
D16*
%TO.C,D5*%
X168773800Y-134137400D03*
X173973800Y-134137400D03*
%TD*%
%TO.C,D6*%
X193239700Y-134137400D03*
X188039700Y-134137400D03*
%TD*%
%TO.C,D7*%
X172240900Y-101409500D03*
X177440900Y-101409500D03*
%TD*%
%TO.C,D8*%
X189734500Y-101346000D03*
X184534500Y-101346000D03*
%TD*%
D14*
%TO.C,D9*%
X180062700Y-108940600D03*
X183182700Y-108940600D03*
D15*
X181622700Y-108940600D03*
%TD*%
%TO.C,D10*%
X181698900Y-117398800D03*
D14*
X183258900Y-117398800D03*
X180138900Y-117398800D03*
%TD*%
%TO.C,D11*%
X180532600Y-127546100D03*
X183652600Y-127546100D03*
D15*
X182092600Y-127546100D03*
%TD*%
D17*
%TO.C,J1*%
X163817300Y-84810600D03*
D18*
X166357300Y-84810600D03*
D17*
X163817300Y-82270600D03*
X166357300Y-82270600D03*
X163817300Y-79730600D03*
X166357300Y-79730600D03*
%TD*%
D19*
%TO.C,Q1*%
X161664900Y-119974400D03*
X161664900Y-118074400D03*
X163664900Y-119024400D03*
%TD*%
%TO.C,R1*%
G36*
G01*
X152966700Y-114292700D02*
X152966700Y-115602700D01*
G75*
G02*
X152696700Y-115872700I-270000J0D01*
G01*
X151886700Y-115872700D01*
G75*
G02*
X151616700Y-115602700I0J270000D01*
G01*
X151616700Y-114292700D01*
G75*
G02*
X151886700Y-114022700I270000J0D01*
G01*
X152696700Y-114022700D01*
G75*
G02*
X152966700Y-114292700I0J-270000D01*
G01*
G37*
G36*
G01*
X150166700Y-114292700D02*
X150166700Y-115602700D01*
G75*
G02*
X149896700Y-115872700I-270000J0D01*
G01*
X149086700Y-115872700D01*
G75*
G02*
X148816700Y-115602700I0J270000D01*
G01*
X148816700Y-114292700D01*
G75*
G02*
X149086700Y-114022700I270000J0D01*
G01*
X149896700Y-114022700D01*
G75*
G02*
X150166700Y-114292700I0J-270000D01*
G01*
G37*
%TD*%
%TO.C,R2*%
G36*
G01*
X152389200Y-102989700D02*
X152389200Y-104299700D01*
G75*
G02*
X152119200Y-104569700I-270000J0D01*
G01*
X151309200Y-104569700D01*
G75*
G02*
X151039200Y-104299700I0J270000D01*
G01*
X151039200Y-102989700D01*
G75*
G02*
X151309200Y-102719700I270000J0D01*
G01*
X152119200Y-102719700D01*
G75*
G02*
X152389200Y-102989700I0J-270000D01*
G01*
G37*
G36*
G01*
X149589200Y-102989700D02*
X149589200Y-104299700D01*
G75*
G02*
X149319200Y-104569700I-270000J0D01*
G01*
X148509200Y-104569700D01*
G75*
G02*
X148239200Y-104299700I0J270000D01*
G01*
X148239200Y-102989700D01*
G75*
G02*
X148509200Y-102719700I270000J0D01*
G01*
X149319200Y-102719700D01*
G75*
G02*
X149589200Y-102989700I0J-270000D01*
G01*
G37*
%TD*%
%TO.C,R3*%
G36*
G01*
X135684900Y-111627600D02*
X135684900Y-110317600D01*
G75*
G02*
X135954900Y-110047600I270000J0D01*
G01*
X136764900Y-110047600D01*
G75*
G02*
X137034900Y-110317600I0J-270000D01*
G01*
X137034900Y-111627600D01*
G75*
G02*
X136764900Y-111897600I-270000J0D01*
G01*
X135954900Y-111897600D01*
G75*
G02*
X135684900Y-111627600I0J270000D01*
G01*
G37*
G36*
G01*
X132884900Y-111627600D02*
X132884900Y-110317600D01*
G75*
G02*
X133154900Y-110047600I270000J0D01*
G01*
X133964900Y-110047600D01*
G75*
G02*
X134234900Y-110317600I0J-270000D01*
G01*
X134234900Y-111627600D01*
G75*
G02*
X133964900Y-111897600I-270000J0D01*
G01*
X133154900Y-111897600D01*
G75*
G02*
X132884900Y-111627600I0J270000D01*
G01*
G37*
%TD*%
%TO.C,R4*%
G36*
G01*
X134904800Y-97943500D02*
X136214800Y-97943500D01*
G75*
G02*
X136484800Y-98213500I0J-270000D01*
G01*
X136484800Y-99023500D01*
G75*
G02*
X136214800Y-99293500I-270000J0D01*
G01*
X134904800Y-99293500D01*
G75*
G02*
X134634800Y-99023500I0J270000D01*
G01*
X134634800Y-98213500D01*
G75*
G02*
X134904800Y-97943500I270000J0D01*
G01*
G37*
G36*
G01*
X134904800Y-95143500D02*
X136214800Y-95143500D01*
G75*
G02*
X136484800Y-95413500I0J-270000D01*
G01*
X136484800Y-96223500D01*
G75*
G02*
X136214800Y-96493500I-270000J0D01*
G01*
X134904800Y-96493500D01*
G75*
G02*
X134634800Y-96223500I0J270000D01*
G01*
X134634800Y-95413500D01*
G75*
G02*
X134904800Y-95143500I270000J0D01*
G01*
G37*
%TD*%
%TO.C,R5*%
G36*
G01*
X152776200Y-108971400D02*
X152776200Y-110281400D01*
G75*
G02*
X152506200Y-110551400I-270000J0D01*
G01*
X151696200Y-110551400D01*
G75*
G02*
X151426200Y-110281400I0J270000D01*
G01*
X151426200Y-108971400D01*
G75*
G02*
X151696200Y-108701400I270000J0D01*
G01*
X152506200Y-108701400D01*
G75*
G02*
X152776200Y-108971400I0J-270000D01*
G01*
G37*
G36*
G01*
X149976200Y-108971400D02*
X149976200Y-110281400D01*
G75*
G02*
X149706200Y-110551400I-270000J0D01*
G01*
X148896200Y-110551400D01*
G75*
G02*
X148626200Y-110281400I0J270000D01*
G01*
X148626200Y-108971400D01*
G75*
G02*
X148896200Y-108701400I270000J0D01*
G01*
X149706200Y-108701400D01*
G75*
G02*
X149976200Y-108971400I0J-270000D01*
G01*
G37*
%TD*%
%TO.C,R6*%
G36*
G01*
X152338400Y-97808100D02*
X152338400Y-99118100D01*
G75*
G02*
X152068400Y-99388100I-270000J0D01*
G01*
X151258400Y-99388100D01*
G75*
G02*
X150988400Y-99118100I0J270000D01*
G01*
X150988400Y-97808100D01*
G75*
G02*
X151258400Y-97538100I270000J0D01*
G01*
X152068400Y-97538100D01*
G75*
G02*
X152338400Y-97808100I0J-270000D01*
G01*
G37*
G36*
G01*
X149538400Y-97808100D02*
X149538400Y-99118100D01*
G75*
G02*
X149268400Y-99388100I-270000J0D01*
G01*
X148458400Y-99388100D01*
G75*
G02*
X148188400Y-99118100I0J270000D01*
G01*
X148188400Y-97808100D01*
G75*
G02*
X148458400Y-97538100I270000J0D01*
G01*
X149268400Y-97538100D01*
G75*
G02*
X149538400Y-97808100I0J-270000D01*
G01*
G37*
%TD*%
%TO.C,R7*%
G36*
G01*
X203903400Y-131653600D02*
X203903400Y-132963600D01*
G75*
G02*
X203633400Y-133233600I-270000J0D01*
G01*
X202823400Y-133233600D01*
G75*
G02*
X202553400Y-132963600I0J270000D01*
G01*
X202553400Y-131653600D01*
G75*
G02*
X202823400Y-131383600I270000J0D01*
G01*
X203633400Y-131383600D01*
G75*
G02*
X203903400Y-131653600I0J-270000D01*
G01*
G37*
G36*
G01*
X201103400Y-131653600D02*
X201103400Y-132963600D01*
G75*
G02*
X200833400Y-133233600I-270000J0D01*
G01*
X200023400Y-133233600D01*
G75*
G02*
X199753400Y-132963600I0J270000D01*
G01*
X199753400Y-131653600D01*
G75*
G02*
X200023400Y-131383600I270000J0D01*
G01*
X200833400Y-131383600D01*
G75*
G02*
X201103400Y-131653600I0J-270000D01*
G01*
G37*
%TD*%
%TO.C,R8*%
G36*
G01*
X155662800Y-138156000D02*
X155662800Y-139466000D01*
G75*
G02*
X155392800Y-139736000I-270000J0D01*
G01*
X154582800Y-139736000D01*
G75*
G02*
X154312800Y-139466000I0J270000D01*
G01*
X154312800Y-138156000D01*
G75*
G02*
X154582800Y-137886000I270000J0D01*
G01*
X155392800Y-137886000D01*
G75*
G02*
X155662800Y-138156000I0J-270000D01*
G01*
G37*
G36*
G01*
X158462800Y-138156000D02*
X158462800Y-139466000D01*
G75*
G02*
X158192800Y-139736000I-270000J0D01*
G01*
X157382800Y-139736000D01*
G75*
G02*
X157112800Y-139466000I0J270000D01*
G01*
X157112800Y-138156000D01*
G75*
G02*
X157382800Y-137886000I270000J0D01*
G01*
X158192800Y-137886000D01*
G75*
G02*
X158462800Y-138156000I0J-270000D01*
G01*
G37*
%TD*%
%TO.C,R9*%
G36*
G01*
X107342300Y-129278700D02*
X107342300Y-130588700D01*
G75*
G02*
X107072300Y-130858700I-270000J0D01*
G01*
X106262300Y-130858700D01*
G75*
G02*
X105992300Y-130588700I0J270000D01*
G01*
X105992300Y-129278700D01*
G75*
G02*
X106262300Y-129008700I270000J0D01*
G01*
X107072300Y-129008700D01*
G75*
G02*
X107342300Y-129278700I0J-270000D01*
G01*
G37*
G36*
G01*
X110142300Y-129278700D02*
X110142300Y-130588700D01*
G75*
G02*
X109872300Y-130858700I-270000J0D01*
G01*
X109062300Y-130858700D01*
G75*
G02*
X108792300Y-130588700I0J270000D01*
G01*
X108792300Y-129278700D01*
G75*
G02*
X109062300Y-129008700I270000J0D01*
G01*
X109872300Y-129008700D01*
G75*
G02*
X110142300Y-129278700I0J-270000D01*
G01*
G37*
%TD*%
%TO.C,R10*%
G36*
G01*
X163574100Y-113202400D02*
X163574100Y-111892400D01*
G75*
G02*
X163844100Y-111622400I270000J0D01*
G01*
X164654100Y-111622400D01*
G75*
G02*
X164924100Y-111892400I0J-270000D01*
G01*
X164924100Y-113202400D01*
G75*
G02*
X164654100Y-113472400I-270000J0D01*
G01*
X163844100Y-113472400D01*
G75*
G02*
X163574100Y-113202400I0J270000D01*
G01*
G37*
G36*
G01*
X160774100Y-113202400D02*
X160774100Y-111892400D01*
G75*
G02*
X161044100Y-111622400I270000J0D01*
G01*
X161854100Y-111622400D01*
G75*
G02*
X162124100Y-111892400I0J-270000D01*
G01*
X162124100Y-113202400D01*
G75*
G02*
X161854100Y-113472400I-270000J0D01*
G01*
X161044100Y-113472400D01*
G75*
G02*
X160774100Y-113202400I0J270000D01*
G01*
G37*
%TD*%
%TO.C,R11*%
G36*
G01*
X169619300Y-129242500D02*
X169619300Y-127932500D01*
G75*
G02*
X169889300Y-127662500I270000J0D01*
G01*
X170699300Y-127662500D01*
G75*
G02*
X170969300Y-127932500I0J-270000D01*
G01*
X170969300Y-129242500D01*
G75*
G02*
X170699300Y-129512500I-270000J0D01*
G01*
X169889300Y-129512500D01*
G75*
G02*
X169619300Y-129242500I0J270000D01*
G01*
G37*
G36*
G01*
X172419300Y-129242500D02*
X172419300Y-127932500D01*
G75*
G02*
X172689300Y-127662500I270000J0D01*
G01*
X173499300Y-127662500D01*
G75*
G02*
X173769300Y-127932500I0J-270000D01*
G01*
X173769300Y-129242500D01*
G75*
G02*
X173499300Y-129512500I-270000J0D01*
G01*
X172689300Y-129512500D01*
G75*
G02*
X172419300Y-129242500I0J270000D01*
G01*
G37*
%TD*%
%TO.C,R12*%
G36*
G01*
X189913900Y-139123100D02*
X189913900Y-137813100D01*
G75*
G02*
X190183900Y-137543100I270000J0D01*
G01*
X190993900Y-137543100D01*
G75*
G02*
X191263900Y-137813100I0J-270000D01*
G01*
X191263900Y-139123100D01*
G75*
G02*
X190993900Y-139393100I-270000J0D01*
G01*
X190183900Y-139393100D01*
G75*
G02*
X189913900Y-139123100I0J270000D01*
G01*
G37*
G36*
G01*
X192713900Y-139123100D02*
X192713900Y-137813100D01*
G75*
G02*
X192983900Y-137543100I270000J0D01*
G01*
X193793900Y-137543100D01*
G75*
G02*
X194063900Y-137813100I0J-270000D01*
G01*
X194063900Y-139123100D01*
G75*
G02*
X193793900Y-139393100I-270000J0D01*
G01*
X192983900Y-139393100D01*
G75*
G02*
X192713900Y-139123100I0J270000D01*
G01*
G37*
%TD*%
%TO.C,R13*%
G36*
G01*
X174451300Y-97073400D02*
X174451300Y-95763400D01*
G75*
G02*
X174721300Y-95493400I270000J0D01*
G01*
X175531300Y-95493400D01*
G75*
G02*
X175801300Y-95763400I0J-270000D01*
G01*
X175801300Y-97073400D01*
G75*
G02*
X175531300Y-97343400I-270000J0D01*
G01*
X174721300Y-97343400D01*
G75*
G02*
X174451300Y-97073400I0J270000D01*
G01*
G37*
G36*
G01*
X171651300Y-97073400D02*
X171651300Y-95763400D01*
G75*
G02*
X171921300Y-95493400I270000J0D01*
G01*
X172731300Y-95493400D01*
G75*
G02*
X173001300Y-95763400I0J-270000D01*
G01*
X173001300Y-97073400D01*
G75*
G02*
X172731300Y-97343400I-270000J0D01*
G01*
X171921300Y-97343400D01*
G75*
G02*
X171651300Y-97073400I0J270000D01*
G01*
G37*
%TD*%
%TO.C,R14*%
G36*
G01*
X185034200Y-95890400D02*
X185034200Y-97200400D01*
G75*
G02*
X184764200Y-97470400I-270000J0D01*
G01*
X183954200Y-97470400D01*
G75*
G02*
X183684200Y-97200400I0J270000D01*
G01*
X183684200Y-95890400D01*
G75*
G02*
X183954200Y-95620400I270000J0D01*
G01*
X184764200Y-95620400D01*
G75*
G02*
X185034200Y-95890400I0J-270000D01*
G01*
G37*
G36*
G01*
X182234200Y-95890400D02*
X182234200Y-97200400D01*
G75*
G02*
X181964200Y-97470400I-270000J0D01*
G01*
X181154200Y-97470400D01*
G75*
G02*
X180884200Y-97200400I0J270000D01*
G01*
X180884200Y-95890400D01*
G75*
G02*
X181154200Y-95620400I270000J0D01*
G01*
X181964200Y-95620400D01*
G75*
G02*
X182234200Y-95890400I0J-270000D01*
G01*
G37*
%TD*%
%TO.C,R15*%
G36*
G01*
X174163700Y-108196700D02*
X174163700Y-109506700D01*
G75*
G02*
X173893700Y-109776700I-270000J0D01*
G01*
X173083700Y-109776700D01*
G75*
G02*
X172813700Y-109506700I0J270000D01*
G01*
X172813700Y-108196700D01*
G75*
G02*
X173083700Y-107926700I270000J0D01*
G01*
X173893700Y-107926700D01*
G75*
G02*
X174163700Y-108196700I0J-270000D01*
G01*
G37*
G36*
G01*
X176963700Y-108196700D02*
X176963700Y-109506700D01*
G75*
G02*
X176693700Y-109776700I-270000J0D01*
G01*
X175883700Y-109776700D01*
G75*
G02*
X175613700Y-109506700I0J270000D01*
G01*
X175613700Y-108196700D01*
G75*
G02*
X175883700Y-107926700I270000J0D01*
G01*
X176693700Y-107926700D01*
G75*
G02*
X176963700Y-108196700I0J-270000D01*
G01*
G37*
%TD*%
%TO.C,R16*%
G36*
G01*
X178125400Y-116705700D02*
X178125400Y-118015700D01*
G75*
G02*
X177855400Y-118285700I-270000J0D01*
G01*
X177045400Y-118285700D01*
G75*
G02*
X176775400Y-118015700I0J270000D01*
G01*
X176775400Y-116705700D01*
G75*
G02*
X177045400Y-116435700I270000J0D01*
G01*
X177855400Y-116435700D01*
G75*
G02*
X178125400Y-116705700I0J-270000D01*
G01*
G37*
G36*
G01*
X175325400Y-116705700D02*
X175325400Y-118015700D01*
G75*
G02*
X175055400Y-118285700I-270000J0D01*
G01*
X174245400Y-118285700D01*
G75*
G02*
X173975400Y-118015700I0J270000D01*
G01*
X173975400Y-116705700D01*
G75*
G02*
X174245400Y-116435700I270000J0D01*
G01*
X175055400Y-116435700D01*
G75*
G02*
X175325400Y-116705700I0J-270000D01*
G01*
G37*
%TD*%
%TO.C,R17*%
G36*
G01*
X175128900Y-123043000D02*
X175128900Y-124353000D01*
G75*
G02*
X174858900Y-124623000I-270000J0D01*
G01*
X174048900Y-124623000D01*
G75*
G02*
X173778900Y-124353000I0J270000D01*
G01*
X173778900Y-123043000D01*
G75*
G02*
X174048900Y-122773000I270000J0D01*
G01*
X174858900Y-122773000D01*
G75*
G02*
X175128900Y-123043000I0J-270000D01*
G01*
G37*
G36*
G01*
X177928900Y-123043000D02*
X177928900Y-124353000D01*
G75*
G02*
X177658900Y-124623000I-270000J0D01*
G01*
X176848900Y-124623000D01*
G75*
G02*
X176578900Y-124353000I0J270000D01*
G01*
X176578900Y-123043000D01*
G75*
G02*
X176848900Y-122773000I270000J0D01*
G01*
X177658900Y-122773000D01*
G75*
G02*
X177928900Y-123043000I0J-270000D01*
G01*
G37*
%TD*%
D20*
%TO.C,SW2*%
X137666100Y-85077300D03*
X135166100Y-85077300D03*
X132666100Y-85077300D03*
X137666100Y-79577300D03*
X135166100Y-79577300D03*
X132666100Y-79577300D03*
%TD*%
D21*
%TO.C,U1*%
X152428900Y-79518200D03*
X152428900Y-84718200D03*
X151158900Y-79518200D03*
X151158900Y-84718200D03*
X149888900Y-79518200D03*
X149888900Y-84718200D03*
X148618900Y-79518200D03*
X148618900Y-84718200D03*
X147348900Y-79518200D03*
X147348900Y-84718200D03*
X146078900Y-79518200D03*
X146078900Y-84718200D03*
X144808900Y-79518200D03*
X144808900Y-84718200D03*
%TD*%
M02*
