%TF.GenerationSoftware,KiCad,Pcbnew,5.1.6-c6e7f7d~86~ubuntu18.04.1*%
%TF.CreationDate,2021-04-18T13:50:28-04:00*%
%TF.ProjectId,avBadge_2021,61764261-6467-4655-9f32-3032312e6b69,rev?*%
%TF.SameCoordinates,Original*%
%TF.FileFunction,Paste,Bot*%
%TF.FilePolarity,Positive*%
%FSLAX46Y46*%
G04 Gerber Fmt 4.6, Leading zero omitted, Abs format (unit mm)*
G04 Created by KiCad (PCBNEW 5.1.6-c6e7f7d~86~ubuntu18.04.1) date 2021-04-18 13:50:28*
%MOMM*%
%LPD*%
G01*
G04 APERTURE LIST*
%ADD10R,1.270000X5.080000*%
%ADD11R,1.400000X0.800000*%
%ADD12R,1.080000X1.250000*%
%ADD13R,1.400000X2.600000*%
%ADD14R,0.900000X0.800000*%
%ADD15R,1.200000X2.500000*%
%ADD16R,0.600000X2.200000*%
G04 APERTURE END LIST*
D10*
%TO.C,BT1*%
X123735600Y-85166200D03*
X101765600Y-85166200D03*
%TD*%
%TO.C,C1*%
G36*
G01*
X157533500Y-83955700D02*
X156283500Y-83955700D01*
G75*
G02*
X156033500Y-83705700I0J250000D01*
G01*
X156033500Y-82955700D01*
G75*
G02*
X156283500Y-82705700I250000J0D01*
G01*
X157533500Y-82705700D01*
G75*
G02*
X157783500Y-82955700I0J-250000D01*
G01*
X157783500Y-83705700D01*
G75*
G02*
X157533500Y-83955700I-250000J0D01*
G01*
G37*
G36*
G01*
X157533500Y-81155700D02*
X156283500Y-81155700D01*
G75*
G02*
X156033500Y-80905700I0J250000D01*
G01*
X156033500Y-80155700D01*
G75*
G02*
X156283500Y-79905700I250000J0D01*
G01*
X157533500Y-79905700D01*
G75*
G02*
X157783500Y-80155700I0J-250000D01*
G01*
X157783500Y-80905700D01*
G75*
G02*
X157533500Y-81155700I-250000J0D01*
G01*
G37*
%TD*%
%TO.C,C2*%
G36*
G01*
X169688000Y-119687500D02*
X169688000Y-118437500D01*
G75*
G02*
X169938000Y-118187500I250000J0D01*
G01*
X170688000Y-118187500D01*
G75*
G02*
X170938000Y-118437500I0J-250000D01*
G01*
X170938000Y-119687500D01*
G75*
G02*
X170688000Y-119937500I-250000J0D01*
G01*
X169938000Y-119937500D01*
G75*
G02*
X169688000Y-119687500I0J250000D01*
G01*
G37*
G36*
G01*
X166888000Y-119687500D02*
X166888000Y-118437500D01*
G75*
G02*
X167138000Y-118187500I250000J0D01*
G01*
X167888000Y-118187500D01*
G75*
G02*
X168138000Y-118437500I0J-250000D01*
G01*
X168138000Y-119687500D01*
G75*
G02*
X167888000Y-119937500I-250000J0D01*
G01*
X167138000Y-119937500D01*
G75*
G02*
X166888000Y-119687500I0J250000D01*
G01*
G37*
%TD*%
D11*
%TO.C,D1*%
X145322600Y-111035000D03*
X140122600Y-111035000D03*
X140122600Y-112485000D03*
X145322600Y-112485000D03*
%TD*%
%TO.C,D2*%
X145221000Y-100000900D03*
X140021000Y-100000900D03*
X140021000Y-98550900D03*
X145221000Y-98550900D03*
%TD*%
D12*
%TO.C,D3*%
X204061500Y-138811000D03*
X200941500Y-138811000D03*
%TD*%
%TO.C,D4*%
X164691500Y-138747500D03*
X161571500Y-138747500D03*
%TD*%
D13*
%TO.C,D5*%
X168773800Y-134137400D03*
X173973800Y-134137400D03*
%TD*%
%TO.C,D6*%
X193239700Y-134137400D03*
X188039700Y-134137400D03*
%TD*%
%TO.C,D7*%
X172240900Y-101409500D03*
X177440900Y-101409500D03*
%TD*%
%TO.C,D8*%
X189734500Y-101346000D03*
X184534500Y-101346000D03*
%TD*%
D12*
%TO.C,D9*%
X180062700Y-108940600D03*
X183182700Y-108940600D03*
%TD*%
%TO.C,D10*%
X183258900Y-117398800D03*
X180138900Y-117398800D03*
%TD*%
%TO.C,D11*%
X180532600Y-127546100D03*
X183652600Y-127546100D03*
%TD*%
D14*
%TO.C,Q1*%
X161664900Y-119974400D03*
X161664900Y-118074400D03*
X163664900Y-119024400D03*
%TD*%
%TO.C,R1*%
G36*
G01*
X152916700Y-114322700D02*
X152916700Y-115572700D01*
G75*
G02*
X152666700Y-115822700I-250000J0D01*
G01*
X151916700Y-115822700D01*
G75*
G02*
X151666700Y-115572700I0J250000D01*
G01*
X151666700Y-114322700D01*
G75*
G02*
X151916700Y-114072700I250000J0D01*
G01*
X152666700Y-114072700D01*
G75*
G02*
X152916700Y-114322700I0J-250000D01*
G01*
G37*
G36*
G01*
X150116700Y-114322700D02*
X150116700Y-115572700D01*
G75*
G02*
X149866700Y-115822700I-250000J0D01*
G01*
X149116700Y-115822700D01*
G75*
G02*
X148866700Y-115572700I0J250000D01*
G01*
X148866700Y-114322700D01*
G75*
G02*
X149116700Y-114072700I250000J0D01*
G01*
X149866700Y-114072700D01*
G75*
G02*
X150116700Y-114322700I0J-250000D01*
G01*
G37*
%TD*%
%TO.C,R2*%
G36*
G01*
X152339200Y-103019700D02*
X152339200Y-104269700D01*
G75*
G02*
X152089200Y-104519700I-250000J0D01*
G01*
X151339200Y-104519700D01*
G75*
G02*
X151089200Y-104269700I0J250000D01*
G01*
X151089200Y-103019700D01*
G75*
G02*
X151339200Y-102769700I250000J0D01*
G01*
X152089200Y-102769700D01*
G75*
G02*
X152339200Y-103019700I0J-250000D01*
G01*
G37*
G36*
G01*
X149539200Y-103019700D02*
X149539200Y-104269700D01*
G75*
G02*
X149289200Y-104519700I-250000J0D01*
G01*
X148539200Y-104519700D01*
G75*
G02*
X148289200Y-104269700I0J250000D01*
G01*
X148289200Y-103019700D01*
G75*
G02*
X148539200Y-102769700I250000J0D01*
G01*
X149289200Y-102769700D01*
G75*
G02*
X149539200Y-103019700I0J-250000D01*
G01*
G37*
%TD*%
%TO.C,R3*%
G36*
G01*
X135734900Y-111597600D02*
X135734900Y-110347600D01*
G75*
G02*
X135984900Y-110097600I250000J0D01*
G01*
X136734900Y-110097600D01*
G75*
G02*
X136984900Y-110347600I0J-250000D01*
G01*
X136984900Y-111597600D01*
G75*
G02*
X136734900Y-111847600I-250000J0D01*
G01*
X135984900Y-111847600D01*
G75*
G02*
X135734900Y-111597600I0J250000D01*
G01*
G37*
G36*
G01*
X132934900Y-111597600D02*
X132934900Y-110347600D01*
G75*
G02*
X133184900Y-110097600I250000J0D01*
G01*
X133934900Y-110097600D01*
G75*
G02*
X134184900Y-110347600I0J-250000D01*
G01*
X134184900Y-111597600D01*
G75*
G02*
X133934900Y-111847600I-250000J0D01*
G01*
X133184900Y-111847600D01*
G75*
G02*
X132934900Y-111597600I0J250000D01*
G01*
G37*
%TD*%
%TO.C,R4*%
G36*
G01*
X134934800Y-97993500D02*
X136184800Y-97993500D01*
G75*
G02*
X136434800Y-98243500I0J-250000D01*
G01*
X136434800Y-98993500D01*
G75*
G02*
X136184800Y-99243500I-250000J0D01*
G01*
X134934800Y-99243500D01*
G75*
G02*
X134684800Y-98993500I0J250000D01*
G01*
X134684800Y-98243500D01*
G75*
G02*
X134934800Y-97993500I250000J0D01*
G01*
G37*
G36*
G01*
X134934800Y-95193500D02*
X136184800Y-95193500D01*
G75*
G02*
X136434800Y-95443500I0J-250000D01*
G01*
X136434800Y-96193500D01*
G75*
G02*
X136184800Y-96443500I-250000J0D01*
G01*
X134934800Y-96443500D01*
G75*
G02*
X134684800Y-96193500I0J250000D01*
G01*
X134684800Y-95443500D01*
G75*
G02*
X134934800Y-95193500I250000J0D01*
G01*
G37*
%TD*%
%TO.C,R5*%
G36*
G01*
X152726200Y-109001400D02*
X152726200Y-110251400D01*
G75*
G02*
X152476200Y-110501400I-250000J0D01*
G01*
X151726200Y-110501400D01*
G75*
G02*
X151476200Y-110251400I0J250000D01*
G01*
X151476200Y-109001400D01*
G75*
G02*
X151726200Y-108751400I250000J0D01*
G01*
X152476200Y-108751400D01*
G75*
G02*
X152726200Y-109001400I0J-250000D01*
G01*
G37*
G36*
G01*
X149926200Y-109001400D02*
X149926200Y-110251400D01*
G75*
G02*
X149676200Y-110501400I-250000J0D01*
G01*
X148926200Y-110501400D01*
G75*
G02*
X148676200Y-110251400I0J250000D01*
G01*
X148676200Y-109001400D01*
G75*
G02*
X148926200Y-108751400I250000J0D01*
G01*
X149676200Y-108751400D01*
G75*
G02*
X149926200Y-109001400I0J-250000D01*
G01*
G37*
%TD*%
%TO.C,R6*%
G36*
G01*
X152288400Y-97838100D02*
X152288400Y-99088100D01*
G75*
G02*
X152038400Y-99338100I-250000J0D01*
G01*
X151288400Y-99338100D01*
G75*
G02*
X151038400Y-99088100I0J250000D01*
G01*
X151038400Y-97838100D01*
G75*
G02*
X151288400Y-97588100I250000J0D01*
G01*
X152038400Y-97588100D01*
G75*
G02*
X152288400Y-97838100I0J-250000D01*
G01*
G37*
G36*
G01*
X149488400Y-97838100D02*
X149488400Y-99088100D01*
G75*
G02*
X149238400Y-99338100I-250000J0D01*
G01*
X148488400Y-99338100D01*
G75*
G02*
X148238400Y-99088100I0J250000D01*
G01*
X148238400Y-97838100D01*
G75*
G02*
X148488400Y-97588100I250000J0D01*
G01*
X149238400Y-97588100D01*
G75*
G02*
X149488400Y-97838100I0J-250000D01*
G01*
G37*
%TD*%
%TO.C,R7*%
G36*
G01*
X203853400Y-131683600D02*
X203853400Y-132933600D01*
G75*
G02*
X203603400Y-133183600I-250000J0D01*
G01*
X202853400Y-133183600D01*
G75*
G02*
X202603400Y-132933600I0J250000D01*
G01*
X202603400Y-131683600D01*
G75*
G02*
X202853400Y-131433600I250000J0D01*
G01*
X203603400Y-131433600D01*
G75*
G02*
X203853400Y-131683600I0J-250000D01*
G01*
G37*
G36*
G01*
X201053400Y-131683600D02*
X201053400Y-132933600D01*
G75*
G02*
X200803400Y-133183600I-250000J0D01*
G01*
X200053400Y-133183600D01*
G75*
G02*
X199803400Y-132933600I0J250000D01*
G01*
X199803400Y-131683600D01*
G75*
G02*
X200053400Y-131433600I250000J0D01*
G01*
X200803400Y-131433600D01*
G75*
G02*
X201053400Y-131683600I0J-250000D01*
G01*
G37*
%TD*%
%TO.C,R8*%
G36*
G01*
X155612800Y-138186000D02*
X155612800Y-139436000D01*
G75*
G02*
X155362800Y-139686000I-250000J0D01*
G01*
X154612800Y-139686000D01*
G75*
G02*
X154362800Y-139436000I0J250000D01*
G01*
X154362800Y-138186000D01*
G75*
G02*
X154612800Y-137936000I250000J0D01*
G01*
X155362800Y-137936000D01*
G75*
G02*
X155612800Y-138186000I0J-250000D01*
G01*
G37*
G36*
G01*
X158412800Y-138186000D02*
X158412800Y-139436000D01*
G75*
G02*
X158162800Y-139686000I-250000J0D01*
G01*
X157412800Y-139686000D01*
G75*
G02*
X157162800Y-139436000I0J250000D01*
G01*
X157162800Y-138186000D01*
G75*
G02*
X157412800Y-137936000I250000J0D01*
G01*
X158162800Y-137936000D01*
G75*
G02*
X158412800Y-138186000I0J-250000D01*
G01*
G37*
%TD*%
%TO.C,R9*%
G36*
G01*
X107292300Y-129308700D02*
X107292300Y-130558700D01*
G75*
G02*
X107042300Y-130808700I-250000J0D01*
G01*
X106292300Y-130808700D01*
G75*
G02*
X106042300Y-130558700I0J250000D01*
G01*
X106042300Y-129308700D01*
G75*
G02*
X106292300Y-129058700I250000J0D01*
G01*
X107042300Y-129058700D01*
G75*
G02*
X107292300Y-129308700I0J-250000D01*
G01*
G37*
G36*
G01*
X110092300Y-129308700D02*
X110092300Y-130558700D01*
G75*
G02*
X109842300Y-130808700I-250000J0D01*
G01*
X109092300Y-130808700D01*
G75*
G02*
X108842300Y-130558700I0J250000D01*
G01*
X108842300Y-129308700D01*
G75*
G02*
X109092300Y-129058700I250000J0D01*
G01*
X109842300Y-129058700D01*
G75*
G02*
X110092300Y-129308700I0J-250000D01*
G01*
G37*
%TD*%
%TO.C,R10*%
G36*
G01*
X163624100Y-113172400D02*
X163624100Y-111922400D01*
G75*
G02*
X163874100Y-111672400I250000J0D01*
G01*
X164624100Y-111672400D01*
G75*
G02*
X164874100Y-111922400I0J-250000D01*
G01*
X164874100Y-113172400D01*
G75*
G02*
X164624100Y-113422400I-250000J0D01*
G01*
X163874100Y-113422400D01*
G75*
G02*
X163624100Y-113172400I0J250000D01*
G01*
G37*
G36*
G01*
X160824100Y-113172400D02*
X160824100Y-111922400D01*
G75*
G02*
X161074100Y-111672400I250000J0D01*
G01*
X161824100Y-111672400D01*
G75*
G02*
X162074100Y-111922400I0J-250000D01*
G01*
X162074100Y-113172400D01*
G75*
G02*
X161824100Y-113422400I-250000J0D01*
G01*
X161074100Y-113422400D01*
G75*
G02*
X160824100Y-113172400I0J250000D01*
G01*
G37*
%TD*%
%TO.C,R11*%
G36*
G01*
X169669300Y-129212500D02*
X169669300Y-127962500D01*
G75*
G02*
X169919300Y-127712500I250000J0D01*
G01*
X170669300Y-127712500D01*
G75*
G02*
X170919300Y-127962500I0J-250000D01*
G01*
X170919300Y-129212500D01*
G75*
G02*
X170669300Y-129462500I-250000J0D01*
G01*
X169919300Y-129462500D01*
G75*
G02*
X169669300Y-129212500I0J250000D01*
G01*
G37*
G36*
G01*
X172469300Y-129212500D02*
X172469300Y-127962500D01*
G75*
G02*
X172719300Y-127712500I250000J0D01*
G01*
X173469300Y-127712500D01*
G75*
G02*
X173719300Y-127962500I0J-250000D01*
G01*
X173719300Y-129212500D01*
G75*
G02*
X173469300Y-129462500I-250000J0D01*
G01*
X172719300Y-129462500D01*
G75*
G02*
X172469300Y-129212500I0J250000D01*
G01*
G37*
%TD*%
%TO.C,R12*%
G36*
G01*
X189963900Y-139093100D02*
X189963900Y-137843100D01*
G75*
G02*
X190213900Y-137593100I250000J0D01*
G01*
X190963900Y-137593100D01*
G75*
G02*
X191213900Y-137843100I0J-250000D01*
G01*
X191213900Y-139093100D01*
G75*
G02*
X190963900Y-139343100I-250000J0D01*
G01*
X190213900Y-139343100D01*
G75*
G02*
X189963900Y-139093100I0J250000D01*
G01*
G37*
G36*
G01*
X192763900Y-139093100D02*
X192763900Y-137843100D01*
G75*
G02*
X193013900Y-137593100I250000J0D01*
G01*
X193763900Y-137593100D01*
G75*
G02*
X194013900Y-137843100I0J-250000D01*
G01*
X194013900Y-139093100D01*
G75*
G02*
X193763900Y-139343100I-250000J0D01*
G01*
X193013900Y-139343100D01*
G75*
G02*
X192763900Y-139093100I0J250000D01*
G01*
G37*
%TD*%
%TO.C,R13*%
G36*
G01*
X174501300Y-97043400D02*
X174501300Y-95793400D01*
G75*
G02*
X174751300Y-95543400I250000J0D01*
G01*
X175501300Y-95543400D01*
G75*
G02*
X175751300Y-95793400I0J-250000D01*
G01*
X175751300Y-97043400D01*
G75*
G02*
X175501300Y-97293400I-250000J0D01*
G01*
X174751300Y-97293400D01*
G75*
G02*
X174501300Y-97043400I0J250000D01*
G01*
G37*
G36*
G01*
X171701300Y-97043400D02*
X171701300Y-95793400D01*
G75*
G02*
X171951300Y-95543400I250000J0D01*
G01*
X172701300Y-95543400D01*
G75*
G02*
X172951300Y-95793400I0J-250000D01*
G01*
X172951300Y-97043400D01*
G75*
G02*
X172701300Y-97293400I-250000J0D01*
G01*
X171951300Y-97293400D01*
G75*
G02*
X171701300Y-97043400I0J250000D01*
G01*
G37*
%TD*%
%TO.C,R14*%
G36*
G01*
X184984200Y-95920400D02*
X184984200Y-97170400D01*
G75*
G02*
X184734200Y-97420400I-250000J0D01*
G01*
X183984200Y-97420400D01*
G75*
G02*
X183734200Y-97170400I0J250000D01*
G01*
X183734200Y-95920400D01*
G75*
G02*
X183984200Y-95670400I250000J0D01*
G01*
X184734200Y-95670400D01*
G75*
G02*
X184984200Y-95920400I0J-250000D01*
G01*
G37*
G36*
G01*
X182184200Y-95920400D02*
X182184200Y-97170400D01*
G75*
G02*
X181934200Y-97420400I-250000J0D01*
G01*
X181184200Y-97420400D01*
G75*
G02*
X180934200Y-97170400I0J250000D01*
G01*
X180934200Y-95920400D01*
G75*
G02*
X181184200Y-95670400I250000J0D01*
G01*
X181934200Y-95670400D01*
G75*
G02*
X182184200Y-95920400I0J-250000D01*
G01*
G37*
%TD*%
%TO.C,R15*%
G36*
G01*
X174113700Y-108226700D02*
X174113700Y-109476700D01*
G75*
G02*
X173863700Y-109726700I-250000J0D01*
G01*
X173113700Y-109726700D01*
G75*
G02*
X172863700Y-109476700I0J250000D01*
G01*
X172863700Y-108226700D01*
G75*
G02*
X173113700Y-107976700I250000J0D01*
G01*
X173863700Y-107976700D01*
G75*
G02*
X174113700Y-108226700I0J-250000D01*
G01*
G37*
G36*
G01*
X176913700Y-108226700D02*
X176913700Y-109476700D01*
G75*
G02*
X176663700Y-109726700I-250000J0D01*
G01*
X175913700Y-109726700D01*
G75*
G02*
X175663700Y-109476700I0J250000D01*
G01*
X175663700Y-108226700D01*
G75*
G02*
X175913700Y-107976700I250000J0D01*
G01*
X176663700Y-107976700D01*
G75*
G02*
X176913700Y-108226700I0J-250000D01*
G01*
G37*
%TD*%
%TO.C,R16*%
G36*
G01*
X178075400Y-116735700D02*
X178075400Y-117985700D01*
G75*
G02*
X177825400Y-118235700I-250000J0D01*
G01*
X177075400Y-118235700D01*
G75*
G02*
X176825400Y-117985700I0J250000D01*
G01*
X176825400Y-116735700D01*
G75*
G02*
X177075400Y-116485700I250000J0D01*
G01*
X177825400Y-116485700D01*
G75*
G02*
X178075400Y-116735700I0J-250000D01*
G01*
G37*
G36*
G01*
X175275400Y-116735700D02*
X175275400Y-117985700D01*
G75*
G02*
X175025400Y-118235700I-250000J0D01*
G01*
X174275400Y-118235700D01*
G75*
G02*
X174025400Y-117985700I0J250000D01*
G01*
X174025400Y-116735700D01*
G75*
G02*
X174275400Y-116485700I250000J0D01*
G01*
X175025400Y-116485700D01*
G75*
G02*
X175275400Y-116735700I0J-250000D01*
G01*
G37*
%TD*%
%TO.C,R17*%
G36*
G01*
X175078900Y-123073000D02*
X175078900Y-124323000D01*
G75*
G02*
X174828900Y-124573000I-250000J0D01*
G01*
X174078900Y-124573000D01*
G75*
G02*
X173828900Y-124323000I0J250000D01*
G01*
X173828900Y-123073000D01*
G75*
G02*
X174078900Y-122823000I250000J0D01*
G01*
X174828900Y-122823000D01*
G75*
G02*
X175078900Y-123073000I0J-250000D01*
G01*
G37*
G36*
G01*
X177878900Y-123073000D02*
X177878900Y-124323000D01*
G75*
G02*
X177628900Y-124573000I-250000J0D01*
G01*
X176878900Y-124573000D01*
G75*
G02*
X176628900Y-124323000I0J250000D01*
G01*
X176628900Y-123073000D01*
G75*
G02*
X176878900Y-122823000I250000J0D01*
G01*
X177628900Y-122823000D01*
G75*
G02*
X177878900Y-123073000I0J-250000D01*
G01*
G37*
%TD*%
D15*
%TO.C,SW2*%
X137666100Y-85077300D03*
X135166100Y-85077300D03*
X132666100Y-85077300D03*
X137666100Y-79577300D03*
X135166100Y-79577300D03*
X132666100Y-79577300D03*
%TD*%
D16*
%TO.C,U1*%
X152428900Y-79518200D03*
X152428900Y-84718200D03*
X151158900Y-79518200D03*
X151158900Y-84718200D03*
X149888900Y-79518200D03*
X149888900Y-84718200D03*
X148618900Y-79518200D03*
X148618900Y-84718200D03*
X147348900Y-79518200D03*
X147348900Y-84718200D03*
X146078900Y-79518200D03*
X146078900Y-84718200D03*
X144808900Y-79518200D03*
X144808900Y-84718200D03*
%TD*%
M02*
