%TF.GenerationSoftware,KiCad,Pcbnew,5.1.6-c6e7f7d~86~ubuntu18.04.1*%
%TF.CreationDate,2021-04-18T13:50:28-04:00*%
%TF.ProjectId,avBadge_2021,61764261-6467-4655-9f32-3032312e6b69,rev?*%
%TF.SameCoordinates,Original*%
%TF.FileFunction,Legend,Bot*%
%TF.FilePolarity,Positive*%
%FSLAX46Y46*%
G04 Gerber Fmt 4.6, Leading zero omitted, Abs format (unit mm)*
G04 Created by KiCad (PCBNEW 5.1.6-c6e7f7d~86~ubuntu18.04.1) date 2021-04-18 13:50:28*
%MOMM*%
%LPD*%
G01*
G04 APERTURE LIST*
%ADD10C,0.150000*%
%ADD11C,0.120000*%
%ADD12C,0.200000*%
%ADD13C,0.400000*%
G04 APERTURE END LIST*
D10*
X207636167Y-142479780D02*
X207636167Y-143194066D01*
X207683786Y-143336923D01*
X207779024Y-143432161D01*
X207921881Y-143479780D01*
X208017120Y-143479780D01*
X206683786Y-143479780D02*
X207159977Y-143479780D01*
X207159977Y-142479780D01*
X205779024Y-143384542D02*
X205826643Y-143432161D01*
X205969500Y-143479780D01*
X206064739Y-143479780D01*
X206207596Y-143432161D01*
X206302834Y-143336923D01*
X206350453Y-143241685D01*
X206398072Y-143051209D01*
X206398072Y-142908352D01*
X206350453Y-142717876D01*
X206302834Y-142622638D01*
X206207596Y-142527400D01*
X206064739Y-142479780D01*
X205969500Y-142479780D01*
X205826643Y-142527400D01*
X205779024Y-142575019D01*
X205064739Y-142479780D02*
X205064739Y-143194066D01*
X205112358Y-143336923D01*
X205207596Y-143432161D01*
X205350453Y-143479780D01*
X205445691Y-143479780D01*
X204112358Y-143479780D02*
X204588548Y-143479780D01*
X204588548Y-142479780D01*
X203207596Y-143384542D02*
X203255215Y-143432161D01*
X203398072Y-143479780D01*
X203493310Y-143479780D01*
X203636167Y-143432161D01*
X203731405Y-143336923D01*
X203779024Y-143241685D01*
X203826643Y-143051209D01*
X203826643Y-142908352D01*
X203779024Y-142717876D01*
X203731405Y-142622638D01*
X203636167Y-142527400D01*
X203493310Y-142479780D01*
X203398072Y-142479780D01*
X203255215Y-142527400D01*
X203207596Y-142575019D01*
X202493310Y-142479780D02*
X202493310Y-143194066D01*
X202540929Y-143336923D01*
X202636167Y-143432161D01*
X202779024Y-143479780D01*
X202874262Y-143479780D01*
X201540929Y-143479780D02*
X202017120Y-143479780D01*
X202017120Y-142479780D01*
X200636167Y-143384542D02*
X200683786Y-143432161D01*
X200826643Y-143479780D01*
X200921881Y-143479780D01*
X201064739Y-143432161D01*
X201159977Y-143336923D01*
X201207596Y-143241685D01*
X201255215Y-143051209D01*
X201255215Y-142908352D01*
X201207596Y-142717876D01*
X201159977Y-142622638D01*
X201064739Y-142527400D01*
X200921881Y-142479780D01*
X200826643Y-142479780D01*
X200683786Y-142527400D01*
X200636167Y-142575019D01*
X199921881Y-142479780D02*
X199921881Y-143194066D01*
X199969500Y-143336923D01*
X200064739Y-143432161D01*
X200207596Y-143479780D01*
X200302834Y-143479780D01*
X198969500Y-143479780D02*
X199445691Y-143479780D01*
X199445691Y-142479780D01*
X198064739Y-143384542D02*
X198112358Y-143432161D01*
X198255215Y-143479780D01*
X198350453Y-143479780D01*
X198493310Y-143432161D01*
X198588548Y-143336923D01*
X198636167Y-143241685D01*
X198683786Y-143051209D01*
X198683786Y-142908352D01*
X198636167Y-142717876D01*
X198588548Y-142622638D01*
X198493310Y-142527400D01*
X198350453Y-142479780D01*
X198255215Y-142479780D01*
X198112358Y-142527400D01*
X198064739Y-142575019D01*
X141087854Y-136947354D02*
X140087854Y-136947354D01*
X139659282Y-138518782D02*
X141087854Y-138518782D01*
X141087854Y-135518782D01*
X139659282Y-135518782D01*
X138373568Y-136518782D02*
X138373568Y-138518782D01*
X138373568Y-136804497D02*
X138230711Y-136661640D01*
X137944997Y-136518782D01*
X137516425Y-136518782D01*
X137230711Y-136661640D01*
X137087854Y-136947354D01*
X137087854Y-138518782D01*
X134373568Y-136518782D02*
X134373568Y-138947354D01*
X134516425Y-139233068D01*
X134659282Y-139375925D01*
X134944997Y-139518782D01*
X135373568Y-139518782D01*
X135659282Y-139375925D01*
X134373568Y-138375925D02*
X134659282Y-138518782D01*
X135230711Y-138518782D01*
X135516425Y-138375925D01*
X135659282Y-138233068D01*
X135802140Y-137947354D01*
X135802140Y-137090211D01*
X135659282Y-136804497D01*
X135516425Y-136661640D01*
X135230711Y-136518782D01*
X134659282Y-136518782D01*
X134373568Y-136661640D01*
X132944997Y-138518782D02*
X132944997Y-136518782D01*
X132944997Y-135518782D02*
X133087854Y-135661640D01*
X132944997Y-135804497D01*
X132802140Y-135661640D01*
X132944997Y-135518782D01*
X132944997Y-135804497D01*
X131516425Y-136518782D02*
X131516425Y-138518782D01*
X131516425Y-136804497D02*
X131373568Y-136661640D01*
X131087854Y-136518782D01*
X130659282Y-136518782D01*
X130373568Y-136661640D01*
X130230711Y-136947354D01*
X130230711Y-138518782D01*
X127659282Y-138375925D02*
X127944997Y-138518782D01*
X128516425Y-138518782D01*
X128802140Y-138375925D01*
X128944997Y-138090211D01*
X128944997Y-136947354D01*
X128802140Y-136661640D01*
X128516425Y-136518782D01*
X127944997Y-136518782D01*
X127659282Y-136661640D01*
X127516425Y-136947354D01*
X127516425Y-137233068D01*
X128944997Y-137518782D01*
X125087854Y-138375925D02*
X125373568Y-138518782D01*
X125944997Y-138518782D01*
X126230711Y-138375925D01*
X126373568Y-138090211D01*
X126373568Y-136947354D01*
X126230711Y-136661640D01*
X125944997Y-136518782D01*
X125373568Y-136518782D01*
X125087854Y-136661640D01*
X124944997Y-136947354D01*
X124944997Y-137233068D01*
X126373568Y-137518782D01*
X123659282Y-138518782D02*
X123659282Y-136518782D01*
X123659282Y-137090211D02*
X123516425Y-136804497D01*
X123373568Y-136661640D01*
X123087854Y-136518782D01*
X122802140Y-136518782D01*
X121802140Y-138518782D02*
X121802140Y-136518782D01*
X121802140Y-135518782D02*
X121944997Y-135661640D01*
X121802140Y-135804497D01*
X121659282Y-135661640D01*
X121802140Y-135518782D01*
X121802140Y-135804497D01*
X120373568Y-136518782D02*
X120373568Y-138518782D01*
X120373568Y-136804497D02*
X120230711Y-136661640D01*
X119944997Y-136518782D01*
X119516425Y-136518782D01*
X119230711Y-136661640D01*
X119087854Y-136947354D01*
X119087854Y-138518782D01*
X116373568Y-136518782D02*
X116373568Y-138947354D01*
X116516425Y-139233068D01*
X116659282Y-139375925D01*
X116944997Y-139518782D01*
X117373568Y-139518782D01*
X117659282Y-139375925D01*
X116373568Y-138375925D02*
X116659282Y-138518782D01*
X117230711Y-138518782D01*
X117516425Y-138375925D01*
X117659282Y-138233068D01*
X117802140Y-137947354D01*
X117802140Y-137090211D01*
X117659282Y-136804497D01*
X117516425Y-136661640D01*
X117230711Y-136518782D01*
X116659282Y-136518782D01*
X116373568Y-136661640D01*
X112659282Y-138518782D02*
X112659282Y-135518782D01*
X112659282Y-136661640D02*
X112373568Y-136518782D01*
X111802140Y-136518782D01*
X111516425Y-136661640D01*
X111373568Y-136804497D01*
X111230711Y-137090211D01*
X111230711Y-137947354D01*
X111373568Y-138233068D01*
X111516425Y-138375925D01*
X111802140Y-138518782D01*
X112373568Y-138518782D01*
X112659282Y-138375925D01*
X110230711Y-136518782D02*
X109516425Y-138518782D01*
X108802140Y-136518782D02*
X109516425Y-138518782D01*
X109802140Y-139233068D01*
X109944997Y-139375925D01*
X110230711Y-139518782D01*
X107659282Y-138233068D02*
X107516425Y-138375925D01*
X107659282Y-138518782D01*
X107802140Y-138375925D01*
X107659282Y-138233068D01*
X107659282Y-138518782D01*
X107659282Y-136661640D02*
X107516425Y-136804497D01*
X107659282Y-136947354D01*
X107802140Y-136804497D01*
X107659282Y-136661640D01*
X107659282Y-136947354D01*
X103944997Y-138518782D02*
X103944997Y-135518782D01*
X103230711Y-135518782D01*
X102802140Y-135661640D01*
X102516425Y-135947354D01*
X102373568Y-136233068D01*
X102230711Y-136804497D01*
X102230711Y-137233068D01*
X102373568Y-137804497D01*
X102516425Y-138090211D01*
X102802140Y-138375925D01*
X103230711Y-138518782D01*
X103944997Y-138518782D01*
X99659282Y-138518782D02*
X99659282Y-136947354D01*
X99802140Y-136661640D01*
X100087854Y-136518782D01*
X100659282Y-136518782D01*
X100944997Y-136661640D01*
X99659282Y-138375925D02*
X99944997Y-138518782D01*
X100659282Y-138518782D01*
X100944997Y-138375925D01*
X101087854Y-138090211D01*
X101087854Y-137804497D01*
X100944997Y-137518782D01*
X100659282Y-137375925D01*
X99944997Y-137375925D01*
X99659282Y-137233068D01*
X98230711Y-136518782D02*
X98230711Y-138518782D01*
X98230711Y-136804497D02*
X98087854Y-136661640D01*
X97802140Y-136518782D01*
X97373568Y-136518782D01*
X97087854Y-136661640D01*
X96944997Y-136947354D01*
X96944997Y-138518782D01*
X141230711Y-142311640D02*
X139802140Y-142311640D01*
X141516425Y-143168782D02*
X140516425Y-140168782D01*
X139516425Y-143168782D01*
X138516425Y-143168782D02*
X138516425Y-141168782D01*
X138516425Y-141740211D02*
X138373568Y-141454497D01*
X138230711Y-141311640D01*
X137944997Y-141168782D01*
X137659282Y-141168782D01*
X137087854Y-141168782D02*
X135944997Y-141168782D01*
X136659282Y-140168782D02*
X136659282Y-142740211D01*
X136516425Y-143025925D01*
X136230711Y-143168782D01*
X135944997Y-143168782D01*
X135230711Y-141168782D02*
X134659282Y-143168782D01*
X134087854Y-141740211D01*
X133516425Y-143168782D01*
X132944997Y-141168782D01*
X131373568Y-143168782D02*
X131659282Y-143025925D01*
X131802140Y-142883068D01*
X131944997Y-142597354D01*
X131944997Y-141740211D01*
X131802140Y-141454497D01*
X131659282Y-141311640D01*
X131373568Y-141168782D01*
X130944997Y-141168782D01*
X130659282Y-141311640D01*
X130516425Y-141454497D01*
X130373568Y-141740211D01*
X130373568Y-142597354D01*
X130516425Y-142883068D01*
X130659282Y-143025925D01*
X130944997Y-143168782D01*
X131373568Y-143168782D01*
X129087854Y-143168782D02*
X129087854Y-141168782D01*
X129087854Y-141740211D02*
X128944997Y-141454497D01*
X128802140Y-141311640D01*
X128516425Y-141168782D01*
X128230711Y-141168782D01*
X127230711Y-143168782D02*
X127230711Y-140168782D01*
X126944997Y-142025925D02*
X126087854Y-143168782D01*
X126087854Y-141168782D02*
X127230711Y-142311640D01*
X122516425Y-143168782D02*
X122516425Y-140168782D01*
X122516425Y-141311640D02*
X122230711Y-141168782D01*
X121659282Y-141168782D01*
X121373568Y-141311640D01*
X121230711Y-141454497D01*
X121087854Y-141740211D01*
X121087854Y-142597354D01*
X121230711Y-142883068D01*
X121373568Y-143025925D01*
X121659282Y-143168782D01*
X122230711Y-143168782D01*
X122516425Y-143025925D01*
X120087854Y-141168782D02*
X119373568Y-143168782D01*
X118659282Y-141168782D02*
X119373568Y-143168782D01*
X119659282Y-143883068D01*
X119802140Y-144025925D01*
X120087854Y-144168782D01*
X117516425Y-142883068D02*
X117373568Y-143025925D01*
X117516425Y-143168782D01*
X117659282Y-143025925D01*
X117516425Y-142883068D01*
X117516425Y-143168782D01*
X117516425Y-141311640D02*
X117373568Y-141454497D01*
X117516425Y-141597354D01*
X117659282Y-141454497D01*
X117516425Y-141311640D01*
X117516425Y-141597354D01*
X113802140Y-143168782D02*
X113802140Y-140168782D01*
X113087854Y-140168782D01*
X112659282Y-140311640D01*
X112373568Y-140597354D01*
X112230711Y-140883068D01*
X112087854Y-141454497D01*
X112087854Y-141883068D01*
X112230711Y-142454497D01*
X112373568Y-142740211D01*
X112659282Y-143025925D01*
X113087854Y-143168782D01*
X113802140Y-143168782D01*
X109516425Y-143168782D02*
X109516425Y-141597354D01*
X109659282Y-141311640D01*
X109944997Y-141168782D01*
X110516425Y-141168782D01*
X110802140Y-141311640D01*
X109516425Y-143025925D02*
X109802140Y-143168782D01*
X110516425Y-143168782D01*
X110802140Y-143025925D01*
X110944997Y-142740211D01*
X110944997Y-142454497D01*
X110802140Y-142168782D01*
X110516425Y-142025925D01*
X109802140Y-142025925D01*
X109516425Y-141883068D01*
X108087854Y-141168782D02*
X108087854Y-143168782D01*
X108087854Y-141454497D02*
X107944997Y-141311640D01*
X107659282Y-141168782D01*
X107230711Y-141168782D01*
X106944997Y-141311640D01*
X106802140Y-141597354D01*
X106802140Y-143168782D01*
D11*
%TO.C,BT1*%
X101970600Y-81536200D02*
X103410600Y-77586200D01*
X104050600Y-92706200D02*
X101970600Y-90626200D01*
X107550600Y-92706200D02*
X104050600Y-92706200D01*
X121450600Y-92706200D02*
X123530600Y-90626200D01*
X123530600Y-81536200D02*
X122090600Y-77586200D01*
X101970600Y-90626200D02*
X101970600Y-88166200D01*
X101970600Y-82166200D02*
X101970600Y-81536200D01*
X123530600Y-90626200D02*
X123530600Y-88166200D01*
X123530600Y-82166200D02*
X123530600Y-81536200D01*
X121450600Y-92706200D02*
X117950600Y-92706200D01*
X106747246Y-76599670D02*
G75*
G03*
X103410600Y-77586200I-1306646J-1716530D01*
G01*
X122075844Y-77578031D02*
G75*
G03*
X118750600Y-76616200I-2015244J-738169D01*
G01*
%TO.C,C1*%
X157818500Y-82532764D02*
X157818500Y-81328636D01*
X155998500Y-82532764D02*
X155998500Y-81328636D01*
%TO.C,C2*%
X168310936Y-118152500D02*
X169515064Y-118152500D01*
X168310936Y-119972500D02*
X169515064Y-119972500D01*
D12*
%TO.C,D3*%
X204957020Y-139428220D02*
G75*
G03*
X204957020Y-139428220I-100000J0D01*
G01*
%TO.C,D4*%
X160875980Y-138130280D02*
G75*
G03*
X160875980Y-138130280I-100000J0D01*
G01*
D13*
%TO.C,D5*%
X167875560Y-132575300D02*
G75*
G03*
X167875560Y-132575300I-200000J0D01*
G01*
%TO.C,D6*%
X187141460Y-132575300D02*
G75*
G03*
X187141460Y-132575300I-200000J0D01*
G01*
%TO.C,D7*%
X178688340Y-102849680D02*
G75*
G03*
X178688340Y-102849680I-200000J0D01*
G01*
%TO.C,D8*%
X190981940Y-102786180D02*
G75*
G03*
X190981940Y-102786180I-200000J0D01*
G01*
D12*
%TO.C,D9*%
X179367180Y-108323380D02*
G75*
G03*
X179367180Y-108323380I-100000J0D01*
G01*
%TO.C,D10*%
X179443380Y-116781580D02*
G75*
G03*
X179443380Y-116781580I-100000J0D01*
G01*
%TO.C,D11*%
X179837080Y-126928880D02*
G75*
G03*
X179837080Y-126928880I-100000J0D01*
G01*
D11*
%TO.C,Q1*%
X163424900Y-117444400D02*
X163424900Y-118374400D01*
X163424900Y-120604400D02*
X163424900Y-119674400D01*
X163424900Y-120604400D02*
X161264900Y-120604400D01*
X163424900Y-117444400D02*
X161964900Y-117444400D01*
%TO.C,R1*%
X151493764Y-114037700D02*
X150289636Y-114037700D01*
X151493764Y-115857700D02*
X150289636Y-115857700D01*
%TO.C,R2*%
X150916264Y-102734700D02*
X149712136Y-102734700D01*
X150916264Y-104554700D02*
X149712136Y-104554700D01*
%TO.C,R3*%
X134357836Y-110062600D02*
X135561964Y-110062600D01*
X134357836Y-111882600D02*
X135561964Y-111882600D01*
%TO.C,R4*%
X136469800Y-96616436D02*
X136469800Y-97820564D01*
X134649800Y-96616436D02*
X134649800Y-97820564D01*
%TO.C,R5*%
X151303264Y-108716400D02*
X150099136Y-108716400D01*
X151303264Y-110536400D02*
X150099136Y-110536400D01*
%TO.C,R6*%
X150865464Y-97553100D02*
X149661336Y-97553100D01*
X150865464Y-99373100D02*
X149661336Y-99373100D01*
%TO.C,R7*%
X202430464Y-131398600D02*
X201226336Y-131398600D01*
X202430464Y-133218600D02*
X201226336Y-133218600D01*
%TO.C,R8*%
X156989864Y-139721000D02*
X155785736Y-139721000D01*
X156989864Y-137901000D02*
X155785736Y-137901000D01*
%TO.C,R9*%
X108669364Y-130843700D02*
X107465236Y-130843700D01*
X108669364Y-129023700D02*
X107465236Y-129023700D01*
%TO.C,R10*%
X162247036Y-111637400D02*
X163451164Y-111637400D01*
X162247036Y-113457400D02*
X163451164Y-113457400D01*
%TO.C,R11*%
X171092236Y-129497500D02*
X172296364Y-129497500D01*
X171092236Y-127677500D02*
X172296364Y-127677500D01*
%TO.C,R12*%
X191386836Y-139378100D02*
X192590964Y-139378100D01*
X191386836Y-137558100D02*
X192590964Y-137558100D01*
%TO.C,R13*%
X173124236Y-95508400D02*
X174328364Y-95508400D01*
X173124236Y-97328400D02*
X174328364Y-97328400D01*
%TO.C,R14*%
X183561264Y-95635400D02*
X182357136Y-95635400D01*
X183561264Y-97455400D02*
X182357136Y-97455400D01*
%TO.C,R15*%
X175490764Y-109761700D02*
X174286636Y-109761700D01*
X175490764Y-107941700D02*
X174286636Y-107941700D01*
%TO.C,R16*%
X176652464Y-116450700D02*
X175448336Y-116450700D01*
X176652464Y-118270700D02*
X175448336Y-118270700D01*
%TO.C,R17*%
X176455964Y-124608000D02*
X175251836Y-124608000D01*
X176455964Y-122788000D02*
X175251836Y-122788000D01*
%TO.C,U1*%
X144008900Y-86318200D02*
X152428900Y-86318200D01*
X144008900Y-77918200D02*
X144008900Y-86318200D01*
X153228900Y-77918200D02*
X144008900Y-77918200D01*
X153228900Y-85518200D02*
X153228900Y-77918200D01*
X152428900Y-86318200D02*
X153228900Y-85518200D01*
%TO.C,BT1*%
D10*
X113536314Y-96594771D02*
X113393457Y-96642390D01*
X113345838Y-96690009D01*
X113298219Y-96785247D01*
X113298219Y-96928104D01*
X113345838Y-97023342D01*
X113393457Y-97070961D01*
X113488695Y-97118580D01*
X113869647Y-97118580D01*
X113869647Y-96118580D01*
X113536314Y-96118580D01*
X113441076Y-96166200D01*
X113393457Y-96213819D01*
X113345838Y-96309057D01*
X113345838Y-96404295D01*
X113393457Y-96499533D01*
X113441076Y-96547152D01*
X113536314Y-96594771D01*
X113869647Y-96594771D01*
X113012504Y-96118580D02*
X112441076Y-96118580D01*
X112726790Y-97118580D02*
X112726790Y-96118580D01*
X111583933Y-97118580D02*
X112155361Y-97118580D01*
X111869647Y-97118580D02*
X111869647Y-96118580D01*
X111964885Y-96261438D01*
X112060123Y-96356676D01*
X112155361Y-96404295D01*
%TO.C,C1*%
X159085642Y-81764033D02*
X159133261Y-81716414D01*
X159180880Y-81573557D01*
X159180880Y-81478319D01*
X159133261Y-81335461D01*
X159038023Y-81240223D01*
X158942785Y-81192604D01*
X158752309Y-81144985D01*
X158609452Y-81144985D01*
X158418976Y-81192604D01*
X158323738Y-81240223D01*
X158228500Y-81335461D01*
X158180880Y-81478319D01*
X158180880Y-81573557D01*
X158228500Y-81716414D01*
X158276119Y-81764033D01*
X159180880Y-82716414D02*
X159180880Y-82144985D01*
X159180880Y-82430700D02*
X158180880Y-82430700D01*
X158323738Y-82335461D01*
X158418976Y-82240223D01*
X158466595Y-82144985D01*
%TO.C,C2*%
X169079666Y-121239642D02*
X169127285Y-121287261D01*
X169270142Y-121334880D01*
X169365380Y-121334880D01*
X169508238Y-121287261D01*
X169603476Y-121192023D01*
X169651095Y-121096785D01*
X169698714Y-120906309D01*
X169698714Y-120763452D01*
X169651095Y-120572976D01*
X169603476Y-120477738D01*
X169508238Y-120382500D01*
X169365380Y-120334880D01*
X169270142Y-120334880D01*
X169127285Y-120382500D01*
X169079666Y-120430119D01*
X168698714Y-120430119D02*
X168651095Y-120382500D01*
X168555857Y-120334880D01*
X168317761Y-120334880D01*
X168222523Y-120382500D01*
X168174904Y-120430119D01*
X168127285Y-120525357D01*
X168127285Y-120620595D01*
X168174904Y-120763452D01*
X168746333Y-121334880D01*
X168127285Y-121334880D01*
%TO.C,D1*%
X143717235Y-109939080D02*
X143717235Y-108939080D01*
X143479140Y-108939080D01*
X143336282Y-108986700D01*
X143241044Y-109081938D01*
X143193425Y-109177176D01*
X143145806Y-109367652D01*
X143145806Y-109510509D01*
X143193425Y-109700985D01*
X143241044Y-109796223D01*
X143336282Y-109891461D01*
X143479140Y-109939080D01*
X143717235Y-109939080D01*
X142193425Y-109939080D02*
X142764854Y-109939080D01*
X142479140Y-109939080D02*
X142479140Y-108939080D01*
X142574378Y-109081938D01*
X142669616Y-109177176D01*
X142764854Y-109224795D01*
%TO.C,D2*%
X143615635Y-97454980D02*
X143615635Y-96454980D01*
X143377540Y-96454980D01*
X143234682Y-96502600D01*
X143139444Y-96597838D01*
X143091825Y-96693076D01*
X143044206Y-96883552D01*
X143044206Y-97026409D01*
X143091825Y-97216885D01*
X143139444Y-97312123D01*
X143234682Y-97407361D01*
X143377540Y-97454980D01*
X143615635Y-97454980D01*
X142663254Y-96550219D02*
X142615635Y-96502600D01*
X142520397Y-96454980D01*
X142282301Y-96454980D01*
X142187063Y-96502600D01*
X142139444Y-96550219D01*
X142091825Y-96645457D01*
X142091825Y-96740695D01*
X142139444Y-96883552D01*
X142710873Y-97454980D01*
X142091825Y-97454980D01*
%TO.C,D3*%
X203122755Y-141353800D02*
X203122755Y-140353800D01*
X202884660Y-140353800D01*
X202741802Y-140401420D01*
X202646564Y-140496658D01*
X202598945Y-140591896D01*
X202551326Y-140782372D01*
X202551326Y-140925229D01*
X202598945Y-141115705D01*
X202646564Y-141210943D01*
X202741802Y-141306181D01*
X202884660Y-141353800D01*
X203122755Y-141353800D01*
X202217993Y-140353800D02*
X201598945Y-140353800D01*
X201932279Y-140734753D01*
X201789421Y-140734753D01*
X201694183Y-140782372D01*
X201646564Y-140829991D01*
X201598945Y-140925229D01*
X201598945Y-141163324D01*
X201646564Y-141258562D01*
X201694183Y-141306181D01*
X201789421Y-141353800D01*
X202075136Y-141353800D01*
X202170374Y-141306181D01*
X202217993Y-141258562D01*
%TO.C,D4*%
X163986435Y-137109460D02*
X163986435Y-136109460D01*
X163748340Y-136109460D01*
X163605482Y-136157080D01*
X163510244Y-136252318D01*
X163462625Y-136347556D01*
X163415006Y-136538032D01*
X163415006Y-136680889D01*
X163462625Y-136871365D01*
X163510244Y-136966603D01*
X163605482Y-137061841D01*
X163748340Y-137109460D01*
X163986435Y-137109460D01*
X162557863Y-136442794D02*
X162557863Y-137109460D01*
X162795959Y-136061841D02*
X163034054Y-136776127D01*
X162415006Y-136776127D01*
%TO.C,D5*%
X176024279Y-135200615D02*
X177024279Y-135200615D01*
X177024279Y-134962520D01*
X176976660Y-134819662D01*
X176881421Y-134724424D01*
X176786183Y-134676805D01*
X176595707Y-134629186D01*
X176452850Y-134629186D01*
X176262374Y-134676805D01*
X176167136Y-134724424D01*
X176071898Y-134819662D01*
X176024279Y-134962520D01*
X176024279Y-135200615D01*
X177024279Y-133724424D02*
X177024279Y-134200615D01*
X176548088Y-134248234D01*
X176595707Y-134200615D01*
X176643326Y-134105377D01*
X176643326Y-133867281D01*
X176595707Y-133772043D01*
X176548088Y-133724424D01*
X176452850Y-133676805D01*
X176214755Y-133676805D01*
X176119517Y-133724424D01*
X176071898Y-133772043D01*
X176024279Y-133867281D01*
X176024279Y-134105377D01*
X176071898Y-134200615D01*
X176119517Y-134248234D01*
%TO.C,D6*%
X196194940Y-133724424D02*
X195194940Y-133724424D01*
X195194940Y-133962520D01*
X195242560Y-134105377D01*
X195337798Y-134200615D01*
X195433036Y-134248234D01*
X195623512Y-134295853D01*
X195766369Y-134295853D01*
X195956845Y-134248234D01*
X196052083Y-134200615D01*
X196147321Y-134105377D01*
X196194940Y-133962520D01*
X196194940Y-133724424D01*
X195194940Y-135152996D02*
X195194940Y-134962520D01*
X195242560Y-134867281D01*
X195290179Y-134819662D01*
X195433036Y-134724424D01*
X195623512Y-134676805D01*
X196004464Y-134676805D01*
X196099702Y-134724424D01*
X196147321Y-134772043D01*
X196194940Y-134867281D01*
X196194940Y-135057758D01*
X196147321Y-135152996D01*
X196099702Y-135200615D01*
X196004464Y-135248234D01*
X195766369Y-135248234D01*
X195671131Y-135200615D01*
X195623512Y-135152996D01*
X195575893Y-135057758D01*
X195575893Y-134867281D01*
X195623512Y-134772043D01*
X195671131Y-134724424D01*
X195766369Y-134676805D01*
%TO.C,D7*%
X179491379Y-102472715D02*
X180491379Y-102472715D01*
X180491379Y-102234620D01*
X180443760Y-102091762D01*
X180348521Y-101996524D01*
X180253283Y-101948905D01*
X180062807Y-101901286D01*
X179919950Y-101901286D01*
X179729474Y-101948905D01*
X179634236Y-101996524D01*
X179538998Y-102091762D01*
X179491379Y-102234620D01*
X179491379Y-102472715D01*
X180491379Y-101567953D02*
X180491379Y-100901286D01*
X179491379Y-101329858D01*
%TO.C,D8*%
X191784979Y-102409215D02*
X192784979Y-102409215D01*
X192784979Y-102171120D01*
X192737360Y-102028262D01*
X192642121Y-101933024D01*
X192546883Y-101885405D01*
X192356407Y-101837786D01*
X192213550Y-101837786D01*
X192023074Y-101885405D01*
X191927836Y-101933024D01*
X191832598Y-102028262D01*
X191784979Y-102171120D01*
X191784979Y-102409215D01*
X192356407Y-101266358D02*
X192404026Y-101361596D01*
X192451645Y-101409215D01*
X192546883Y-101456834D01*
X192594502Y-101456834D01*
X192689740Y-101409215D01*
X192737360Y-101361596D01*
X192784979Y-101266358D01*
X192784979Y-101075881D01*
X192737360Y-100980643D01*
X192689740Y-100933024D01*
X192594502Y-100885405D01*
X192546883Y-100885405D01*
X192451645Y-100933024D01*
X192404026Y-100980643D01*
X192356407Y-101075881D01*
X192356407Y-101266358D01*
X192308788Y-101361596D01*
X192261169Y-101409215D01*
X192165931Y-101456834D01*
X191975455Y-101456834D01*
X191880217Y-101409215D01*
X191832598Y-101361596D01*
X191784979Y-101266358D01*
X191784979Y-101075881D01*
X191832598Y-100980643D01*
X191880217Y-100933024D01*
X191975455Y-100885405D01*
X192165931Y-100885405D01*
X192261169Y-100933024D01*
X192308788Y-100980643D01*
X192356407Y-101075881D01*
%TO.C,D9*%
X182477635Y-107302560D02*
X182477635Y-106302560D01*
X182239540Y-106302560D01*
X182096682Y-106350180D01*
X182001444Y-106445418D01*
X181953825Y-106540656D01*
X181906206Y-106731132D01*
X181906206Y-106873989D01*
X181953825Y-107064465D01*
X182001444Y-107159703D01*
X182096682Y-107254941D01*
X182239540Y-107302560D01*
X182477635Y-107302560D01*
X181430016Y-107302560D02*
X181239540Y-107302560D01*
X181144301Y-107254941D01*
X181096682Y-107207322D01*
X181001444Y-107064465D01*
X180953825Y-106873989D01*
X180953825Y-106493037D01*
X181001444Y-106397799D01*
X181049063Y-106350180D01*
X181144301Y-106302560D01*
X181334778Y-106302560D01*
X181430016Y-106350180D01*
X181477635Y-106397799D01*
X181525254Y-106493037D01*
X181525254Y-106731132D01*
X181477635Y-106826370D01*
X181430016Y-106873989D01*
X181334778Y-106921608D01*
X181144301Y-106921608D01*
X181049063Y-106873989D01*
X181001444Y-106826370D01*
X180953825Y-106731132D01*
%TO.C,D10*%
X183030025Y-115760760D02*
X183030025Y-114760760D01*
X182791930Y-114760760D01*
X182649073Y-114808380D01*
X182553835Y-114903618D01*
X182506216Y-114998856D01*
X182458597Y-115189332D01*
X182458597Y-115332189D01*
X182506216Y-115522665D01*
X182553835Y-115617903D01*
X182649073Y-115713141D01*
X182791930Y-115760760D01*
X183030025Y-115760760D01*
X181506216Y-115760760D02*
X182077644Y-115760760D01*
X181791930Y-115760760D02*
X181791930Y-114760760D01*
X181887168Y-114903618D01*
X181982406Y-114998856D01*
X182077644Y-115046475D01*
X180887168Y-114760760D02*
X180791930Y-114760760D01*
X180696692Y-114808380D01*
X180649073Y-114855999D01*
X180601454Y-114951237D01*
X180553835Y-115141713D01*
X180553835Y-115379808D01*
X180601454Y-115570284D01*
X180649073Y-115665522D01*
X180696692Y-115713141D01*
X180791930Y-115760760D01*
X180887168Y-115760760D01*
X180982406Y-115713141D01*
X181030025Y-115665522D01*
X181077644Y-115570284D01*
X181125263Y-115379808D01*
X181125263Y-115141713D01*
X181077644Y-114951237D01*
X181030025Y-114855999D01*
X180982406Y-114808380D01*
X180887168Y-114760760D01*
%TO.C,D11*%
X183423725Y-125908060D02*
X183423725Y-124908060D01*
X183185630Y-124908060D01*
X183042773Y-124955680D01*
X182947535Y-125050918D01*
X182899916Y-125146156D01*
X182852297Y-125336632D01*
X182852297Y-125479489D01*
X182899916Y-125669965D01*
X182947535Y-125765203D01*
X183042773Y-125860441D01*
X183185630Y-125908060D01*
X183423725Y-125908060D01*
X181899916Y-125908060D02*
X182471344Y-125908060D01*
X182185630Y-125908060D02*
X182185630Y-124908060D01*
X182280868Y-125050918D01*
X182376106Y-125146156D01*
X182471344Y-125193775D01*
X180947535Y-125908060D02*
X181518963Y-125908060D01*
X181233249Y-125908060D02*
X181233249Y-124908060D01*
X181328487Y-125050918D01*
X181423725Y-125146156D01*
X181518963Y-125193775D01*
%TO.C,Q1*%
X162760138Y-122072019D02*
X162855376Y-122024400D01*
X162950614Y-121929161D01*
X163093471Y-121786304D01*
X163188709Y-121738685D01*
X163283947Y-121738685D01*
X163236328Y-121976780D02*
X163331566Y-121929161D01*
X163426804Y-121833923D01*
X163474423Y-121643447D01*
X163474423Y-121310114D01*
X163426804Y-121119638D01*
X163331566Y-121024400D01*
X163236328Y-120976780D01*
X163045852Y-120976780D01*
X162950614Y-121024400D01*
X162855376Y-121119638D01*
X162807757Y-121310114D01*
X162807757Y-121643447D01*
X162855376Y-121833923D01*
X162950614Y-121929161D01*
X163045852Y-121976780D01*
X163236328Y-121976780D01*
X161855376Y-121976780D02*
X162426804Y-121976780D01*
X162141090Y-121976780D02*
X162141090Y-120976780D01*
X162236328Y-121119638D01*
X162331566Y-121214876D01*
X162426804Y-121262495D01*
%TO.C,R1*%
X151058366Y-113580080D02*
X151391700Y-113103890D01*
X151629795Y-113580080D02*
X151629795Y-112580080D01*
X151248842Y-112580080D01*
X151153604Y-112627700D01*
X151105985Y-112675319D01*
X151058366Y-112770557D01*
X151058366Y-112913414D01*
X151105985Y-113008652D01*
X151153604Y-113056271D01*
X151248842Y-113103890D01*
X151629795Y-113103890D01*
X150105985Y-113580080D02*
X150677414Y-113580080D01*
X150391700Y-113580080D02*
X150391700Y-112580080D01*
X150486938Y-112722938D01*
X150582176Y-112818176D01*
X150677414Y-112865795D01*
%TO.C,R2*%
X150480866Y-102277080D02*
X150814200Y-101800890D01*
X151052295Y-102277080D02*
X151052295Y-101277080D01*
X150671342Y-101277080D01*
X150576104Y-101324700D01*
X150528485Y-101372319D01*
X150480866Y-101467557D01*
X150480866Y-101610414D01*
X150528485Y-101705652D01*
X150576104Y-101753271D01*
X150671342Y-101800890D01*
X151052295Y-101800890D01*
X150099914Y-101372319D02*
X150052295Y-101324700D01*
X149957057Y-101277080D01*
X149718961Y-101277080D01*
X149623723Y-101324700D01*
X149576104Y-101372319D01*
X149528485Y-101467557D01*
X149528485Y-101562795D01*
X149576104Y-101705652D01*
X150147533Y-102277080D01*
X149528485Y-102277080D01*
%TO.C,R3*%
X135126566Y-113244980D02*
X135459900Y-112768790D01*
X135697995Y-113244980D02*
X135697995Y-112244980D01*
X135317042Y-112244980D01*
X135221804Y-112292600D01*
X135174185Y-112340219D01*
X135126566Y-112435457D01*
X135126566Y-112578314D01*
X135174185Y-112673552D01*
X135221804Y-112721171D01*
X135317042Y-112768790D01*
X135697995Y-112768790D01*
X134793233Y-112244980D02*
X134174185Y-112244980D01*
X134507519Y-112625933D01*
X134364661Y-112625933D01*
X134269423Y-112673552D01*
X134221804Y-112721171D01*
X134174185Y-112816409D01*
X134174185Y-113054504D01*
X134221804Y-113149742D01*
X134269423Y-113197361D01*
X134364661Y-113244980D01*
X134650376Y-113244980D01*
X134745614Y-113197361D01*
X134793233Y-113149742D01*
%TO.C,R4*%
X134192180Y-97051833D02*
X133715990Y-96718500D01*
X134192180Y-96480404D02*
X133192180Y-96480404D01*
X133192180Y-96861357D01*
X133239800Y-96956595D01*
X133287419Y-97004214D01*
X133382657Y-97051833D01*
X133525514Y-97051833D01*
X133620752Y-97004214D01*
X133668371Y-96956595D01*
X133715990Y-96861357D01*
X133715990Y-96480404D01*
X133525514Y-97908976D02*
X134192180Y-97908976D01*
X133144561Y-97670880D02*
X133858847Y-97432785D01*
X133858847Y-98051833D01*
%TO.C,R5*%
X150867866Y-108258780D02*
X151201200Y-107782590D01*
X151439295Y-108258780D02*
X151439295Y-107258780D01*
X151058342Y-107258780D01*
X150963104Y-107306400D01*
X150915485Y-107354019D01*
X150867866Y-107449257D01*
X150867866Y-107592114D01*
X150915485Y-107687352D01*
X150963104Y-107734971D01*
X151058342Y-107782590D01*
X151439295Y-107782590D01*
X149963104Y-107258780D02*
X150439295Y-107258780D01*
X150486914Y-107734971D01*
X150439295Y-107687352D01*
X150344057Y-107639733D01*
X150105961Y-107639733D01*
X150010723Y-107687352D01*
X149963104Y-107734971D01*
X149915485Y-107830209D01*
X149915485Y-108068304D01*
X149963104Y-108163542D01*
X150010723Y-108211161D01*
X150105961Y-108258780D01*
X150344057Y-108258780D01*
X150439295Y-108211161D01*
X150486914Y-108163542D01*
%TO.C,R6*%
X150430066Y-97095480D02*
X150763400Y-96619290D01*
X151001495Y-97095480D02*
X151001495Y-96095480D01*
X150620542Y-96095480D01*
X150525304Y-96143100D01*
X150477685Y-96190719D01*
X150430066Y-96285957D01*
X150430066Y-96428814D01*
X150477685Y-96524052D01*
X150525304Y-96571671D01*
X150620542Y-96619290D01*
X151001495Y-96619290D01*
X149572923Y-96095480D02*
X149763400Y-96095480D01*
X149858638Y-96143100D01*
X149906257Y-96190719D01*
X150001495Y-96333576D01*
X150049114Y-96524052D01*
X150049114Y-96905004D01*
X150001495Y-97000242D01*
X149953876Y-97047861D01*
X149858638Y-97095480D01*
X149668161Y-97095480D01*
X149572923Y-97047861D01*
X149525304Y-97000242D01*
X149477685Y-96905004D01*
X149477685Y-96666909D01*
X149525304Y-96571671D01*
X149572923Y-96524052D01*
X149668161Y-96476433D01*
X149858638Y-96476433D01*
X149953876Y-96524052D01*
X150001495Y-96571671D01*
X150049114Y-96666909D01*
%TO.C,R7*%
X201995066Y-130940980D02*
X202328400Y-130464790D01*
X202566495Y-130940980D02*
X202566495Y-129940980D01*
X202185542Y-129940980D01*
X202090304Y-129988600D01*
X202042685Y-130036219D01*
X201995066Y-130131457D01*
X201995066Y-130274314D01*
X202042685Y-130369552D01*
X202090304Y-130417171D01*
X202185542Y-130464790D01*
X202566495Y-130464790D01*
X201661733Y-129940980D02*
X200995066Y-129940980D01*
X201423638Y-130940980D01*
%TO.C,R8*%
X156554466Y-137443380D02*
X156887800Y-136967190D01*
X157125895Y-137443380D02*
X157125895Y-136443380D01*
X156744942Y-136443380D01*
X156649704Y-136491000D01*
X156602085Y-136538619D01*
X156554466Y-136633857D01*
X156554466Y-136776714D01*
X156602085Y-136871952D01*
X156649704Y-136919571D01*
X156744942Y-136967190D01*
X157125895Y-136967190D01*
X155983038Y-136871952D02*
X156078276Y-136824333D01*
X156125895Y-136776714D01*
X156173514Y-136681476D01*
X156173514Y-136633857D01*
X156125895Y-136538619D01*
X156078276Y-136491000D01*
X155983038Y-136443380D01*
X155792561Y-136443380D01*
X155697323Y-136491000D01*
X155649704Y-136538619D01*
X155602085Y-136633857D01*
X155602085Y-136681476D01*
X155649704Y-136776714D01*
X155697323Y-136824333D01*
X155792561Y-136871952D01*
X155983038Y-136871952D01*
X156078276Y-136919571D01*
X156125895Y-136967190D01*
X156173514Y-137062428D01*
X156173514Y-137252904D01*
X156125895Y-137348142D01*
X156078276Y-137395761D01*
X155983038Y-137443380D01*
X155792561Y-137443380D01*
X155697323Y-137395761D01*
X155649704Y-137348142D01*
X155602085Y-137252904D01*
X155602085Y-137062428D01*
X155649704Y-136967190D01*
X155697323Y-136919571D01*
X155792561Y-136871952D01*
%TO.C,R9*%
X108233966Y-128566080D02*
X108567300Y-128089890D01*
X108805395Y-128566080D02*
X108805395Y-127566080D01*
X108424442Y-127566080D01*
X108329204Y-127613700D01*
X108281585Y-127661319D01*
X108233966Y-127756557D01*
X108233966Y-127899414D01*
X108281585Y-127994652D01*
X108329204Y-128042271D01*
X108424442Y-128089890D01*
X108805395Y-128089890D01*
X107757776Y-128566080D02*
X107567300Y-128566080D01*
X107472061Y-128518461D01*
X107424442Y-128470842D01*
X107329204Y-128327985D01*
X107281585Y-128137509D01*
X107281585Y-127756557D01*
X107329204Y-127661319D01*
X107376823Y-127613700D01*
X107472061Y-127566080D01*
X107662538Y-127566080D01*
X107757776Y-127613700D01*
X107805395Y-127661319D01*
X107853014Y-127756557D01*
X107853014Y-127994652D01*
X107805395Y-128089890D01*
X107757776Y-128137509D01*
X107662538Y-128185128D01*
X107472061Y-128185128D01*
X107376823Y-128137509D01*
X107329204Y-128089890D01*
X107281585Y-127994652D01*
%TO.C,R10*%
X163491957Y-114819780D02*
X163825290Y-114343590D01*
X164063385Y-114819780D02*
X164063385Y-113819780D01*
X163682433Y-113819780D01*
X163587195Y-113867400D01*
X163539576Y-113915019D01*
X163491957Y-114010257D01*
X163491957Y-114153114D01*
X163539576Y-114248352D01*
X163587195Y-114295971D01*
X163682433Y-114343590D01*
X164063385Y-114343590D01*
X162539576Y-114819780D02*
X163111004Y-114819780D01*
X162825290Y-114819780D02*
X162825290Y-113819780D01*
X162920528Y-113962638D01*
X163015766Y-114057876D01*
X163111004Y-114105495D01*
X161920528Y-113819780D02*
X161825290Y-113819780D01*
X161730052Y-113867400D01*
X161682433Y-113915019D01*
X161634814Y-114010257D01*
X161587195Y-114200733D01*
X161587195Y-114438828D01*
X161634814Y-114629304D01*
X161682433Y-114724542D01*
X161730052Y-114772161D01*
X161825290Y-114819780D01*
X161920528Y-114819780D01*
X162015766Y-114772161D01*
X162063385Y-114724542D01*
X162111004Y-114629304D01*
X162158623Y-114438828D01*
X162158623Y-114200733D01*
X162111004Y-114010257D01*
X162063385Y-113915019D01*
X162015766Y-113867400D01*
X161920528Y-113819780D01*
%TO.C,R11*%
X172337157Y-130859880D02*
X172670490Y-130383690D01*
X172908585Y-130859880D02*
X172908585Y-129859880D01*
X172527633Y-129859880D01*
X172432395Y-129907500D01*
X172384776Y-129955119D01*
X172337157Y-130050357D01*
X172337157Y-130193214D01*
X172384776Y-130288452D01*
X172432395Y-130336071D01*
X172527633Y-130383690D01*
X172908585Y-130383690D01*
X171384776Y-130859880D02*
X171956204Y-130859880D01*
X171670490Y-130859880D02*
X171670490Y-129859880D01*
X171765728Y-130002738D01*
X171860966Y-130097976D01*
X171956204Y-130145595D01*
X170432395Y-130859880D02*
X171003823Y-130859880D01*
X170718109Y-130859880D02*
X170718109Y-129859880D01*
X170813347Y-130002738D01*
X170908585Y-130097976D01*
X171003823Y-130145595D01*
%TO.C,R12*%
X192631757Y-140740480D02*
X192965090Y-140264290D01*
X193203185Y-140740480D02*
X193203185Y-139740480D01*
X192822233Y-139740480D01*
X192726995Y-139788100D01*
X192679376Y-139835719D01*
X192631757Y-139930957D01*
X192631757Y-140073814D01*
X192679376Y-140169052D01*
X192726995Y-140216671D01*
X192822233Y-140264290D01*
X193203185Y-140264290D01*
X191679376Y-140740480D02*
X192250804Y-140740480D01*
X191965090Y-140740480D02*
X191965090Y-139740480D01*
X192060328Y-139883338D01*
X192155566Y-139978576D01*
X192250804Y-140026195D01*
X191298423Y-139835719D02*
X191250804Y-139788100D01*
X191155566Y-139740480D01*
X190917471Y-139740480D01*
X190822233Y-139788100D01*
X190774614Y-139835719D01*
X190726995Y-139930957D01*
X190726995Y-140026195D01*
X190774614Y-140169052D01*
X191346042Y-140740480D01*
X190726995Y-140740480D01*
%TO.C,R13*%
X174369157Y-98690780D02*
X174702490Y-98214590D01*
X174940585Y-98690780D02*
X174940585Y-97690780D01*
X174559633Y-97690780D01*
X174464395Y-97738400D01*
X174416776Y-97786019D01*
X174369157Y-97881257D01*
X174369157Y-98024114D01*
X174416776Y-98119352D01*
X174464395Y-98166971D01*
X174559633Y-98214590D01*
X174940585Y-98214590D01*
X173416776Y-98690780D02*
X173988204Y-98690780D01*
X173702490Y-98690780D02*
X173702490Y-97690780D01*
X173797728Y-97833638D01*
X173892966Y-97928876D01*
X173988204Y-97976495D01*
X173083442Y-97690780D02*
X172464395Y-97690780D01*
X172797728Y-98071733D01*
X172654871Y-98071733D01*
X172559633Y-98119352D01*
X172512014Y-98166971D01*
X172464395Y-98262209D01*
X172464395Y-98500304D01*
X172512014Y-98595542D01*
X172559633Y-98643161D01*
X172654871Y-98690780D01*
X172940585Y-98690780D01*
X173035823Y-98643161D01*
X173083442Y-98595542D01*
%TO.C,R14*%
X183602057Y-95177780D02*
X183935390Y-94701590D01*
X184173485Y-95177780D02*
X184173485Y-94177780D01*
X183792533Y-94177780D01*
X183697295Y-94225400D01*
X183649676Y-94273019D01*
X183602057Y-94368257D01*
X183602057Y-94511114D01*
X183649676Y-94606352D01*
X183697295Y-94653971D01*
X183792533Y-94701590D01*
X184173485Y-94701590D01*
X182649676Y-95177780D02*
X183221104Y-95177780D01*
X182935390Y-95177780D02*
X182935390Y-94177780D01*
X183030628Y-94320638D01*
X183125866Y-94415876D01*
X183221104Y-94463495D01*
X181792533Y-94511114D02*
X181792533Y-95177780D01*
X182030628Y-94130161D02*
X182268723Y-94844447D01*
X181649676Y-94844447D01*
%TO.C,R15*%
X175531557Y-107484080D02*
X175864890Y-107007890D01*
X176102985Y-107484080D02*
X176102985Y-106484080D01*
X175722033Y-106484080D01*
X175626795Y-106531700D01*
X175579176Y-106579319D01*
X175531557Y-106674557D01*
X175531557Y-106817414D01*
X175579176Y-106912652D01*
X175626795Y-106960271D01*
X175722033Y-107007890D01*
X176102985Y-107007890D01*
X174579176Y-107484080D02*
X175150604Y-107484080D01*
X174864890Y-107484080D02*
X174864890Y-106484080D01*
X174960128Y-106626938D01*
X175055366Y-106722176D01*
X175150604Y-106769795D01*
X173674414Y-106484080D02*
X174150604Y-106484080D01*
X174198223Y-106960271D01*
X174150604Y-106912652D01*
X174055366Y-106865033D01*
X173817271Y-106865033D01*
X173722033Y-106912652D01*
X173674414Y-106960271D01*
X173626795Y-107055509D01*
X173626795Y-107293604D01*
X173674414Y-107388842D01*
X173722033Y-107436461D01*
X173817271Y-107484080D01*
X174055366Y-107484080D01*
X174150604Y-107436461D01*
X174198223Y-107388842D01*
%TO.C,R16*%
X176693257Y-115993080D02*
X177026590Y-115516890D01*
X177264685Y-115993080D02*
X177264685Y-114993080D01*
X176883733Y-114993080D01*
X176788495Y-115040700D01*
X176740876Y-115088319D01*
X176693257Y-115183557D01*
X176693257Y-115326414D01*
X176740876Y-115421652D01*
X176788495Y-115469271D01*
X176883733Y-115516890D01*
X177264685Y-115516890D01*
X175740876Y-115993080D02*
X176312304Y-115993080D01*
X176026590Y-115993080D02*
X176026590Y-114993080D01*
X176121828Y-115135938D01*
X176217066Y-115231176D01*
X176312304Y-115278795D01*
X174883733Y-114993080D02*
X175074209Y-114993080D01*
X175169447Y-115040700D01*
X175217066Y-115088319D01*
X175312304Y-115231176D01*
X175359923Y-115421652D01*
X175359923Y-115802604D01*
X175312304Y-115897842D01*
X175264685Y-115945461D01*
X175169447Y-115993080D01*
X174978971Y-115993080D01*
X174883733Y-115945461D01*
X174836114Y-115897842D01*
X174788495Y-115802604D01*
X174788495Y-115564509D01*
X174836114Y-115469271D01*
X174883733Y-115421652D01*
X174978971Y-115374033D01*
X175169447Y-115374033D01*
X175264685Y-115421652D01*
X175312304Y-115469271D01*
X175359923Y-115564509D01*
%TO.C,R17*%
X176496757Y-122330380D02*
X176830090Y-121854190D01*
X177068185Y-122330380D02*
X177068185Y-121330380D01*
X176687233Y-121330380D01*
X176591995Y-121378000D01*
X176544376Y-121425619D01*
X176496757Y-121520857D01*
X176496757Y-121663714D01*
X176544376Y-121758952D01*
X176591995Y-121806571D01*
X176687233Y-121854190D01*
X177068185Y-121854190D01*
X175544376Y-122330380D02*
X176115804Y-122330380D01*
X175830090Y-122330380D02*
X175830090Y-121330380D01*
X175925328Y-121473238D01*
X176020566Y-121568476D01*
X176115804Y-121616095D01*
X175211042Y-121330380D02*
X174544376Y-121330380D01*
X174972947Y-122330380D01*
%TO.C,SW2*%
X136057473Y-87781581D02*
X135914616Y-87829200D01*
X135676520Y-87829200D01*
X135581282Y-87781581D01*
X135533663Y-87733962D01*
X135486044Y-87638724D01*
X135486044Y-87543486D01*
X135533663Y-87448248D01*
X135581282Y-87400629D01*
X135676520Y-87353010D01*
X135866997Y-87305391D01*
X135962235Y-87257772D01*
X136009854Y-87210153D01*
X136057473Y-87114915D01*
X136057473Y-87019677D01*
X136009854Y-86924439D01*
X135962235Y-86876820D01*
X135866997Y-86829200D01*
X135628901Y-86829200D01*
X135486044Y-86876820D01*
X135152711Y-86829200D02*
X134914616Y-87829200D01*
X134724140Y-87114915D01*
X134533663Y-87829200D01*
X134295568Y-86829200D01*
X133962235Y-86924439D02*
X133914616Y-86876820D01*
X133819378Y-86829200D01*
X133581282Y-86829200D01*
X133486044Y-86876820D01*
X133438425Y-86924439D01*
X133390806Y-87019677D01*
X133390806Y-87114915D01*
X133438425Y-87257772D01*
X134009854Y-87829200D01*
X133390806Y-87829200D01*
%TO.C,U1*%
X153681280Y-81356295D02*
X154490804Y-81356295D01*
X154586042Y-81403914D01*
X154633661Y-81451533D01*
X154681280Y-81546771D01*
X154681280Y-81737247D01*
X154633661Y-81832485D01*
X154586042Y-81880104D01*
X154490804Y-81927723D01*
X153681280Y-81927723D01*
X154681280Y-82927723D02*
X154681280Y-82356295D01*
X154681280Y-82642009D02*
X153681280Y-82642009D01*
X153824138Y-82546771D01*
X153919376Y-82451533D01*
X153966995Y-82356295D01*
%TD*%
M02*
