%TF.GenerationSoftware,KiCad,Pcbnew,5.1.10-88a1d61d58~88~ubuntu20.04.1*%
%TF.CreationDate,2021-06-09T18:28:30-04:00*%
%TF.ProjectId,avBadge_2021,61764261-6467-4655-9f32-3032312e6b69,rev?*%
%TF.SameCoordinates,Original*%
%TF.FileFunction,Soldermask,Bot*%
%TF.FilePolarity,Negative*%
%FSLAX46Y46*%
G04 Gerber Fmt 4.6, Leading zero omitted, Abs format (unit mm)*
G04 Created by KiCad (PCBNEW 5.1.10-88a1d61d58~88~ubuntu20.04.1) date 2021-06-09 18:28:30*
%MOMM*%
%LPD*%
G01*
G04 APERTURE LIST*
%ADD10C,1.600000*%
%ADD11R,1.400000X2.600000*%
%ADD12R,2.500000X1.200000*%
%ADD13C,2.000000*%
%ADD14C,0.100000*%
%ADD15C,1.600000*%
%ADD16R,0.550000X1.500000*%
%ADD17R,1.500000X0.550000*%
%ADD18C,2.400000*%
%ADD19R,1.080000X1.250000*%
%ADD20R,0.900000X0.800000*%
%ADD21R,1.400000X0.800000*%
%ADD22R,2.600000X1.400000*%
%ADD23R,1.524000X1.524000*%
%ADD24C,1.524000*%
G04 APERTURE END LIST*
D10*
%TO.C,D8*%
X203152600Y-96037300D02*
G75*
G03*
X203152600Y-96037300I-800000J0D01*
G01*
%TO.C,D6*%
X189655040Y-125852020D02*
G75*
G03*
X189655040Y-125852020I-800000J0D01*
G01*
%TO.C,D7*%
X168364760Y-122595740D02*
G75*
G03*
X168364760Y-122595740I-800000J0D01*
G01*
%TO.C,D2*%
X165824760Y-84568200D02*
G75*
G03*
X165824760Y-84568200I-800000J0D01*
G01*
%TO.C,D10*%
X187287760Y-113152020D02*
G75*
G03*
X187287760Y-113152020I-800000J0D01*
G01*
%TO.C,D11*%
X192891000Y-107177940D02*
G75*
G03*
X192891000Y-107177940I-800000J0D01*
G01*
%TO.C,D12*%
X184178800Y-117459860D02*
G75*
G03*
X184178800Y-117459860I-800000J0D01*
G01*
%TO.C,D1*%
X165753640Y-77928640D02*
G75*
G03*
X165753640Y-77928640I-800000J0D01*
G01*
%TO.C,D4*%
X206997300Y-87309000D02*
G75*
G03*
X206997300Y-87309000I-800000J0D01*
G01*
%TO.C,D9*%
X202095100Y-88702840D02*
G75*
G03*
X202095100Y-88702840I-800000J0D01*
G01*
%TD*%
D11*
%TO.C,D8*%
X199737360Y-95895160D03*
X204937360Y-95895160D03*
%TD*%
%TO.C,D6*%
X186270280Y-125994160D03*
X191470280Y-125994160D03*
%TD*%
%TO.C,D7*%
X164980000Y-122737880D03*
X170180000Y-122737880D03*
%TD*%
D12*
%TO.C,SW1*%
X113231480Y-139390760D03*
X113231480Y-136890760D03*
X113231480Y-134390760D03*
X118731480Y-139390760D03*
X118731480Y-136890760D03*
X118731480Y-134390760D03*
%TD*%
D13*
%TO.C,BT1*%
X143305520Y-140004800D03*
X156005520Y-140004800D03*
%TD*%
D14*
%TO.C,P1*%
G36*
X93491125Y-79582824D02*
G01*
X91945644Y-79168713D01*
X92359755Y-77623232D01*
X93905236Y-78037343D01*
X93491125Y-79582824D01*
G37*
D15*
X92268040Y-81056480D03*
X91610640Y-83509932D03*
%TD*%
D16*
%TO.C,U1*%
X112836040Y-92043360D03*
X113636040Y-92043360D03*
X114436040Y-92043360D03*
X115236040Y-92043360D03*
X116036040Y-92043360D03*
X116836040Y-92043360D03*
X117636040Y-92043360D03*
X118436040Y-92043360D03*
D17*
X119836040Y-90643360D03*
X119836040Y-89843360D03*
X119836040Y-89043360D03*
X119836040Y-88243360D03*
X119836040Y-87443360D03*
X119836040Y-86643360D03*
X119836040Y-85843360D03*
X119836040Y-85043360D03*
D16*
X118436040Y-83643360D03*
X117636040Y-83643360D03*
X116836040Y-83643360D03*
X116036040Y-83643360D03*
X115236040Y-83643360D03*
X114436040Y-83643360D03*
X113636040Y-83643360D03*
D17*
X111436040Y-85043360D03*
X111436040Y-85843360D03*
X111436040Y-86643360D03*
X111436040Y-87443360D03*
X111436040Y-88243360D03*
X111436040Y-89043360D03*
X111436040Y-89843360D03*
X111436040Y-90643360D03*
D16*
X112836040Y-83643360D03*
%TD*%
D18*
%TO.C,D5*%
X160603760Y-119969280D03*
D19*
X159043760Y-119969280D03*
X162163760Y-119969280D03*
%TD*%
%TO.C,C1*%
G36*
G01*
X108173682Y-86796580D02*
X106923678Y-86796580D01*
G75*
G02*
X106673680Y-86546582I0J249998D01*
G01*
X106673680Y-85921578D01*
G75*
G02*
X106923678Y-85671580I249998J0D01*
G01*
X108173682Y-85671580D01*
G75*
G02*
X108423680Y-85921578I0J-249998D01*
G01*
X108423680Y-86546582D01*
G75*
G02*
X108173682Y-86796580I-249998J0D01*
G01*
G37*
G36*
G01*
X108173682Y-89721580D02*
X106923678Y-89721580D01*
G75*
G02*
X106673680Y-89471582I0J249998D01*
G01*
X106673680Y-88846578D01*
G75*
G02*
X106923678Y-88596580I249998J0D01*
G01*
X108173682Y-88596580D01*
G75*
G02*
X108423680Y-88846578I0J-249998D01*
G01*
X108423680Y-89471582D01*
G75*
G02*
X108173682Y-89721580I-249998J0D01*
G01*
G37*
%TD*%
%TO.C,C2*%
G36*
G01*
X179151442Y-108863020D02*
X177901438Y-108863020D01*
G75*
G02*
X177651440Y-108613022I0J249998D01*
G01*
X177651440Y-107988018D01*
G75*
G02*
X177901438Y-107738020I249998J0D01*
G01*
X179151442Y-107738020D01*
G75*
G02*
X179401440Y-107988018I0J-249998D01*
G01*
X179401440Y-108613022D01*
G75*
G02*
X179151442Y-108863020I-249998J0D01*
G01*
G37*
G36*
G01*
X179151442Y-111788020D02*
X177901438Y-111788020D01*
G75*
G02*
X177651440Y-111538022I0J249998D01*
G01*
X177651440Y-110913018D01*
G75*
G02*
X177901438Y-110663020I249998J0D01*
G01*
X179151442Y-110663020D01*
G75*
G02*
X179401440Y-110913018I0J-249998D01*
G01*
X179401440Y-111538022D01*
G75*
G02*
X179151442Y-111788020I-249998J0D01*
G01*
G37*
%TD*%
D18*
%TO.C,D3*%
X200177400Y-125846840D03*
D19*
X198617400Y-125846840D03*
X201737400Y-125846840D03*
%TD*%
%TO.C,J1*%
G36*
G01*
X100044258Y-89303125D02*
X100044258Y-89303125D01*
G75*
G02*
X100044258Y-88171755I565685J565685D01*
G01*
X100044258Y-88171755D01*
G75*
G02*
X101175628Y-88171755I565685J-565685D01*
G01*
X101175628Y-88171755D01*
G75*
G02*
X101175628Y-89303125I-565685J-565685D01*
G01*
X101175628Y-89303125D01*
G75*
G02*
X100044258Y-89303125I-565685J565685D01*
G01*
G37*
G36*
G01*
X98248206Y-91099176D02*
X98248206Y-91099176D01*
G75*
G02*
X98248206Y-89967806I565685J565685D01*
G01*
X98248206Y-89967806D01*
G75*
G02*
X99379576Y-89967806I565685J-565685D01*
G01*
X99379576Y-89967806D01*
G75*
G02*
X99379576Y-91099176I-565685J-565685D01*
G01*
X99379576Y-91099176D01*
G75*
G02*
X98248206Y-91099176I-565685J565685D01*
G01*
G37*
G36*
G01*
X98248206Y-87507074D02*
X98248206Y-87507074D01*
G75*
G02*
X98248206Y-86375704I565685J565685D01*
G01*
X98248206Y-86375704D01*
G75*
G02*
X99379576Y-86375704I565685J-565685D01*
G01*
X99379576Y-86375704D01*
G75*
G02*
X99379576Y-87507074I-565685J-565685D01*
G01*
X99379576Y-87507074D01*
G75*
G02*
X98248206Y-87507074I-565685J565685D01*
G01*
G37*
G36*
G01*
X96452155Y-89303125D02*
X96452155Y-89303125D01*
G75*
G02*
X96452155Y-88171755I565685J565685D01*
G01*
X96452155Y-88171755D01*
G75*
G02*
X97583525Y-88171755I565685J-565685D01*
G01*
X97583525Y-88171755D01*
G75*
G02*
X97583525Y-89303125I-565685J-565685D01*
G01*
X97583525Y-89303125D01*
G75*
G02*
X96452155Y-89303125I-565685J565685D01*
G01*
G37*
D14*
G36*
X97017840Y-86276709D02*
G01*
X95886469Y-85145338D01*
X97017840Y-84013967D01*
X98149211Y-85145338D01*
X97017840Y-86276709D01*
G37*
G36*
G01*
X94656104Y-87507074D02*
X94656104Y-87507074D01*
G75*
G02*
X94656104Y-86375704I565685J565685D01*
G01*
X94656104Y-86375704D01*
G75*
G02*
X95787474Y-86375704I565685J-565685D01*
G01*
X95787474Y-86375704D01*
G75*
G02*
X95787474Y-87507074I-565685J-565685D01*
G01*
X95787474Y-87507074D01*
G75*
G02*
X94656104Y-87507074I-565685J565685D01*
G01*
G37*
%TD*%
%TO.C,R2*%
G36*
G01*
X170839020Y-86263318D02*
X170839020Y-87513322D01*
G75*
G02*
X170589022Y-87763320I-249998J0D01*
G01*
X169964018Y-87763320D01*
G75*
G02*
X169714020Y-87513322I0J249998D01*
G01*
X169714020Y-86263318D01*
G75*
G02*
X169964018Y-86013320I249998J0D01*
G01*
X170589022Y-86013320D01*
G75*
G02*
X170839020Y-86263318I0J-249998D01*
G01*
G37*
G36*
G01*
X173764020Y-86263318D02*
X173764020Y-87513322D01*
G75*
G02*
X173514022Y-87763320I-249998J0D01*
G01*
X172889018Y-87763320D01*
G75*
G02*
X172639020Y-87513322I0J249998D01*
G01*
X172639020Y-86263318D01*
G75*
G02*
X172889018Y-86013320I249998J0D01*
G01*
X173514022Y-86013320D01*
G75*
G02*
X173764020Y-86263318I0J-249998D01*
G01*
G37*
%TD*%
%TO.C,R1*%
G36*
G01*
X170463100Y-79344358D02*
X170463100Y-80594362D01*
G75*
G02*
X170213102Y-80844360I-249998J0D01*
G01*
X169588098Y-80844360D01*
G75*
G02*
X169338100Y-80594362I0J249998D01*
G01*
X169338100Y-79344358D01*
G75*
G02*
X169588098Y-79094360I249998J0D01*
G01*
X170213102Y-79094360D01*
G75*
G02*
X170463100Y-79344358I0J-249998D01*
G01*
G37*
G36*
G01*
X173388100Y-79344358D02*
X173388100Y-80594362D01*
G75*
G02*
X173138102Y-80844360I-249998J0D01*
G01*
X172513098Y-80844360D01*
G75*
G02*
X172263100Y-80594362I0J249998D01*
G01*
X172263100Y-79344358D01*
G75*
G02*
X172513098Y-79094360I249998J0D01*
G01*
X173138102Y-79094360D01*
G75*
G02*
X173388100Y-79344358I0J-249998D01*
G01*
G37*
%TD*%
%TO.C,R4*%
G36*
G01*
X157919800Y-84912362D02*
X157919800Y-83662358D01*
G75*
G02*
X158169798Y-83412360I249998J0D01*
G01*
X158794802Y-83412360D01*
G75*
G02*
X159044800Y-83662358I0J-249998D01*
G01*
X159044800Y-84912362D01*
G75*
G02*
X158794802Y-85162360I-249998J0D01*
G01*
X158169798Y-85162360D01*
G75*
G02*
X157919800Y-84912362I0J249998D01*
G01*
G37*
G36*
G01*
X154994800Y-84912362D02*
X154994800Y-83662358D01*
G75*
G02*
X155244798Y-83412360I249998J0D01*
G01*
X155869802Y-83412360D01*
G75*
G02*
X156119800Y-83662358I0J-249998D01*
G01*
X156119800Y-84912362D01*
G75*
G02*
X155869802Y-85162360I-249998J0D01*
G01*
X155244798Y-85162360D01*
G75*
G02*
X154994800Y-84912362I0J249998D01*
G01*
G37*
%TD*%
%TO.C,R3*%
G36*
G01*
X158493840Y-78516642D02*
X158493840Y-77266638D01*
G75*
G02*
X158743838Y-77016640I249998J0D01*
G01*
X159368842Y-77016640D01*
G75*
G02*
X159618840Y-77266638I0J-249998D01*
G01*
X159618840Y-78516642D01*
G75*
G02*
X159368842Y-78766640I-249998J0D01*
G01*
X158743838Y-78766640D01*
G75*
G02*
X158493840Y-78516642I0J249998D01*
G01*
G37*
G36*
G01*
X155568840Y-78516642D02*
X155568840Y-77266638D01*
G75*
G02*
X155818838Y-77016640I249998J0D01*
G01*
X156443842Y-77016640D01*
G75*
G02*
X156693840Y-77266638I0J-249998D01*
G01*
X156693840Y-78516642D01*
G75*
G02*
X156443842Y-78766640I-249998J0D01*
G01*
X155818838Y-78766640D01*
G75*
G02*
X155568840Y-78516642I0J249998D01*
G01*
G37*
%TD*%
%TO.C,R6*%
G36*
G01*
X170767900Y-83337238D02*
X170767900Y-84587242D01*
G75*
G02*
X170517902Y-84837240I-249998J0D01*
G01*
X169892898Y-84837240D01*
G75*
G02*
X169642900Y-84587242I0J249998D01*
G01*
X169642900Y-83337238D01*
G75*
G02*
X169892898Y-83087240I249998J0D01*
G01*
X170517902Y-83087240D01*
G75*
G02*
X170767900Y-83337238I0J-249998D01*
G01*
G37*
G36*
G01*
X173692900Y-83337238D02*
X173692900Y-84587242D01*
G75*
G02*
X173442902Y-84837240I-249998J0D01*
G01*
X172817898Y-84837240D01*
G75*
G02*
X172567900Y-84587242I0J249998D01*
G01*
X172567900Y-83337238D01*
G75*
G02*
X172817898Y-83087240I249998J0D01*
G01*
X173442902Y-83087240D01*
G75*
G02*
X173692900Y-83337238I0J-249998D01*
G01*
G37*
%TD*%
%TO.C,R5*%
G36*
G01*
X170666300Y-76535118D02*
X170666300Y-77785122D01*
G75*
G02*
X170416302Y-78035120I-249998J0D01*
G01*
X169791298Y-78035120D01*
G75*
G02*
X169541300Y-77785122I0J249998D01*
G01*
X169541300Y-76535118D01*
G75*
G02*
X169791298Y-76285120I249998J0D01*
G01*
X170416302Y-76285120D01*
G75*
G02*
X170666300Y-76535118I0J-249998D01*
G01*
G37*
G36*
G01*
X173591300Y-76535118D02*
X173591300Y-77785122D01*
G75*
G02*
X173341302Y-78035120I-249998J0D01*
G01*
X172716298Y-78035120D01*
G75*
G02*
X172466300Y-77785122I0J249998D01*
G01*
X172466300Y-76535118D01*
G75*
G02*
X172716298Y-76285120I249998J0D01*
G01*
X173341302Y-76285120D01*
G75*
G02*
X173591300Y-76535118I0J-249998D01*
G01*
G37*
%TD*%
%TO.C,R8*%
G36*
G01*
X205223220Y-129870362D02*
X205223220Y-128620358D01*
G75*
G02*
X205473218Y-128370360I249998J0D01*
G01*
X206098222Y-128370360D01*
G75*
G02*
X206348220Y-128620358I0J-249998D01*
G01*
X206348220Y-129870362D01*
G75*
G02*
X206098222Y-130120360I-249998J0D01*
G01*
X205473218Y-130120360D01*
G75*
G02*
X205223220Y-129870362I0J249998D01*
G01*
G37*
G36*
G01*
X202298220Y-129870362D02*
X202298220Y-128620358D01*
G75*
G02*
X202548218Y-128370360I249998J0D01*
G01*
X203173222Y-128370360D01*
G75*
G02*
X203423220Y-128620358I0J-249998D01*
G01*
X203423220Y-129870362D01*
G75*
G02*
X203173222Y-130120360I-249998J0D01*
G01*
X202548218Y-130120360D01*
G75*
G02*
X202298220Y-129870362I0J249998D01*
G01*
G37*
%TD*%
%TO.C,R10*%
G36*
G01*
X168118900Y-117561522D02*
X168118900Y-116311518D01*
G75*
G02*
X168368898Y-116061520I249998J0D01*
G01*
X168993902Y-116061520D01*
G75*
G02*
X169243900Y-116311518I0J-249998D01*
G01*
X169243900Y-117561522D01*
G75*
G02*
X168993902Y-117811520I-249998J0D01*
G01*
X168368898Y-117811520D01*
G75*
G02*
X168118900Y-117561522I0J249998D01*
G01*
G37*
G36*
G01*
X165193900Y-117561522D02*
X165193900Y-116311518D01*
G75*
G02*
X165443898Y-116061520I249998J0D01*
G01*
X166068902Y-116061520D01*
G75*
G02*
X166318900Y-116311518I0J-249998D01*
G01*
X166318900Y-117561522D01*
G75*
G02*
X166068902Y-117811520I-249998J0D01*
G01*
X165443898Y-117811520D01*
G75*
G02*
X165193900Y-117561522I0J249998D01*
G01*
G37*
%TD*%
%TO.C,R9*%
G36*
G01*
X120436340Y-102940958D02*
X120436340Y-104190962D01*
G75*
G02*
X120186342Y-104440960I-249998J0D01*
G01*
X119561338Y-104440960D01*
G75*
G02*
X119311340Y-104190962I0J249998D01*
G01*
X119311340Y-102940958D01*
G75*
G02*
X119561338Y-102690960I249998J0D01*
G01*
X120186342Y-102690960D01*
G75*
G02*
X120436340Y-102940958I0J-249998D01*
G01*
G37*
G36*
G01*
X123361340Y-102940958D02*
X123361340Y-104190962D01*
G75*
G02*
X123111342Y-104440960I-249998J0D01*
G01*
X122486338Y-104440960D01*
G75*
G02*
X122236340Y-104190962I0J249998D01*
G01*
X122236340Y-102940958D01*
G75*
G02*
X122486338Y-102690960I249998J0D01*
G01*
X123111342Y-102690960D01*
G75*
G02*
X123361340Y-102940958I0J-249998D01*
G01*
G37*
%TD*%
%TO.C,R13*%
G36*
G01*
X170723398Y-112451180D02*
X171973402Y-112451180D01*
G75*
G02*
X172223400Y-112701178I0J-249998D01*
G01*
X172223400Y-113326182D01*
G75*
G02*
X171973402Y-113576180I-249998J0D01*
G01*
X170723398Y-113576180D01*
G75*
G02*
X170473400Y-113326182I0J249998D01*
G01*
X170473400Y-112701178D01*
G75*
G02*
X170723398Y-112451180I249998J0D01*
G01*
G37*
G36*
G01*
X170723398Y-109526180D02*
X171973402Y-109526180D01*
G75*
G02*
X172223400Y-109776178I0J-249998D01*
G01*
X172223400Y-110401182D01*
G75*
G02*
X171973402Y-110651180I-249998J0D01*
G01*
X170723398Y-110651180D01*
G75*
G02*
X170473400Y-110401182I0J249998D01*
G01*
X170473400Y-109776178D01*
G75*
G02*
X170723398Y-109526180I249998J0D01*
G01*
G37*
%TD*%
%TO.C,R14*%
G36*
G01*
X183266380Y-127396402D02*
X183266380Y-126146398D01*
G75*
G02*
X183516378Y-125896400I249998J0D01*
G01*
X184141382Y-125896400D01*
G75*
G02*
X184391380Y-126146398I0J-249998D01*
G01*
X184391380Y-127396402D01*
G75*
G02*
X184141382Y-127646400I-249998J0D01*
G01*
X183516378Y-127646400D01*
G75*
G02*
X183266380Y-127396402I0J249998D01*
G01*
G37*
G36*
G01*
X180341380Y-127396402D02*
X180341380Y-126146398D01*
G75*
G02*
X180591378Y-125896400I249998J0D01*
G01*
X181216382Y-125896400D01*
G75*
G02*
X181466380Y-126146398I0J-249998D01*
G01*
X181466380Y-127396402D01*
G75*
G02*
X181216382Y-127646400I-249998J0D01*
G01*
X180591378Y-127646400D01*
G75*
G02*
X180341380Y-127396402I0J249998D01*
G01*
G37*
%TD*%
%TO.C,R15*%
G36*
G01*
X167255300Y-126583602D02*
X167255300Y-125333598D01*
G75*
G02*
X167505298Y-125083600I249998J0D01*
G01*
X168130302Y-125083600D01*
G75*
G02*
X168380300Y-125333598I0J-249998D01*
G01*
X168380300Y-126583602D01*
G75*
G02*
X168130302Y-126833600I-249998J0D01*
G01*
X167505298Y-126833600D01*
G75*
G02*
X167255300Y-126583602I0J249998D01*
G01*
G37*
G36*
G01*
X164330300Y-126583602D02*
X164330300Y-125333598D01*
G75*
G02*
X164580298Y-125083600I249998J0D01*
G01*
X165205302Y-125083600D01*
G75*
G02*
X165455300Y-125333598I0J-249998D01*
G01*
X165455300Y-126583602D01*
G75*
G02*
X165205302Y-126833600I-249998J0D01*
G01*
X164580298Y-126833600D01*
G75*
G02*
X164330300Y-126583602I0J249998D01*
G01*
G37*
%TD*%
%TO.C,R16*%
G36*
G01*
X207330340Y-100213322D02*
X207330340Y-98963318D01*
G75*
G02*
X207580338Y-98713320I249998J0D01*
G01*
X208205342Y-98713320D01*
G75*
G02*
X208455340Y-98963318I0J-249998D01*
G01*
X208455340Y-100213322D01*
G75*
G02*
X208205342Y-100463320I-249998J0D01*
G01*
X207580338Y-100463320D01*
G75*
G02*
X207330340Y-100213322I0J249998D01*
G01*
G37*
G36*
G01*
X204405340Y-100213322D02*
X204405340Y-98963318D01*
G75*
G02*
X204655338Y-98713320I249998J0D01*
G01*
X205280342Y-98713320D01*
G75*
G02*
X205530340Y-98963318I0J-249998D01*
G01*
X205530340Y-100213322D01*
G75*
G02*
X205280342Y-100463320I-249998J0D01*
G01*
X204655338Y-100463320D01*
G75*
G02*
X204405340Y-100213322I0J249998D01*
G01*
G37*
%TD*%
%TO.C,R18*%
G36*
G01*
X186146740Y-109372562D02*
X186146740Y-108122558D01*
G75*
G02*
X186396738Y-107872560I249998J0D01*
G01*
X187021742Y-107872560D01*
G75*
G02*
X187271740Y-108122558I0J-249998D01*
G01*
X187271740Y-109372562D01*
G75*
G02*
X187021742Y-109622560I-249998J0D01*
G01*
X186396738Y-109622560D01*
G75*
G02*
X186146740Y-109372562I0J249998D01*
G01*
G37*
G36*
G01*
X183221740Y-109372562D02*
X183221740Y-108122558D01*
G75*
G02*
X183471738Y-107872560I249998J0D01*
G01*
X184096742Y-107872560D01*
G75*
G02*
X184346740Y-108122558I0J-249998D01*
G01*
X184346740Y-109372562D01*
G75*
G02*
X184096742Y-109622560I-249998J0D01*
G01*
X183471738Y-109622560D01*
G75*
G02*
X183221740Y-109372562I0J249998D01*
G01*
G37*
%TD*%
%TO.C,R19*%
G36*
G01*
X192162540Y-103378162D02*
X192162540Y-102128158D01*
G75*
G02*
X192412538Y-101878160I249998J0D01*
G01*
X193037542Y-101878160D01*
G75*
G02*
X193287540Y-102128158I0J-249998D01*
G01*
X193287540Y-103378162D01*
G75*
G02*
X193037542Y-103628160I-249998J0D01*
G01*
X192412538Y-103628160D01*
G75*
G02*
X192162540Y-103378162I0J249998D01*
G01*
G37*
G36*
G01*
X189237540Y-103378162D02*
X189237540Y-102128158D01*
G75*
G02*
X189487538Y-101878160I249998J0D01*
G01*
X190112542Y-101878160D01*
G75*
G02*
X190362540Y-102128158I0J-249998D01*
G01*
X190362540Y-103378162D01*
G75*
G02*
X190112542Y-103628160I-249998J0D01*
G01*
X189487538Y-103628160D01*
G75*
G02*
X189237540Y-103378162I0J249998D01*
G01*
G37*
%TD*%
%TO.C,R20*%
G36*
G01*
X183130300Y-121407082D02*
X183130300Y-120157078D01*
G75*
G02*
X183380298Y-119907080I249998J0D01*
G01*
X184005302Y-119907080D01*
G75*
G02*
X184255300Y-120157078I0J-249998D01*
G01*
X184255300Y-121407082D01*
G75*
G02*
X184005302Y-121657080I-249998J0D01*
G01*
X183380298Y-121657080D01*
G75*
G02*
X183130300Y-121407082I0J249998D01*
G01*
G37*
G36*
G01*
X180205300Y-121407082D02*
X180205300Y-120157078D01*
G75*
G02*
X180455298Y-119907080I249998J0D01*
G01*
X181080302Y-119907080D01*
G75*
G02*
X181330300Y-120157078I0J-249998D01*
G01*
X181330300Y-121407082D01*
G75*
G02*
X181080302Y-121657080I-249998J0D01*
G01*
X180455298Y-121657080D01*
G75*
G02*
X180205300Y-121407082I0J249998D01*
G01*
G37*
%TD*%
D20*
%TO.C,Q1*%
X176147480Y-111257120D03*
X174147480Y-110307120D03*
X174147480Y-112207120D03*
%TD*%
D21*
%TO.C,D2*%
X167624760Y-83843200D03*
X162424760Y-83843200D03*
X162424760Y-85293200D03*
X167624760Y-85293200D03*
%TD*%
D11*
%TO.C,D10*%
X183903000Y-113294160D03*
X189103000Y-113294160D03*
%TD*%
%TO.C,D11*%
X189506240Y-107320080D03*
X194706240Y-107320080D03*
%TD*%
%TO.C,D12*%
X180794040Y-117602000D03*
X185994040Y-117602000D03*
%TD*%
%TO.C,R7*%
G36*
G01*
X120278860Y-107573918D02*
X120278860Y-108823922D01*
G75*
G02*
X120028862Y-109073920I-249998J0D01*
G01*
X119403858Y-109073920D01*
G75*
G02*
X119153860Y-108823922I0J249998D01*
G01*
X119153860Y-107573918D01*
G75*
G02*
X119403858Y-107323920I249998J0D01*
G01*
X120028862Y-107323920D01*
G75*
G02*
X120278860Y-107573918I0J-249998D01*
G01*
G37*
G36*
G01*
X123203860Y-107573918D02*
X123203860Y-108823922D01*
G75*
G02*
X122953862Y-109073920I-249998J0D01*
G01*
X122328858Y-109073920D01*
G75*
G02*
X122078860Y-108823922I0J249998D01*
G01*
X122078860Y-107573918D01*
G75*
G02*
X122328858Y-107323920I249998J0D01*
G01*
X122953862Y-107323920D01*
G75*
G02*
X123203860Y-107573918I0J-249998D01*
G01*
G37*
%TD*%
%TO.C,R11*%
G36*
G01*
X211349700Y-94808202D02*
X211349700Y-93558198D01*
G75*
G02*
X211599698Y-93308200I249998J0D01*
G01*
X212224702Y-93308200D01*
G75*
G02*
X212474700Y-93558198I0J-249998D01*
G01*
X212474700Y-94808202D01*
G75*
G02*
X212224702Y-95058200I-249998J0D01*
G01*
X211599698Y-95058200D01*
G75*
G02*
X211349700Y-94808202I0J249998D01*
G01*
G37*
G36*
G01*
X208424700Y-94808202D02*
X208424700Y-93558198D01*
G75*
G02*
X208674698Y-93308200I249998J0D01*
G01*
X209299702Y-93308200D01*
G75*
G02*
X209549700Y-93558198I0J-249998D01*
G01*
X209549700Y-94808202D01*
G75*
G02*
X209299702Y-95058200I-249998J0D01*
G01*
X208674698Y-95058200D01*
G75*
G02*
X208424700Y-94808202I0J249998D01*
G01*
G37*
%TD*%
%TO.C,R12*%
G36*
G01*
X120526700Y-98490878D02*
X120526700Y-99740882D01*
G75*
G02*
X120276702Y-99990880I-249998J0D01*
G01*
X119651698Y-99990880D01*
G75*
G02*
X119401700Y-99740882I0J249998D01*
G01*
X119401700Y-98490878D01*
G75*
G02*
X119651698Y-98240880I249998J0D01*
G01*
X120276702Y-98240880D01*
G75*
G02*
X120526700Y-98490878I0J-249998D01*
G01*
G37*
G36*
G01*
X123451700Y-98490878D02*
X123451700Y-99740882D01*
G75*
G02*
X123201702Y-99990880I-249998J0D01*
G01*
X122576698Y-99990880D01*
G75*
G02*
X122326700Y-99740882I0J249998D01*
G01*
X122326700Y-98490878D01*
G75*
G02*
X122576698Y-98240880I249998J0D01*
G01*
X123201702Y-98240880D01*
G75*
G02*
X123451700Y-98490878I0J-249998D01*
G01*
G37*
%TD*%
D21*
%TO.C,D1*%
X167553640Y-77203640D03*
X162353640Y-77203640D03*
X162353640Y-78653640D03*
X167553640Y-78653640D03*
%TD*%
D22*
%TO.C,D4*%
X206339440Y-89893760D03*
X206339440Y-84693760D03*
%TD*%
%TO.C,D9*%
X201437240Y-91287600D03*
X201437240Y-86087600D03*
%TD*%
%TO.C,R17*%
G36*
G01*
X197144940Y-91521442D02*
X197144940Y-90271438D01*
G75*
G02*
X197394938Y-90021440I249998J0D01*
G01*
X198019942Y-90021440D01*
G75*
G02*
X198269940Y-90271438I0J-249998D01*
G01*
X198269940Y-91521442D01*
G75*
G02*
X198019942Y-91771440I-249998J0D01*
G01*
X197394938Y-91771440D01*
G75*
G02*
X197144940Y-91521442I0J249998D01*
G01*
G37*
G36*
G01*
X194219940Y-91521442D02*
X194219940Y-90271438D01*
G75*
G02*
X194469938Y-90021440I249998J0D01*
G01*
X195094942Y-90021440D01*
G75*
G02*
X195344940Y-90271438I0J-249998D01*
G01*
X195344940Y-91521442D01*
G75*
G02*
X195094942Y-91771440I-249998J0D01*
G01*
X194469938Y-91771440D01*
G75*
G02*
X194219940Y-91521442I0J249998D01*
G01*
G37*
%TD*%
D23*
%TO.C,J2*%
X103499920Y-71988680D03*
D24*
X103499920Y-74528680D03*
X106039920Y-71988680D03*
X106039920Y-74528680D03*
X108579920Y-71988680D03*
X108579920Y-74528680D03*
%TD*%
M02*
