M48
; DRILL file {KiCad 5.1.10-88a1d61d58~88~ubuntu20.04.1} date Sat May 29 11:29:52 2021
; FORMAT={-:-/ absolute / inch / decimal}
; #@! TF.CreationDate,2021-05-29T11:29:52-04:00
; #@! TF.GenerationSoftware,Kicad,Pcbnew,5.1.10-88a1d61d58~88~ubuntu20.04.1
; #@! TF.FileFunction,Plated,1,2,PTH
FMAT,2
INCH
T1C0.0157
T2C0.0354
T3C0.0402
%
G90
G05
T1
X4.143Y-4.5008
X4.3098Y-3.671
X4.3594Y-3.8972
X4.3992Y-3.6114
X4.4449Y-3.5632
X4.4768Y-3.7058
X4.4838Y-3.569
X4.4981Y-3.2383
X4.5081Y-3.7297
X4.5861Y-3.875
X4.5996Y-3.5088
X4.6348Y-3.3586
X4.6403Y-4.2769
X4.654Y-3.4894
X4.6575Y-3.3908
X4.6646Y-3.9036
X4.6696Y-4.126
X4.7162Y-3.302
X4.772Y-3.2475
X4.791Y-3.9826
X4.9134Y-3.7204
X5.0043Y-3.4681
X5.0426Y-2.9988
X5.0426Y-3.624
X5.079Y-3.5686
X5.0814Y-3.0191
X5.1164Y-2.9619
X5.123Y-3.5422
X5.4068Y-4.6302
X5.5878Y-4.5782
X5.6164Y-4.6588
X5.6444Y-4.6302
X5.6542Y-3.3662
X5.6593Y-3.1139
T2
X3.6067Y-3.2878
X3.6326Y-3.1912
X3.6585Y-3.0946
X3.7489Y-3.4229
X3.8196Y-3.3522
X3.8196Y-3.4936
X3.8903Y-3.4229
X3.8903Y-3.5643
X3.961Y-3.4936
T3
X5.6394Y-5.5089
X6.1394Y-5.5089
T0
M30
