%TF.GenerationSoftware,KiCad,Pcbnew,5.1.10-88a1d61d58~88~ubuntu20.04.1*%
%TF.CreationDate,2021-05-29T11:29:45-04:00*%
%TF.ProjectId,avBadge_2021,61764261-6467-4655-9f32-3032312e6b69,rev?*%
%TF.SameCoordinates,Original*%
%TF.FileFunction,Soldermask,Top*%
%TF.FilePolarity,Negative*%
%FSLAX46Y46*%
G04 Gerber Fmt 4.6, Leading zero omitted, Abs format (unit mm)*
G04 Created by KiCad (PCBNEW 5.1.10-88a1d61d58~88~ubuntu20.04.1) date 2021-05-29 11:29:45*
%MOMM*%
%LPD*%
G01*
G04 APERTURE LIST*
%ADD10C,0.100000*%
%ADD11C,1.524000*%
%ADD12C,1.600000*%
%ADD13C,2.400000*%
G04 APERTURE END LIST*
D10*
%TO.C,S1*%
G36*
X201578485Y-96129711D02*
G01*
X201940708Y-96128332D01*
X201846009Y-96385609D01*
X201483786Y-96386988D01*
X201578485Y-96129711D01*
G37*
G36*
X201114888Y-96129427D02*
G01*
X201477110Y-96128047D01*
X201382412Y-96385324D01*
X201020189Y-96386703D01*
X201114888Y-96129427D01*
G37*
G36*
X200182736Y-96133986D02*
G01*
X200544959Y-96132606D01*
X200450260Y-96389883D01*
X200088037Y-96391262D01*
X200182736Y-96133986D01*
G37*
G36*
X200660711Y-96133525D02*
G01*
X201022935Y-96132146D01*
X200928236Y-96389422D01*
X200566013Y-96390802D01*
X200660711Y-96133525D01*
G37*
G36*
X204347255Y-96132833D02*
G01*
X204708862Y-96111661D01*
X204628365Y-96373728D01*
X204266758Y-96394900D01*
X204347255Y-96132833D01*
G37*
G36*
X203884336Y-96157884D02*
G01*
X204245941Y-96136711D01*
X204165444Y-96398779D01*
X203803839Y-96419951D01*
X203884336Y-96157884D01*
G37*
G36*
X202953826Y-96213377D02*
G01*
X203315432Y-96192204D01*
X203234935Y-96454272D01*
X202873329Y-96475444D01*
X202953826Y-96213377D01*
G37*
G36*
X203431062Y-96186796D02*
G01*
X203792669Y-96165624D01*
X203712172Y-96427691D01*
X203350565Y-96448863D01*
X203431062Y-96186796D01*
G37*
G36*
X192021098Y-125534338D02*
G01*
X193859830Y-125760082D01*
X193152520Y-126818177D01*
X191313788Y-126592434D01*
X192021098Y-125534338D01*
G37*
G36*
X189669578Y-125236502D02*
G01*
X191508305Y-125462246D01*
X190800995Y-126520341D01*
X188962268Y-126294598D01*
X189669578Y-125236502D01*
G37*
G36*
X184936860Y-124659958D02*
G01*
X186775592Y-124885701D01*
X186068282Y-125943797D01*
X184229550Y-125718053D01*
X184936860Y-124659958D01*
G37*
G36*
X187361981Y-124963752D02*
G01*
X189200713Y-125189495D01*
X188493403Y-126247591D01*
X186654671Y-126021847D01*
X187361981Y-124963752D01*
G37*
G36*
X170366662Y-122358644D02*
G01*
X172201242Y-122615961D01*
X171475848Y-123661742D01*
X169641268Y-123404425D01*
X170366662Y-122358644D01*
G37*
G36*
X168020608Y-122020430D02*
G01*
X169855184Y-122277747D01*
X169129790Y-123323528D01*
X167295215Y-123066211D01*
X168020608Y-122020430D01*
G37*
G36*
X163298500Y-121362617D02*
G01*
X165133080Y-121619935D01*
X164407687Y-122665716D01*
X162573107Y-122408398D01*
X163298500Y-121362617D01*
G37*
G36*
X165718041Y-121708053D02*
G01*
X167552621Y-121965371D01*
X166827227Y-123011151D01*
X164992648Y-122753834D01*
X165718041Y-121708053D01*
G37*
G36*
X199304951Y-99189837D02*
G01*
X199340632Y-99255569D01*
X198811933Y-99940481D01*
X198776252Y-99874749D01*
X199304951Y-99189837D01*
G37*
G36*
X200744045Y-97597585D02*
G01*
X200779726Y-97663318D01*
X200251027Y-98348230D01*
X200215346Y-98282497D01*
X200744045Y-97597585D01*
G37*
G36*
X196625647Y-102221443D02*
G01*
X196710428Y-102355940D01*
X195454203Y-103757358D01*
X195369422Y-103622861D01*
X196625647Y-102221443D01*
G37*
G36*
X197907215Y-100570625D02*
G01*
X197942896Y-100636358D01*
X197414197Y-101321270D01*
X197378515Y-101255537D01*
X197907215Y-100570625D01*
G37*
G36*
X194356706Y-104963644D02*
G01*
X194441487Y-105098140D01*
X193185260Y-106499560D01*
X193100479Y-106365063D01*
X194356706Y-104963644D01*
G37*
G36*
X192015562Y-107578703D02*
G01*
X192100343Y-107713200D01*
X190844118Y-109114618D01*
X190759337Y-108980121D01*
X192015562Y-107578703D01*
G37*
G36*
X188597675Y-111081821D02*
G01*
X188782930Y-111228988D01*
X187148153Y-113286860D01*
X186962898Y-113139693D01*
X188597675Y-111081821D01*
G37*
G36*
X183376580Y-117944792D02*
G01*
X183561833Y-118091957D01*
X181927056Y-120149829D01*
X181741803Y-120002663D01*
X183376580Y-117944792D01*
G37*
G36*
X185967088Y-114456863D02*
G01*
X186152341Y-114604028D01*
X184517564Y-116661900D01*
X184332311Y-116514735D01*
X185967088Y-114456863D01*
G37*
G36*
X165719478Y-77419035D02*
G01*
X165705447Y-77556178D01*
X165663895Y-77688051D01*
X165596418Y-77809586D01*
X165505608Y-77916112D01*
X165394957Y-78003536D01*
X165268716Y-78068498D01*
X165131736Y-78108501D01*
X164989282Y-78122008D01*
X164846828Y-78108501D01*
X164709849Y-78068498D01*
X164583608Y-78003536D01*
X164472957Y-77916112D01*
X164382147Y-77809586D01*
X164314670Y-77688051D01*
X164273118Y-77556178D01*
X164259087Y-77419035D01*
X164273118Y-77281892D01*
X164314670Y-77150019D01*
X164382147Y-77028484D01*
X164472957Y-76921958D01*
X164583608Y-76834534D01*
X164709849Y-76769572D01*
X164846828Y-76729569D01*
X164989282Y-76716061D01*
X165131736Y-76729569D01*
X165268716Y-76769572D01*
X165394957Y-76834534D01*
X165505608Y-76921958D01*
X165596418Y-77028484D01*
X165663895Y-77150019D01*
X165705447Y-77281892D01*
X165719478Y-77419035D01*
G37*
G36*
X116399276Y-129655398D02*
G01*
X118244829Y-131038150D01*
X115647467Y-133664142D01*
X113769767Y-131927642D01*
X116399276Y-129655398D01*
G37*
G36*
X132556700Y-125740843D02*
G01*
X141109441Y-129698747D01*
X137734622Y-140803754D01*
X129831862Y-135028006D01*
X132556700Y-125740843D01*
G37*
G36*
X123522248Y-121910181D02*
G01*
X128744096Y-124127175D01*
X126393668Y-132562738D01*
X121425486Y-128972326D01*
X123522248Y-121910181D01*
G37*
G36*
X116346142Y-119033168D02*
G01*
X119828675Y-120615607D01*
X117888472Y-126944083D01*
X114645101Y-124740353D01*
X116346142Y-119033168D01*
G37*
G36*
X113088732Y-117555582D02*
G01*
X115575477Y-118526986D01*
X114573225Y-121569141D01*
X113834507Y-124198465D01*
X111615626Y-122650758D01*
X111628382Y-122434712D01*
X113088732Y-117555582D01*
G37*
G36*
X99501452Y-111345282D02*
G01*
X103342599Y-110627253D01*
X103431478Y-113701552D01*
X99594777Y-114560033D01*
X99501452Y-111345282D01*
G37*
%TD*%
D11*
%TO.C,S1*%
X101254560Y-112615980D03*
X116085620Y-131452620D03*
X125034040Y-126860300D03*
X117322600Y-122682000D03*
X113497360Y-120738900D03*
%TD*%
D10*
%TO.C,P1*%
G36*
X93491125Y-79582824D02*
G01*
X91945644Y-79168713D01*
X92359755Y-77623232D01*
X93905236Y-78037343D01*
X93491125Y-79582824D01*
G37*
D12*
X92268040Y-81056480D03*
X91610640Y-83509932D03*
%TD*%
D11*
%TO.C,BT1*%
X143242020Y-139926060D03*
X155942020Y-139926060D03*
%TD*%
D13*
%TO.C,D5*%
X160603760Y-119969280D03*
%TD*%
%TO.C,D3*%
X200177400Y-125846840D03*
%TD*%
%TO.C,J1*%
G36*
G01*
X100044258Y-89303125D02*
X100044258Y-89303125D01*
G75*
G02*
X100044258Y-88171755I565685J565685D01*
G01*
X100044258Y-88171755D01*
G75*
G02*
X101175628Y-88171755I565685J-565685D01*
G01*
X101175628Y-88171755D01*
G75*
G02*
X101175628Y-89303125I-565685J-565685D01*
G01*
X101175628Y-89303125D01*
G75*
G02*
X100044258Y-89303125I-565685J565685D01*
G01*
G37*
G36*
G01*
X98248206Y-91099176D02*
X98248206Y-91099176D01*
G75*
G02*
X98248206Y-89967806I565685J565685D01*
G01*
X98248206Y-89967806D01*
G75*
G02*
X99379576Y-89967806I565685J-565685D01*
G01*
X99379576Y-89967806D01*
G75*
G02*
X99379576Y-91099176I-565685J-565685D01*
G01*
X99379576Y-91099176D01*
G75*
G02*
X98248206Y-91099176I-565685J565685D01*
G01*
G37*
G36*
G01*
X98248206Y-87507074D02*
X98248206Y-87507074D01*
G75*
G02*
X98248206Y-86375704I565685J565685D01*
G01*
X98248206Y-86375704D01*
G75*
G02*
X99379576Y-86375704I565685J-565685D01*
G01*
X99379576Y-86375704D01*
G75*
G02*
X99379576Y-87507074I-565685J-565685D01*
G01*
X99379576Y-87507074D01*
G75*
G02*
X98248206Y-87507074I-565685J565685D01*
G01*
G37*
G36*
G01*
X96452155Y-89303125D02*
X96452155Y-89303125D01*
G75*
G02*
X96452155Y-88171755I565685J565685D01*
G01*
X96452155Y-88171755D01*
G75*
G02*
X97583525Y-88171755I565685J-565685D01*
G01*
X97583525Y-88171755D01*
G75*
G02*
X97583525Y-89303125I-565685J-565685D01*
G01*
X97583525Y-89303125D01*
G75*
G02*
X96452155Y-89303125I-565685J565685D01*
G01*
G37*
D10*
G36*
X97017840Y-86276709D02*
G01*
X95886469Y-85145338D01*
X97017840Y-84013967D01*
X98149211Y-85145338D01*
X97017840Y-86276709D01*
G37*
G36*
G01*
X94656104Y-87507074D02*
X94656104Y-87507074D01*
G75*
G02*
X94656104Y-86375704I565685J565685D01*
G01*
X94656104Y-86375704D01*
G75*
G02*
X95787474Y-86375704I565685J-565685D01*
G01*
X95787474Y-86375704D01*
G75*
G02*
X95787474Y-87507074I-565685J-565685D01*
G01*
X95787474Y-87507074D01*
G75*
G02*
X94656104Y-87507074I-565685J565685D01*
G01*
G37*
%TD*%
M02*
