%TF.GenerationSoftware,KiCad,Pcbnew,5.1.10-88a1d61d58~88~ubuntu20.04.1*%
%TF.CreationDate,2021-05-07T16:03:34-04:00*%
%TF.ProjectId,avBadge_2021,61764261-6467-4655-9f32-3032312e6b69,rev?*%
%TF.SameCoordinates,Original*%
%TF.FileFunction,Paste,Bot*%
%TF.FilePolarity,Positive*%
%FSLAX46Y46*%
G04 Gerber Fmt 4.6, Leading zero omitted, Abs format (unit mm)*
G04 Created by KiCad (PCBNEW 5.1.10-88a1d61d58~88~ubuntu20.04.1) date 2021-05-07 16:03:34*
%MOMM*%
%LPD*%
G01*
G04 APERTURE LIST*
%ADD10R,1.400000X0.800000*%
%ADD11R,1.080000X1.250000*%
%ADD12R,1.200000X2.500000*%
%ADD13R,0.900000X0.800000*%
%ADD14R,5.300000X5.300000*%
%ADD15R,1.400000X2.600000*%
%ADD16R,2.600000X1.400000*%
%ADD17R,0.550000X1.500000*%
%ADD18R,1.500000X0.550000*%
%ADD19R,1.060000X0.650000*%
G04 APERTURE END LIST*
D10*
%TO.C,D1*%
X167959080Y-77943880D03*
X162759080Y-77943880D03*
X162759080Y-79393880D03*
X167959080Y-79393880D03*
%TD*%
%TO.C,C1*%
G36*
G01*
X114178240Y-101094240D02*
X112928240Y-101094240D01*
G75*
G02*
X112678240Y-100844240I0J250000D01*
G01*
X112678240Y-100094240D01*
G75*
G02*
X112928240Y-99844240I250000J0D01*
G01*
X114178240Y-99844240D01*
G75*
G02*
X114428240Y-100094240I0J-250000D01*
G01*
X114428240Y-100844240D01*
G75*
G02*
X114178240Y-101094240I-250000J0D01*
G01*
G37*
G36*
G01*
X114178240Y-103894240D02*
X112928240Y-103894240D01*
G75*
G02*
X112678240Y-103644240I0J250000D01*
G01*
X112678240Y-102894240D01*
G75*
G02*
X112928240Y-102644240I250000J0D01*
G01*
X114178240Y-102644240D01*
G75*
G02*
X114428240Y-102894240I0J-250000D01*
G01*
X114428240Y-103644240D01*
G75*
G02*
X114178240Y-103894240I-250000J0D01*
G01*
G37*
%TD*%
%TO.C,C2*%
G36*
G01*
X181528880Y-112968280D02*
X180278880Y-112968280D01*
G75*
G02*
X180028880Y-112718280I0J250000D01*
G01*
X180028880Y-111968280D01*
G75*
G02*
X180278880Y-111718280I250000J0D01*
G01*
X181528880Y-111718280D01*
G75*
G02*
X181778880Y-111968280I0J-250000D01*
G01*
X181778880Y-112718280D01*
G75*
G02*
X181528880Y-112968280I-250000J0D01*
G01*
G37*
G36*
G01*
X181528880Y-115768280D02*
X180278880Y-115768280D01*
G75*
G02*
X180028880Y-115518280I0J250000D01*
G01*
X180028880Y-114768280D01*
G75*
G02*
X180278880Y-114518280I250000J0D01*
G01*
X181528880Y-114518280D01*
G75*
G02*
X181778880Y-114768280I0J-250000D01*
G01*
X181778880Y-115518280D01*
G75*
G02*
X181528880Y-115768280I-250000J0D01*
G01*
G37*
%TD*%
D11*
%TO.C,D3*%
X199491160Y-125079760D03*
X202611160Y-125079760D03*
%TD*%
%TO.C,D5*%
X159740160Y-120573800D03*
X162860160Y-120573800D03*
%TD*%
%TO.C,R2*%
G36*
G01*
X171780360Y-86705280D02*
X171780360Y-87955280D01*
G75*
G02*
X171530360Y-88205280I-250000J0D01*
G01*
X170780360Y-88205280D01*
G75*
G02*
X170530360Y-87955280I0J250000D01*
G01*
X170530360Y-86705280D01*
G75*
G02*
X170780360Y-86455280I250000J0D01*
G01*
X171530360Y-86455280D01*
G75*
G02*
X171780360Y-86705280I0J-250000D01*
G01*
G37*
G36*
G01*
X174580360Y-86705280D02*
X174580360Y-87955280D01*
G75*
G02*
X174330360Y-88205280I-250000J0D01*
G01*
X173580360Y-88205280D01*
G75*
G02*
X173330360Y-87955280I0J250000D01*
G01*
X173330360Y-86705280D01*
G75*
G02*
X173580360Y-86455280I250000J0D01*
G01*
X174330360Y-86455280D01*
G75*
G02*
X174580360Y-86705280I0J-250000D01*
G01*
G37*
%TD*%
%TO.C,R1*%
G36*
G01*
X171708320Y-79730440D02*
X171708320Y-80980440D01*
G75*
G02*
X171458320Y-81230440I-250000J0D01*
G01*
X170708320Y-81230440D01*
G75*
G02*
X170458320Y-80980440I0J250000D01*
G01*
X170458320Y-79730440D01*
G75*
G02*
X170708320Y-79480440I250000J0D01*
G01*
X171458320Y-79480440D01*
G75*
G02*
X171708320Y-79730440I0J-250000D01*
G01*
G37*
G36*
G01*
X174508320Y-79730440D02*
X174508320Y-80980440D01*
G75*
G02*
X174258320Y-81230440I-250000J0D01*
G01*
X173508320Y-81230440D01*
G75*
G02*
X173258320Y-80980440I0J250000D01*
G01*
X173258320Y-79730440D01*
G75*
G02*
X173508320Y-79480440I250000J0D01*
G01*
X174258320Y-79480440D01*
G75*
G02*
X174508320Y-79730440I0J-250000D01*
G01*
G37*
%TD*%
%TO.C,R4*%
G36*
G01*
X157794800Y-84912360D02*
X157794800Y-83662360D01*
G75*
G02*
X158044800Y-83412360I250000J0D01*
G01*
X158794800Y-83412360D01*
G75*
G02*
X159044800Y-83662360I0J-250000D01*
G01*
X159044800Y-84912360D01*
G75*
G02*
X158794800Y-85162360I-250000J0D01*
G01*
X158044800Y-85162360D01*
G75*
G02*
X157794800Y-84912360I0J250000D01*
G01*
G37*
G36*
G01*
X154994800Y-84912360D02*
X154994800Y-83662360D01*
G75*
G02*
X155244800Y-83412360I250000J0D01*
G01*
X155994800Y-83412360D01*
G75*
G02*
X156244800Y-83662360I0J-250000D01*
G01*
X156244800Y-84912360D01*
G75*
G02*
X155994800Y-85162360I-250000J0D01*
G01*
X155244800Y-85162360D01*
G75*
G02*
X154994800Y-84912360I0J250000D01*
G01*
G37*
%TD*%
%TO.C,R3*%
G36*
G01*
X158368840Y-78516640D02*
X158368840Y-77266640D01*
G75*
G02*
X158618840Y-77016640I250000J0D01*
G01*
X159368840Y-77016640D01*
G75*
G02*
X159618840Y-77266640I0J-250000D01*
G01*
X159618840Y-78516640D01*
G75*
G02*
X159368840Y-78766640I-250000J0D01*
G01*
X158618840Y-78766640D01*
G75*
G02*
X158368840Y-78516640I0J250000D01*
G01*
G37*
G36*
G01*
X155568840Y-78516640D02*
X155568840Y-77266640D01*
G75*
G02*
X155818840Y-77016640I250000J0D01*
G01*
X156568840Y-77016640D01*
G75*
G02*
X156818840Y-77266640I0J-250000D01*
G01*
X156818840Y-78516640D01*
G75*
G02*
X156568840Y-78766640I-250000J0D01*
G01*
X155818840Y-78766640D01*
G75*
G02*
X155568840Y-78516640I0J250000D01*
G01*
G37*
%TD*%
%TO.C,R6*%
G36*
G01*
X171775280Y-83692840D02*
X171775280Y-84942840D01*
G75*
G02*
X171525280Y-85192840I-250000J0D01*
G01*
X170775280Y-85192840D01*
G75*
G02*
X170525280Y-84942840I0J250000D01*
G01*
X170525280Y-83692840D01*
G75*
G02*
X170775280Y-83442840I250000J0D01*
G01*
X171525280Y-83442840D01*
G75*
G02*
X171775280Y-83692840I0J-250000D01*
G01*
G37*
G36*
G01*
X174575280Y-83692840D02*
X174575280Y-84942840D01*
G75*
G02*
X174325280Y-85192840I-250000J0D01*
G01*
X173575280Y-85192840D01*
G75*
G02*
X173325280Y-84942840I0J250000D01*
G01*
X173325280Y-83692840D01*
G75*
G02*
X173575280Y-83442840I250000J0D01*
G01*
X174325280Y-83442840D01*
G75*
G02*
X174575280Y-83692840I0J-250000D01*
G01*
G37*
%TD*%
%TO.C,R5*%
G36*
G01*
X171414600Y-76794200D02*
X171414600Y-78044200D01*
G75*
G02*
X171164600Y-78294200I-250000J0D01*
G01*
X170414600Y-78294200D01*
G75*
G02*
X170164600Y-78044200I0J250000D01*
G01*
X170164600Y-76794200D01*
G75*
G02*
X170414600Y-76544200I250000J0D01*
G01*
X171164600Y-76544200D01*
G75*
G02*
X171414600Y-76794200I0J-250000D01*
G01*
G37*
G36*
G01*
X174214600Y-76794200D02*
X174214600Y-78044200D01*
G75*
G02*
X173964600Y-78294200I-250000J0D01*
G01*
X173214600Y-78294200D01*
G75*
G02*
X172964600Y-78044200I0J250000D01*
G01*
X172964600Y-76794200D01*
G75*
G02*
X173214600Y-76544200I250000J0D01*
G01*
X173964600Y-76544200D01*
G75*
G02*
X174214600Y-76794200I0J-250000D01*
G01*
G37*
%TD*%
%TO.C,R8*%
G36*
G01*
X200848120Y-128366360D02*
X200848120Y-129616360D01*
G75*
G02*
X200598120Y-129866360I-250000J0D01*
G01*
X199848120Y-129866360D01*
G75*
G02*
X199598120Y-129616360I0J250000D01*
G01*
X199598120Y-128366360D01*
G75*
G02*
X199848120Y-128116360I250000J0D01*
G01*
X200598120Y-128116360D01*
G75*
G02*
X200848120Y-128366360I0J-250000D01*
G01*
G37*
G36*
G01*
X203648120Y-128366360D02*
X203648120Y-129616360D01*
G75*
G02*
X203398120Y-129866360I-250000J0D01*
G01*
X202648120Y-129866360D01*
G75*
G02*
X202398120Y-129616360I0J250000D01*
G01*
X202398120Y-128366360D01*
G75*
G02*
X202648120Y-128116360I250000J0D01*
G01*
X203398120Y-128116360D01*
G75*
G02*
X203648120Y-128366360I0J-250000D01*
G01*
G37*
%TD*%
%TO.C,R10*%
G36*
G01*
X165176040Y-117810440D02*
X165176040Y-116560440D01*
G75*
G02*
X165426040Y-116310440I250000J0D01*
G01*
X166176040Y-116310440D01*
G75*
G02*
X166426040Y-116560440I0J-250000D01*
G01*
X166426040Y-117810440D01*
G75*
G02*
X166176040Y-118060440I-250000J0D01*
G01*
X165426040Y-118060440D01*
G75*
G02*
X165176040Y-117810440I0J250000D01*
G01*
G37*
G36*
G01*
X162376040Y-117810440D02*
X162376040Y-116560440D01*
G75*
G02*
X162626040Y-116310440I250000J0D01*
G01*
X163376040Y-116310440D01*
G75*
G02*
X163626040Y-116560440I0J-250000D01*
G01*
X163626040Y-117810440D01*
G75*
G02*
X163376040Y-118060440I-250000J0D01*
G01*
X162626040Y-118060440D01*
G75*
G02*
X162376040Y-117810440I0J250000D01*
G01*
G37*
%TD*%
%TO.C,R9*%
G36*
G01*
X134350000Y-119466200D02*
X134350000Y-120716200D01*
G75*
G02*
X134100000Y-120966200I-250000J0D01*
G01*
X133350000Y-120966200D01*
G75*
G02*
X133100000Y-120716200I0J250000D01*
G01*
X133100000Y-119466200D01*
G75*
G02*
X133350000Y-119216200I250000J0D01*
G01*
X134100000Y-119216200D01*
G75*
G02*
X134350000Y-119466200I0J-250000D01*
G01*
G37*
G36*
G01*
X137150000Y-119466200D02*
X137150000Y-120716200D01*
G75*
G02*
X136900000Y-120966200I-250000J0D01*
G01*
X136150000Y-120966200D01*
G75*
G02*
X135900000Y-120716200I0J250000D01*
G01*
X135900000Y-119466200D01*
G75*
G02*
X136150000Y-119216200I250000J0D01*
G01*
X136900000Y-119216200D01*
G75*
G02*
X137150000Y-119466200I0J-250000D01*
G01*
G37*
%TD*%
%TO.C,R13*%
G36*
G01*
X171581320Y-111226440D02*
X171581320Y-112476440D01*
G75*
G02*
X171331320Y-112726440I-250000J0D01*
G01*
X170581320Y-112726440D01*
G75*
G02*
X170331320Y-112476440I0J250000D01*
G01*
X170331320Y-111226440D01*
G75*
G02*
X170581320Y-110976440I250000J0D01*
G01*
X171331320Y-110976440D01*
G75*
G02*
X171581320Y-111226440I0J-250000D01*
G01*
G37*
G36*
G01*
X174381320Y-111226440D02*
X174381320Y-112476440D01*
G75*
G02*
X174131320Y-112726440I-250000J0D01*
G01*
X173381320Y-112726440D01*
G75*
G02*
X173131320Y-112476440I0J250000D01*
G01*
X173131320Y-111226440D01*
G75*
G02*
X173381320Y-110976440I250000J0D01*
G01*
X174131320Y-110976440D01*
G75*
G02*
X174381320Y-111226440I0J-250000D01*
G01*
G37*
%TD*%
%TO.C,R14*%
G36*
G01*
X163034680Y-127726280D02*
X163034680Y-128976280D01*
G75*
G02*
X162784680Y-129226280I-250000J0D01*
G01*
X162034680Y-129226280D01*
G75*
G02*
X161784680Y-128976280I0J250000D01*
G01*
X161784680Y-127726280D01*
G75*
G02*
X162034680Y-127476280I250000J0D01*
G01*
X162784680Y-127476280D01*
G75*
G02*
X163034680Y-127726280I0J-250000D01*
G01*
G37*
G36*
G01*
X165834680Y-127726280D02*
X165834680Y-128976280D01*
G75*
G02*
X165584680Y-129226280I-250000J0D01*
G01*
X164834680Y-129226280D01*
G75*
G02*
X164584680Y-128976280I0J250000D01*
G01*
X164584680Y-127726280D01*
G75*
G02*
X164834680Y-127476280I250000J0D01*
G01*
X165584680Y-127476280D01*
G75*
G02*
X165834680Y-127726280I0J-250000D01*
G01*
G37*
%TD*%
%TO.C,R15*%
G36*
G01*
X188541960Y-131287680D02*
X188541960Y-130037680D01*
G75*
G02*
X188791960Y-129787680I250000J0D01*
G01*
X189541960Y-129787680D01*
G75*
G02*
X189791960Y-130037680I0J-250000D01*
G01*
X189791960Y-131287680D01*
G75*
G02*
X189541960Y-131537680I-250000J0D01*
G01*
X188791960Y-131537680D01*
G75*
G02*
X188541960Y-131287680I0J250000D01*
G01*
G37*
G36*
G01*
X185741960Y-131287680D02*
X185741960Y-130037680D01*
G75*
G02*
X185991960Y-129787680I250000J0D01*
G01*
X186741960Y-129787680D01*
G75*
G02*
X186991960Y-130037680I0J-250000D01*
G01*
X186991960Y-131287680D01*
G75*
G02*
X186741960Y-131537680I-250000J0D01*
G01*
X185991960Y-131537680D01*
G75*
G02*
X185741960Y-131287680I0J250000D01*
G01*
G37*
%TD*%
%TO.C,R16*%
G36*
G01*
X199816880Y-91429680D02*
X199816880Y-92679680D01*
G75*
G02*
X199566880Y-92929680I-250000J0D01*
G01*
X198816880Y-92929680D01*
G75*
G02*
X198566880Y-92679680I0J250000D01*
G01*
X198566880Y-91429680D01*
G75*
G02*
X198816880Y-91179680I250000J0D01*
G01*
X199566880Y-91179680D01*
G75*
G02*
X199816880Y-91429680I0J-250000D01*
G01*
G37*
G36*
G01*
X202616880Y-91429680D02*
X202616880Y-92679680D01*
G75*
G02*
X202366880Y-92929680I-250000J0D01*
G01*
X201616880Y-92929680D01*
G75*
G02*
X201366880Y-92679680I0J250000D01*
G01*
X201366880Y-91429680D01*
G75*
G02*
X201616880Y-91179680I250000J0D01*
G01*
X202366880Y-91179680D01*
G75*
G02*
X202616880Y-91429680I0J-250000D01*
G01*
G37*
%TD*%
%TO.C,R17*%
G36*
G01*
X208411920Y-89951720D02*
X208411920Y-88701720D01*
G75*
G02*
X208661920Y-88451720I250000J0D01*
G01*
X209411920Y-88451720D01*
G75*
G02*
X209661920Y-88701720I0J-250000D01*
G01*
X209661920Y-89951720D01*
G75*
G02*
X209411920Y-90201720I-250000J0D01*
G01*
X208661920Y-90201720D01*
G75*
G02*
X208411920Y-89951720I0J250000D01*
G01*
G37*
G36*
G01*
X205611920Y-89951720D02*
X205611920Y-88701720D01*
G75*
G02*
X205861920Y-88451720I250000J0D01*
G01*
X206611920Y-88451720D01*
G75*
G02*
X206861920Y-88701720I0J-250000D01*
G01*
X206861920Y-89951720D01*
G75*
G02*
X206611920Y-90201720I-250000J0D01*
G01*
X205861920Y-90201720D01*
G75*
G02*
X205611920Y-89951720I0J250000D01*
G01*
G37*
%TD*%
%TO.C,R18*%
G36*
G01*
X194081240Y-115351720D02*
X194081240Y-114101720D01*
G75*
G02*
X194331240Y-113851720I250000J0D01*
G01*
X195081240Y-113851720D01*
G75*
G02*
X195331240Y-114101720I0J-250000D01*
G01*
X195331240Y-115351720D01*
G75*
G02*
X195081240Y-115601720I-250000J0D01*
G01*
X194331240Y-115601720D01*
G75*
G02*
X194081240Y-115351720I0J250000D01*
G01*
G37*
G36*
G01*
X191281240Y-115351720D02*
X191281240Y-114101720D01*
G75*
G02*
X191531240Y-113851720I250000J0D01*
G01*
X192281240Y-113851720D01*
G75*
G02*
X192531240Y-114101720I0J-250000D01*
G01*
X192531240Y-115351720D01*
G75*
G02*
X192281240Y-115601720I-250000J0D01*
G01*
X191531240Y-115601720D01*
G75*
G02*
X191281240Y-115351720I0J250000D01*
G01*
G37*
%TD*%
%TO.C,R19*%
G36*
G01*
X202341320Y-108270200D02*
X202341320Y-107020200D01*
G75*
G02*
X202591320Y-106770200I250000J0D01*
G01*
X203341320Y-106770200D01*
G75*
G02*
X203591320Y-107020200I0J-250000D01*
G01*
X203591320Y-108270200D01*
G75*
G02*
X203341320Y-108520200I-250000J0D01*
G01*
X202591320Y-108520200D01*
G75*
G02*
X202341320Y-108270200I0J250000D01*
G01*
G37*
G36*
G01*
X199541320Y-108270200D02*
X199541320Y-107020200D01*
G75*
G02*
X199791320Y-106770200I250000J0D01*
G01*
X200541320Y-106770200D01*
G75*
G02*
X200791320Y-107020200I0J-250000D01*
G01*
X200791320Y-108270200D01*
G75*
G02*
X200541320Y-108520200I-250000J0D01*
G01*
X199791320Y-108520200D01*
G75*
G02*
X199541320Y-108270200I0J250000D01*
G01*
G37*
%TD*%
%TO.C,R20*%
G36*
G01*
X180086160Y-119461120D02*
X180086160Y-120711120D01*
G75*
G02*
X179836160Y-120961120I-250000J0D01*
G01*
X179086160Y-120961120D01*
G75*
G02*
X178836160Y-120711120I0J250000D01*
G01*
X178836160Y-119461120D01*
G75*
G02*
X179086160Y-119211120I250000J0D01*
G01*
X179836160Y-119211120D01*
G75*
G02*
X180086160Y-119461120I0J-250000D01*
G01*
G37*
G36*
G01*
X182886160Y-119461120D02*
X182886160Y-120711120D01*
G75*
G02*
X182636160Y-120961120I-250000J0D01*
G01*
X181886160Y-120961120D01*
G75*
G02*
X181636160Y-120711120I0J250000D01*
G01*
X181636160Y-119461120D01*
G75*
G02*
X181886160Y-119211120I250000J0D01*
G01*
X182636160Y-119211120D01*
G75*
G02*
X182886160Y-119461120I0J-250000D01*
G01*
G37*
%TD*%
D12*
%TO.C,SW1*%
X144854920Y-70781280D03*
X147354920Y-70781280D03*
X149854920Y-70781280D03*
X144854920Y-76281280D03*
X147354920Y-76281280D03*
X149854920Y-76281280D03*
%TD*%
D13*
%TO.C,Q1*%
X176089560Y-115661480D03*
X176089560Y-113761480D03*
X178089560Y-114711480D03*
%TD*%
D14*
%TO.C,BT1*%
X109636560Y-82397600D03*
X123836560Y-82397600D03*
X138036560Y-82397600D03*
%TD*%
D10*
%TO.C,D2*%
X167833040Y-85796120D03*
X162633040Y-85796120D03*
X162633040Y-84346120D03*
X167833040Y-84346120D03*
%TD*%
D15*
%TO.C,D4*%
X202632960Y-81056480D03*
X207832960Y-81056480D03*
%TD*%
%TO.C,D6*%
X165267640Y-123718320D03*
X170467640Y-123718320D03*
%TD*%
%TO.C,D7*%
X191514080Y-126842520D03*
X186314080Y-126842520D03*
%TD*%
%TO.C,D8*%
X196806200Y-96032320D03*
X202006200Y-96032320D03*
%TD*%
D16*
%TO.C,D9*%
X206380080Y-94218760D03*
X206380080Y-99418760D03*
%TD*%
%TO.C,D10*%
X191912240Y-106819080D03*
X191912240Y-112019080D03*
%TD*%
D15*
%TO.C,D11*%
X199852280Y-103494840D03*
X194652280Y-103494840D03*
%TD*%
D16*
%TO.C,D12*%
X185313320Y-114759120D03*
X185313320Y-119959120D03*
%TD*%
%TO.C,R7*%
G36*
G01*
X131077320Y-119542399D02*
X131077320Y-120792401D01*
G75*
G02*
X130827321Y-121042400I-249999J0D01*
G01*
X130202319Y-121042400D01*
G75*
G02*
X129952320Y-120792401I0J249999D01*
G01*
X129952320Y-119542399D01*
G75*
G02*
X130202319Y-119292400I249999J0D01*
G01*
X130827321Y-119292400D01*
G75*
G02*
X131077320Y-119542399I0J-249999D01*
G01*
G37*
G36*
G01*
X128152320Y-119542399D02*
X128152320Y-120792401D01*
G75*
G02*
X127902321Y-121042400I-249999J0D01*
G01*
X127277319Y-121042400D01*
G75*
G02*
X127027320Y-120792401I0J249999D01*
G01*
X127027320Y-119542399D01*
G75*
G02*
X127277319Y-119292400I249999J0D01*
G01*
X127902321Y-119292400D01*
G75*
G02*
X128152320Y-119542399I0J-249999D01*
G01*
G37*
%TD*%
%TO.C,R11*%
G36*
G01*
X197626940Y-80512759D02*
X197626940Y-81762761D01*
G75*
G02*
X197376941Y-82012760I-249999J0D01*
G01*
X196751939Y-82012760D01*
G75*
G02*
X196501940Y-81762761I0J249999D01*
G01*
X196501940Y-80512759D01*
G75*
G02*
X196751939Y-80262760I249999J0D01*
G01*
X197376941Y-80262760D01*
G75*
G02*
X197626940Y-80512759I0J-249999D01*
G01*
G37*
G36*
G01*
X200551940Y-80512759D02*
X200551940Y-81762761D01*
G75*
G02*
X200301941Y-82012760I-249999J0D01*
G01*
X199676939Y-82012760D01*
G75*
G02*
X199426940Y-81762761I0J249999D01*
G01*
X199426940Y-80512759D01*
G75*
G02*
X199676939Y-80262760I249999J0D01*
G01*
X200301941Y-80262760D01*
G75*
G02*
X200551940Y-80512759I0J-249999D01*
G01*
G37*
%TD*%
%TO.C,R12*%
G36*
G01*
X139530440Y-124373479D02*
X139530440Y-125623481D01*
G75*
G02*
X139280441Y-125873480I-249999J0D01*
G01*
X138655439Y-125873480D01*
G75*
G02*
X138405440Y-125623481I0J249999D01*
G01*
X138405440Y-124373479D01*
G75*
G02*
X138655439Y-124123480I249999J0D01*
G01*
X139280441Y-124123480D01*
G75*
G02*
X139530440Y-124373479I0J-249999D01*
G01*
G37*
G36*
G01*
X136605440Y-124373479D02*
X136605440Y-125623481D01*
G75*
G02*
X136355441Y-125873480I-249999J0D01*
G01*
X135730439Y-125873480D01*
G75*
G02*
X135480440Y-125623481I0J249999D01*
G01*
X135480440Y-124373479D01*
G75*
G02*
X135730439Y-124123480I249999J0D01*
G01*
X136355441Y-124123480D01*
G75*
G02*
X136605440Y-124373479I0J-249999D01*
G01*
G37*
%TD*%
D17*
%TO.C,U1*%
X121497440Y-101011880D03*
D18*
X120097440Y-108011880D03*
X120097440Y-107211880D03*
X120097440Y-106411880D03*
X120097440Y-105611880D03*
X120097440Y-104811880D03*
X120097440Y-104011880D03*
X120097440Y-103211880D03*
X120097440Y-102411880D03*
D17*
X122297440Y-101011880D03*
X123097440Y-101011880D03*
X123897440Y-101011880D03*
X124697440Y-101011880D03*
X125497440Y-101011880D03*
X126297440Y-101011880D03*
X127097440Y-101011880D03*
D18*
X128497440Y-102411880D03*
X128497440Y-103211880D03*
X128497440Y-104011880D03*
X128497440Y-104811880D03*
X128497440Y-105611880D03*
X128497440Y-106411880D03*
X128497440Y-107211880D03*
X128497440Y-108011880D03*
D17*
X127097440Y-109411880D03*
X126297440Y-109411880D03*
X125497440Y-109411880D03*
X124697440Y-109411880D03*
X123897440Y-109411880D03*
X123097440Y-109411880D03*
X122297440Y-109411880D03*
X121497440Y-109411880D03*
%TD*%
D19*
%TO.C,VR1*%
X108925000Y-96357440D03*
X108925000Y-95407440D03*
X108925000Y-94457440D03*
X111125000Y-94457440D03*
X111125000Y-96357440D03*
%TD*%
M02*
