%TF.GenerationSoftware,KiCad,Pcbnew,5.1.10-88a1d61d58~88~ubuntu20.04.1*%
%TF.CreationDate,2021-05-29T11:29:45-04:00*%
%TF.ProjectId,avBadge_2021,61764261-6467-4655-9f32-3032312e6b69,rev?*%
%TF.SameCoordinates,Original*%
%TF.FileFunction,Legend,Bot*%
%TF.FilePolarity,Positive*%
%FSLAX46Y46*%
G04 Gerber Fmt 4.6, Leading zero omitted, Abs format (unit mm)*
G04 Created by KiCad (PCBNEW 5.1.10-88a1d61d58~88~ubuntu20.04.1) date 2021-05-29 11:29:45*
%MOMM*%
%LPD*%
G01*
G04 APERTURE LIST*
%ADD10C,0.150000*%
%ADD11C,0.300000*%
%ADD12C,0.100000*%
%ADD13C,0.120000*%
%ADD14C,0.400000*%
G04 APERTURE END LIST*
D10*
X193390019Y-139765066D02*
X192913828Y-139765066D01*
X193485257Y-140050780D02*
X193151923Y-139050780D01*
X192818590Y-140050780D01*
X192485257Y-140050780D02*
X192485257Y-139384114D01*
X192485257Y-139574590D02*
X192437638Y-139479352D01*
X192390019Y-139431733D01*
X192294780Y-139384114D01*
X192199542Y-139384114D01*
X192009066Y-139384114D02*
X191628114Y-139384114D01*
X191866209Y-139050780D02*
X191866209Y-139907923D01*
X191818590Y-140003161D01*
X191723352Y-140050780D01*
X191628114Y-140050780D01*
X190675733Y-139384114D02*
X190294780Y-139384114D01*
X190532876Y-140050780D02*
X190532876Y-139193638D01*
X190485257Y-139098400D01*
X190390019Y-139050780D01*
X190294780Y-139050780D01*
X189818590Y-140050780D02*
X189913828Y-140003161D01*
X189961447Y-139907923D01*
X189961447Y-139050780D01*
X189532876Y-139384114D02*
X189294780Y-140050780D01*
X189056685Y-139384114D02*
X189294780Y-140050780D01*
X189390019Y-140288876D01*
X189437638Y-140336495D01*
X189532876Y-140384114D01*
X188723352Y-140003161D02*
X188628114Y-140050780D01*
X188437638Y-140050780D01*
X188342400Y-140003161D01*
X188294780Y-139907923D01*
X188294780Y-139860304D01*
X188342400Y-139765066D01*
X188437638Y-139717447D01*
X188580495Y-139717447D01*
X188675733Y-139669828D01*
X188723352Y-139574590D01*
X188723352Y-139526971D01*
X188675733Y-139431733D01*
X188580495Y-139384114D01*
X188437638Y-139384114D01*
X188342400Y-139431733D01*
X187437638Y-139384114D02*
X187437638Y-140050780D01*
X187866209Y-139384114D02*
X187866209Y-139907923D01*
X187818590Y-140003161D01*
X187723352Y-140050780D01*
X187580495Y-140050780D01*
X187485257Y-140003161D01*
X187437638Y-139955542D01*
X186961447Y-140050780D02*
X186961447Y-139384114D01*
X186961447Y-139574590D02*
X186913828Y-139479352D01*
X186866209Y-139431733D01*
X186770971Y-139384114D01*
X186675733Y-139384114D01*
X186342400Y-140050780D02*
X186342400Y-139384114D01*
X186342400Y-139574590D02*
X186294780Y-139479352D01*
X186247161Y-139431733D01*
X186151923Y-139384114D01*
X186056685Y-139384114D01*
X185342400Y-140003161D02*
X185437638Y-140050780D01*
X185628114Y-140050780D01*
X185723352Y-140003161D01*
X185770971Y-139907923D01*
X185770971Y-139526971D01*
X185723352Y-139431733D01*
X185628114Y-139384114D01*
X185437638Y-139384114D01*
X185342400Y-139431733D01*
X185294780Y-139526971D01*
X185294780Y-139622209D01*
X185770971Y-139717447D01*
X184437638Y-140050780D02*
X184437638Y-139526971D01*
X184485257Y-139431733D01*
X184580495Y-139384114D01*
X184770971Y-139384114D01*
X184866209Y-139431733D01*
X184437638Y-140003161D02*
X184532876Y-140050780D01*
X184770971Y-140050780D01*
X184866209Y-140003161D01*
X184913828Y-139907923D01*
X184913828Y-139812685D01*
X184866209Y-139717447D01*
X184770971Y-139669828D01*
X184532876Y-139669828D01*
X184437638Y-139622209D01*
X183818590Y-140050780D02*
X183913828Y-140003161D01*
X183961447Y-139907923D01*
X183961447Y-139050780D01*
X183437638Y-139955542D02*
X183390019Y-140003161D01*
X183437638Y-140050780D01*
X183485257Y-140003161D01*
X183437638Y-139955542D01*
X183437638Y-140050780D01*
X182532876Y-140003161D02*
X182628114Y-140050780D01*
X182818590Y-140050780D01*
X182913828Y-140003161D01*
X182961447Y-139955542D01*
X183009066Y-139860304D01*
X183009066Y-139574590D01*
X182961447Y-139479352D01*
X182913828Y-139431733D01*
X182818590Y-139384114D01*
X182628114Y-139384114D01*
X182532876Y-139431733D01*
X181961447Y-140050780D02*
X182056685Y-140003161D01*
X182104304Y-139955542D01*
X182151923Y-139860304D01*
X182151923Y-139574590D01*
X182104304Y-139479352D01*
X182056685Y-139431733D01*
X181961447Y-139384114D01*
X181818590Y-139384114D01*
X181723352Y-139431733D01*
X181675733Y-139479352D01*
X181628114Y-139574590D01*
X181628114Y-139860304D01*
X181675733Y-139955542D01*
X181723352Y-140003161D01*
X181818590Y-140050780D01*
X181961447Y-140050780D01*
X181199542Y-140050780D02*
X181199542Y-139384114D01*
X181199542Y-139479352D02*
X181151923Y-139431733D01*
X181056685Y-139384114D01*
X180913828Y-139384114D01*
X180818590Y-139431733D01*
X180770971Y-139526971D01*
X180770971Y-140050780D01*
X180770971Y-139526971D02*
X180723352Y-139431733D01*
X180628114Y-139384114D01*
X180485257Y-139384114D01*
X180390019Y-139431733D01*
X180342400Y-139526971D01*
X180342400Y-140050780D01*
D11*
X138759862Y-76621805D02*
X139045577Y-76764662D01*
X139617005Y-76764662D01*
X139902720Y-76621805D01*
X140045577Y-76478948D01*
X140188434Y-76193234D01*
X140188434Y-75336091D01*
X140045577Y-75050377D01*
X139902720Y-74907520D01*
X139617005Y-74764662D01*
X139045577Y-74764662D01*
X138759862Y-74907520D01*
X136188434Y-76764662D02*
X136188434Y-75193234D01*
X136331291Y-74907520D01*
X136617005Y-74764662D01*
X137188434Y-74764662D01*
X137474148Y-74907520D01*
X136188434Y-76621805D02*
X136474148Y-76764662D01*
X137188434Y-76764662D01*
X137474148Y-76621805D01*
X137617005Y-76336091D01*
X137617005Y-76050377D01*
X137474148Y-75764662D01*
X137188434Y-75621805D01*
X136474148Y-75621805D01*
X136188434Y-75478948D01*
X134759862Y-74764662D02*
X134759862Y-77764662D01*
X134759862Y-74907520D02*
X134474148Y-74764662D01*
X133902720Y-74764662D01*
X133617005Y-74907520D01*
X133474148Y-75050377D01*
X133331291Y-75336091D01*
X133331291Y-76193234D01*
X133474148Y-76478948D01*
X133617005Y-76621805D01*
X133902720Y-76764662D01*
X134474148Y-76764662D01*
X134759862Y-76621805D01*
X132474148Y-74764662D02*
X131331291Y-74764662D01*
X132045577Y-73764662D02*
X132045577Y-76336091D01*
X131902720Y-76621805D01*
X131617005Y-76764662D01*
X131331291Y-76764662D01*
X129188434Y-76621805D02*
X129474148Y-76764662D01*
X130045577Y-76764662D01*
X130331291Y-76621805D01*
X130474148Y-76336091D01*
X130474148Y-75193234D01*
X130331291Y-74907520D01*
X130045577Y-74764662D01*
X129474148Y-74764662D01*
X129188434Y-74907520D01*
X129045577Y-75193234D01*
X129045577Y-75478948D01*
X130474148Y-75764662D01*
X126474148Y-76621805D02*
X126759862Y-76764662D01*
X127331291Y-76764662D01*
X127617005Y-76621805D01*
X127759862Y-76478948D01*
X127902720Y-76193234D01*
X127902720Y-75336091D01*
X127759862Y-75050377D01*
X127617005Y-74907520D01*
X127331291Y-74764662D01*
X126759862Y-74764662D01*
X126474148Y-74907520D01*
X125188434Y-76764662D02*
X125188434Y-73764662D01*
X123902720Y-76764662D02*
X123902720Y-75193234D01*
X124045577Y-74907520D01*
X124331291Y-74764662D01*
X124759862Y-74764662D01*
X125045577Y-74907520D01*
X125188434Y-75050377D01*
X121188434Y-74764662D02*
X121188434Y-76764662D01*
X122474148Y-74764662D02*
X122474148Y-76336091D01*
X122331291Y-76621805D01*
X122045577Y-76764662D01*
X121617005Y-76764662D01*
X121331291Y-76621805D01*
X121188434Y-76478948D01*
X119759862Y-76478948D02*
X119617005Y-76621805D01*
X119759862Y-76764662D01*
X119902720Y-76621805D01*
X119759862Y-76478948D01*
X119759862Y-76764662D01*
X117188434Y-76621805D02*
X117474148Y-76764662D01*
X118045577Y-76764662D01*
X118331291Y-76621805D01*
X118474148Y-76336091D01*
X118474148Y-75193234D01*
X118331291Y-74907520D01*
X118045577Y-74764662D01*
X117474148Y-74764662D01*
X117188434Y-74907520D01*
X117045577Y-75193234D01*
X117045577Y-75478948D01*
X118474148Y-75764662D01*
X114474148Y-76764662D02*
X114474148Y-73764662D01*
X114474148Y-76621805D02*
X114759862Y-76764662D01*
X115331291Y-76764662D01*
X115617005Y-76621805D01*
X115759862Y-76478948D01*
X115902720Y-76193234D01*
X115902720Y-75336091D01*
X115759862Y-75050377D01*
X115617005Y-74907520D01*
X115331291Y-74764662D01*
X114759862Y-74764662D01*
X114474148Y-74907520D01*
X111759862Y-74764662D02*
X111759862Y-76764662D01*
X113045577Y-74764662D02*
X113045577Y-76336091D01*
X112902720Y-76621805D01*
X112617005Y-76764662D01*
X112188434Y-76764662D01*
X111902720Y-76621805D01*
X111759862Y-76478948D01*
D10*
X95741992Y-84079530D02*
X95034885Y-83372423D01*
X95405275Y-84348904D02*
X95337931Y-84483591D01*
X95169572Y-84651950D01*
X95068557Y-84685622D01*
X95001214Y-84685622D01*
X94900198Y-84651950D01*
X94832855Y-84584607D01*
X94799183Y-84483591D01*
X94799183Y-84416248D01*
X94832855Y-84315232D01*
X94933870Y-84146874D01*
X94967542Y-84045858D01*
X94967542Y-83978515D01*
X94933870Y-83877500D01*
X94866527Y-83810156D01*
X94765511Y-83776484D01*
X94698168Y-83776484D01*
X94597152Y-83810156D01*
X94428794Y-83978515D01*
X94361450Y-84113202D01*
X94731840Y-85089683D02*
X94024733Y-84382576D01*
X93755359Y-84651950D01*
X93721687Y-84752965D01*
X93721687Y-84820309D01*
X93755359Y-84921324D01*
X93856374Y-85022339D01*
X93957389Y-85056011D01*
X94024733Y-85056011D01*
X94125748Y-85022339D01*
X94395122Y-84752965D01*
X137958887Y-138822180D02*
X137958887Y-139536466D01*
X138006506Y-139679323D01*
X138101744Y-139774561D01*
X138244601Y-139822180D01*
X138339840Y-139822180D01*
X137006506Y-139822180D02*
X137482697Y-139822180D01*
X137482697Y-138822180D01*
X136101744Y-139726942D02*
X136149363Y-139774561D01*
X136292220Y-139822180D01*
X136387459Y-139822180D01*
X136530316Y-139774561D01*
X136625554Y-139679323D01*
X136673173Y-139584085D01*
X136720792Y-139393609D01*
X136720792Y-139250752D01*
X136673173Y-139060276D01*
X136625554Y-138965038D01*
X136530316Y-138869800D01*
X136387459Y-138822180D01*
X136292220Y-138822180D01*
X136149363Y-138869800D01*
X136101744Y-138917419D01*
X135387459Y-138822180D02*
X135387459Y-139536466D01*
X135435078Y-139679323D01*
X135530316Y-139774561D01*
X135673173Y-139822180D01*
X135768411Y-139822180D01*
X134435078Y-139822180D02*
X134911268Y-139822180D01*
X134911268Y-138822180D01*
X133530316Y-139726942D02*
X133577935Y-139774561D01*
X133720792Y-139822180D01*
X133816030Y-139822180D01*
X133958887Y-139774561D01*
X134054125Y-139679323D01*
X134101744Y-139584085D01*
X134149363Y-139393609D01*
X134149363Y-139250752D01*
X134101744Y-139060276D01*
X134054125Y-138965038D01*
X133958887Y-138869800D01*
X133816030Y-138822180D01*
X133720792Y-138822180D01*
X133577935Y-138869800D01*
X133530316Y-138917419D01*
X132816030Y-138822180D02*
X132816030Y-139536466D01*
X132863649Y-139679323D01*
X132958887Y-139774561D01*
X133101744Y-139822180D01*
X133196982Y-139822180D01*
X131863649Y-139822180D02*
X132339840Y-139822180D01*
X132339840Y-138822180D01*
X130958887Y-139726942D02*
X131006506Y-139774561D01*
X131149363Y-139822180D01*
X131244601Y-139822180D01*
X131387459Y-139774561D01*
X131482697Y-139679323D01*
X131530316Y-139584085D01*
X131577935Y-139393609D01*
X131577935Y-139250752D01*
X131530316Y-139060276D01*
X131482697Y-138965038D01*
X131387459Y-138869800D01*
X131244601Y-138822180D01*
X131149363Y-138822180D01*
X131006506Y-138869800D01*
X130958887Y-138917419D01*
X130244601Y-138822180D02*
X130244601Y-139536466D01*
X130292220Y-139679323D01*
X130387459Y-139774561D01*
X130530316Y-139822180D01*
X130625554Y-139822180D01*
X129292220Y-139822180D02*
X129768411Y-139822180D01*
X129768411Y-138822180D01*
X128387459Y-139726942D02*
X128435078Y-139774561D01*
X128577935Y-139822180D01*
X128673173Y-139822180D01*
X128816030Y-139774561D01*
X128911268Y-139679323D01*
X128958887Y-139584085D01*
X129006506Y-139393609D01*
X129006506Y-139250752D01*
X128958887Y-139060276D01*
X128911268Y-138965038D01*
X128816030Y-138869800D01*
X128673173Y-138822180D01*
X128577935Y-138822180D01*
X128435078Y-138869800D01*
X128387459Y-138917419D01*
X196128324Y-137759700D02*
X196128324Y-136759700D01*
X195890229Y-136759700D01*
X195747372Y-136807320D01*
X195652134Y-136902558D01*
X195604515Y-136997796D01*
X195556896Y-137188272D01*
X195556896Y-137331129D01*
X195604515Y-137521605D01*
X195652134Y-137616843D01*
X195747372Y-137712081D01*
X195890229Y-137759700D01*
X196128324Y-137759700D01*
X194747372Y-137712081D02*
X194842610Y-137759700D01*
X195033086Y-137759700D01*
X195128324Y-137712081D01*
X195175943Y-137616843D01*
X195175943Y-137235891D01*
X195128324Y-137140653D01*
X195033086Y-137093034D01*
X194842610Y-137093034D01*
X194747372Y-137140653D01*
X194699753Y-137235891D01*
X194699753Y-137331129D01*
X195175943Y-137426367D01*
X194318800Y-137712081D02*
X194223562Y-137759700D01*
X194033086Y-137759700D01*
X193937848Y-137712081D01*
X193890229Y-137616843D01*
X193890229Y-137569224D01*
X193937848Y-137473986D01*
X194033086Y-137426367D01*
X194175943Y-137426367D01*
X194271181Y-137378748D01*
X194318800Y-137283510D01*
X194318800Y-137235891D01*
X194271181Y-137140653D01*
X194175943Y-137093034D01*
X194033086Y-137093034D01*
X193937848Y-137140653D01*
X193461658Y-137759700D02*
X193461658Y-137093034D01*
X193461658Y-136759700D02*
X193509277Y-136807320D01*
X193461658Y-136854939D01*
X193414039Y-136807320D01*
X193461658Y-136759700D01*
X193461658Y-136854939D01*
X192556896Y-137093034D02*
X192556896Y-137902558D01*
X192604515Y-137997796D01*
X192652134Y-138045415D01*
X192747372Y-138093034D01*
X192890229Y-138093034D01*
X192985467Y-138045415D01*
X192556896Y-137712081D02*
X192652134Y-137759700D01*
X192842610Y-137759700D01*
X192937848Y-137712081D01*
X192985467Y-137664462D01*
X193033086Y-137569224D01*
X193033086Y-137283510D01*
X192985467Y-137188272D01*
X192937848Y-137140653D01*
X192842610Y-137093034D01*
X192652134Y-137093034D01*
X192556896Y-137140653D01*
X192080705Y-137093034D02*
X192080705Y-137759700D01*
X192080705Y-137188272D02*
X192033086Y-137140653D01*
X191937848Y-137093034D01*
X191794991Y-137093034D01*
X191699753Y-137140653D01*
X191652134Y-137235891D01*
X191652134Y-137759700D01*
X190794991Y-137712081D02*
X190890229Y-137759700D01*
X191080705Y-137759700D01*
X191175943Y-137712081D01*
X191223562Y-137616843D01*
X191223562Y-137235891D01*
X191175943Y-137140653D01*
X191080705Y-137093034D01*
X190890229Y-137093034D01*
X190794991Y-137140653D01*
X190747372Y-137235891D01*
X190747372Y-137331129D01*
X191223562Y-137426367D01*
X189890229Y-137759700D02*
X189890229Y-136759700D01*
X189890229Y-137712081D02*
X189985467Y-137759700D01*
X190175943Y-137759700D01*
X190271181Y-137712081D01*
X190318800Y-137664462D01*
X190366420Y-137569224D01*
X190366420Y-137283510D01*
X190318800Y-137188272D01*
X190271181Y-137140653D01*
X190175943Y-137093034D01*
X189985467Y-137093034D01*
X189890229Y-137140653D01*
X188033086Y-137283510D02*
X188080705Y-137235891D01*
X188175943Y-137188272D01*
X188271181Y-137188272D01*
X188366420Y-137235891D01*
X188414039Y-137283510D01*
X188461658Y-137378748D01*
X188461658Y-137473986D01*
X188414039Y-137569224D01*
X188366420Y-137616843D01*
X188271181Y-137664462D01*
X188175943Y-137664462D01*
X188080705Y-137616843D01*
X188033086Y-137569224D01*
X188033086Y-137188272D02*
X188033086Y-137569224D01*
X187985467Y-137616843D01*
X187937848Y-137616843D01*
X187842610Y-137569224D01*
X187794991Y-137473986D01*
X187794991Y-137235891D01*
X187890229Y-137093034D01*
X188033086Y-136997796D01*
X188223562Y-136950177D01*
X188414039Y-136997796D01*
X188556896Y-137093034D01*
X188652134Y-137235891D01*
X188699753Y-137426367D01*
X188652134Y-137616843D01*
X188556896Y-137759700D01*
X188414039Y-137854939D01*
X188223562Y-137902558D01*
X188033086Y-137854939D01*
X187890229Y-137759700D01*
X186937848Y-137712081D02*
X187033086Y-137759700D01*
X187223562Y-137759700D01*
X187318800Y-137712081D01*
X187366420Y-137664462D01*
X187414039Y-137569224D01*
X187414039Y-137283510D01*
X187366420Y-137188272D01*
X187318800Y-137140653D01*
X187223562Y-137093034D01*
X187033086Y-137093034D01*
X186937848Y-137140653D01*
X186604515Y-137093034D02*
X186366420Y-137759700D01*
X186128324Y-137093034D02*
X186366420Y-137759700D01*
X186461658Y-137997796D01*
X186509277Y-138045415D01*
X186604515Y-138093034D01*
X185747372Y-137759700D02*
X185747372Y-136759700D01*
X185747372Y-137140653D02*
X185652134Y-137093034D01*
X185461658Y-137093034D01*
X185366420Y-137140653D01*
X185318800Y-137188272D01*
X185271181Y-137283510D01*
X185271181Y-137569224D01*
X185318800Y-137664462D01*
X185366420Y-137712081D01*
X185461658Y-137759700D01*
X185652134Y-137759700D01*
X185747372Y-137712081D01*
X184461658Y-137712081D02*
X184556896Y-137759700D01*
X184747372Y-137759700D01*
X184842610Y-137712081D01*
X184890229Y-137616843D01*
X184890229Y-137235891D01*
X184842610Y-137140653D01*
X184747372Y-137093034D01*
X184556896Y-137093034D01*
X184461658Y-137140653D01*
X184414039Y-137235891D01*
X184414039Y-137331129D01*
X184890229Y-137426367D01*
X183985467Y-137759700D02*
X183985467Y-137093034D01*
X183985467Y-137283510D02*
X183937848Y-137188272D01*
X183890229Y-137140653D01*
X183794991Y-137093034D01*
X183699753Y-137093034D01*
X183509277Y-137093034D02*
X183128324Y-137093034D01*
X183366420Y-136759700D02*
X183366420Y-137616843D01*
X183318800Y-137712081D01*
X183223562Y-137759700D01*
X183128324Y-137759700D01*
X182414039Y-137712081D02*
X182509277Y-137759700D01*
X182699753Y-137759700D01*
X182794991Y-137712081D01*
X182842610Y-137616843D01*
X182842610Y-137235891D01*
X182794991Y-137140653D01*
X182699753Y-137093034D01*
X182509277Y-137093034D01*
X182414039Y-137140653D01*
X182366420Y-137235891D01*
X182366420Y-137331129D01*
X182842610Y-137426367D01*
X181985467Y-137712081D02*
X181890229Y-137759700D01*
X181699753Y-137759700D01*
X181604515Y-137712081D01*
X181556896Y-137616843D01*
X181556896Y-137569224D01*
X181604515Y-137473986D01*
X181699753Y-137426367D01*
X181842610Y-137426367D01*
X181937848Y-137378748D01*
X181985467Y-137283510D01*
X181985467Y-137235891D01*
X181937848Y-137140653D01*
X181842610Y-137093034D01*
X181699753Y-137093034D01*
X181604515Y-137140653D01*
X181271181Y-137093034D02*
X180890229Y-137093034D01*
X181128324Y-136759700D02*
X181128324Y-137616843D01*
X181080705Y-137712081D01*
X180985467Y-137759700D01*
X180890229Y-137759700D01*
X180556896Y-137093034D02*
X180556896Y-138093034D01*
X180556896Y-137140653D02*
X180461658Y-137093034D01*
X180271181Y-137093034D01*
X180175943Y-137140653D01*
X180128324Y-137188272D01*
X180080705Y-137283510D01*
X180080705Y-137569224D01*
X180128324Y-137664462D01*
X180175943Y-137712081D01*
X180271181Y-137759700D01*
X180461658Y-137759700D01*
X180556896Y-137712081D01*
X179652134Y-137759700D02*
X179652134Y-137093034D01*
X179652134Y-136759700D02*
X179699753Y-136807320D01*
X179652134Y-136854939D01*
X179604515Y-136807320D01*
X179652134Y-136759700D01*
X179652134Y-136854939D01*
X179033086Y-137759700D02*
X179128324Y-137712081D01*
X179175943Y-137616843D01*
X179175943Y-136759700D01*
X178509277Y-137759700D02*
X178604515Y-137712081D01*
X178652134Y-137664462D01*
X178699753Y-137569224D01*
X178699753Y-137283510D01*
X178652134Y-137188272D01*
X178604515Y-137140653D01*
X178509277Y-137093034D01*
X178366420Y-137093034D01*
X178271181Y-137140653D01*
X178223562Y-137188272D01*
X178175943Y-137283510D01*
X178175943Y-137569224D01*
X178223562Y-137664462D01*
X178271181Y-137712081D01*
X178366420Y-137759700D01*
X178509277Y-137759700D01*
X177890229Y-137093034D02*
X177509277Y-137093034D01*
X177747372Y-136759700D02*
X177747372Y-137616843D01*
X177699753Y-137712081D01*
X177604515Y-137759700D01*
X177509277Y-137759700D01*
D12*
%TO.C,QR\u002A\u002A\u002A\u002A\u002A*%
G36*
X110265480Y-132023120D02*
G01*
X109765480Y-132023120D01*
X109765480Y-131523120D01*
X110265480Y-131523120D01*
X110265480Y-132023120D01*
G37*
G36*
X110265480Y-131023120D02*
G01*
X109765480Y-131023120D01*
X109765480Y-130523120D01*
X110265480Y-130523120D01*
X110265480Y-131023120D01*
G37*
G36*
X110265480Y-130523120D02*
G01*
X109765480Y-130523120D01*
X109765480Y-130023120D01*
X110265480Y-130023120D01*
X110265480Y-130523120D01*
G37*
G36*
X110265480Y-128523120D02*
G01*
X109765480Y-128523120D01*
X109765480Y-128023120D01*
X110265480Y-128023120D01*
X110265480Y-128523120D01*
G37*
G36*
X110265480Y-127523120D02*
G01*
X109765480Y-127523120D01*
X109765480Y-127023120D01*
X110265480Y-127023120D01*
X110265480Y-127523120D01*
G37*
G36*
X110265480Y-127023120D02*
G01*
X109765480Y-127023120D01*
X109765480Y-126523120D01*
X110265480Y-126523120D01*
X110265480Y-127023120D01*
G37*
G36*
X110265480Y-126523120D02*
G01*
X109765480Y-126523120D01*
X109765480Y-126023120D01*
X110265480Y-126023120D01*
X110265480Y-126523120D01*
G37*
G36*
X110265480Y-126023120D02*
G01*
X109765480Y-126023120D01*
X109765480Y-125523120D01*
X110265480Y-125523120D01*
X110265480Y-126023120D01*
G37*
G36*
X110265480Y-123523120D02*
G01*
X109765480Y-123523120D01*
X109765480Y-123023120D01*
X110265480Y-123023120D01*
X110265480Y-123523120D01*
G37*
G36*
X110265480Y-122023120D02*
G01*
X109765480Y-122023120D01*
X109765480Y-121523120D01*
X110265480Y-121523120D01*
X110265480Y-122023120D01*
G37*
G36*
X110265480Y-120523120D02*
G01*
X109765480Y-120523120D01*
X109765480Y-120023120D01*
X110265480Y-120023120D01*
X110265480Y-120523120D01*
G37*
G36*
X110265480Y-120023120D02*
G01*
X109765480Y-120023120D01*
X109765480Y-119523120D01*
X110265480Y-119523120D01*
X110265480Y-120023120D01*
G37*
G36*
X110265480Y-119023120D02*
G01*
X109765480Y-119023120D01*
X109765480Y-118523120D01*
X110265480Y-118523120D01*
X110265480Y-119023120D01*
G37*
G36*
X110265480Y-118523120D02*
G01*
X109765480Y-118523120D01*
X109765480Y-118023120D01*
X110265480Y-118023120D01*
X110265480Y-118523120D01*
G37*
G36*
X110265480Y-118023120D02*
G01*
X109765480Y-118023120D01*
X109765480Y-117523120D01*
X110265480Y-117523120D01*
X110265480Y-118023120D01*
G37*
G36*
X110265480Y-117523120D02*
G01*
X109765480Y-117523120D01*
X109765480Y-117023120D01*
X110265480Y-117023120D01*
X110265480Y-117523120D01*
G37*
G36*
X110265480Y-117023120D02*
G01*
X109765480Y-117023120D01*
X109765480Y-116523120D01*
X110265480Y-116523120D01*
X110265480Y-117023120D01*
G37*
G36*
X110265480Y-116523120D02*
G01*
X109765480Y-116523120D01*
X109765480Y-116023120D01*
X110265480Y-116023120D01*
X110265480Y-116523120D01*
G37*
G36*
X110265480Y-116023120D02*
G01*
X109765480Y-116023120D01*
X109765480Y-115523120D01*
X110265480Y-115523120D01*
X110265480Y-116023120D01*
G37*
G36*
X109765480Y-130523120D02*
G01*
X109265480Y-130523120D01*
X109265480Y-130023120D01*
X109765480Y-130023120D01*
X109765480Y-130523120D01*
G37*
G36*
X109765480Y-129023120D02*
G01*
X109265480Y-129023120D01*
X109265480Y-128523120D01*
X109765480Y-128523120D01*
X109765480Y-129023120D01*
G37*
G36*
X109765480Y-128523120D02*
G01*
X109265480Y-128523120D01*
X109265480Y-128023120D01*
X109765480Y-128023120D01*
X109765480Y-128523120D01*
G37*
G36*
X109765480Y-127523120D02*
G01*
X109265480Y-127523120D01*
X109265480Y-127023120D01*
X109765480Y-127023120D01*
X109765480Y-127523120D01*
G37*
G36*
X109765480Y-127023120D02*
G01*
X109265480Y-127023120D01*
X109265480Y-126523120D01*
X109765480Y-126523120D01*
X109765480Y-127023120D01*
G37*
G36*
X109765480Y-126523120D02*
G01*
X109265480Y-126523120D01*
X109265480Y-126023120D01*
X109765480Y-126023120D01*
X109765480Y-126523120D01*
G37*
G36*
X109765480Y-126023120D02*
G01*
X109265480Y-126023120D01*
X109265480Y-125523120D01*
X109765480Y-125523120D01*
X109765480Y-126023120D01*
G37*
G36*
X109765480Y-125523120D02*
G01*
X109265480Y-125523120D01*
X109265480Y-125023120D01*
X109765480Y-125023120D01*
X109765480Y-125523120D01*
G37*
G36*
X109765480Y-123023120D02*
G01*
X109265480Y-123023120D01*
X109265480Y-122523120D01*
X109765480Y-122523120D01*
X109765480Y-123023120D01*
G37*
G36*
X109765480Y-119023120D02*
G01*
X109265480Y-119023120D01*
X109265480Y-118523120D01*
X109765480Y-118523120D01*
X109765480Y-119023120D01*
G37*
G36*
X109765480Y-116023120D02*
G01*
X109265480Y-116023120D01*
X109265480Y-115523120D01*
X109765480Y-115523120D01*
X109765480Y-116023120D01*
G37*
G36*
X109265480Y-130023120D02*
G01*
X108765480Y-130023120D01*
X108765480Y-129523120D01*
X109265480Y-129523120D01*
X109265480Y-130023120D01*
G37*
G36*
X109265480Y-129523120D02*
G01*
X108765480Y-129523120D01*
X108765480Y-129023120D01*
X109265480Y-129023120D01*
X109265480Y-129523120D01*
G37*
G36*
X109265480Y-129023120D02*
G01*
X108765480Y-129023120D01*
X108765480Y-128523120D01*
X109265480Y-128523120D01*
X109265480Y-129023120D01*
G37*
G36*
X109265480Y-128023120D02*
G01*
X108765480Y-128023120D01*
X108765480Y-127523120D01*
X109265480Y-127523120D01*
X109265480Y-128023120D01*
G37*
G36*
X109265480Y-127523120D02*
G01*
X108765480Y-127523120D01*
X108765480Y-127023120D01*
X109265480Y-127023120D01*
X109265480Y-127523120D01*
G37*
G36*
X109265480Y-127023120D02*
G01*
X108765480Y-127023120D01*
X108765480Y-126523120D01*
X109265480Y-126523120D01*
X109265480Y-127023120D01*
G37*
G36*
X109265480Y-125523120D02*
G01*
X108765480Y-125523120D01*
X108765480Y-125023120D01*
X109265480Y-125023120D01*
X109265480Y-125523120D01*
G37*
G36*
X109265480Y-125023120D02*
G01*
X108765480Y-125023120D01*
X108765480Y-124523120D01*
X109265480Y-124523120D01*
X109265480Y-125023120D01*
G37*
G36*
X109265480Y-124023120D02*
G01*
X108765480Y-124023120D01*
X108765480Y-123523120D01*
X109265480Y-123523120D01*
X109265480Y-124023120D01*
G37*
G36*
X109265480Y-122523120D02*
G01*
X108765480Y-122523120D01*
X108765480Y-122023120D01*
X109265480Y-122023120D01*
X109265480Y-122523120D01*
G37*
G36*
X109265480Y-122023120D02*
G01*
X108765480Y-122023120D01*
X108765480Y-121523120D01*
X109265480Y-121523120D01*
X109265480Y-122023120D01*
G37*
G36*
X109265480Y-121523120D02*
G01*
X108765480Y-121523120D01*
X108765480Y-121023120D01*
X109265480Y-121023120D01*
X109265480Y-121523120D01*
G37*
G36*
X109265480Y-121023120D02*
G01*
X108765480Y-121023120D01*
X108765480Y-120523120D01*
X109265480Y-120523120D01*
X109265480Y-121023120D01*
G37*
G36*
X109265480Y-120523120D02*
G01*
X108765480Y-120523120D01*
X108765480Y-120023120D01*
X109265480Y-120023120D01*
X109265480Y-120523120D01*
G37*
G36*
X109265480Y-119023120D02*
G01*
X108765480Y-119023120D01*
X108765480Y-118523120D01*
X109265480Y-118523120D01*
X109265480Y-119023120D01*
G37*
G36*
X109265480Y-118023120D02*
G01*
X108765480Y-118023120D01*
X108765480Y-117523120D01*
X109265480Y-117523120D01*
X109265480Y-118023120D01*
G37*
G36*
X109265480Y-117523120D02*
G01*
X108765480Y-117523120D01*
X108765480Y-117023120D01*
X109265480Y-117023120D01*
X109265480Y-117523120D01*
G37*
G36*
X109265480Y-117023120D02*
G01*
X108765480Y-117023120D01*
X108765480Y-116523120D01*
X109265480Y-116523120D01*
X109265480Y-117023120D01*
G37*
G36*
X109265480Y-116023120D02*
G01*
X108765480Y-116023120D01*
X108765480Y-115523120D01*
X109265480Y-115523120D01*
X109265480Y-116023120D01*
G37*
G36*
X108765480Y-132023120D02*
G01*
X108265480Y-132023120D01*
X108265480Y-131523120D01*
X108765480Y-131523120D01*
X108765480Y-132023120D01*
G37*
G36*
X108765480Y-131023120D02*
G01*
X108265480Y-131023120D01*
X108265480Y-130523120D01*
X108765480Y-130523120D01*
X108765480Y-131023120D01*
G37*
G36*
X108765480Y-130023120D02*
G01*
X108265480Y-130023120D01*
X108265480Y-129523120D01*
X108765480Y-129523120D01*
X108765480Y-130023120D01*
G37*
G36*
X108765480Y-129523120D02*
G01*
X108265480Y-129523120D01*
X108265480Y-129023120D01*
X108765480Y-129023120D01*
X108765480Y-129523120D01*
G37*
G36*
X108765480Y-129023120D02*
G01*
X108265480Y-129023120D01*
X108265480Y-128523120D01*
X108765480Y-128523120D01*
X108765480Y-129023120D01*
G37*
G36*
X108765480Y-128023120D02*
G01*
X108265480Y-128023120D01*
X108265480Y-127523120D01*
X108765480Y-127523120D01*
X108765480Y-128023120D01*
G37*
G36*
X108765480Y-127523120D02*
G01*
X108265480Y-127523120D01*
X108265480Y-127023120D01*
X108765480Y-127023120D01*
X108765480Y-127523120D01*
G37*
G36*
X108765480Y-127023120D02*
G01*
X108265480Y-127023120D01*
X108265480Y-126523120D01*
X108765480Y-126523120D01*
X108765480Y-127023120D01*
G37*
G36*
X108765480Y-125523120D02*
G01*
X108265480Y-125523120D01*
X108265480Y-125023120D01*
X108765480Y-125023120D01*
X108765480Y-125523120D01*
G37*
G36*
X108765480Y-124523120D02*
G01*
X108265480Y-124523120D01*
X108265480Y-124023120D01*
X108765480Y-124023120D01*
X108765480Y-124523120D01*
G37*
G36*
X108765480Y-124023120D02*
G01*
X108265480Y-124023120D01*
X108265480Y-123523120D01*
X108765480Y-123523120D01*
X108765480Y-124023120D01*
G37*
G36*
X108765480Y-122523120D02*
G01*
X108265480Y-122523120D01*
X108265480Y-122023120D01*
X108765480Y-122023120D01*
X108765480Y-122523120D01*
G37*
G36*
X108765480Y-121523120D02*
G01*
X108265480Y-121523120D01*
X108265480Y-121023120D01*
X108765480Y-121023120D01*
X108765480Y-121523120D01*
G37*
G36*
X108765480Y-119023120D02*
G01*
X108265480Y-119023120D01*
X108265480Y-118523120D01*
X108765480Y-118523120D01*
X108765480Y-119023120D01*
G37*
G36*
X108765480Y-118023120D02*
G01*
X108265480Y-118023120D01*
X108265480Y-117523120D01*
X108765480Y-117523120D01*
X108765480Y-118023120D01*
G37*
G36*
X108765480Y-117523120D02*
G01*
X108265480Y-117523120D01*
X108265480Y-117023120D01*
X108765480Y-117023120D01*
X108765480Y-117523120D01*
G37*
G36*
X108765480Y-117023120D02*
G01*
X108265480Y-117023120D01*
X108265480Y-116523120D01*
X108765480Y-116523120D01*
X108765480Y-117023120D01*
G37*
G36*
X108765480Y-116023120D02*
G01*
X108265480Y-116023120D01*
X108265480Y-115523120D01*
X108765480Y-115523120D01*
X108765480Y-116023120D01*
G37*
G36*
X108265480Y-130523120D02*
G01*
X107765480Y-130523120D01*
X107765480Y-130023120D01*
X108265480Y-130023120D01*
X108265480Y-130523120D01*
G37*
G36*
X108265480Y-130023120D02*
G01*
X107765480Y-130023120D01*
X107765480Y-129523120D01*
X108265480Y-129523120D01*
X108265480Y-130023120D01*
G37*
G36*
X108265480Y-129523120D02*
G01*
X107765480Y-129523120D01*
X107765480Y-129023120D01*
X108265480Y-129023120D01*
X108265480Y-129523120D01*
G37*
G36*
X108265480Y-129023120D02*
G01*
X107765480Y-129023120D01*
X107765480Y-128523120D01*
X108265480Y-128523120D01*
X108265480Y-129023120D01*
G37*
G36*
X108265480Y-128523120D02*
G01*
X107765480Y-128523120D01*
X107765480Y-128023120D01*
X108265480Y-128023120D01*
X108265480Y-128523120D01*
G37*
G36*
X108265480Y-128023120D02*
G01*
X107765480Y-128023120D01*
X107765480Y-127523120D01*
X108265480Y-127523120D01*
X108265480Y-128023120D01*
G37*
G36*
X108265480Y-126023120D02*
G01*
X107765480Y-126023120D01*
X107765480Y-125523120D01*
X108265480Y-125523120D01*
X108265480Y-126023120D01*
G37*
G36*
X108265480Y-125023120D02*
G01*
X107765480Y-125023120D01*
X107765480Y-124523120D01*
X108265480Y-124523120D01*
X108265480Y-125023120D01*
G37*
G36*
X108265480Y-121523120D02*
G01*
X107765480Y-121523120D01*
X107765480Y-121023120D01*
X108265480Y-121023120D01*
X108265480Y-121523120D01*
G37*
G36*
X108265480Y-120023120D02*
G01*
X107765480Y-120023120D01*
X107765480Y-119523120D01*
X108265480Y-119523120D01*
X108265480Y-120023120D01*
G37*
G36*
X108265480Y-119023120D02*
G01*
X107765480Y-119023120D01*
X107765480Y-118523120D01*
X108265480Y-118523120D01*
X108265480Y-119023120D01*
G37*
G36*
X108265480Y-118023120D02*
G01*
X107765480Y-118023120D01*
X107765480Y-117523120D01*
X108265480Y-117523120D01*
X108265480Y-118023120D01*
G37*
G36*
X108265480Y-117523120D02*
G01*
X107765480Y-117523120D01*
X107765480Y-117023120D01*
X108265480Y-117023120D01*
X108265480Y-117523120D01*
G37*
G36*
X108265480Y-117023120D02*
G01*
X107765480Y-117023120D01*
X107765480Y-116523120D01*
X108265480Y-116523120D01*
X108265480Y-117023120D01*
G37*
G36*
X108265480Y-116023120D02*
G01*
X107765480Y-116023120D01*
X107765480Y-115523120D01*
X108265480Y-115523120D01*
X108265480Y-116023120D01*
G37*
G36*
X107765480Y-132023120D02*
G01*
X107265480Y-132023120D01*
X107265480Y-131523120D01*
X107765480Y-131523120D01*
X107765480Y-132023120D01*
G37*
G36*
X107765480Y-130023120D02*
G01*
X107265480Y-130023120D01*
X107265480Y-129523120D01*
X107765480Y-129523120D01*
X107765480Y-130023120D01*
G37*
G36*
X107765480Y-128023120D02*
G01*
X107265480Y-128023120D01*
X107265480Y-127523120D01*
X107765480Y-127523120D01*
X107765480Y-128023120D01*
G37*
G36*
X107765480Y-126523120D02*
G01*
X107265480Y-126523120D01*
X107265480Y-126023120D01*
X107765480Y-126023120D01*
X107765480Y-126523120D01*
G37*
G36*
X107765480Y-125523120D02*
G01*
X107265480Y-125523120D01*
X107265480Y-125023120D01*
X107765480Y-125023120D01*
X107765480Y-125523120D01*
G37*
G36*
X107765480Y-125023120D02*
G01*
X107265480Y-125023120D01*
X107265480Y-124523120D01*
X107765480Y-124523120D01*
X107765480Y-125023120D01*
G37*
G36*
X107765480Y-124523120D02*
G01*
X107265480Y-124523120D01*
X107265480Y-124023120D01*
X107765480Y-124023120D01*
X107765480Y-124523120D01*
G37*
G36*
X107765480Y-124023120D02*
G01*
X107265480Y-124023120D01*
X107265480Y-123523120D01*
X107765480Y-123523120D01*
X107765480Y-124023120D01*
G37*
G36*
X107765480Y-123523120D02*
G01*
X107265480Y-123523120D01*
X107265480Y-123023120D01*
X107765480Y-123023120D01*
X107765480Y-123523120D01*
G37*
G36*
X107765480Y-123023120D02*
G01*
X107265480Y-123023120D01*
X107265480Y-122523120D01*
X107765480Y-122523120D01*
X107765480Y-123023120D01*
G37*
G36*
X107765480Y-122523120D02*
G01*
X107265480Y-122523120D01*
X107265480Y-122023120D01*
X107765480Y-122023120D01*
X107765480Y-122523120D01*
G37*
G36*
X107765480Y-122023120D02*
G01*
X107265480Y-122023120D01*
X107265480Y-121523120D01*
X107765480Y-121523120D01*
X107765480Y-122023120D01*
G37*
G36*
X107765480Y-121523120D02*
G01*
X107265480Y-121523120D01*
X107265480Y-121023120D01*
X107765480Y-121023120D01*
X107765480Y-121523120D01*
G37*
G36*
X107765480Y-121023120D02*
G01*
X107265480Y-121023120D01*
X107265480Y-120523120D01*
X107765480Y-120523120D01*
X107765480Y-121023120D01*
G37*
G36*
X107765480Y-119023120D02*
G01*
X107265480Y-119023120D01*
X107265480Y-118523120D01*
X107765480Y-118523120D01*
X107765480Y-119023120D01*
G37*
G36*
X107765480Y-116023120D02*
G01*
X107265480Y-116023120D01*
X107265480Y-115523120D01*
X107765480Y-115523120D01*
X107765480Y-116023120D01*
G37*
G36*
X107265480Y-132023120D02*
G01*
X106765480Y-132023120D01*
X106765480Y-131523120D01*
X107265480Y-131523120D01*
X107265480Y-132023120D01*
G37*
G36*
X107265480Y-131523120D02*
G01*
X106765480Y-131523120D01*
X106765480Y-131023120D01*
X107265480Y-131023120D01*
X107265480Y-131523120D01*
G37*
G36*
X107265480Y-130523120D02*
G01*
X106765480Y-130523120D01*
X106765480Y-130023120D01*
X107265480Y-130023120D01*
X107265480Y-130523120D01*
G37*
G36*
X107265480Y-130023120D02*
G01*
X106765480Y-130023120D01*
X106765480Y-129523120D01*
X107265480Y-129523120D01*
X107265480Y-130023120D01*
G37*
G36*
X107265480Y-129023120D02*
G01*
X106765480Y-129023120D01*
X106765480Y-128523120D01*
X107265480Y-128523120D01*
X107265480Y-129023120D01*
G37*
G36*
X107265480Y-128023120D02*
G01*
X106765480Y-128023120D01*
X106765480Y-127523120D01*
X107265480Y-127523120D01*
X107265480Y-128023120D01*
G37*
G36*
X107265480Y-127023120D02*
G01*
X106765480Y-127023120D01*
X106765480Y-126523120D01*
X107265480Y-126523120D01*
X107265480Y-127023120D01*
G37*
G36*
X107265480Y-126523120D02*
G01*
X106765480Y-126523120D01*
X106765480Y-126023120D01*
X107265480Y-126023120D01*
X107265480Y-126523120D01*
G37*
G36*
X107265480Y-124523120D02*
G01*
X106765480Y-124523120D01*
X106765480Y-124023120D01*
X107265480Y-124023120D01*
X107265480Y-124523120D01*
G37*
G36*
X107265480Y-123523120D02*
G01*
X106765480Y-123523120D01*
X106765480Y-123023120D01*
X107265480Y-123023120D01*
X107265480Y-123523120D01*
G37*
G36*
X107265480Y-122023120D02*
G01*
X106765480Y-122023120D01*
X106765480Y-121523120D01*
X107265480Y-121523120D01*
X107265480Y-122023120D01*
G37*
G36*
X107265480Y-121523120D02*
G01*
X106765480Y-121523120D01*
X106765480Y-121023120D01*
X107265480Y-121023120D01*
X107265480Y-121523120D01*
G37*
G36*
X107265480Y-121023120D02*
G01*
X106765480Y-121023120D01*
X106765480Y-120523120D01*
X107265480Y-120523120D01*
X107265480Y-121023120D01*
G37*
G36*
X107265480Y-120523120D02*
G01*
X106765480Y-120523120D01*
X106765480Y-120023120D01*
X107265480Y-120023120D01*
X107265480Y-120523120D01*
G37*
G36*
X107265480Y-120023120D02*
G01*
X106765480Y-120023120D01*
X106765480Y-119523120D01*
X107265480Y-119523120D01*
X107265480Y-120023120D01*
G37*
G36*
X107265480Y-119023120D02*
G01*
X106765480Y-119023120D01*
X106765480Y-118523120D01*
X107265480Y-118523120D01*
X107265480Y-119023120D01*
G37*
G36*
X107265480Y-118523120D02*
G01*
X106765480Y-118523120D01*
X106765480Y-118023120D01*
X107265480Y-118023120D01*
X107265480Y-118523120D01*
G37*
G36*
X107265480Y-118023120D02*
G01*
X106765480Y-118023120D01*
X106765480Y-117523120D01*
X107265480Y-117523120D01*
X107265480Y-118023120D01*
G37*
G36*
X107265480Y-117523120D02*
G01*
X106765480Y-117523120D01*
X106765480Y-117023120D01*
X107265480Y-117023120D01*
X107265480Y-117523120D01*
G37*
G36*
X107265480Y-117023120D02*
G01*
X106765480Y-117023120D01*
X106765480Y-116523120D01*
X107265480Y-116523120D01*
X107265480Y-117023120D01*
G37*
G36*
X107265480Y-116523120D02*
G01*
X106765480Y-116523120D01*
X106765480Y-116023120D01*
X107265480Y-116023120D01*
X107265480Y-116523120D01*
G37*
G36*
X107265480Y-116023120D02*
G01*
X106765480Y-116023120D01*
X106765480Y-115523120D01*
X107265480Y-115523120D01*
X107265480Y-116023120D01*
G37*
G36*
X106765480Y-132023120D02*
G01*
X106265480Y-132023120D01*
X106265480Y-131523120D01*
X106765480Y-131523120D01*
X106765480Y-132023120D01*
G37*
G36*
X106765480Y-131523120D02*
G01*
X106265480Y-131523120D01*
X106265480Y-131023120D01*
X106765480Y-131023120D01*
X106765480Y-131523120D01*
G37*
G36*
X106765480Y-131023120D02*
G01*
X106265480Y-131023120D01*
X106265480Y-130523120D01*
X106765480Y-130523120D01*
X106765480Y-131023120D01*
G37*
G36*
X106765480Y-130023120D02*
G01*
X106265480Y-130023120D01*
X106265480Y-129523120D01*
X106765480Y-129523120D01*
X106765480Y-130023120D01*
G37*
G36*
X106765480Y-128023120D02*
G01*
X106265480Y-128023120D01*
X106265480Y-127523120D01*
X106765480Y-127523120D01*
X106765480Y-128023120D01*
G37*
G36*
X106765480Y-127523120D02*
G01*
X106265480Y-127523120D01*
X106265480Y-127023120D01*
X106765480Y-127023120D01*
X106765480Y-127523120D01*
G37*
G36*
X106765480Y-125523120D02*
G01*
X106265480Y-125523120D01*
X106265480Y-125023120D01*
X106765480Y-125023120D01*
X106765480Y-125523120D01*
G37*
G36*
X106765480Y-122023120D02*
G01*
X106265480Y-122023120D01*
X106265480Y-121523120D01*
X106765480Y-121523120D01*
X106765480Y-122023120D01*
G37*
G36*
X106765480Y-121523120D02*
G01*
X106265480Y-121523120D01*
X106265480Y-121023120D01*
X106765480Y-121023120D01*
X106765480Y-121523120D01*
G37*
G36*
X106765480Y-120023120D02*
G01*
X106265480Y-120023120D01*
X106265480Y-119523120D01*
X106765480Y-119523120D01*
X106765480Y-120023120D01*
G37*
G36*
X106265480Y-132023120D02*
G01*
X105765480Y-132023120D01*
X105765480Y-131523120D01*
X106265480Y-131523120D01*
X106265480Y-132023120D01*
G37*
G36*
X106265480Y-131023120D02*
G01*
X105765480Y-131023120D01*
X105765480Y-130523120D01*
X106265480Y-130523120D01*
X106265480Y-131023120D01*
G37*
G36*
X106265480Y-130023120D02*
G01*
X105765480Y-130023120D01*
X105765480Y-129523120D01*
X106265480Y-129523120D01*
X106265480Y-130023120D01*
G37*
G36*
X106265480Y-129523120D02*
G01*
X105765480Y-129523120D01*
X105765480Y-129023120D01*
X106265480Y-129023120D01*
X106265480Y-129523120D01*
G37*
G36*
X106265480Y-129023120D02*
G01*
X105765480Y-129023120D01*
X105765480Y-128523120D01*
X106265480Y-128523120D01*
X106265480Y-129023120D01*
G37*
G36*
X106265480Y-128523120D02*
G01*
X105765480Y-128523120D01*
X105765480Y-128023120D01*
X106265480Y-128023120D01*
X106265480Y-128523120D01*
G37*
G36*
X106265480Y-128023120D02*
G01*
X105765480Y-128023120D01*
X105765480Y-127523120D01*
X106265480Y-127523120D01*
X106265480Y-128023120D01*
G37*
G36*
X106265480Y-127023120D02*
G01*
X105765480Y-127023120D01*
X105765480Y-126523120D01*
X106265480Y-126523120D01*
X106265480Y-127023120D01*
G37*
G36*
X106265480Y-126523120D02*
G01*
X105765480Y-126523120D01*
X105765480Y-126023120D01*
X106265480Y-126023120D01*
X106265480Y-126523120D01*
G37*
G36*
X106265480Y-126023120D02*
G01*
X105765480Y-126023120D01*
X105765480Y-125523120D01*
X106265480Y-125523120D01*
X106265480Y-126023120D01*
G37*
G36*
X106265480Y-125523120D02*
G01*
X105765480Y-125523120D01*
X105765480Y-125023120D01*
X106265480Y-125023120D01*
X106265480Y-125523120D01*
G37*
G36*
X106265480Y-125023120D02*
G01*
X105765480Y-125023120D01*
X105765480Y-124523120D01*
X106265480Y-124523120D01*
X106265480Y-125023120D01*
G37*
G36*
X106265480Y-124023120D02*
G01*
X105765480Y-124023120D01*
X105765480Y-123523120D01*
X106265480Y-123523120D01*
X106265480Y-124023120D01*
G37*
G36*
X106265480Y-123023120D02*
G01*
X105765480Y-123023120D01*
X105765480Y-122523120D01*
X106265480Y-122523120D01*
X106265480Y-123023120D01*
G37*
G36*
X106265480Y-121523120D02*
G01*
X105765480Y-121523120D01*
X105765480Y-121023120D01*
X106265480Y-121023120D01*
X106265480Y-121523120D01*
G37*
G36*
X106265480Y-119523120D02*
G01*
X105765480Y-119523120D01*
X105765480Y-119023120D01*
X106265480Y-119023120D01*
X106265480Y-119523120D01*
G37*
G36*
X106265480Y-119023120D02*
G01*
X105765480Y-119023120D01*
X105765480Y-118523120D01*
X106265480Y-118523120D01*
X106265480Y-119023120D01*
G37*
G36*
X106265480Y-118023120D02*
G01*
X105765480Y-118023120D01*
X105765480Y-117523120D01*
X106265480Y-117523120D01*
X106265480Y-118023120D01*
G37*
G36*
X106265480Y-116523120D02*
G01*
X105765480Y-116523120D01*
X105765480Y-116023120D01*
X106265480Y-116023120D01*
X106265480Y-116523120D01*
G37*
G36*
X106265480Y-116023120D02*
G01*
X105765480Y-116023120D01*
X105765480Y-115523120D01*
X106265480Y-115523120D01*
X106265480Y-116023120D01*
G37*
G36*
X105765480Y-132023120D02*
G01*
X105265480Y-132023120D01*
X105265480Y-131523120D01*
X105765480Y-131523120D01*
X105765480Y-132023120D01*
G37*
G36*
X105765480Y-131023120D02*
G01*
X105265480Y-131023120D01*
X105265480Y-130523120D01*
X105765480Y-130523120D01*
X105765480Y-131023120D01*
G37*
G36*
X105765480Y-129023120D02*
G01*
X105265480Y-129023120D01*
X105265480Y-128523120D01*
X105765480Y-128523120D01*
X105765480Y-129023120D01*
G37*
G36*
X105765480Y-127523120D02*
G01*
X105265480Y-127523120D01*
X105265480Y-127023120D01*
X105765480Y-127023120D01*
X105765480Y-127523120D01*
G37*
G36*
X105765480Y-126523120D02*
G01*
X105265480Y-126523120D01*
X105265480Y-126023120D01*
X105765480Y-126023120D01*
X105765480Y-126523120D01*
G37*
G36*
X105765480Y-125023120D02*
G01*
X105265480Y-125023120D01*
X105265480Y-124523120D01*
X105765480Y-124523120D01*
X105765480Y-125023120D01*
G37*
G36*
X105765480Y-124523120D02*
G01*
X105265480Y-124523120D01*
X105265480Y-124023120D01*
X105765480Y-124023120D01*
X105765480Y-124523120D01*
G37*
G36*
X105765480Y-124023120D02*
G01*
X105265480Y-124023120D01*
X105265480Y-123523120D01*
X105765480Y-123523120D01*
X105765480Y-124023120D01*
G37*
G36*
X105765480Y-123523120D02*
G01*
X105265480Y-123523120D01*
X105265480Y-123023120D01*
X105765480Y-123023120D01*
X105765480Y-123523120D01*
G37*
G36*
X105765480Y-122523120D02*
G01*
X105265480Y-122523120D01*
X105265480Y-122023120D01*
X105765480Y-122023120D01*
X105765480Y-122523120D01*
G37*
G36*
X105765480Y-121023120D02*
G01*
X105265480Y-121023120D01*
X105265480Y-120523120D01*
X105765480Y-120523120D01*
X105765480Y-121023120D01*
G37*
G36*
X105765480Y-120523120D02*
G01*
X105265480Y-120523120D01*
X105265480Y-120023120D01*
X105765480Y-120023120D01*
X105765480Y-120523120D01*
G37*
G36*
X105765480Y-118023120D02*
G01*
X105265480Y-118023120D01*
X105265480Y-117523120D01*
X105765480Y-117523120D01*
X105765480Y-118023120D01*
G37*
G36*
X105765480Y-117023120D02*
G01*
X105265480Y-117023120D01*
X105265480Y-116523120D01*
X105765480Y-116523120D01*
X105765480Y-117023120D01*
G37*
G36*
X105265480Y-131523120D02*
G01*
X104765480Y-131523120D01*
X104765480Y-131023120D01*
X105265480Y-131023120D01*
X105265480Y-131523120D01*
G37*
G36*
X105265480Y-131023120D02*
G01*
X104765480Y-131023120D01*
X104765480Y-130523120D01*
X105265480Y-130523120D01*
X105265480Y-131023120D01*
G37*
G36*
X105265480Y-130523120D02*
G01*
X104765480Y-130523120D01*
X104765480Y-130023120D01*
X105265480Y-130023120D01*
X105265480Y-130523120D01*
G37*
G36*
X105265480Y-129523120D02*
G01*
X104765480Y-129523120D01*
X104765480Y-129023120D01*
X105265480Y-129023120D01*
X105265480Y-129523120D01*
G37*
G36*
X105265480Y-128023120D02*
G01*
X104765480Y-128023120D01*
X104765480Y-127523120D01*
X105265480Y-127523120D01*
X105265480Y-128023120D01*
G37*
G36*
X105265480Y-127523120D02*
G01*
X104765480Y-127523120D01*
X104765480Y-127023120D01*
X105265480Y-127023120D01*
X105265480Y-127523120D01*
G37*
G36*
X105265480Y-127023120D02*
G01*
X104765480Y-127023120D01*
X104765480Y-126523120D01*
X105265480Y-126523120D01*
X105265480Y-127023120D01*
G37*
G36*
X105265480Y-126023120D02*
G01*
X104765480Y-126023120D01*
X104765480Y-125523120D01*
X105265480Y-125523120D01*
X105265480Y-126023120D01*
G37*
G36*
X105265480Y-124523120D02*
G01*
X104765480Y-124523120D01*
X104765480Y-124023120D01*
X105265480Y-124023120D01*
X105265480Y-124523120D01*
G37*
G36*
X105265480Y-123523120D02*
G01*
X104765480Y-123523120D01*
X104765480Y-123023120D01*
X105265480Y-123023120D01*
X105265480Y-123523120D01*
G37*
G36*
X105265480Y-123023120D02*
G01*
X104765480Y-123023120D01*
X104765480Y-122523120D01*
X105265480Y-122523120D01*
X105265480Y-123023120D01*
G37*
G36*
X105265480Y-119523120D02*
G01*
X104765480Y-119523120D01*
X104765480Y-119023120D01*
X105265480Y-119023120D01*
X105265480Y-119523120D01*
G37*
G36*
X105265480Y-119023120D02*
G01*
X104765480Y-119023120D01*
X104765480Y-118523120D01*
X105265480Y-118523120D01*
X105265480Y-119023120D01*
G37*
G36*
X105265480Y-117023120D02*
G01*
X104765480Y-117023120D01*
X104765480Y-116523120D01*
X105265480Y-116523120D01*
X105265480Y-117023120D01*
G37*
G36*
X104765480Y-131523120D02*
G01*
X104265480Y-131523120D01*
X104265480Y-131023120D01*
X104765480Y-131023120D01*
X104765480Y-131523120D01*
G37*
G36*
X104765480Y-130523120D02*
G01*
X104265480Y-130523120D01*
X104265480Y-130023120D01*
X104765480Y-130023120D01*
X104765480Y-130523120D01*
G37*
G36*
X104765480Y-130023120D02*
G01*
X104265480Y-130023120D01*
X104265480Y-129523120D01*
X104765480Y-129523120D01*
X104765480Y-130023120D01*
G37*
G36*
X104765480Y-129523120D02*
G01*
X104265480Y-129523120D01*
X104265480Y-129023120D01*
X104765480Y-129023120D01*
X104765480Y-129523120D01*
G37*
G36*
X104765480Y-129023120D02*
G01*
X104265480Y-129023120D01*
X104265480Y-128523120D01*
X104765480Y-128523120D01*
X104765480Y-129023120D01*
G37*
G36*
X104765480Y-128023120D02*
G01*
X104265480Y-128023120D01*
X104265480Y-127523120D01*
X104765480Y-127523120D01*
X104765480Y-128023120D01*
G37*
G36*
X104765480Y-126023120D02*
G01*
X104265480Y-126023120D01*
X104265480Y-125523120D01*
X104765480Y-125523120D01*
X104765480Y-126023120D01*
G37*
G36*
X104765480Y-125523120D02*
G01*
X104265480Y-125523120D01*
X104265480Y-125023120D01*
X104765480Y-125023120D01*
X104765480Y-125523120D01*
G37*
G36*
X104765480Y-125023120D02*
G01*
X104265480Y-125023120D01*
X104265480Y-124523120D01*
X104765480Y-124523120D01*
X104765480Y-125023120D01*
G37*
G36*
X104765480Y-123023120D02*
G01*
X104265480Y-123023120D01*
X104265480Y-122523120D01*
X104765480Y-122523120D01*
X104765480Y-123023120D01*
G37*
G36*
X104765480Y-122523120D02*
G01*
X104265480Y-122523120D01*
X104265480Y-122023120D01*
X104765480Y-122023120D01*
X104765480Y-122523120D01*
G37*
G36*
X104765480Y-122023120D02*
G01*
X104265480Y-122023120D01*
X104265480Y-121523120D01*
X104765480Y-121523120D01*
X104765480Y-122023120D01*
G37*
G36*
X104765480Y-120523120D02*
G01*
X104265480Y-120523120D01*
X104265480Y-120023120D01*
X104765480Y-120023120D01*
X104765480Y-120523120D01*
G37*
G36*
X104765480Y-117523120D02*
G01*
X104265480Y-117523120D01*
X104265480Y-117023120D01*
X104765480Y-117023120D01*
X104765480Y-117523120D01*
G37*
G36*
X104765480Y-116523120D02*
G01*
X104265480Y-116523120D01*
X104265480Y-116023120D01*
X104765480Y-116023120D01*
X104765480Y-116523120D01*
G37*
G36*
X104765480Y-116023120D02*
G01*
X104265480Y-116023120D01*
X104265480Y-115523120D01*
X104765480Y-115523120D01*
X104765480Y-116023120D01*
G37*
G36*
X104265480Y-132023120D02*
G01*
X103765480Y-132023120D01*
X103765480Y-131523120D01*
X104265480Y-131523120D01*
X104265480Y-132023120D01*
G37*
G36*
X104265480Y-131523120D02*
G01*
X103765480Y-131523120D01*
X103765480Y-131023120D01*
X104265480Y-131023120D01*
X104265480Y-131523120D01*
G37*
G36*
X104265480Y-130523120D02*
G01*
X103765480Y-130523120D01*
X103765480Y-130023120D01*
X104265480Y-130023120D01*
X104265480Y-130523120D01*
G37*
G36*
X104265480Y-129023120D02*
G01*
X103765480Y-129023120D01*
X103765480Y-128523120D01*
X104265480Y-128523120D01*
X104265480Y-129023120D01*
G37*
G36*
X104265480Y-128523120D02*
G01*
X103765480Y-128523120D01*
X103765480Y-128023120D01*
X104265480Y-128023120D01*
X104265480Y-128523120D01*
G37*
G36*
X104265480Y-127023120D02*
G01*
X103765480Y-127023120D01*
X103765480Y-126523120D01*
X104265480Y-126523120D01*
X104265480Y-127023120D01*
G37*
G36*
X104265480Y-124023120D02*
G01*
X103765480Y-124023120D01*
X103765480Y-123523120D01*
X104265480Y-123523120D01*
X104265480Y-124023120D01*
G37*
G36*
X104265480Y-123523120D02*
G01*
X103765480Y-123523120D01*
X103765480Y-123023120D01*
X104265480Y-123023120D01*
X104265480Y-123523120D01*
G37*
G36*
X104265480Y-123023120D02*
G01*
X103765480Y-123023120D01*
X103765480Y-122523120D01*
X104265480Y-122523120D01*
X104265480Y-123023120D01*
G37*
G36*
X104265480Y-122523120D02*
G01*
X103765480Y-122523120D01*
X103765480Y-122023120D01*
X104265480Y-122023120D01*
X104265480Y-122523120D01*
G37*
G36*
X104265480Y-122023120D02*
G01*
X103765480Y-122023120D01*
X103765480Y-121523120D01*
X104265480Y-121523120D01*
X104265480Y-122023120D01*
G37*
G36*
X104265480Y-120023120D02*
G01*
X103765480Y-120023120D01*
X103765480Y-119523120D01*
X104265480Y-119523120D01*
X104265480Y-120023120D01*
G37*
G36*
X104265480Y-119523120D02*
G01*
X103765480Y-119523120D01*
X103765480Y-119023120D01*
X104265480Y-119023120D01*
X104265480Y-119523120D01*
G37*
G36*
X104265480Y-119023120D02*
G01*
X103765480Y-119023120D01*
X103765480Y-118523120D01*
X104265480Y-118523120D01*
X104265480Y-119023120D01*
G37*
G36*
X104265480Y-118523120D02*
G01*
X103765480Y-118523120D01*
X103765480Y-118023120D01*
X104265480Y-118023120D01*
X104265480Y-118523120D01*
G37*
G36*
X104265480Y-118023120D02*
G01*
X103765480Y-118023120D01*
X103765480Y-117523120D01*
X104265480Y-117523120D01*
X104265480Y-118023120D01*
G37*
G36*
X104265480Y-117523120D02*
G01*
X103765480Y-117523120D01*
X103765480Y-117023120D01*
X104265480Y-117023120D01*
X104265480Y-117523120D01*
G37*
G36*
X104265480Y-116523120D02*
G01*
X103765480Y-116523120D01*
X103765480Y-116023120D01*
X104265480Y-116023120D01*
X104265480Y-116523120D01*
G37*
G36*
X104265480Y-116023120D02*
G01*
X103765480Y-116023120D01*
X103765480Y-115523120D01*
X104265480Y-115523120D01*
X104265480Y-116023120D01*
G37*
G36*
X103765480Y-131523120D02*
G01*
X103265480Y-131523120D01*
X103265480Y-131023120D01*
X103765480Y-131023120D01*
X103765480Y-131523120D01*
G37*
G36*
X103765480Y-129523120D02*
G01*
X103265480Y-129523120D01*
X103265480Y-129023120D01*
X103765480Y-129023120D01*
X103765480Y-129523120D01*
G37*
G36*
X103765480Y-128523120D02*
G01*
X103265480Y-128523120D01*
X103265480Y-128023120D01*
X103765480Y-128023120D01*
X103765480Y-128523120D01*
G37*
G36*
X103765480Y-128023120D02*
G01*
X103265480Y-128023120D01*
X103265480Y-127523120D01*
X103765480Y-127523120D01*
X103765480Y-128023120D01*
G37*
G36*
X103765480Y-127523120D02*
G01*
X103265480Y-127523120D01*
X103265480Y-127023120D01*
X103765480Y-127023120D01*
X103765480Y-127523120D01*
G37*
G36*
X103765480Y-127023120D02*
G01*
X103265480Y-127023120D01*
X103265480Y-126523120D01*
X103765480Y-126523120D01*
X103765480Y-127023120D01*
G37*
G36*
X103765480Y-126023120D02*
G01*
X103265480Y-126023120D01*
X103265480Y-125523120D01*
X103765480Y-125523120D01*
X103765480Y-126023120D01*
G37*
G36*
X103765480Y-125523120D02*
G01*
X103265480Y-125523120D01*
X103265480Y-125023120D01*
X103765480Y-125023120D01*
X103765480Y-125523120D01*
G37*
G36*
X103765480Y-122523120D02*
G01*
X103265480Y-122523120D01*
X103265480Y-122023120D01*
X103765480Y-122023120D01*
X103765480Y-122523120D01*
G37*
G36*
X103765480Y-120523120D02*
G01*
X103265480Y-120523120D01*
X103265480Y-120023120D01*
X103765480Y-120023120D01*
X103765480Y-120523120D01*
G37*
G36*
X103765480Y-120023120D02*
G01*
X103265480Y-120023120D01*
X103265480Y-119523120D01*
X103765480Y-119523120D01*
X103765480Y-120023120D01*
G37*
G36*
X103765480Y-119523120D02*
G01*
X103265480Y-119523120D01*
X103265480Y-119023120D01*
X103765480Y-119023120D01*
X103765480Y-119523120D01*
G37*
G36*
X103765480Y-118523120D02*
G01*
X103265480Y-118523120D01*
X103265480Y-118023120D01*
X103765480Y-118023120D01*
X103765480Y-118523120D01*
G37*
G36*
X103765480Y-118023120D02*
G01*
X103265480Y-118023120D01*
X103265480Y-117523120D01*
X103765480Y-117523120D01*
X103765480Y-118023120D01*
G37*
G36*
X103765480Y-117523120D02*
G01*
X103265480Y-117523120D01*
X103265480Y-117023120D01*
X103765480Y-117023120D01*
X103765480Y-117523120D01*
G37*
G36*
X103765480Y-116023120D02*
G01*
X103265480Y-116023120D01*
X103265480Y-115523120D01*
X103765480Y-115523120D01*
X103765480Y-116023120D01*
G37*
G36*
X103265480Y-130523120D02*
G01*
X102765480Y-130523120D01*
X102765480Y-130023120D01*
X103265480Y-130023120D01*
X103265480Y-130523120D01*
G37*
G36*
X103265480Y-129523120D02*
G01*
X102765480Y-129523120D01*
X102765480Y-129023120D01*
X103265480Y-129023120D01*
X103265480Y-129523120D01*
G37*
G36*
X103265480Y-127523120D02*
G01*
X102765480Y-127523120D01*
X102765480Y-127023120D01*
X103265480Y-127023120D01*
X103265480Y-127523120D01*
G37*
G36*
X103265480Y-125023120D02*
G01*
X102765480Y-125023120D01*
X102765480Y-124523120D01*
X103265480Y-124523120D01*
X103265480Y-125023120D01*
G37*
G36*
X103265480Y-124023120D02*
G01*
X102765480Y-124023120D01*
X102765480Y-123523120D01*
X103265480Y-123523120D01*
X103265480Y-124023120D01*
G37*
G36*
X103265480Y-122523120D02*
G01*
X102765480Y-122523120D01*
X102765480Y-122023120D01*
X103265480Y-122023120D01*
X103265480Y-122523120D01*
G37*
G36*
X103265480Y-120523120D02*
G01*
X102765480Y-120523120D01*
X102765480Y-120023120D01*
X103265480Y-120023120D01*
X103265480Y-120523120D01*
G37*
G36*
X103265480Y-120023120D02*
G01*
X102765480Y-120023120D01*
X102765480Y-119523120D01*
X103265480Y-119523120D01*
X103265480Y-120023120D01*
G37*
G36*
X103265480Y-119523120D02*
G01*
X102765480Y-119523120D01*
X102765480Y-119023120D01*
X103265480Y-119023120D01*
X103265480Y-119523120D01*
G37*
G36*
X103265480Y-119023120D02*
G01*
X102765480Y-119023120D01*
X102765480Y-118523120D01*
X103265480Y-118523120D01*
X103265480Y-119023120D01*
G37*
G36*
X102765480Y-132023120D02*
G01*
X102265480Y-132023120D01*
X102265480Y-131523120D01*
X102765480Y-131523120D01*
X102765480Y-132023120D01*
G37*
G36*
X102765480Y-131023120D02*
G01*
X102265480Y-131023120D01*
X102265480Y-130523120D01*
X102765480Y-130523120D01*
X102765480Y-131023120D01*
G37*
G36*
X102765480Y-130523120D02*
G01*
X102265480Y-130523120D01*
X102265480Y-130023120D01*
X102765480Y-130023120D01*
X102765480Y-130523120D01*
G37*
G36*
X102765480Y-128523120D02*
G01*
X102265480Y-128523120D01*
X102265480Y-128023120D01*
X102765480Y-128023120D01*
X102765480Y-128523120D01*
G37*
G36*
X102765480Y-128023120D02*
G01*
X102265480Y-128023120D01*
X102265480Y-127523120D01*
X102765480Y-127523120D01*
X102765480Y-128023120D01*
G37*
G36*
X102765480Y-127523120D02*
G01*
X102265480Y-127523120D01*
X102265480Y-127023120D01*
X102765480Y-127023120D01*
X102765480Y-127523120D01*
G37*
G36*
X102765480Y-127023120D02*
G01*
X102265480Y-127023120D01*
X102265480Y-126523120D01*
X102765480Y-126523120D01*
X102765480Y-127023120D01*
G37*
G36*
X102765480Y-126523120D02*
G01*
X102265480Y-126523120D01*
X102265480Y-126023120D01*
X102765480Y-126023120D01*
X102765480Y-126523120D01*
G37*
G36*
X102765480Y-125523120D02*
G01*
X102265480Y-125523120D01*
X102265480Y-125023120D01*
X102765480Y-125023120D01*
X102765480Y-125523120D01*
G37*
G36*
X102765480Y-125023120D02*
G01*
X102265480Y-125023120D01*
X102265480Y-124523120D01*
X102765480Y-124523120D01*
X102765480Y-125023120D01*
G37*
G36*
X102765480Y-124523120D02*
G01*
X102265480Y-124523120D01*
X102265480Y-124023120D01*
X102765480Y-124023120D01*
X102765480Y-124523120D01*
G37*
G36*
X102765480Y-124023120D02*
G01*
X102265480Y-124023120D01*
X102265480Y-123523120D01*
X102765480Y-123523120D01*
X102765480Y-124023120D01*
G37*
G36*
X102765480Y-118023120D02*
G01*
X102265480Y-118023120D01*
X102265480Y-117523120D01*
X102765480Y-117523120D01*
X102765480Y-118023120D01*
G37*
G36*
X102765480Y-117523120D02*
G01*
X102265480Y-117523120D01*
X102265480Y-117023120D01*
X102765480Y-117023120D01*
X102765480Y-117523120D01*
G37*
G36*
X102765480Y-116023120D02*
G01*
X102265480Y-116023120D01*
X102265480Y-115523120D01*
X102765480Y-115523120D01*
X102765480Y-116023120D01*
G37*
G36*
X102265480Y-131523120D02*
G01*
X101765480Y-131523120D01*
X101765480Y-131023120D01*
X102265480Y-131023120D01*
X102265480Y-131523120D01*
G37*
G36*
X102265480Y-131023120D02*
G01*
X101765480Y-131023120D01*
X101765480Y-130523120D01*
X102265480Y-130523120D01*
X102265480Y-131023120D01*
G37*
G36*
X102265480Y-130523120D02*
G01*
X101765480Y-130523120D01*
X101765480Y-130023120D01*
X102265480Y-130023120D01*
X102265480Y-130523120D01*
G37*
G36*
X102265480Y-130023120D02*
G01*
X101765480Y-130023120D01*
X101765480Y-129523120D01*
X102265480Y-129523120D01*
X102265480Y-130023120D01*
G37*
G36*
X102265480Y-129023120D02*
G01*
X101765480Y-129023120D01*
X101765480Y-128523120D01*
X102265480Y-128523120D01*
X102265480Y-129023120D01*
G37*
G36*
X102265480Y-128023120D02*
G01*
X101765480Y-128023120D01*
X101765480Y-127523120D01*
X102265480Y-127523120D01*
X102265480Y-128023120D01*
G37*
G36*
X102265480Y-127523120D02*
G01*
X101765480Y-127523120D01*
X101765480Y-127023120D01*
X102265480Y-127023120D01*
X102265480Y-127523120D01*
G37*
G36*
X102265480Y-126523120D02*
G01*
X101765480Y-126523120D01*
X101765480Y-126023120D01*
X102265480Y-126023120D01*
X102265480Y-126523120D01*
G37*
G36*
X102265480Y-126023120D02*
G01*
X101765480Y-126023120D01*
X101765480Y-125523120D01*
X102265480Y-125523120D01*
X102265480Y-126023120D01*
G37*
G36*
X102265480Y-123523120D02*
G01*
X101765480Y-123523120D01*
X101765480Y-123023120D01*
X102265480Y-123023120D01*
X102265480Y-123523120D01*
G37*
G36*
X102265480Y-122523120D02*
G01*
X101765480Y-122523120D01*
X101765480Y-122023120D01*
X102265480Y-122023120D01*
X102265480Y-122523120D01*
G37*
G36*
X102265480Y-122023120D02*
G01*
X101765480Y-122023120D01*
X101765480Y-121523120D01*
X102265480Y-121523120D01*
X102265480Y-122023120D01*
G37*
G36*
X102265480Y-120023120D02*
G01*
X101765480Y-120023120D01*
X101765480Y-119523120D01*
X102265480Y-119523120D01*
X102265480Y-120023120D01*
G37*
G36*
X102265480Y-119023120D02*
G01*
X101765480Y-119023120D01*
X101765480Y-118523120D01*
X102265480Y-118523120D01*
X102265480Y-119023120D01*
G37*
G36*
X102265480Y-118023120D02*
G01*
X101765480Y-118023120D01*
X101765480Y-117523120D01*
X102265480Y-117523120D01*
X102265480Y-118023120D01*
G37*
G36*
X102265480Y-117523120D02*
G01*
X101765480Y-117523120D01*
X101765480Y-117023120D01*
X102265480Y-117023120D01*
X102265480Y-117523120D01*
G37*
G36*
X102265480Y-117023120D02*
G01*
X101765480Y-117023120D01*
X101765480Y-116523120D01*
X102265480Y-116523120D01*
X102265480Y-117023120D01*
G37*
G36*
X101765480Y-130523120D02*
G01*
X101265480Y-130523120D01*
X101265480Y-130023120D01*
X101765480Y-130023120D01*
X101765480Y-130523120D01*
G37*
G36*
X101765480Y-130023120D02*
G01*
X101265480Y-130023120D01*
X101265480Y-129523120D01*
X101765480Y-129523120D01*
X101765480Y-130023120D01*
G37*
G36*
X101765480Y-129523120D02*
G01*
X101265480Y-129523120D01*
X101265480Y-129023120D01*
X101765480Y-129023120D01*
X101765480Y-129523120D01*
G37*
G36*
X101765480Y-129023120D02*
G01*
X101265480Y-129023120D01*
X101265480Y-128523120D01*
X101765480Y-128523120D01*
X101765480Y-129023120D01*
G37*
G36*
X101765480Y-128523120D02*
G01*
X101265480Y-128523120D01*
X101265480Y-128023120D01*
X101765480Y-128023120D01*
X101765480Y-128523120D01*
G37*
G36*
X101765480Y-128023120D02*
G01*
X101265480Y-128023120D01*
X101265480Y-127523120D01*
X101765480Y-127523120D01*
X101765480Y-128023120D01*
G37*
G36*
X101765480Y-126523120D02*
G01*
X101265480Y-126523120D01*
X101265480Y-126023120D01*
X101765480Y-126023120D01*
X101765480Y-126523120D01*
G37*
G36*
X101765480Y-126023120D02*
G01*
X101265480Y-126023120D01*
X101265480Y-125523120D01*
X101765480Y-125523120D01*
X101765480Y-126023120D01*
G37*
G36*
X101765480Y-125523120D02*
G01*
X101265480Y-125523120D01*
X101265480Y-125023120D01*
X101765480Y-125023120D01*
X101765480Y-125523120D01*
G37*
G36*
X101765480Y-123023120D02*
G01*
X101265480Y-123023120D01*
X101265480Y-122523120D01*
X101765480Y-122523120D01*
X101765480Y-123023120D01*
G37*
G36*
X101765480Y-122523120D02*
G01*
X101265480Y-122523120D01*
X101265480Y-122023120D01*
X101765480Y-122023120D01*
X101765480Y-122523120D01*
G37*
G36*
X101765480Y-122023120D02*
G01*
X101265480Y-122023120D01*
X101265480Y-121523120D01*
X101765480Y-121523120D01*
X101765480Y-122023120D01*
G37*
G36*
X101765480Y-120523120D02*
G01*
X101265480Y-120523120D01*
X101265480Y-120023120D01*
X101765480Y-120023120D01*
X101765480Y-120523120D01*
G37*
G36*
X101765480Y-120023120D02*
G01*
X101265480Y-120023120D01*
X101265480Y-119523120D01*
X101765480Y-119523120D01*
X101765480Y-120023120D01*
G37*
G36*
X101765480Y-117523120D02*
G01*
X101265480Y-117523120D01*
X101265480Y-117023120D01*
X101765480Y-117023120D01*
X101765480Y-117523120D01*
G37*
G36*
X101765480Y-117023120D02*
G01*
X101265480Y-117023120D01*
X101265480Y-116523120D01*
X101765480Y-116523120D01*
X101765480Y-117023120D01*
G37*
G36*
X101265480Y-131523120D02*
G01*
X100765480Y-131523120D01*
X100765480Y-131023120D01*
X101265480Y-131023120D01*
X101265480Y-131523120D01*
G37*
G36*
X101265480Y-130023120D02*
G01*
X100765480Y-130023120D01*
X100765480Y-129523120D01*
X101265480Y-129523120D01*
X101265480Y-130023120D01*
G37*
G36*
X101265480Y-129023120D02*
G01*
X100765480Y-129023120D01*
X100765480Y-128523120D01*
X101265480Y-128523120D01*
X101265480Y-129023120D01*
G37*
G36*
X101265480Y-128523120D02*
G01*
X100765480Y-128523120D01*
X100765480Y-128023120D01*
X101265480Y-128023120D01*
X101265480Y-128523120D01*
G37*
G36*
X101265480Y-125523120D02*
G01*
X100765480Y-125523120D01*
X100765480Y-125023120D01*
X101265480Y-125023120D01*
X101265480Y-125523120D01*
G37*
G36*
X101265480Y-125023120D02*
G01*
X100765480Y-125023120D01*
X100765480Y-124523120D01*
X101265480Y-124523120D01*
X101265480Y-125023120D01*
G37*
G36*
X101265480Y-124023120D02*
G01*
X100765480Y-124023120D01*
X100765480Y-123523120D01*
X101265480Y-123523120D01*
X101265480Y-124023120D01*
G37*
G36*
X101265480Y-122523120D02*
G01*
X100765480Y-122523120D01*
X100765480Y-122023120D01*
X101265480Y-122023120D01*
X101265480Y-122523120D01*
G37*
G36*
X101265480Y-121523120D02*
G01*
X100765480Y-121523120D01*
X100765480Y-121023120D01*
X101265480Y-121023120D01*
X101265480Y-121523120D01*
G37*
G36*
X101265480Y-120523120D02*
G01*
X100765480Y-120523120D01*
X100765480Y-120023120D01*
X101265480Y-120023120D01*
X101265480Y-120523120D01*
G37*
G36*
X101265480Y-120023120D02*
G01*
X100765480Y-120023120D01*
X100765480Y-119523120D01*
X101265480Y-119523120D01*
X101265480Y-120023120D01*
G37*
G36*
X101265480Y-119523120D02*
G01*
X100765480Y-119523120D01*
X100765480Y-119023120D01*
X101265480Y-119023120D01*
X101265480Y-119523120D01*
G37*
G36*
X101265480Y-119023120D02*
G01*
X100765480Y-119023120D01*
X100765480Y-118523120D01*
X101265480Y-118523120D01*
X101265480Y-119023120D01*
G37*
G36*
X101265480Y-118523120D02*
G01*
X100765480Y-118523120D01*
X100765480Y-118023120D01*
X101265480Y-118023120D01*
X101265480Y-118523120D01*
G37*
G36*
X101265480Y-118023120D02*
G01*
X100765480Y-118023120D01*
X100765480Y-117523120D01*
X101265480Y-117523120D01*
X101265480Y-118023120D01*
G37*
G36*
X101265480Y-117523120D02*
G01*
X100765480Y-117523120D01*
X100765480Y-117023120D01*
X101265480Y-117023120D01*
X101265480Y-117523120D01*
G37*
G36*
X101265480Y-117023120D02*
G01*
X100765480Y-117023120D01*
X100765480Y-116523120D01*
X101265480Y-116523120D01*
X101265480Y-117023120D01*
G37*
G36*
X100765480Y-131023120D02*
G01*
X100265480Y-131023120D01*
X100265480Y-130523120D01*
X100765480Y-130523120D01*
X100765480Y-131023120D01*
G37*
G36*
X100765480Y-129023120D02*
G01*
X100265480Y-129023120D01*
X100265480Y-128523120D01*
X100765480Y-128523120D01*
X100765480Y-129023120D01*
G37*
G36*
X100765480Y-128523120D02*
G01*
X100265480Y-128523120D01*
X100265480Y-128023120D01*
X100765480Y-128023120D01*
X100765480Y-128523120D01*
G37*
G36*
X100765480Y-127023120D02*
G01*
X100265480Y-127023120D01*
X100265480Y-126523120D01*
X100765480Y-126523120D01*
X100765480Y-127023120D01*
G37*
G36*
X100765480Y-126523120D02*
G01*
X100265480Y-126523120D01*
X100265480Y-126023120D01*
X100765480Y-126023120D01*
X100765480Y-126523120D01*
G37*
G36*
X100765480Y-125523120D02*
G01*
X100265480Y-125523120D01*
X100265480Y-125023120D01*
X100765480Y-125023120D01*
X100765480Y-125523120D01*
G37*
G36*
X100765480Y-124523120D02*
G01*
X100265480Y-124523120D01*
X100265480Y-124023120D01*
X100765480Y-124023120D01*
X100765480Y-124523120D01*
G37*
G36*
X100765480Y-124023120D02*
G01*
X100265480Y-124023120D01*
X100265480Y-123523120D01*
X100765480Y-123523120D01*
X100765480Y-124023120D01*
G37*
G36*
X100765480Y-122023120D02*
G01*
X100265480Y-122023120D01*
X100265480Y-121523120D01*
X100765480Y-121523120D01*
X100765480Y-122023120D01*
G37*
G36*
X100765480Y-121523120D02*
G01*
X100265480Y-121523120D01*
X100265480Y-121023120D01*
X100765480Y-121023120D01*
X100765480Y-121523120D01*
G37*
G36*
X100765480Y-121023120D02*
G01*
X100265480Y-121023120D01*
X100265480Y-120523120D01*
X100765480Y-120523120D01*
X100765480Y-121023120D01*
G37*
G36*
X100765480Y-120523120D02*
G01*
X100265480Y-120523120D01*
X100265480Y-120023120D01*
X100765480Y-120023120D01*
X100765480Y-120523120D01*
G37*
G36*
X100765480Y-120023120D02*
G01*
X100265480Y-120023120D01*
X100265480Y-119523120D01*
X100765480Y-119523120D01*
X100765480Y-120023120D01*
G37*
G36*
X100765480Y-118023120D02*
G01*
X100265480Y-118023120D01*
X100265480Y-117523120D01*
X100765480Y-117523120D01*
X100765480Y-118023120D01*
G37*
G36*
X100765480Y-117023120D02*
G01*
X100265480Y-117023120D01*
X100265480Y-116523120D01*
X100765480Y-116523120D01*
X100765480Y-117023120D01*
G37*
G36*
X100765480Y-116023120D02*
G01*
X100265480Y-116023120D01*
X100265480Y-115523120D01*
X100765480Y-115523120D01*
X100765480Y-116023120D01*
G37*
G36*
X100265480Y-130523120D02*
G01*
X99765480Y-130523120D01*
X99765480Y-130023120D01*
X100265480Y-130023120D01*
X100265480Y-130523120D01*
G37*
G36*
X100265480Y-129523120D02*
G01*
X99765480Y-129523120D01*
X99765480Y-129023120D01*
X100265480Y-129023120D01*
X100265480Y-129523120D01*
G37*
G36*
X100265480Y-128023120D02*
G01*
X99765480Y-128023120D01*
X99765480Y-127523120D01*
X100265480Y-127523120D01*
X100265480Y-128023120D01*
G37*
G36*
X100265480Y-127523120D02*
G01*
X99765480Y-127523120D01*
X99765480Y-127023120D01*
X100265480Y-127023120D01*
X100265480Y-127523120D01*
G37*
G36*
X100265480Y-126023120D02*
G01*
X99765480Y-126023120D01*
X99765480Y-125523120D01*
X100265480Y-125523120D01*
X100265480Y-126023120D01*
G37*
G36*
X100265480Y-125523120D02*
G01*
X99765480Y-125523120D01*
X99765480Y-125023120D01*
X100265480Y-125023120D01*
X100265480Y-125523120D01*
G37*
G36*
X100265480Y-125023120D02*
G01*
X99765480Y-125023120D01*
X99765480Y-124523120D01*
X100265480Y-124523120D01*
X100265480Y-125023120D01*
G37*
G36*
X100265480Y-123023120D02*
G01*
X99765480Y-123023120D01*
X99765480Y-122523120D01*
X100265480Y-122523120D01*
X100265480Y-123023120D01*
G37*
G36*
X100265480Y-122523120D02*
G01*
X99765480Y-122523120D01*
X99765480Y-122023120D01*
X100265480Y-122023120D01*
X100265480Y-122523120D01*
G37*
G36*
X100265480Y-121523120D02*
G01*
X99765480Y-121523120D01*
X99765480Y-121023120D01*
X100265480Y-121023120D01*
X100265480Y-121523120D01*
G37*
G36*
X100265480Y-120023120D02*
G01*
X99765480Y-120023120D01*
X99765480Y-119523120D01*
X100265480Y-119523120D01*
X100265480Y-120023120D01*
G37*
G36*
X100265480Y-119023120D02*
G01*
X99765480Y-119023120D01*
X99765480Y-118523120D01*
X100265480Y-118523120D01*
X100265480Y-119023120D01*
G37*
G36*
X100265480Y-118523120D02*
G01*
X99765480Y-118523120D01*
X99765480Y-118023120D01*
X100265480Y-118023120D01*
X100265480Y-118523120D01*
G37*
G36*
X100265480Y-117523120D02*
G01*
X99765480Y-117523120D01*
X99765480Y-117023120D01*
X100265480Y-117023120D01*
X100265480Y-117523120D01*
G37*
G36*
X100265480Y-116523120D02*
G01*
X99765480Y-116523120D01*
X99765480Y-116023120D01*
X100265480Y-116023120D01*
X100265480Y-116523120D01*
G37*
G36*
X100265480Y-116023120D02*
G01*
X99765480Y-116023120D01*
X99765480Y-115523120D01*
X100265480Y-115523120D01*
X100265480Y-116023120D01*
G37*
G36*
X99765480Y-132023120D02*
G01*
X99265480Y-132023120D01*
X99265480Y-131523120D01*
X99765480Y-131523120D01*
X99765480Y-132023120D01*
G37*
G36*
X99765480Y-129023120D02*
G01*
X99265480Y-129023120D01*
X99265480Y-128523120D01*
X99765480Y-128523120D01*
X99765480Y-129023120D01*
G37*
G36*
X99765480Y-128023120D02*
G01*
X99265480Y-128023120D01*
X99265480Y-127523120D01*
X99765480Y-127523120D01*
X99765480Y-128023120D01*
G37*
G36*
X99765480Y-126523120D02*
G01*
X99265480Y-126523120D01*
X99265480Y-126023120D01*
X99765480Y-126023120D01*
X99765480Y-126523120D01*
G37*
G36*
X99765480Y-126023120D02*
G01*
X99265480Y-126023120D01*
X99265480Y-125523120D01*
X99765480Y-125523120D01*
X99765480Y-126023120D01*
G37*
G36*
X99765480Y-125023120D02*
G01*
X99265480Y-125023120D01*
X99265480Y-124523120D01*
X99765480Y-124523120D01*
X99765480Y-125023120D01*
G37*
G36*
X99765480Y-124523120D02*
G01*
X99265480Y-124523120D01*
X99265480Y-124023120D01*
X99765480Y-124023120D01*
X99765480Y-124523120D01*
G37*
G36*
X99765480Y-124023120D02*
G01*
X99265480Y-124023120D01*
X99265480Y-123523120D01*
X99765480Y-123523120D01*
X99765480Y-124023120D01*
G37*
G36*
X99765480Y-123523120D02*
G01*
X99265480Y-123523120D01*
X99265480Y-123023120D01*
X99765480Y-123023120D01*
X99765480Y-123523120D01*
G37*
G36*
X99765480Y-123023120D02*
G01*
X99265480Y-123023120D01*
X99265480Y-122523120D01*
X99765480Y-122523120D01*
X99765480Y-123023120D01*
G37*
G36*
X99765480Y-121523120D02*
G01*
X99265480Y-121523120D01*
X99265480Y-121023120D01*
X99765480Y-121023120D01*
X99765480Y-121523120D01*
G37*
G36*
X99765480Y-120023120D02*
G01*
X99265480Y-120023120D01*
X99265480Y-119523120D01*
X99765480Y-119523120D01*
X99765480Y-120023120D01*
G37*
G36*
X99765480Y-119523120D02*
G01*
X99265480Y-119523120D01*
X99265480Y-119023120D01*
X99765480Y-119023120D01*
X99765480Y-119523120D01*
G37*
G36*
X99765480Y-117523120D02*
G01*
X99265480Y-117523120D01*
X99265480Y-117023120D01*
X99765480Y-117023120D01*
X99765480Y-117523120D01*
G37*
G36*
X99765480Y-117023120D02*
G01*
X99265480Y-117023120D01*
X99265480Y-116523120D01*
X99765480Y-116523120D01*
X99765480Y-117023120D01*
G37*
G36*
X99265480Y-132023120D02*
G01*
X98765480Y-132023120D01*
X98765480Y-131523120D01*
X99265480Y-131523120D01*
X99265480Y-132023120D01*
G37*
G36*
X99265480Y-131523120D02*
G01*
X98765480Y-131523120D01*
X98765480Y-131023120D01*
X99265480Y-131023120D01*
X99265480Y-131523120D01*
G37*
G36*
X99265480Y-130523120D02*
G01*
X98765480Y-130523120D01*
X98765480Y-130023120D01*
X99265480Y-130023120D01*
X99265480Y-130523120D01*
G37*
G36*
X99265480Y-129023120D02*
G01*
X98765480Y-129023120D01*
X98765480Y-128523120D01*
X99265480Y-128523120D01*
X99265480Y-129023120D01*
G37*
G36*
X99265480Y-128523120D02*
G01*
X98765480Y-128523120D01*
X98765480Y-128023120D01*
X99265480Y-128023120D01*
X99265480Y-128523120D01*
G37*
G36*
X99265480Y-127523120D02*
G01*
X98765480Y-127523120D01*
X98765480Y-127023120D01*
X99265480Y-127023120D01*
X99265480Y-127523120D01*
G37*
G36*
X99265480Y-127023120D02*
G01*
X98765480Y-127023120D01*
X98765480Y-126523120D01*
X99265480Y-126523120D01*
X99265480Y-127023120D01*
G37*
G36*
X99265480Y-126523120D02*
G01*
X98765480Y-126523120D01*
X98765480Y-126023120D01*
X99265480Y-126023120D01*
X99265480Y-126523120D01*
G37*
G36*
X99265480Y-126023120D02*
G01*
X98765480Y-126023120D01*
X98765480Y-125523120D01*
X99265480Y-125523120D01*
X99265480Y-126023120D01*
G37*
G36*
X99265480Y-124523120D02*
G01*
X98765480Y-124523120D01*
X98765480Y-124023120D01*
X99265480Y-124023120D01*
X99265480Y-124523120D01*
G37*
G36*
X99265480Y-123523120D02*
G01*
X98765480Y-123523120D01*
X98765480Y-123023120D01*
X99265480Y-123023120D01*
X99265480Y-123523120D01*
G37*
G36*
X99265480Y-122023120D02*
G01*
X98765480Y-122023120D01*
X98765480Y-121523120D01*
X99265480Y-121523120D01*
X99265480Y-122023120D01*
G37*
G36*
X99265480Y-121523120D02*
G01*
X98765480Y-121523120D01*
X98765480Y-121023120D01*
X99265480Y-121023120D01*
X99265480Y-121523120D01*
G37*
G36*
X99265480Y-121023120D02*
G01*
X98765480Y-121023120D01*
X98765480Y-120523120D01*
X99265480Y-120523120D01*
X99265480Y-121023120D01*
G37*
G36*
X99265480Y-120523120D02*
G01*
X98765480Y-120523120D01*
X98765480Y-120023120D01*
X99265480Y-120023120D01*
X99265480Y-120523120D01*
G37*
G36*
X99265480Y-119023120D02*
G01*
X98765480Y-119023120D01*
X98765480Y-118523120D01*
X99265480Y-118523120D01*
X99265480Y-119023120D01*
G37*
G36*
X99265480Y-118023120D02*
G01*
X98765480Y-118023120D01*
X98765480Y-117523120D01*
X99265480Y-117523120D01*
X99265480Y-118023120D01*
G37*
G36*
X99265480Y-117523120D02*
G01*
X98765480Y-117523120D01*
X98765480Y-117023120D01*
X99265480Y-117023120D01*
X99265480Y-117523120D01*
G37*
G36*
X98765480Y-132023120D02*
G01*
X98265480Y-132023120D01*
X98265480Y-131523120D01*
X98765480Y-131523120D01*
X98765480Y-132023120D01*
G37*
G36*
X98765480Y-131523120D02*
G01*
X98265480Y-131523120D01*
X98265480Y-131023120D01*
X98765480Y-131023120D01*
X98765480Y-131523120D01*
G37*
G36*
X98765480Y-131023120D02*
G01*
X98265480Y-131023120D01*
X98265480Y-130523120D01*
X98765480Y-130523120D01*
X98765480Y-131023120D01*
G37*
G36*
X98765480Y-130523120D02*
G01*
X98265480Y-130523120D01*
X98265480Y-130023120D01*
X98765480Y-130023120D01*
X98765480Y-130523120D01*
G37*
G36*
X98765480Y-128523120D02*
G01*
X98265480Y-128523120D01*
X98265480Y-128023120D01*
X98765480Y-128023120D01*
X98765480Y-128523120D01*
G37*
G36*
X98765480Y-127523120D02*
G01*
X98265480Y-127523120D01*
X98265480Y-127023120D01*
X98765480Y-127023120D01*
X98765480Y-127523120D01*
G37*
G36*
X98765480Y-125023120D02*
G01*
X98265480Y-125023120D01*
X98265480Y-124523120D01*
X98765480Y-124523120D01*
X98765480Y-125023120D01*
G37*
G36*
X98765480Y-122523120D02*
G01*
X98265480Y-122523120D01*
X98265480Y-122023120D01*
X98765480Y-122023120D01*
X98765480Y-122523120D01*
G37*
G36*
X98765480Y-121523120D02*
G01*
X98265480Y-121523120D01*
X98265480Y-121023120D01*
X98765480Y-121023120D01*
X98765480Y-121523120D01*
G37*
G36*
X98765480Y-121023120D02*
G01*
X98265480Y-121023120D01*
X98265480Y-120523120D01*
X98765480Y-120523120D01*
X98765480Y-121023120D01*
G37*
G36*
X98765480Y-120023120D02*
G01*
X98265480Y-120023120D01*
X98265480Y-119523120D01*
X98765480Y-119523120D01*
X98765480Y-120023120D01*
G37*
G36*
X98765480Y-119523120D02*
G01*
X98265480Y-119523120D01*
X98265480Y-119023120D01*
X98765480Y-119023120D01*
X98765480Y-119523120D01*
G37*
G36*
X98765480Y-117023120D02*
G01*
X98265480Y-117023120D01*
X98265480Y-116523120D01*
X98765480Y-116523120D01*
X98765480Y-117023120D01*
G37*
G36*
X98765480Y-116523120D02*
G01*
X98265480Y-116523120D01*
X98265480Y-116023120D01*
X98765480Y-116023120D01*
X98765480Y-116523120D01*
G37*
G36*
X98765480Y-116023120D02*
G01*
X98265480Y-116023120D01*
X98265480Y-115523120D01*
X98765480Y-115523120D01*
X98765480Y-116023120D01*
G37*
G36*
X98265480Y-132023120D02*
G01*
X97765480Y-132023120D01*
X97765480Y-131523120D01*
X98265480Y-131523120D01*
X98265480Y-132023120D01*
G37*
G36*
X98265480Y-130523120D02*
G01*
X97765480Y-130523120D01*
X97765480Y-130023120D01*
X98265480Y-130023120D01*
X98265480Y-130523120D01*
G37*
G36*
X98265480Y-130023120D02*
G01*
X97765480Y-130023120D01*
X97765480Y-129523120D01*
X98265480Y-129523120D01*
X98265480Y-130023120D01*
G37*
G36*
X98265480Y-129523120D02*
G01*
X97765480Y-129523120D01*
X97765480Y-129023120D01*
X98265480Y-129023120D01*
X98265480Y-129523120D01*
G37*
G36*
X98265480Y-129023120D02*
G01*
X97765480Y-129023120D01*
X97765480Y-128523120D01*
X98265480Y-128523120D01*
X98265480Y-129023120D01*
G37*
G36*
X98265480Y-128523120D02*
G01*
X97765480Y-128523120D01*
X97765480Y-128023120D01*
X98265480Y-128023120D01*
X98265480Y-128523120D01*
G37*
G36*
X98265480Y-128023120D02*
G01*
X97765480Y-128023120D01*
X97765480Y-127523120D01*
X98265480Y-127523120D01*
X98265480Y-128023120D01*
G37*
G36*
X98265480Y-126523120D02*
G01*
X97765480Y-126523120D01*
X97765480Y-126023120D01*
X98265480Y-126023120D01*
X98265480Y-126523120D01*
G37*
G36*
X98265480Y-125523120D02*
G01*
X97765480Y-125523120D01*
X97765480Y-125023120D01*
X98265480Y-125023120D01*
X98265480Y-125523120D01*
G37*
G36*
X98265480Y-125023120D02*
G01*
X97765480Y-125023120D01*
X97765480Y-124523120D01*
X98265480Y-124523120D01*
X98265480Y-125023120D01*
G37*
G36*
X98265480Y-124023120D02*
G01*
X97765480Y-124023120D01*
X97765480Y-123523120D01*
X98265480Y-123523120D01*
X98265480Y-124023120D01*
G37*
G36*
X98265480Y-123023120D02*
G01*
X97765480Y-123023120D01*
X97765480Y-122523120D01*
X98265480Y-122523120D01*
X98265480Y-123023120D01*
G37*
G36*
X98265480Y-122523120D02*
G01*
X97765480Y-122523120D01*
X97765480Y-122023120D01*
X98265480Y-122023120D01*
X98265480Y-122523120D01*
G37*
G36*
X98265480Y-122023120D02*
G01*
X97765480Y-122023120D01*
X97765480Y-121523120D01*
X98265480Y-121523120D01*
X98265480Y-122023120D01*
G37*
G36*
X98265480Y-121523120D02*
G01*
X97765480Y-121523120D01*
X97765480Y-121023120D01*
X98265480Y-121023120D01*
X98265480Y-121523120D01*
G37*
G36*
X98265480Y-121023120D02*
G01*
X97765480Y-121023120D01*
X97765480Y-120523120D01*
X98265480Y-120523120D01*
X98265480Y-121023120D01*
G37*
G36*
X98265480Y-120523120D02*
G01*
X97765480Y-120523120D01*
X97765480Y-120023120D01*
X98265480Y-120023120D01*
X98265480Y-120523120D01*
G37*
G36*
X98265480Y-120023120D02*
G01*
X97765480Y-120023120D01*
X97765480Y-119523120D01*
X98265480Y-119523120D01*
X98265480Y-120023120D01*
G37*
G36*
X98265480Y-119523120D02*
G01*
X97765480Y-119523120D01*
X97765480Y-119023120D01*
X98265480Y-119023120D01*
X98265480Y-119523120D01*
G37*
G36*
X98265480Y-119023120D02*
G01*
X97765480Y-119023120D01*
X97765480Y-118523120D01*
X98265480Y-118523120D01*
X98265480Y-119023120D01*
G37*
G36*
X98265480Y-118023120D02*
G01*
X97765480Y-118023120D01*
X97765480Y-117523120D01*
X98265480Y-117523120D01*
X98265480Y-118023120D01*
G37*
G36*
X98265480Y-116023120D02*
G01*
X97765480Y-116023120D01*
X97765480Y-115523120D01*
X98265480Y-115523120D01*
X98265480Y-116023120D01*
G37*
G36*
X97765480Y-127523120D02*
G01*
X97265480Y-127523120D01*
X97265480Y-127023120D01*
X97765480Y-127023120D01*
X97765480Y-127523120D01*
G37*
G36*
X97765480Y-126523120D02*
G01*
X97265480Y-126523120D01*
X97265480Y-126023120D01*
X97765480Y-126023120D01*
X97765480Y-126523120D01*
G37*
G36*
X97765480Y-125023120D02*
G01*
X97265480Y-125023120D01*
X97265480Y-124523120D01*
X97765480Y-124523120D01*
X97765480Y-125023120D01*
G37*
G36*
X97765480Y-124523120D02*
G01*
X97265480Y-124523120D01*
X97265480Y-124023120D01*
X97765480Y-124023120D01*
X97765480Y-124523120D01*
G37*
G36*
X97765480Y-124023120D02*
G01*
X97265480Y-124023120D01*
X97265480Y-123523120D01*
X97765480Y-123523120D01*
X97765480Y-124023120D01*
G37*
G36*
X97765480Y-123523120D02*
G01*
X97265480Y-123523120D01*
X97265480Y-123023120D01*
X97765480Y-123023120D01*
X97765480Y-123523120D01*
G37*
G36*
X97765480Y-123023120D02*
G01*
X97265480Y-123023120D01*
X97265480Y-122523120D01*
X97765480Y-122523120D01*
X97765480Y-123023120D01*
G37*
G36*
X97765480Y-120023120D02*
G01*
X97265480Y-120023120D01*
X97265480Y-119523120D01*
X97765480Y-119523120D01*
X97765480Y-120023120D01*
G37*
G36*
X97265480Y-132023120D02*
G01*
X96765480Y-132023120D01*
X96765480Y-131523120D01*
X97265480Y-131523120D01*
X97265480Y-132023120D01*
G37*
G36*
X97265480Y-131523120D02*
G01*
X96765480Y-131523120D01*
X96765480Y-131023120D01*
X97265480Y-131023120D01*
X97265480Y-131523120D01*
G37*
G36*
X97265480Y-131023120D02*
G01*
X96765480Y-131023120D01*
X96765480Y-130523120D01*
X97265480Y-130523120D01*
X97265480Y-131023120D01*
G37*
G36*
X97265480Y-130523120D02*
G01*
X96765480Y-130523120D01*
X96765480Y-130023120D01*
X97265480Y-130023120D01*
X97265480Y-130523120D01*
G37*
G36*
X97265480Y-130023120D02*
G01*
X96765480Y-130023120D01*
X96765480Y-129523120D01*
X97265480Y-129523120D01*
X97265480Y-130023120D01*
G37*
G36*
X97265480Y-129523120D02*
G01*
X96765480Y-129523120D01*
X96765480Y-129023120D01*
X97265480Y-129023120D01*
X97265480Y-129523120D01*
G37*
G36*
X97265480Y-129023120D02*
G01*
X96765480Y-129023120D01*
X96765480Y-128523120D01*
X97265480Y-128523120D01*
X97265480Y-129023120D01*
G37*
G36*
X97265480Y-128023120D02*
G01*
X96765480Y-128023120D01*
X96765480Y-127523120D01*
X97265480Y-127523120D01*
X97265480Y-128023120D01*
G37*
G36*
X97265480Y-127023120D02*
G01*
X96765480Y-127023120D01*
X96765480Y-126523120D01*
X97265480Y-126523120D01*
X97265480Y-127023120D01*
G37*
G36*
X97265480Y-126023120D02*
G01*
X96765480Y-126023120D01*
X96765480Y-125523120D01*
X97265480Y-125523120D01*
X97265480Y-126023120D01*
G37*
G36*
X97265480Y-125023120D02*
G01*
X96765480Y-125023120D01*
X96765480Y-124523120D01*
X97265480Y-124523120D01*
X97265480Y-125023120D01*
G37*
G36*
X97265480Y-124023120D02*
G01*
X96765480Y-124023120D01*
X96765480Y-123523120D01*
X97265480Y-123523120D01*
X97265480Y-124023120D01*
G37*
G36*
X97265480Y-123023120D02*
G01*
X96765480Y-123023120D01*
X96765480Y-122523120D01*
X97265480Y-122523120D01*
X97265480Y-123023120D01*
G37*
G36*
X97265480Y-122023120D02*
G01*
X96765480Y-122023120D01*
X96765480Y-121523120D01*
X97265480Y-121523120D01*
X97265480Y-122023120D01*
G37*
G36*
X97265480Y-121023120D02*
G01*
X96765480Y-121023120D01*
X96765480Y-120523120D01*
X97265480Y-120523120D01*
X97265480Y-121023120D01*
G37*
G36*
X97265480Y-120023120D02*
G01*
X96765480Y-120023120D01*
X96765480Y-119523120D01*
X97265480Y-119523120D01*
X97265480Y-120023120D01*
G37*
G36*
X97265480Y-119023120D02*
G01*
X96765480Y-119023120D01*
X96765480Y-118523120D01*
X97265480Y-118523120D01*
X97265480Y-119023120D01*
G37*
G36*
X97265480Y-118523120D02*
G01*
X96765480Y-118523120D01*
X96765480Y-118023120D01*
X97265480Y-118023120D01*
X97265480Y-118523120D01*
G37*
G36*
X97265480Y-118023120D02*
G01*
X96765480Y-118023120D01*
X96765480Y-117523120D01*
X97265480Y-117523120D01*
X97265480Y-118023120D01*
G37*
G36*
X97265480Y-117523120D02*
G01*
X96765480Y-117523120D01*
X96765480Y-117023120D01*
X97265480Y-117023120D01*
X97265480Y-117523120D01*
G37*
G36*
X97265480Y-117023120D02*
G01*
X96765480Y-117023120D01*
X96765480Y-116523120D01*
X97265480Y-116523120D01*
X97265480Y-117023120D01*
G37*
G36*
X97265480Y-116523120D02*
G01*
X96765480Y-116523120D01*
X96765480Y-116023120D01*
X97265480Y-116023120D01*
X97265480Y-116523120D01*
G37*
G36*
X97265480Y-116023120D02*
G01*
X96765480Y-116023120D01*
X96765480Y-115523120D01*
X97265480Y-115523120D01*
X97265480Y-116023120D01*
G37*
G36*
X96765480Y-132023120D02*
G01*
X96265480Y-132023120D01*
X96265480Y-131523120D01*
X96765480Y-131523120D01*
X96765480Y-132023120D01*
G37*
G36*
X96765480Y-129023120D02*
G01*
X96265480Y-129023120D01*
X96265480Y-128523120D01*
X96765480Y-128523120D01*
X96765480Y-129023120D01*
G37*
G36*
X96765480Y-125523120D02*
G01*
X96265480Y-125523120D01*
X96265480Y-125023120D01*
X96765480Y-125023120D01*
X96765480Y-125523120D01*
G37*
G36*
X96765480Y-124523120D02*
G01*
X96265480Y-124523120D01*
X96265480Y-124023120D01*
X96765480Y-124023120D01*
X96765480Y-124523120D01*
G37*
G36*
X96765480Y-124023120D02*
G01*
X96265480Y-124023120D01*
X96265480Y-123523120D01*
X96765480Y-123523120D01*
X96765480Y-124023120D01*
G37*
G36*
X96765480Y-123023120D02*
G01*
X96265480Y-123023120D01*
X96265480Y-122523120D01*
X96765480Y-122523120D01*
X96765480Y-123023120D01*
G37*
G36*
X96765480Y-122523120D02*
G01*
X96265480Y-122523120D01*
X96265480Y-122023120D01*
X96765480Y-122023120D01*
X96765480Y-122523120D01*
G37*
G36*
X96765480Y-121523120D02*
G01*
X96265480Y-121523120D01*
X96265480Y-121023120D01*
X96765480Y-121023120D01*
X96765480Y-121523120D01*
G37*
G36*
X96765480Y-121023120D02*
G01*
X96265480Y-121023120D01*
X96265480Y-120523120D01*
X96765480Y-120523120D01*
X96765480Y-121023120D01*
G37*
G36*
X96765480Y-120023120D02*
G01*
X96265480Y-120023120D01*
X96265480Y-119523120D01*
X96765480Y-119523120D01*
X96765480Y-120023120D01*
G37*
G36*
X96765480Y-119023120D02*
G01*
X96265480Y-119023120D01*
X96265480Y-118523120D01*
X96765480Y-118523120D01*
X96765480Y-119023120D01*
G37*
G36*
X96765480Y-116023120D02*
G01*
X96265480Y-116023120D01*
X96265480Y-115523120D01*
X96765480Y-115523120D01*
X96765480Y-116023120D01*
G37*
G36*
X96265480Y-132023120D02*
G01*
X95765480Y-132023120D01*
X95765480Y-131523120D01*
X96265480Y-131523120D01*
X96265480Y-132023120D01*
G37*
G36*
X96265480Y-131023120D02*
G01*
X95765480Y-131023120D01*
X95765480Y-130523120D01*
X96265480Y-130523120D01*
X96265480Y-131023120D01*
G37*
G36*
X96265480Y-130523120D02*
G01*
X95765480Y-130523120D01*
X95765480Y-130023120D01*
X96265480Y-130023120D01*
X96265480Y-130523120D01*
G37*
G36*
X96265480Y-130023120D02*
G01*
X95765480Y-130023120D01*
X95765480Y-129523120D01*
X96265480Y-129523120D01*
X96265480Y-130023120D01*
G37*
G36*
X96265480Y-129023120D02*
G01*
X95765480Y-129023120D01*
X95765480Y-128523120D01*
X96265480Y-128523120D01*
X96265480Y-129023120D01*
G37*
G36*
X96265480Y-128023120D02*
G01*
X95765480Y-128023120D01*
X95765480Y-127523120D01*
X96265480Y-127523120D01*
X96265480Y-128023120D01*
G37*
G36*
X96265480Y-126523120D02*
G01*
X95765480Y-126523120D01*
X95765480Y-126023120D01*
X96265480Y-126023120D01*
X96265480Y-126523120D01*
G37*
G36*
X96265480Y-126023120D02*
G01*
X95765480Y-126023120D01*
X95765480Y-125523120D01*
X96265480Y-125523120D01*
X96265480Y-126023120D01*
G37*
G36*
X96265480Y-125523120D02*
G01*
X95765480Y-125523120D01*
X95765480Y-125023120D01*
X96265480Y-125023120D01*
X96265480Y-125523120D01*
G37*
G36*
X96265480Y-125023120D02*
G01*
X95765480Y-125023120D01*
X95765480Y-124523120D01*
X96265480Y-124523120D01*
X96265480Y-125023120D01*
G37*
G36*
X96265480Y-123023120D02*
G01*
X95765480Y-123023120D01*
X95765480Y-122523120D01*
X96265480Y-122523120D01*
X96265480Y-123023120D01*
G37*
G36*
X96265480Y-122523120D02*
G01*
X95765480Y-122523120D01*
X95765480Y-122023120D01*
X96265480Y-122023120D01*
X96265480Y-122523120D01*
G37*
G36*
X96265480Y-121523120D02*
G01*
X95765480Y-121523120D01*
X95765480Y-121023120D01*
X96265480Y-121023120D01*
X96265480Y-121523120D01*
G37*
G36*
X96265480Y-120023120D02*
G01*
X95765480Y-120023120D01*
X95765480Y-119523120D01*
X96265480Y-119523120D01*
X96265480Y-120023120D01*
G37*
G36*
X96265480Y-119023120D02*
G01*
X95765480Y-119023120D01*
X95765480Y-118523120D01*
X96265480Y-118523120D01*
X96265480Y-119023120D01*
G37*
G36*
X96265480Y-118023120D02*
G01*
X95765480Y-118023120D01*
X95765480Y-117523120D01*
X96265480Y-117523120D01*
X96265480Y-118023120D01*
G37*
G36*
X96265480Y-117523120D02*
G01*
X95765480Y-117523120D01*
X95765480Y-117023120D01*
X96265480Y-117023120D01*
X96265480Y-117523120D01*
G37*
G36*
X96265480Y-117023120D02*
G01*
X95765480Y-117023120D01*
X95765480Y-116523120D01*
X96265480Y-116523120D01*
X96265480Y-117023120D01*
G37*
G36*
X96265480Y-116023120D02*
G01*
X95765480Y-116023120D01*
X95765480Y-115523120D01*
X96265480Y-115523120D01*
X96265480Y-116023120D01*
G37*
G36*
X95765480Y-132023120D02*
G01*
X95265480Y-132023120D01*
X95265480Y-131523120D01*
X95765480Y-131523120D01*
X95765480Y-132023120D01*
G37*
G36*
X95765480Y-131023120D02*
G01*
X95265480Y-131023120D01*
X95265480Y-130523120D01*
X95765480Y-130523120D01*
X95765480Y-131023120D01*
G37*
G36*
X95765480Y-130523120D02*
G01*
X95265480Y-130523120D01*
X95265480Y-130023120D01*
X95765480Y-130023120D01*
X95765480Y-130523120D01*
G37*
G36*
X95765480Y-130023120D02*
G01*
X95265480Y-130023120D01*
X95265480Y-129523120D01*
X95765480Y-129523120D01*
X95765480Y-130023120D01*
G37*
G36*
X95765480Y-129023120D02*
G01*
X95265480Y-129023120D01*
X95265480Y-128523120D01*
X95765480Y-128523120D01*
X95765480Y-129023120D01*
G37*
G36*
X95765480Y-128023120D02*
G01*
X95265480Y-128023120D01*
X95265480Y-127523120D01*
X95765480Y-127523120D01*
X95765480Y-128023120D01*
G37*
G36*
X95765480Y-126523120D02*
G01*
X95265480Y-126523120D01*
X95265480Y-126023120D01*
X95765480Y-126023120D01*
X95765480Y-126523120D01*
G37*
G36*
X95765480Y-126023120D02*
G01*
X95265480Y-126023120D01*
X95265480Y-125523120D01*
X95765480Y-125523120D01*
X95765480Y-126023120D01*
G37*
G36*
X95765480Y-125523120D02*
G01*
X95265480Y-125523120D01*
X95265480Y-125023120D01*
X95765480Y-125023120D01*
X95765480Y-125523120D01*
G37*
G36*
X95765480Y-125023120D02*
G01*
X95265480Y-125023120D01*
X95265480Y-124523120D01*
X95765480Y-124523120D01*
X95765480Y-125023120D01*
G37*
G36*
X95765480Y-124523120D02*
G01*
X95265480Y-124523120D01*
X95265480Y-124023120D01*
X95765480Y-124023120D01*
X95765480Y-124523120D01*
G37*
G36*
X95765480Y-123023120D02*
G01*
X95265480Y-123023120D01*
X95265480Y-122523120D01*
X95765480Y-122523120D01*
X95765480Y-123023120D01*
G37*
G36*
X95765480Y-122023120D02*
G01*
X95265480Y-122023120D01*
X95265480Y-121523120D01*
X95765480Y-121523120D01*
X95765480Y-122023120D01*
G37*
G36*
X95765480Y-120523120D02*
G01*
X95265480Y-120523120D01*
X95265480Y-120023120D01*
X95765480Y-120023120D01*
X95765480Y-120523120D01*
G37*
G36*
X95765480Y-120023120D02*
G01*
X95265480Y-120023120D01*
X95265480Y-119523120D01*
X95765480Y-119523120D01*
X95765480Y-120023120D01*
G37*
G36*
X95765480Y-119023120D02*
G01*
X95265480Y-119023120D01*
X95265480Y-118523120D01*
X95765480Y-118523120D01*
X95765480Y-119023120D01*
G37*
G36*
X95765480Y-118023120D02*
G01*
X95265480Y-118023120D01*
X95265480Y-117523120D01*
X95765480Y-117523120D01*
X95765480Y-118023120D01*
G37*
G36*
X95765480Y-117523120D02*
G01*
X95265480Y-117523120D01*
X95265480Y-117023120D01*
X95765480Y-117023120D01*
X95765480Y-117523120D01*
G37*
G36*
X95765480Y-117023120D02*
G01*
X95265480Y-117023120D01*
X95265480Y-116523120D01*
X95765480Y-116523120D01*
X95765480Y-117023120D01*
G37*
G36*
X95765480Y-116023120D02*
G01*
X95265480Y-116023120D01*
X95265480Y-115523120D01*
X95765480Y-115523120D01*
X95765480Y-116023120D01*
G37*
G36*
X95265480Y-132023120D02*
G01*
X94765480Y-132023120D01*
X94765480Y-131523120D01*
X95265480Y-131523120D01*
X95265480Y-132023120D01*
G37*
G36*
X95265480Y-131023120D02*
G01*
X94765480Y-131023120D01*
X94765480Y-130523120D01*
X95265480Y-130523120D01*
X95265480Y-131023120D01*
G37*
G36*
X95265480Y-130523120D02*
G01*
X94765480Y-130523120D01*
X94765480Y-130023120D01*
X95265480Y-130023120D01*
X95265480Y-130523120D01*
G37*
G36*
X95265480Y-130023120D02*
G01*
X94765480Y-130023120D01*
X94765480Y-129523120D01*
X95265480Y-129523120D01*
X95265480Y-130023120D01*
G37*
G36*
X95265480Y-129023120D02*
G01*
X94765480Y-129023120D01*
X94765480Y-128523120D01*
X95265480Y-128523120D01*
X95265480Y-129023120D01*
G37*
G36*
X95265480Y-128023120D02*
G01*
X94765480Y-128023120D01*
X94765480Y-127523120D01*
X95265480Y-127523120D01*
X95265480Y-128023120D01*
G37*
G36*
X95265480Y-127523120D02*
G01*
X94765480Y-127523120D01*
X94765480Y-127023120D01*
X95265480Y-127023120D01*
X95265480Y-127523120D01*
G37*
G36*
X95265480Y-127023120D02*
G01*
X94765480Y-127023120D01*
X94765480Y-126523120D01*
X95265480Y-126523120D01*
X95265480Y-127023120D01*
G37*
G36*
X95265480Y-122523120D02*
G01*
X94765480Y-122523120D01*
X94765480Y-122023120D01*
X95265480Y-122023120D01*
X95265480Y-122523120D01*
G37*
G36*
X95265480Y-122023120D02*
G01*
X94765480Y-122023120D01*
X94765480Y-121523120D01*
X95265480Y-121523120D01*
X95265480Y-122023120D01*
G37*
G36*
X95265480Y-121023120D02*
G01*
X94765480Y-121023120D01*
X94765480Y-120523120D01*
X95265480Y-120523120D01*
X95265480Y-121023120D01*
G37*
G36*
X95265480Y-120523120D02*
G01*
X94765480Y-120523120D01*
X94765480Y-120023120D01*
X95265480Y-120023120D01*
X95265480Y-120523120D01*
G37*
G36*
X95265480Y-119023120D02*
G01*
X94765480Y-119023120D01*
X94765480Y-118523120D01*
X95265480Y-118523120D01*
X95265480Y-119023120D01*
G37*
G36*
X95265480Y-118023120D02*
G01*
X94765480Y-118023120D01*
X94765480Y-117523120D01*
X95265480Y-117523120D01*
X95265480Y-118023120D01*
G37*
G36*
X95265480Y-117523120D02*
G01*
X94765480Y-117523120D01*
X94765480Y-117023120D01*
X95265480Y-117023120D01*
X95265480Y-117523120D01*
G37*
G36*
X95265480Y-117023120D02*
G01*
X94765480Y-117023120D01*
X94765480Y-116523120D01*
X95265480Y-116523120D01*
X95265480Y-117023120D01*
G37*
G36*
X95265480Y-116023120D02*
G01*
X94765480Y-116023120D01*
X94765480Y-115523120D01*
X95265480Y-115523120D01*
X95265480Y-116023120D01*
G37*
G36*
X94765480Y-132023120D02*
G01*
X94265480Y-132023120D01*
X94265480Y-131523120D01*
X94765480Y-131523120D01*
X94765480Y-132023120D01*
G37*
G36*
X94765480Y-129023120D02*
G01*
X94265480Y-129023120D01*
X94265480Y-128523120D01*
X94765480Y-128523120D01*
X94765480Y-129023120D01*
G37*
G36*
X94765480Y-128023120D02*
G01*
X94265480Y-128023120D01*
X94265480Y-127523120D01*
X94765480Y-127523120D01*
X94765480Y-128023120D01*
G37*
G36*
X94765480Y-127023120D02*
G01*
X94265480Y-127023120D01*
X94265480Y-126523120D01*
X94765480Y-126523120D01*
X94765480Y-127023120D01*
G37*
G36*
X94765480Y-126523120D02*
G01*
X94265480Y-126523120D01*
X94265480Y-126023120D01*
X94765480Y-126023120D01*
X94765480Y-126523120D01*
G37*
G36*
X94765480Y-125523120D02*
G01*
X94265480Y-125523120D01*
X94265480Y-125023120D01*
X94765480Y-125023120D01*
X94765480Y-125523120D01*
G37*
G36*
X94765480Y-124523120D02*
G01*
X94265480Y-124523120D01*
X94265480Y-124023120D01*
X94765480Y-124023120D01*
X94765480Y-124523120D01*
G37*
G36*
X94765480Y-123523120D02*
G01*
X94265480Y-123523120D01*
X94265480Y-123023120D01*
X94765480Y-123023120D01*
X94765480Y-123523120D01*
G37*
G36*
X94765480Y-121523120D02*
G01*
X94265480Y-121523120D01*
X94265480Y-121023120D01*
X94765480Y-121023120D01*
X94765480Y-121523120D01*
G37*
G36*
X94765480Y-119023120D02*
G01*
X94265480Y-119023120D01*
X94265480Y-118523120D01*
X94765480Y-118523120D01*
X94765480Y-119023120D01*
G37*
G36*
X94765480Y-116023120D02*
G01*
X94265480Y-116023120D01*
X94265480Y-115523120D01*
X94765480Y-115523120D01*
X94765480Y-116023120D01*
G37*
G36*
X94265480Y-132023120D02*
G01*
X93765480Y-132023120D01*
X93765480Y-131523120D01*
X94265480Y-131523120D01*
X94265480Y-132023120D01*
G37*
G36*
X94265480Y-131523120D02*
G01*
X93765480Y-131523120D01*
X93765480Y-131023120D01*
X94265480Y-131023120D01*
X94265480Y-131523120D01*
G37*
G36*
X94265480Y-131023120D02*
G01*
X93765480Y-131023120D01*
X93765480Y-130523120D01*
X94265480Y-130523120D01*
X94265480Y-131023120D01*
G37*
G36*
X94265480Y-130523120D02*
G01*
X93765480Y-130523120D01*
X93765480Y-130023120D01*
X94265480Y-130023120D01*
X94265480Y-130523120D01*
G37*
G36*
X94265480Y-130023120D02*
G01*
X93765480Y-130023120D01*
X93765480Y-129523120D01*
X94265480Y-129523120D01*
X94265480Y-130023120D01*
G37*
G36*
X94265480Y-129523120D02*
G01*
X93765480Y-129523120D01*
X93765480Y-129023120D01*
X94265480Y-129023120D01*
X94265480Y-129523120D01*
G37*
G36*
X94265480Y-129023120D02*
G01*
X93765480Y-129023120D01*
X93765480Y-128523120D01*
X94265480Y-128523120D01*
X94265480Y-129023120D01*
G37*
G36*
X94265480Y-127523120D02*
G01*
X93765480Y-127523120D01*
X93765480Y-127023120D01*
X94265480Y-127023120D01*
X94265480Y-127523120D01*
G37*
G36*
X94265480Y-127023120D02*
G01*
X93765480Y-127023120D01*
X93765480Y-126523120D01*
X94265480Y-126523120D01*
X94265480Y-127023120D01*
G37*
G36*
X94265480Y-126523120D02*
G01*
X93765480Y-126523120D01*
X93765480Y-126023120D01*
X94265480Y-126023120D01*
X94265480Y-126523120D01*
G37*
G36*
X94265480Y-126023120D02*
G01*
X93765480Y-126023120D01*
X93765480Y-125523120D01*
X94265480Y-125523120D01*
X94265480Y-126023120D01*
G37*
G36*
X94265480Y-124523120D02*
G01*
X93765480Y-124523120D01*
X93765480Y-124023120D01*
X94265480Y-124023120D01*
X94265480Y-124523120D01*
G37*
G36*
X94265480Y-124023120D02*
G01*
X93765480Y-124023120D01*
X93765480Y-123523120D01*
X94265480Y-123523120D01*
X94265480Y-124023120D01*
G37*
G36*
X94265480Y-123023120D02*
G01*
X93765480Y-123023120D01*
X93765480Y-122523120D01*
X94265480Y-122523120D01*
X94265480Y-123023120D01*
G37*
G36*
X94265480Y-121523120D02*
G01*
X93765480Y-121523120D01*
X93765480Y-121023120D01*
X94265480Y-121023120D01*
X94265480Y-121523120D01*
G37*
G36*
X94265480Y-120523120D02*
G01*
X93765480Y-120523120D01*
X93765480Y-120023120D01*
X94265480Y-120023120D01*
X94265480Y-120523120D01*
G37*
G36*
X94265480Y-120023120D02*
G01*
X93765480Y-120023120D01*
X93765480Y-119523120D01*
X94265480Y-119523120D01*
X94265480Y-120023120D01*
G37*
G36*
X94265480Y-119023120D02*
G01*
X93765480Y-119023120D01*
X93765480Y-118523120D01*
X94265480Y-118523120D01*
X94265480Y-119023120D01*
G37*
G36*
X94265480Y-118523120D02*
G01*
X93765480Y-118523120D01*
X93765480Y-118023120D01*
X94265480Y-118023120D01*
X94265480Y-118523120D01*
G37*
G36*
X94265480Y-118023120D02*
G01*
X93765480Y-118023120D01*
X93765480Y-117523120D01*
X94265480Y-117523120D01*
X94265480Y-118023120D01*
G37*
G36*
X94265480Y-117523120D02*
G01*
X93765480Y-117523120D01*
X93765480Y-117023120D01*
X94265480Y-117023120D01*
X94265480Y-117523120D01*
G37*
G36*
X94265480Y-117023120D02*
G01*
X93765480Y-117023120D01*
X93765480Y-116523120D01*
X94265480Y-116523120D01*
X94265480Y-117023120D01*
G37*
G36*
X94265480Y-116523120D02*
G01*
X93765480Y-116523120D01*
X93765480Y-116023120D01*
X94265480Y-116023120D01*
X94265480Y-116523120D01*
G37*
G36*
X94265480Y-116023120D02*
G01*
X93765480Y-116023120D01*
X93765480Y-115523120D01*
X94265480Y-115523120D01*
X94265480Y-116023120D01*
G37*
D13*
%TO.C,P1*%
X93001858Y-82567907D02*
X90876821Y-81998505D01*
X90263420Y-84287749D02*
X92388457Y-84857151D01*
X92147623Y-77255809D02*
X90263420Y-84287749D01*
X94272660Y-77825211D02*
X92147623Y-77255809D01*
X92388457Y-84857151D02*
X94272660Y-77825211D01*
D10*
%TO.C,BT1*%
X162937020Y-142516060D02*
X162937020Y-89886060D01*
X125447020Y-89886060D02*
X162937020Y-89886060D01*
X125447020Y-89886060D02*
X125447020Y-142516060D01*
X125447020Y-142516060D02*
X162937020Y-142516060D01*
D12*
%TO.C,U1*%
X112036040Y-84243360D02*
X112036040Y-84693360D01*
X112036040Y-84243360D02*
X112486040Y-84243360D01*
X119236040Y-84243360D02*
X118786040Y-84243360D01*
X119236040Y-84243360D02*
X119236040Y-84693360D01*
X119236040Y-91443360D02*
X119236040Y-90993360D01*
X119236040Y-91443360D02*
X118786040Y-91443360D01*
X112036040Y-90993360D02*
X110736040Y-90993360D01*
X112036040Y-91093360D02*
X112036040Y-90993360D01*
X112386040Y-91443360D02*
X112036040Y-91093360D01*
X112486040Y-91443360D02*
X112386040Y-91443360D01*
D11*
X111879520Y-91706700D02*
G75*
G03*
X111879520Y-91706700I-150000J0D01*
G01*
D13*
%TO.C,C1*%
X108458680Y-88423644D02*
X108458680Y-86969516D01*
X106638680Y-88423644D02*
X106638680Y-86969516D01*
%TO.C,C2*%
X179436440Y-110490084D02*
X179436440Y-109035956D01*
X177616440Y-110490084D02*
X177616440Y-109035956D01*
%TO.C,R2*%
X172466084Y-85978320D02*
X171011956Y-85978320D01*
X172466084Y-87798320D02*
X171011956Y-87798320D01*
%TO.C,R1*%
X172090164Y-79059360D02*
X170636036Y-79059360D01*
X172090164Y-80879360D02*
X170636036Y-80879360D01*
%TO.C,R4*%
X156292736Y-85197360D02*
X157746864Y-85197360D01*
X156292736Y-83377360D02*
X157746864Y-83377360D01*
%TO.C,R3*%
X156866776Y-78801640D02*
X158320904Y-78801640D01*
X156866776Y-76981640D02*
X158320904Y-76981640D01*
%TO.C,R6*%
X172394964Y-83052240D02*
X170940836Y-83052240D01*
X172394964Y-84872240D02*
X170940836Y-84872240D01*
%TO.C,R5*%
X172293364Y-76250120D02*
X170839236Y-76250120D01*
X172293364Y-78070120D02*
X170839236Y-78070120D01*
%TO.C,R8*%
X203596156Y-130155360D02*
X205050284Y-130155360D01*
X203596156Y-128335360D02*
X205050284Y-128335360D01*
%TO.C,R10*%
X166491836Y-117846520D02*
X167945964Y-117846520D01*
X166491836Y-116026520D02*
X167945964Y-116026520D01*
%TO.C,R9*%
X122063404Y-102655960D02*
X120609276Y-102655960D01*
X122063404Y-104475960D02*
X120609276Y-104475960D01*
%TO.C,R13*%
X170438400Y-110824116D02*
X170438400Y-112278244D01*
X172258400Y-110824116D02*
X172258400Y-112278244D01*
%TO.C,R14*%
X181639316Y-127681400D02*
X183093444Y-127681400D01*
X181639316Y-125861400D02*
X183093444Y-125861400D01*
%TO.C,R15*%
X165633316Y-129037760D02*
X167087444Y-129037760D01*
X165633316Y-127217760D02*
X167087444Y-127217760D01*
%TO.C,R16*%
X207340116Y-102743680D02*
X208794244Y-102743680D01*
X207340116Y-100923680D02*
X208794244Y-100923680D01*
%TO.C,R18*%
X184957636Y-105974560D02*
X186411764Y-105974560D01*
X184957636Y-104154560D02*
X186411764Y-104154560D01*
%TO.C,R19*%
X193781596Y-98395200D02*
X195235724Y-98395200D01*
X193781596Y-96575200D02*
X195235724Y-96575200D01*
%TO.C,R20*%
X183332036Y-120777680D02*
X184786164Y-120777680D01*
X183332036Y-118957680D02*
X184786164Y-118957680D01*
%TO.C,Q1*%
X175907480Y-109677120D02*
X175907480Y-110607120D01*
X175907480Y-112837120D02*
X175907480Y-111907120D01*
X175907480Y-112837120D02*
X173747480Y-112837120D01*
X175907480Y-109677120D02*
X174447480Y-109677120D01*
D14*
%TO.C,D2*%
X166898620Y-86160780D02*
G75*
G03*
X166898620Y-86160780I-200000J0D01*
G01*
%TO.C,D6*%
X192804080Y-127866140D02*
G75*
G03*
X192804080Y-127866140I-200000J0D01*
G01*
%TO.C,D7*%
X171468080Y-124040900D02*
G75*
G03*
X171468080Y-124040900I-200000J0D01*
G01*
%TO.C,D8*%
X206261000Y-97482660D02*
G75*
G03*
X206261000Y-97482660I-200000J0D01*
G01*
%TO.C,D10*%
X187058600Y-108282740D02*
G75*
G03*
X187058600Y-108282740I-200000J0D01*
G01*
%TO.C,D11*%
X193053000Y-101307900D02*
G75*
G03*
X193053000Y-101307900I-200000J0D01*
G01*
%TO.C,D12*%
X181790640Y-114327940D02*
G75*
G03*
X181790640Y-114327940I-200000J0D01*
G01*
D13*
%TO.C,R7*%
X121905924Y-107288920D02*
X120451796Y-107288920D01*
X121905924Y-109108920D02*
X120451796Y-109108920D01*
%TO.C,R11*%
X209722636Y-95093200D02*
X211176764Y-95093200D01*
X209722636Y-93273200D02*
X211176764Y-93273200D01*
%TO.C,R12*%
X122153764Y-98205880D02*
X120699636Y-98205880D01*
X122153764Y-100025880D02*
X120699636Y-100025880D01*
D14*
%TO.C,D1*%
X166827500Y-79521220D02*
G75*
G03*
X166827500Y-79521220I-200000J0D01*
G01*
%TO.C,D4*%
X205302460Y-93518680D02*
G75*
G03*
X205302460Y-93518680I-200000J0D01*
G01*
%TO.C,D9*%
X200075140Y-92385840D02*
G75*
G03*
X200075140Y-92385840I-200000J0D01*
G01*
D13*
%TO.C,R17*%
X195517876Y-91806440D02*
X196972004Y-91806440D01*
X195517876Y-89986440D02*
X196972004Y-89986440D01*
%TO.C,P1*%
D10*
X95238406Y-80835813D02*
X94272480Y-80576994D01*
X94173882Y-80944966D01*
X94195230Y-81049283D01*
X94228901Y-81107605D01*
X94308569Y-81178250D01*
X94446559Y-81215225D01*
X94550877Y-81193878D01*
X94609198Y-81160206D01*
X94679844Y-81080538D01*
X94778441Y-80712566D01*
X94844015Y-82307700D02*
X94991912Y-81755742D01*
X94917963Y-82031721D02*
X93952038Y-81772902D01*
X94114676Y-81717883D01*
X94231319Y-81650540D01*
X94301965Y-81570872D01*
X91133142Y-77528886D02*
X91237459Y-77507539D01*
X91375449Y-77544513D01*
X91501113Y-77627484D01*
X91568457Y-77744126D01*
X91589804Y-77848444D01*
X91586501Y-78044754D01*
X91549527Y-78182744D01*
X91454232Y-78354405D01*
X91383586Y-78434073D01*
X91266944Y-78501417D01*
X91116630Y-78510439D01*
X91024637Y-78485790D01*
X90898972Y-78402819D01*
X90865300Y-78344498D01*
X90951573Y-78022522D01*
X91135559Y-78071821D01*
X90426683Y-78325568D02*
X90685502Y-77359642D01*
X89874725Y-78177672D01*
X90133544Y-77211746D01*
X89414760Y-78054424D02*
X89673579Y-77088499D01*
X89443597Y-77026875D01*
X89293283Y-77035897D01*
X89176640Y-77103241D01*
X89105995Y-77182909D01*
X89010699Y-77354570D01*
X88973725Y-77492560D01*
X88970423Y-77688870D01*
X88991770Y-77793188D01*
X89059113Y-77909830D01*
X89184778Y-77992801D01*
X89414760Y-78054424D01*
X90164793Y-80892885D02*
X90610015Y-80519194D01*
X90716750Y-81040782D02*
X90975569Y-80074856D01*
X90607598Y-79976258D01*
X90503280Y-79997605D01*
X90444959Y-80031277D01*
X90374313Y-80110945D01*
X90337339Y-80248935D01*
X90358686Y-80353252D01*
X90392357Y-80411574D01*
X90472026Y-80482220D01*
X90839997Y-80580817D01*
X89842817Y-80806612D02*
X89509402Y-80027090D01*
X90015363Y-80162662D02*
X89336856Y-80671040D01*
X90296464Y-82701306D02*
X89744506Y-82553409D01*
X89761666Y-83593283D02*
X90020485Y-82627357D01*
X89255705Y-83457711D02*
X88922289Y-82678189D01*
X89428251Y-82813761D02*
X88749743Y-83322139D01*
%TO.C,SW1*%
X121427321Y-136000026D02*
X121474940Y-136142883D01*
X121474940Y-136380979D01*
X121427321Y-136476217D01*
X121379702Y-136523836D01*
X121284464Y-136571455D01*
X121189226Y-136571455D01*
X121093988Y-136523836D01*
X121046369Y-136476217D01*
X120998750Y-136380979D01*
X120951131Y-136190502D01*
X120903512Y-136095264D01*
X120855893Y-136047645D01*
X120760655Y-136000026D01*
X120665417Y-136000026D01*
X120570179Y-136047645D01*
X120522560Y-136095264D01*
X120474940Y-136190502D01*
X120474940Y-136428598D01*
X120522560Y-136571455D01*
X120474940Y-136904788D02*
X121474940Y-137142883D01*
X120760655Y-137333360D01*
X121474940Y-137523836D01*
X120474940Y-137761931D01*
X121474940Y-138666693D02*
X121474940Y-138095264D01*
X121474940Y-138380979D02*
X120474940Y-138380979D01*
X120617798Y-138285740D01*
X120713036Y-138190502D01*
X120760655Y-138095264D01*
X116765400Y-140722740D02*
X116574924Y-140722740D01*
X116479686Y-140770360D01*
X116384448Y-140865598D01*
X116336829Y-141056074D01*
X116336829Y-141389407D01*
X116384448Y-141579883D01*
X116479686Y-141675121D01*
X116574924Y-141722740D01*
X116765400Y-141722740D01*
X116860639Y-141675121D01*
X116955877Y-141579883D01*
X117003496Y-141389407D01*
X117003496Y-141056074D01*
X116955877Y-140865598D01*
X116860639Y-140770360D01*
X116765400Y-140722740D01*
X115574924Y-141198931D02*
X115908258Y-141198931D01*
X115908258Y-141722740D02*
X115908258Y-140722740D01*
X115432067Y-140722740D01*
X114717781Y-141198931D02*
X115051115Y-141198931D01*
X115051115Y-141722740D02*
X115051115Y-140722740D01*
X114574924Y-140722740D01*
X116409207Y-131990220D02*
X116218731Y-131990220D01*
X116123493Y-132037840D01*
X116028255Y-132133078D01*
X115980636Y-132323554D01*
X115980636Y-132656887D01*
X116028255Y-132847363D01*
X116123493Y-132942601D01*
X116218731Y-132990220D01*
X116409207Y-132990220D01*
X116504445Y-132942601D01*
X116599683Y-132847363D01*
X116647302Y-132656887D01*
X116647302Y-132323554D01*
X116599683Y-132133078D01*
X116504445Y-132037840D01*
X116409207Y-131990220D01*
X115552064Y-132990220D02*
X115552064Y-131990220D01*
X114980636Y-132990220D01*
X114980636Y-131990220D01*
%TO.C,BT1*%
X158833511Y-138261505D02*
X158881130Y-138404362D01*
X158928749Y-138451981D01*
X159023987Y-138499600D01*
X159166844Y-138499600D01*
X159262082Y-138451981D01*
X159309701Y-138404362D01*
X159357320Y-138309124D01*
X159357320Y-137928172D01*
X158357320Y-137928172D01*
X158357320Y-138261505D01*
X158404940Y-138356743D01*
X158452559Y-138404362D01*
X158547797Y-138451981D01*
X158643035Y-138451981D01*
X158738273Y-138404362D01*
X158785892Y-138356743D01*
X158833511Y-138261505D01*
X158833511Y-137928172D01*
X158357320Y-138785315D02*
X158357320Y-139356743D01*
X159357320Y-139071029D02*
X158357320Y-139071029D01*
X159357320Y-140213886D02*
X159357320Y-139642458D01*
X159357320Y-139928172D02*
X158357320Y-139928172D01*
X158500178Y-139832934D01*
X158595416Y-139737696D01*
X158643035Y-139642458D01*
X155314400Y-134782726D02*
X156314400Y-135116060D01*
X155314400Y-135449393D01*
X156219162Y-136354155D02*
X156266781Y-136306536D01*
X156314400Y-136163679D01*
X156314400Y-136068440D01*
X156266781Y-135925583D01*
X156171543Y-135830345D01*
X156076305Y-135782726D01*
X155885829Y-135735107D01*
X155742972Y-135735107D01*
X155552496Y-135782726D01*
X155457258Y-135830345D01*
X155362020Y-135925583D01*
X155314400Y-136068440D01*
X155314400Y-136163679D01*
X155362020Y-136306536D01*
X155409639Y-136354155D01*
X156219162Y-137354155D02*
X156266781Y-137306536D01*
X156314400Y-137163679D01*
X156314400Y-137068440D01*
X156266781Y-136925583D01*
X156171543Y-136830345D01*
X156076305Y-136782726D01*
X155885829Y-136735107D01*
X155742972Y-136735107D01*
X155552496Y-136782726D01*
X155457258Y-136830345D01*
X155362020Y-136925583D01*
X155314400Y-137068440D01*
X155314400Y-137163679D01*
X155362020Y-137306536D01*
X155409639Y-137354155D01*
X142662020Y-135354155D02*
X142614400Y-135258917D01*
X142614400Y-135116060D01*
X142662020Y-134973202D01*
X142757258Y-134877964D01*
X142852496Y-134830345D01*
X143042972Y-134782726D01*
X143185829Y-134782726D01*
X143376305Y-134830345D01*
X143471543Y-134877964D01*
X143566781Y-134973202D01*
X143614400Y-135116060D01*
X143614400Y-135211298D01*
X143566781Y-135354155D01*
X143519162Y-135401774D01*
X143185829Y-135401774D01*
X143185829Y-135211298D01*
X143614400Y-135830345D02*
X142614400Y-135830345D01*
X143614400Y-136401774D01*
X142614400Y-136401774D01*
X143614400Y-136877964D02*
X142614400Y-136877964D01*
X142614400Y-137116060D01*
X142662020Y-137258917D01*
X142757258Y-137354155D01*
X142852496Y-137401774D01*
X143042972Y-137449393D01*
X143185829Y-137449393D01*
X143376305Y-137401774D01*
X143471543Y-137354155D01*
X143566781Y-137258917D01*
X143614400Y-137116060D01*
X143614400Y-136877964D01*
%TO.C,U1*%
X116397944Y-93545740D02*
X116397944Y-94355264D01*
X116350325Y-94450502D01*
X116302706Y-94498121D01*
X116207468Y-94545740D01*
X116016992Y-94545740D01*
X115921754Y-94498121D01*
X115874135Y-94450502D01*
X115826516Y-94355264D01*
X115826516Y-93545740D01*
X114826516Y-94545740D02*
X115397944Y-94545740D01*
X115112230Y-94545740D02*
X115112230Y-93545740D01*
X115207468Y-93688598D01*
X115302706Y-93783836D01*
X115397944Y-93831455D01*
%TO.C,D5*%
X161225015Y-122512080D02*
X161225015Y-121512080D01*
X160986920Y-121512080D01*
X160844062Y-121559700D01*
X160748824Y-121654938D01*
X160701205Y-121750176D01*
X160653586Y-121940652D01*
X160653586Y-122083509D01*
X160701205Y-122273985D01*
X160748824Y-122369223D01*
X160844062Y-122464461D01*
X160986920Y-122512080D01*
X161225015Y-122512080D01*
X159748824Y-121512080D02*
X160225015Y-121512080D01*
X160272634Y-121988271D01*
X160225015Y-121940652D01*
X160129777Y-121893033D01*
X159891681Y-121893033D01*
X159796443Y-121940652D01*
X159748824Y-121988271D01*
X159701205Y-122083509D01*
X159701205Y-122321604D01*
X159748824Y-122416842D01*
X159796443Y-122464461D01*
X159891681Y-122512080D01*
X160129777Y-122512080D01*
X160225015Y-122464461D01*
X160272634Y-122416842D01*
X160071380Y-118065585D02*
X160071380Y-118637014D01*
X161071380Y-118351300D02*
X160071380Y-118351300D01*
%TO.C,C1*%
X109725822Y-87529913D02*
X109773441Y-87482294D01*
X109821060Y-87339437D01*
X109821060Y-87244199D01*
X109773441Y-87101341D01*
X109678203Y-87006103D01*
X109582965Y-86958484D01*
X109392489Y-86910865D01*
X109249632Y-86910865D01*
X109059156Y-86958484D01*
X108963918Y-87006103D01*
X108868680Y-87101341D01*
X108821060Y-87244199D01*
X108821060Y-87339437D01*
X108868680Y-87482294D01*
X108916299Y-87529913D01*
X109821060Y-88482294D02*
X109821060Y-87910865D01*
X109821060Y-88196580D02*
X108821060Y-88196580D01*
X108963918Y-88101341D01*
X109059156Y-88006103D01*
X109106775Y-87910865D01*
%TO.C,C2*%
X178959782Y-105901113D02*
X179007401Y-105853494D01*
X179055020Y-105710637D01*
X179055020Y-105615399D01*
X179007401Y-105472541D01*
X178912163Y-105377303D01*
X178816925Y-105329684D01*
X178626449Y-105282065D01*
X178483592Y-105282065D01*
X178293116Y-105329684D01*
X178197878Y-105377303D01*
X178102640Y-105472541D01*
X178055020Y-105615399D01*
X178055020Y-105710637D01*
X178102640Y-105853494D01*
X178150259Y-105901113D01*
X178150259Y-106282065D02*
X178102640Y-106329684D01*
X178055020Y-106424922D01*
X178055020Y-106663018D01*
X178102640Y-106758256D01*
X178150259Y-106805875D01*
X178245497Y-106853494D01*
X178340735Y-106853494D01*
X178483592Y-106805875D01*
X179055020Y-106234446D01*
X179055020Y-106853494D01*
%TO.C,D3*%
X201017095Y-128575060D02*
X201017095Y-127575060D01*
X200779000Y-127575060D01*
X200636142Y-127622680D01*
X200540904Y-127717918D01*
X200493285Y-127813156D01*
X200445666Y-128003632D01*
X200445666Y-128146489D01*
X200493285Y-128336965D01*
X200540904Y-128432203D01*
X200636142Y-128527441D01*
X200779000Y-128575060D01*
X201017095Y-128575060D01*
X200112333Y-127575060D02*
X199493285Y-127575060D01*
X199826619Y-127956013D01*
X199683761Y-127956013D01*
X199588523Y-128003632D01*
X199540904Y-128051251D01*
X199493285Y-128146489D01*
X199493285Y-128384584D01*
X199540904Y-128479822D01*
X199588523Y-128527441D01*
X199683761Y-128575060D01*
X199969476Y-128575060D01*
X200064714Y-128527441D01*
X200112333Y-128479822D01*
X199645020Y-123943145D02*
X199645020Y-124514574D01*
X200645020Y-124228860D02*
X199645020Y-124228860D01*
%TO.C,R2*%
X176103846Y-87508340D02*
X176437180Y-87032150D01*
X176675275Y-87508340D02*
X176675275Y-86508340D01*
X176294322Y-86508340D01*
X176199084Y-86555960D01*
X176151465Y-86603579D01*
X176103846Y-86698817D01*
X176103846Y-86841674D01*
X176151465Y-86936912D01*
X176199084Y-86984531D01*
X176294322Y-87032150D01*
X176675275Y-87032150D01*
X175722894Y-86603579D02*
X175675275Y-86555960D01*
X175580037Y-86508340D01*
X175341941Y-86508340D01*
X175246703Y-86555960D01*
X175199084Y-86603579D01*
X175151465Y-86698817D01*
X175151465Y-86794055D01*
X175199084Y-86936912D01*
X175770513Y-87508340D01*
X175151465Y-87508340D01*
%TO.C,R1*%
X175744086Y-80548740D02*
X176077420Y-80072550D01*
X176315515Y-80548740D02*
X176315515Y-79548740D01*
X175934562Y-79548740D01*
X175839324Y-79596360D01*
X175791705Y-79643979D01*
X175744086Y-79739217D01*
X175744086Y-79882074D01*
X175791705Y-79977312D01*
X175839324Y-80024931D01*
X175934562Y-80072550D01*
X176315515Y-80072550D01*
X174791705Y-80548740D02*
X175363134Y-80548740D01*
X175077420Y-80548740D02*
X175077420Y-79548740D01*
X175172658Y-79691598D01*
X175267896Y-79786836D01*
X175363134Y-79834455D01*
%TO.C,R4*%
X157186466Y-86559740D02*
X157519800Y-86083550D01*
X157757895Y-86559740D02*
X157757895Y-85559740D01*
X157376942Y-85559740D01*
X157281704Y-85607360D01*
X157234085Y-85654979D01*
X157186466Y-85750217D01*
X157186466Y-85893074D01*
X157234085Y-85988312D01*
X157281704Y-86035931D01*
X157376942Y-86083550D01*
X157757895Y-86083550D01*
X156329323Y-85893074D02*
X156329323Y-86559740D01*
X156567419Y-85512121D02*
X156805514Y-86226407D01*
X156186466Y-86226407D01*
%TO.C,R3*%
X157760506Y-80164020D02*
X158093840Y-79687830D01*
X158331935Y-80164020D02*
X158331935Y-79164020D01*
X157950982Y-79164020D01*
X157855744Y-79211640D01*
X157808125Y-79259259D01*
X157760506Y-79354497D01*
X157760506Y-79497354D01*
X157808125Y-79592592D01*
X157855744Y-79640211D01*
X157950982Y-79687830D01*
X158331935Y-79687830D01*
X157427173Y-79164020D02*
X156808125Y-79164020D01*
X157141459Y-79544973D01*
X156998601Y-79544973D01*
X156903363Y-79592592D01*
X156855744Y-79640211D01*
X156808125Y-79735449D01*
X156808125Y-79973544D01*
X156855744Y-80068782D01*
X156903363Y-80116401D01*
X156998601Y-80164020D01*
X157284316Y-80164020D01*
X157379554Y-80116401D01*
X157427173Y-80068782D01*
%TO.C,R6*%
X175981926Y-84440020D02*
X176315260Y-83963830D01*
X176553355Y-84440020D02*
X176553355Y-83440020D01*
X176172402Y-83440020D01*
X176077164Y-83487640D01*
X176029545Y-83535259D01*
X175981926Y-83630497D01*
X175981926Y-83773354D01*
X176029545Y-83868592D01*
X176077164Y-83916211D01*
X176172402Y-83963830D01*
X176553355Y-83963830D01*
X175124783Y-83440020D02*
X175315260Y-83440020D01*
X175410498Y-83487640D01*
X175458117Y-83535259D01*
X175553355Y-83678116D01*
X175600974Y-83868592D01*
X175600974Y-84249544D01*
X175553355Y-84344782D01*
X175505736Y-84392401D01*
X175410498Y-84440020D01*
X175220021Y-84440020D01*
X175124783Y-84392401D01*
X175077164Y-84344782D01*
X175029545Y-84249544D01*
X175029545Y-84011449D01*
X175077164Y-83916211D01*
X175124783Y-83868592D01*
X175220021Y-83820973D01*
X175410498Y-83820973D01*
X175505736Y-83868592D01*
X175553355Y-83916211D01*
X175600974Y-84011449D01*
%TO.C,R5*%
X176215606Y-77521060D02*
X176548940Y-77044870D01*
X176787035Y-77521060D02*
X176787035Y-76521060D01*
X176406082Y-76521060D01*
X176310844Y-76568680D01*
X176263225Y-76616299D01*
X176215606Y-76711537D01*
X176215606Y-76854394D01*
X176263225Y-76949632D01*
X176310844Y-76997251D01*
X176406082Y-77044870D01*
X176787035Y-77044870D01*
X175310844Y-76521060D02*
X175787035Y-76521060D01*
X175834654Y-76997251D01*
X175787035Y-76949632D01*
X175691797Y-76902013D01*
X175453701Y-76902013D01*
X175358463Y-76949632D01*
X175310844Y-76997251D01*
X175263225Y-77092489D01*
X175263225Y-77330584D01*
X175310844Y-77425822D01*
X175358463Y-77473441D01*
X175453701Y-77521060D01*
X175691797Y-77521060D01*
X175787035Y-77473441D01*
X175834654Y-77425822D01*
%TO.C,R8*%
X204489886Y-131517740D02*
X204823220Y-131041550D01*
X205061315Y-131517740D02*
X205061315Y-130517740D01*
X204680362Y-130517740D01*
X204585124Y-130565360D01*
X204537505Y-130612979D01*
X204489886Y-130708217D01*
X204489886Y-130851074D01*
X204537505Y-130946312D01*
X204585124Y-130993931D01*
X204680362Y-131041550D01*
X205061315Y-131041550D01*
X203918458Y-130946312D02*
X204013696Y-130898693D01*
X204061315Y-130851074D01*
X204108934Y-130755836D01*
X204108934Y-130708217D01*
X204061315Y-130612979D01*
X204013696Y-130565360D01*
X203918458Y-130517740D01*
X203727981Y-130517740D01*
X203632743Y-130565360D01*
X203585124Y-130612979D01*
X203537505Y-130708217D01*
X203537505Y-130755836D01*
X203585124Y-130851074D01*
X203632743Y-130898693D01*
X203727981Y-130946312D01*
X203918458Y-130946312D01*
X204013696Y-130993931D01*
X204061315Y-131041550D01*
X204108934Y-131136788D01*
X204108934Y-131327264D01*
X204061315Y-131422502D01*
X204013696Y-131470121D01*
X203918458Y-131517740D01*
X203727981Y-131517740D01*
X203632743Y-131470121D01*
X203585124Y-131422502D01*
X203537505Y-131327264D01*
X203537505Y-131136788D01*
X203585124Y-131041550D01*
X203632743Y-130993931D01*
X203727981Y-130946312D01*
%TO.C,R10*%
X167861757Y-119208900D02*
X168195090Y-118732710D01*
X168433185Y-119208900D02*
X168433185Y-118208900D01*
X168052233Y-118208900D01*
X167956995Y-118256520D01*
X167909376Y-118304139D01*
X167861757Y-118399377D01*
X167861757Y-118542234D01*
X167909376Y-118637472D01*
X167956995Y-118685091D01*
X168052233Y-118732710D01*
X168433185Y-118732710D01*
X166909376Y-119208900D02*
X167480804Y-119208900D01*
X167195090Y-119208900D02*
X167195090Y-118208900D01*
X167290328Y-118351758D01*
X167385566Y-118446996D01*
X167480804Y-118494615D01*
X166290328Y-118208900D02*
X166195090Y-118208900D01*
X166099852Y-118256520D01*
X166052233Y-118304139D01*
X166004614Y-118399377D01*
X165956995Y-118589853D01*
X165956995Y-118827948D01*
X166004614Y-119018424D01*
X166052233Y-119113662D01*
X166099852Y-119161281D01*
X166195090Y-119208900D01*
X166290328Y-119208900D01*
X166385566Y-119161281D01*
X166433185Y-119113662D01*
X166480804Y-119018424D01*
X166528423Y-118827948D01*
X166528423Y-118589853D01*
X166480804Y-118399377D01*
X166433185Y-118304139D01*
X166385566Y-118256520D01*
X166290328Y-118208900D01*
%TO.C,R9*%
X121503006Y-102198340D02*
X121836340Y-101722150D01*
X122074435Y-102198340D02*
X122074435Y-101198340D01*
X121693482Y-101198340D01*
X121598244Y-101245960D01*
X121550625Y-101293579D01*
X121503006Y-101388817D01*
X121503006Y-101531674D01*
X121550625Y-101626912D01*
X121598244Y-101674531D01*
X121693482Y-101722150D01*
X122074435Y-101722150D01*
X121026816Y-102198340D02*
X120836340Y-102198340D01*
X120741101Y-102150721D01*
X120693482Y-102103102D01*
X120598244Y-101960245D01*
X120550625Y-101769769D01*
X120550625Y-101388817D01*
X120598244Y-101293579D01*
X120645863Y-101245960D01*
X120741101Y-101198340D01*
X120931578Y-101198340D01*
X121026816Y-101245960D01*
X121074435Y-101293579D01*
X121122054Y-101388817D01*
X121122054Y-101626912D01*
X121074435Y-101722150D01*
X121026816Y-101769769D01*
X120931578Y-101817388D01*
X120741101Y-101817388D01*
X120645863Y-101769769D01*
X120598244Y-101722150D01*
X120550625Y-101626912D01*
%TO.C,R13*%
X169980780Y-110908322D02*
X169504590Y-110574989D01*
X169980780Y-110336894D02*
X168980780Y-110336894D01*
X168980780Y-110717846D01*
X169028400Y-110813084D01*
X169076019Y-110860703D01*
X169171257Y-110908322D01*
X169314114Y-110908322D01*
X169409352Y-110860703D01*
X169456971Y-110813084D01*
X169504590Y-110717846D01*
X169504590Y-110336894D01*
X169980780Y-111860703D02*
X169980780Y-111289275D01*
X169980780Y-111574989D02*
X168980780Y-111574989D01*
X169123638Y-111479751D01*
X169218876Y-111384513D01*
X169266495Y-111289275D01*
X168980780Y-112194037D02*
X168980780Y-112813084D01*
X169361733Y-112479751D01*
X169361733Y-112622608D01*
X169409352Y-112717846D01*
X169456971Y-112765465D01*
X169552209Y-112813084D01*
X169790304Y-112813084D01*
X169885542Y-112765465D01*
X169933161Y-112717846D01*
X169980780Y-112622608D01*
X169980780Y-112336894D01*
X169933161Y-112241656D01*
X169885542Y-112194037D01*
%TO.C,R14*%
X183009237Y-129043780D02*
X183342570Y-128567590D01*
X183580665Y-129043780D02*
X183580665Y-128043780D01*
X183199713Y-128043780D01*
X183104475Y-128091400D01*
X183056856Y-128139019D01*
X183009237Y-128234257D01*
X183009237Y-128377114D01*
X183056856Y-128472352D01*
X183104475Y-128519971D01*
X183199713Y-128567590D01*
X183580665Y-128567590D01*
X182056856Y-129043780D02*
X182628284Y-129043780D01*
X182342570Y-129043780D02*
X182342570Y-128043780D01*
X182437808Y-128186638D01*
X182533046Y-128281876D01*
X182628284Y-128329495D01*
X181199713Y-128377114D02*
X181199713Y-129043780D01*
X181437808Y-127996161D02*
X181675903Y-128710447D01*
X181056856Y-128710447D01*
%TO.C,R15*%
X167003237Y-130400140D02*
X167336570Y-129923950D01*
X167574665Y-130400140D02*
X167574665Y-129400140D01*
X167193713Y-129400140D01*
X167098475Y-129447760D01*
X167050856Y-129495379D01*
X167003237Y-129590617D01*
X167003237Y-129733474D01*
X167050856Y-129828712D01*
X167098475Y-129876331D01*
X167193713Y-129923950D01*
X167574665Y-129923950D01*
X166050856Y-130400140D02*
X166622284Y-130400140D01*
X166336570Y-130400140D02*
X166336570Y-129400140D01*
X166431808Y-129542998D01*
X166527046Y-129638236D01*
X166622284Y-129685855D01*
X165146094Y-129400140D02*
X165622284Y-129400140D01*
X165669903Y-129876331D01*
X165622284Y-129828712D01*
X165527046Y-129781093D01*
X165288951Y-129781093D01*
X165193713Y-129828712D01*
X165146094Y-129876331D01*
X165098475Y-129971569D01*
X165098475Y-130209664D01*
X165146094Y-130304902D01*
X165193713Y-130352521D01*
X165288951Y-130400140D01*
X165527046Y-130400140D01*
X165622284Y-130352521D01*
X165669903Y-130304902D01*
%TO.C,R16*%
X208710037Y-104106060D02*
X209043370Y-103629870D01*
X209281465Y-104106060D02*
X209281465Y-103106060D01*
X208900513Y-103106060D01*
X208805275Y-103153680D01*
X208757656Y-103201299D01*
X208710037Y-103296537D01*
X208710037Y-103439394D01*
X208757656Y-103534632D01*
X208805275Y-103582251D01*
X208900513Y-103629870D01*
X209281465Y-103629870D01*
X207757656Y-104106060D02*
X208329084Y-104106060D01*
X208043370Y-104106060D02*
X208043370Y-103106060D01*
X208138608Y-103248918D01*
X208233846Y-103344156D01*
X208329084Y-103391775D01*
X206900513Y-103106060D02*
X207090989Y-103106060D01*
X207186227Y-103153680D01*
X207233846Y-103201299D01*
X207329084Y-103344156D01*
X207376703Y-103534632D01*
X207376703Y-103915584D01*
X207329084Y-104010822D01*
X207281465Y-104058441D01*
X207186227Y-104106060D01*
X206995751Y-104106060D01*
X206900513Y-104058441D01*
X206852894Y-104010822D01*
X206805275Y-103915584D01*
X206805275Y-103677489D01*
X206852894Y-103582251D01*
X206900513Y-103534632D01*
X206995751Y-103487013D01*
X207186227Y-103487013D01*
X207281465Y-103534632D01*
X207329084Y-103582251D01*
X207376703Y-103677489D01*
%TO.C,R18*%
X186327557Y-107336940D02*
X186660890Y-106860750D01*
X186898985Y-107336940D02*
X186898985Y-106336940D01*
X186518033Y-106336940D01*
X186422795Y-106384560D01*
X186375176Y-106432179D01*
X186327557Y-106527417D01*
X186327557Y-106670274D01*
X186375176Y-106765512D01*
X186422795Y-106813131D01*
X186518033Y-106860750D01*
X186898985Y-106860750D01*
X185375176Y-107336940D02*
X185946604Y-107336940D01*
X185660890Y-107336940D02*
X185660890Y-106336940D01*
X185756128Y-106479798D01*
X185851366Y-106575036D01*
X185946604Y-106622655D01*
X184803747Y-106765512D02*
X184898985Y-106717893D01*
X184946604Y-106670274D01*
X184994223Y-106575036D01*
X184994223Y-106527417D01*
X184946604Y-106432179D01*
X184898985Y-106384560D01*
X184803747Y-106336940D01*
X184613271Y-106336940D01*
X184518033Y-106384560D01*
X184470414Y-106432179D01*
X184422795Y-106527417D01*
X184422795Y-106575036D01*
X184470414Y-106670274D01*
X184518033Y-106717893D01*
X184613271Y-106765512D01*
X184803747Y-106765512D01*
X184898985Y-106813131D01*
X184946604Y-106860750D01*
X184994223Y-106955988D01*
X184994223Y-107146464D01*
X184946604Y-107241702D01*
X184898985Y-107289321D01*
X184803747Y-107336940D01*
X184613271Y-107336940D01*
X184518033Y-107289321D01*
X184470414Y-107241702D01*
X184422795Y-107146464D01*
X184422795Y-106955988D01*
X184470414Y-106860750D01*
X184518033Y-106813131D01*
X184613271Y-106765512D01*
%TO.C,R19*%
X195151517Y-99757580D02*
X195484850Y-99281390D01*
X195722945Y-99757580D02*
X195722945Y-98757580D01*
X195341993Y-98757580D01*
X195246755Y-98805200D01*
X195199136Y-98852819D01*
X195151517Y-98948057D01*
X195151517Y-99090914D01*
X195199136Y-99186152D01*
X195246755Y-99233771D01*
X195341993Y-99281390D01*
X195722945Y-99281390D01*
X194199136Y-99757580D02*
X194770564Y-99757580D01*
X194484850Y-99757580D02*
X194484850Y-98757580D01*
X194580088Y-98900438D01*
X194675326Y-98995676D01*
X194770564Y-99043295D01*
X193722945Y-99757580D02*
X193532469Y-99757580D01*
X193437231Y-99709961D01*
X193389612Y-99662342D01*
X193294374Y-99519485D01*
X193246755Y-99329009D01*
X193246755Y-98948057D01*
X193294374Y-98852819D01*
X193341993Y-98805200D01*
X193437231Y-98757580D01*
X193627707Y-98757580D01*
X193722945Y-98805200D01*
X193770564Y-98852819D01*
X193818183Y-98948057D01*
X193818183Y-99186152D01*
X193770564Y-99281390D01*
X193722945Y-99329009D01*
X193627707Y-99376628D01*
X193437231Y-99376628D01*
X193341993Y-99329009D01*
X193294374Y-99281390D01*
X193246755Y-99186152D01*
%TO.C,R20*%
X184701957Y-122140060D02*
X185035290Y-121663870D01*
X185273385Y-122140060D02*
X185273385Y-121140060D01*
X184892433Y-121140060D01*
X184797195Y-121187680D01*
X184749576Y-121235299D01*
X184701957Y-121330537D01*
X184701957Y-121473394D01*
X184749576Y-121568632D01*
X184797195Y-121616251D01*
X184892433Y-121663870D01*
X185273385Y-121663870D01*
X184321004Y-121235299D02*
X184273385Y-121187680D01*
X184178147Y-121140060D01*
X183940052Y-121140060D01*
X183844814Y-121187680D01*
X183797195Y-121235299D01*
X183749576Y-121330537D01*
X183749576Y-121425775D01*
X183797195Y-121568632D01*
X184368623Y-122140060D01*
X183749576Y-122140060D01*
X183130528Y-121140060D02*
X183035290Y-121140060D01*
X182940052Y-121187680D01*
X182892433Y-121235299D01*
X182844814Y-121330537D01*
X182797195Y-121521013D01*
X182797195Y-121759108D01*
X182844814Y-121949584D01*
X182892433Y-122044822D01*
X182940052Y-122092441D01*
X183035290Y-122140060D01*
X183130528Y-122140060D01*
X183225766Y-122092441D01*
X183273385Y-122044822D01*
X183321004Y-121949584D01*
X183368623Y-121759108D01*
X183368623Y-121521013D01*
X183321004Y-121330537D01*
X183273385Y-121235299D01*
X183225766Y-121187680D01*
X183130528Y-121140060D01*
%TO.C,Q1*%
X174845718Y-114512379D02*
X174940956Y-114464760D01*
X175036194Y-114369521D01*
X175179051Y-114226664D01*
X175274289Y-114179045D01*
X175369527Y-114179045D01*
X175321908Y-114417140D02*
X175417146Y-114369521D01*
X175512384Y-114274283D01*
X175560003Y-114083807D01*
X175560003Y-113750474D01*
X175512384Y-113559998D01*
X175417146Y-113464760D01*
X175321908Y-113417140D01*
X175131432Y-113417140D01*
X175036194Y-113464760D01*
X174940956Y-113559998D01*
X174893337Y-113750474D01*
X174893337Y-114083807D01*
X174940956Y-114274283D01*
X175036194Y-114369521D01*
X175131432Y-114417140D01*
X175321908Y-114417140D01*
X173940956Y-114417140D02*
X174512384Y-114417140D01*
X174226670Y-114417140D02*
X174226670Y-113417140D01*
X174321908Y-113559998D01*
X174417146Y-113655236D01*
X174512384Y-113702855D01*
%TO.C,D2*%
X166019395Y-82747280D02*
X166019395Y-81747280D01*
X165781300Y-81747280D01*
X165638442Y-81794900D01*
X165543204Y-81890138D01*
X165495585Y-81985376D01*
X165447966Y-82175852D01*
X165447966Y-82318709D01*
X165495585Y-82509185D01*
X165543204Y-82604423D01*
X165638442Y-82699661D01*
X165781300Y-82747280D01*
X166019395Y-82747280D01*
X165067014Y-81842519D02*
X165019395Y-81794900D01*
X164924157Y-81747280D01*
X164686061Y-81747280D01*
X164590823Y-81794900D01*
X164543204Y-81842519D01*
X164495585Y-81937757D01*
X164495585Y-82032995D01*
X164543204Y-82175852D01*
X165114633Y-82747280D01*
X164495585Y-82747280D01*
%TO.C,D6*%
X194511880Y-126012984D02*
X193511880Y-126012984D01*
X193511880Y-126251080D01*
X193559500Y-126393937D01*
X193654738Y-126489175D01*
X193749976Y-126536794D01*
X193940452Y-126584413D01*
X194083309Y-126584413D01*
X194273785Y-126536794D01*
X194369023Y-126489175D01*
X194464261Y-126393937D01*
X194511880Y-126251080D01*
X194511880Y-126012984D01*
X193511880Y-127441556D02*
X193511880Y-127251080D01*
X193559500Y-127155841D01*
X193607119Y-127108222D01*
X193749976Y-127012984D01*
X193940452Y-126965365D01*
X194321404Y-126965365D01*
X194416642Y-127012984D01*
X194464261Y-127060603D01*
X194511880Y-127155841D01*
X194511880Y-127346318D01*
X194464261Y-127441556D01*
X194416642Y-127489175D01*
X194321404Y-127536794D01*
X194083309Y-127536794D01*
X193988071Y-127489175D01*
X193940452Y-127441556D01*
X193892833Y-127346318D01*
X193892833Y-127155841D01*
X193940452Y-127060603D01*
X193988071Y-127012984D01*
X194083309Y-126965365D01*
%TO.C,D7*%
X172271119Y-123663935D02*
X173271119Y-123663935D01*
X173271119Y-123425840D01*
X173223500Y-123282982D01*
X173128261Y-123187744D01*
X173033023Y-123140125D01*
X172842547Y-123092506D01*
X172699690Y-123092506D01*
X172509214Y-123140125D01*
X172413976Y-123187744D01*
X172318738Y-123282982D01*
X172271119Y-123425840D01*
X172271119Y-123663935D01*
X173271119Y-122759173D02*
X173271119Y-122092506D01*
X172271119Y-122521078D01*
%TO.C,D8*%
X208036420Y-94979264D02*
X207036420Y-94979264D01*
X207036420Y-95217360D01*
X207084040Y-95360217D01*
X207179278Y-95455455D01*
X207274516Y-95503074D01*
X207464992Y-95550693D01*
X207607849Y-95550693D01*
X207798325Y-95503074D01*
X207893563Y-95455455D01*
X207988801Y-95360217D01*
X208036420Y-95217360D01*
X208036420Y-94979264D01*
X207464992Y-96122121D02*
X207417373Y-96026883D01*
X207369754Y-95979264D01*
X207274516Y-95931645D01*
X207226897Y-95931645D01*
X207131659Y-95979264D01*
X207084040Y-96026883D01*
X207036420Y-96122121D01*
X207036420Y-96312598D01*
X207084040Y-96407836D01*
X207131659Y-96455455D01*
X207226897Y-96503074D01*
X207274516Y-96503074D01*
X207369754Y-96455455D01*
X207417373Y-96407836D01*
X207464992Y-96312598D01*
X207464992Y-96122121D01*
X207512611Y-96026883D01*
X207560230Y-95979264D01*
X207655468Y-95931645D01*
X207845944Y-95931645D01*
X207941182Y-95979264D01*
X207988801Y-96026883D01*
X208036420Y-96122121D01*
X208036420Y-96312598D01*
X207988801Y-96407836D01*
X207941182Y-96455455D01*
X207845944Y-96503074D01*
X207655468Y-96503074D01*
X207560230Y-96455455D01*
X207512611Y-96407836D01*
X207464992Y-96312598D01*
%TO.C,D10*%
X196112080Y-108955674D02*
X195112080Y-108955674D01*
X195112080Y-109193769D01*
X195159700Y-109336626D01*
X195254938Y-109431864D01*
X195350176Y-109479483D01*
X195540652Y-109527102D01*
X195683509Y-109527102D01*
X195873985Y-109479483D01*
X195969223Y-109431864D01*
X196064461Y-109336626D01*
X196112080Y-109193769D01*
X196112080Y-108955674D01*
X196112080Y-110479483D02*
X196112080Y-109908055D01*
X196112080Y-110193769D02*
X195112080Y-110193769D01*
X195254938Y-110098531D01*
X195350176Y-110003293D01*
X195397795Y-109908055D01*
X195112080Y-111098531D02*
X195112080Y-111193769D01*
X195159700Y-111289007D01*
X195207319Y-111336626D01*
X195302557Y-111384245D01*
X195493033Y-111431864D01*
X195731128Y-111431864D01*
X195921604Y-111384245D01*
X196016842Y-111336626D01*
X196064461Y-111289007D01*
X196112080Y-111193769D01*
X196112080Y-111098531D01*
X196064461Y-111003293D01*
X196016842Y-110955674D01*
X195921604Y-110908055D01*
X195731128Y-110860436D01*
X195493033Y-110860436D01*
X195302557Y-110908055D01*
X195207319Y-110955674D01*
X195159700Y-111003293D01*
X195112080Y-111098531D01*
%TO.C,D11*%
X202106480Y-101980834D02*
X201106480Y-101980834D01*
X201106480Y-102218929D01*
X201154100Y-102361786D01*
X201249338Y-102457024D01*
X201344576Y-102504643D01*
X201535052Y-102552262D01*
X201677909Y-102552262D01*
X201868385Y-102504643D01*
X201963623Y-102457024D01*
X202058861Y-102361786D01*
X202106480Y-102218929D01*
X202106480Y-101980834D01*
X202106480Y-103504643D02*
X202106480Y-102933215D01*
X202106480Y-103218929D02*
X201106480Y-103218929D01*
X201249338Y-103123691D01*
X201344576Y-103028453D01*
X201392195Y-102933215D01*
X202106480Y-104457024D02*
X202106480Y-103885596D01*
X202106480Y-104171310D02*
X201106480Y-104171310D01*
X201249338Y-104076072D01*
X201344576Y-103980834D01*
X201392195Y-103885596D01*
%TO.C,D12*%
X190844120Y-115000874D02*
X189844120Y-115000874D01*
X189844120Y-115238969D01*
X189891740Y-115381826D01*
X189986978Y-115477064D01*
X190082216Y-115524683D01*
X190272692Y-115572302D01*
X190415549Y-115572302D01*
X190606025Y-115524683D01*
X190701263Y-115477064D01*
X190796501Y-115381826D01*
X190844120Y-115238969D01*
X190844120Y-115000874D01*
X190844120Y-116524683D02*
X190844120Y-115953255D01*
X190844120Y-116238969D02*
X189844120Y-116238969D01*
X189986978Y-116143731D01*
X190082216Y-116048493D01*
X190129835Y-115953255D01*
X189939359Y-116905636D02*
X189891740Y-116953255D01*
X189844120Y-117048493D01*
X189844120Y-117286588D01*
X189891740Y-117381826D01*
X189939359Y-117429445D01*
X190034597Y-117477064D01*
X190129835Y-117477064D01*
X190272692Y-117429445D01*
X190844120Y-116858017D01*
X190844120Y-117477064D01*
%TO.C,R7*%
X121345526Y-106831300D02*
X121678860Y-106355110D01*
X121916955Y-106831300D02*
X121916955Y-105831300D01*
X121536002Y-105831300D01*
X121440764Y-105878920D01*
X121393145Y-105926539D01*
X121345526Y-106021777D01*
X121345526Y-106164634D01*
X121393145Y-106259872D01*
X121440764Y-106307491D01*
X121536002Y-106355110D01*
X121916955Y-106355110D01*
X121012193Y-105831300D02*
X120345526Y-105831300D01*
X120774098Y-106831300D01*
%TO.C,R11*%
X211092557Y-96455580D02*
X211425890Y-95979390D01*
X211663985Y-96455580D02*
X211663985Y-95455580D01*
X211283033Y-95455580D01*
X211187795Y-95503200D01*
X211140176Y-95550819D01*
X211092557Y-95646057D01*
X211092557Y-95788914D01*
X211140176Y-95884152D01*
X211187795Y-95931771D01*
X211283033Y-95979390D01*
X211663985Y-95979390D01*
X210140176Y-96455580D02*
X210711604Y-96455580D01*
X210425890Y-96455580D02*
X210425890Y-95455580D01*
X210521128Y-95598438D01*
X210616366Y-95693676D01*
X210711604Y-95741295D01*
X209187795Y-96455580D02*
X209759223Y-96455580D01*
X209473509Y-96455580D02*
X209473509Y-95455580D01*
X209568747Y-95598438D01*
X209663985Y-95693676D01*
X209759223Y-95741295D01*
%TO.C,R12*%
X122069557Y-97748260D02*
X122402890Y-97272070D01*
X122640985Y-97748260D02*
X122640985Y-96748260D01*
X122260033Y-96748260D01*
X122164795Y-96795880D01*
X122117176Y-96843499D01*
X122069557Y-96938737D01*
X122069557Y-97081594D01*
X122117176Y-97176832D01*
X122164795Y-97224451D01*
X122260033Y-97272070D01*
X122640985Y-97272070D01*
X121117176Y-97748260D02*
X121688604Y-97748260D01*
X121402890Y-97748260D02*
X121402890Y-96748260D01*
X121498128Y-96891118D01*
X121593366Y-96986356D01*
X121688604Y-97033975D01*
X120736223Y-96843499D02*
X120688604Y-96795880D01*
X120593366Y-96748260D01*
X120355271Y-96748260D01*
X120260033Y-96795880D01*
X120212414Y-96843499D01*
X120164795Y-96938737D01*
X120164795Y-97033975D01*
X120212414Y-97176832D01*
X120783842Y-97748260D01*
X120164795Y-97748260D01*
%TO.C,D1*%
X165948275Y-76107720D02*
X165948275Y-75107720D01*
X165710180Y-75107720D01*
X165567322Y-75155340D01*
X165472084Y-75250578D01*
X165424465Y-75345816D01*
X165376846Y-75536292D01*
X165376846Y-75679149D01*
X165424465Y-75869625D01*
X165472084Y-75964863D01*
X165567322Y-76060101D01*
X165710180Y-76107720D01*
X165948275Y-76107720D01*
X164424465Y-76107720D02*
X164995894Y-76107720D01*
X164710180Y-76107720D02*
X164710180Y-75107720D01*
X164805418Y-75250578D01*
X164900656Y-75345816D01*
X164995894Y-75393435D01*
%TO.C,D4*%
X207727775Y-85169960D02*
X207727775Y-84169960D01*
X207489680Y-84169960D01*
X207346822Y-84217580D01*
X207251584Y-84312818D01*
X207203965Y-84408056D01*
X207156346Y-84598532D01*
X207156346Y-84741389D01*
X207203965Y-84931865D01*
X207251584Y-85027103D01*
X207346822Y-85122341D01*
X207489680Y-85169960D01*
X207727775Y-85169960D01*
X206299203Y-84503294D02*
X206299203Y-85169960D01*
X206537299Y-84122341D02*
X206775394Y-84836627D01*
X206156346Y-84836627D01*
%TO.C,D9*%
X202500455Y-84037120D02*
X202500455Y-83037120D01*
X202262360Y-83037120D01*
X202119502Y-83084740D01*
X202024264Y-83179978D01*
X201976645Y-83275216D01*
X201929026Y-83465692D01*
X201929026Y-83608549D01*
X201976645Y-83799025D01*
X202024264Y-83894263D01*
X202119502Y-83989501D01*
X202262360Y-84037120D01*
X202500455Y-84037120D01*
X201452836Y-84037120D02*
X201262360Y-84037120D01*
X201167121Y-83989501D01*
X201119502Y-83941882D01*
X201024264Y-83799025D01*
X200976645Y-83608549D01*
X200976645Y-83227597D01*
X201024264Y-83132359D01*
X201071883Y-83084740D01*
X201167121Y-83037120D01*
X201357598Y-83037120D01*
X201452836Y-83084740D01*
X201500455Y-83132359D01*
X201548074Y-83227597D01*
X201548074Y-83465692D01*
X201500455Y-83560930D01*
X201452836Y-83608549D01*
X201357598Y-83656168D01*
X201167121Y-83656168D01*
X201071883Y-83608549D01*
X201024264Y-83560930D01*
X200976645Y-83465692D01*
%TO.C,R17*%
X196887797Y-93168820D02*
X197221130Y-92692630D01*
X197459225Y-93168820D02*
X197459225Y-92168820D01*
X197078273Y-92168820D01*
X196983035Y-92216440D01*
X196935416Y-92264059D01*
X196887797Y-92359297D01*
X196887797Y-92502154D01*
X196935416Y-92597392D01*
X196983035Y-92645011D01*
X197078273Y-92692630D01*
X197459225Y-92692630D01*
X195935416Y-93168820D02*
X196506844Y-93168820D01*
X196221130Y-93168820D02*
X196221130Y-92168820D01*
X196316368Y-92311678D01*
X196411606Y-92406916D01*
X196506844Y-92454535D01*
X195602082Y-92168820D02*
X194935416Y-92168820D01*
X195363987Y-93168820D01*
%TD*%
M02*
