%TF.GenerationSoftware,KiCad,Pcbnew,5.1.10-88a1d61d58~88~ubuntu20.04.1*%
%TF.CreationDate,2021-06-09T14:37:20-04:00*%
%TF.ProjectId,avBadge_2021,61764261-6467-4655-9f32-3032312e6b69,rev?*%
%TF.SameCoordinates,Original*%
%TF.FileFunction,Legend,Bot*%
%TF.FilePolarity,Positive*%
%FSLAX46Y46*%
G04 Gerber Fmt 4.6, Leading zero omitted, Abs format (unit mm)*
G04 Created by KiCad (PCBNEW 5.1.10-88a1d61d58~88~ubuntu20.04.1) date 2021-06-09 14:37:20*
%MOMM*%
%LPD*%
G01*
G04 APERTURE LIST*
%ADD10C,0.120000*%
%ADD11C,0.150000*%
%ADD12C,0.500000*%
%ADD13C,0.100000*%
%ADD14C,0.400000*%
%ADD15C,0.300000*%
G04 APERTURE END LIST*
D10*
X96250760Y-130627120D02*
X97250760Y-130627120D01*
X96250760Y-129616960D02*
X96250760Y-130616960D01*
X96250760Y-130627120D02*
X99250760Y-127627120D01*
D11*
X106521070Y-124333026D02*
X106044880Y-124333026D01*
X106616308Y-124618740D02*
X106282975Y-123618740D01*
X105949641Y-124618740D01*
X105759165Y-123952074D02*
X105378213Y-123952074D01*
X105616308Y-123618740D02*
X105616308Y-124475883D01*
X105568689Y-124571121D01*
X105473451Y-124618740D01*
X105378213Y-124618740D01*
X105187737Y-123952074D02*
X104806784Y-123952074D01*
X105044880Y-123618740D02*
X105044880Y-124475883D01*
X104997260Y-124571121D01*
X104902022Y-124618740D01*
X104806784Y-124618740D01*
X104044880Y-124618740D02*
X104044880Y-124094931D01*
X104092499Y-123999693D01*
X104187737Y-123952074D01*
X104378213Y-123952074D01*
X104473451Y-123999693D01*
X104044880Y-124571121D02*
X104140118Y-124618740D01*
X104378213Y-124618740D01*
X104473451Y-124571121D01*
X104521070Y-124475883D01*
X104521070Y-124380645D01*
X104473451Y-124285407D01*
X104378213Y-124237788D01*
X104140118Y-124237788D01*
X104044880Y-124190169D01*
X103140118Y-124571121D02*
X103235356Y-124618740D01*
X103425832Y-124618740D01*
X103521070Y-124571121D01*
X103568689Y-124523502D01*
X103616308Y-124428264D01*
X103616308Y-124142550D01*
X103568689Y-124047312D01*
X103521070Y-123999693D01*
X103425832Y-123952074D01*
X103235356Y-123952074D01*
X103140118Y-123999693D01*
X102711546Y-124618740D02*
X102711546Y-123618740D01*
X102282975Y-124618740D02*
X102282975Y-124094931D01*
X102330594Y-123999693D01*
X102425832Y-123952074D01*
X102568689Y-123952074D01*
X102663927Y-123999693D01*
X102711546Y-124047312D01*
X101806784Y-124618740D02*
X101806784Y-123952074D01*
X101806784Y-124047312D02*
X101759165Y-123999693D01*
X101663927Y-123952074D01*
X101521070Y-123952074D01*
X101425832Y-123999693D01*
X101378213Y-124094931D01*
X101378213Y-124618740D01*
X101378213Y-124094931D02*
X101330594Y-123999693D01*
X101235356Y-123952074D01*
X101092499Y-123952074D01*
X100997260Y-123999693D01*
X100949641Y-124094931D01*
X100949641Y-124618740D01*
X100092499Y-124571121D02*
X100187737Y-124618740D01*
X100378213Y-124618740D01*
X100473451Y-124571121D01*
X100521070Y-124475883D01*
X100521070Y-124094931D01*
X100473451Y-123999693D01*
X100378213Y-123952074D01*
X100187737Y-123952074D01*
X100092499Y-123999693D01*
X100044880Y-124094931D01*
X100044880Y-124190169D01*
X100521070Y-124285407D01*
X99616308Y-123952074D02*
X99616308Y-124618740D01*
X99616308Y-124047312D02*
X99568689Y-123999693D01*
X99473451Y-123952074D01*
X99330594Y-123952074D01*
X99235356Y-123999693D01*
X99187737Y-124094931D01*
X99187737Y-124618740D01*
X98854403Y-123952074D02*
X98473451Y-123952074D01*
X98711546Y-123618740D02*
X98711546Y-124475883D01*
X98663927Y-124571121D01*
X98568689Y-124618740D01*
X98473451Y-124618740D01*
X105830594Y-125602074D02*
X105449641Y-125602074D01*
X105687737Y-126268740D02*
X105687737Y-125411598D01*
X105640118Y-125316360D01*
X105544880Y-125268740D01*
X105449641Y-125268740D01*
X104973451Y-126268740D02*
X105068689Y-126221121D01*
X105116308Y-126173502D01*
X105163927Y-126078264D01*
X105163927Y-125792550D01*
X105116308Y-125697312D01*
X105068689Y-125649693D01*
X104973451Y-125602074D01*
X104830594Y-125602074D01*
X104735356Y-125649693D01*
X104687737Y-125697312D01*
X104640118Y-125792550D01*
X104640118Y-126078264D01*
X104687737Y-126173502D01*
X104735356Y-126221121D01*
X104830594Y-126268740D01*
X104973451Y-126268740D01*
X104211546Y-126268740D02*
X104211546Y-125602074D01*
X104211546Y-125792550D02*
X104163927Y-125697312D01*
X104116308Y-125649693D01*
X104021070Y-125602074D01*
X103925832Y-125602074D01*
X102830594Y-126268740D02*
X102830594Y-125268740D01*
X102592499Y-125268740D01*
X102449641Y-125316360D01*
X102354403Y-125411598D01*
X102306784Y-125506836D01*
X102259165Y-125697312D01*
X102259165Y-125840169D01*
X102306784Y-126030645D01*
X102354403Y-126125883D01*
X102449641Y-126221121D01*
X102592499Y-126268740D01*
X102830594Y-126268740D01*
X101259165Y-126173502D02*
X101306784Y-126221121D01*
X101449641Y-126268740D01*
X101544879Y-126268740D01*
X101687737Y-126221121D01*
X101782975Y-126125883D01*
X101830594Y-126030645D01*
X101878213Y-125840169D01*
X101878213Y-125697312D01*
X101830594Y-125506836D01*
X101782975Y-125411598D01*
X101687737Y-125316360D01*
X101544879Y-125268740D01*
X101449641Y-125268740D01*
X101306784Y-125316360D01*
X101259165Y-125363979D01*
X100878213Y-125363979D02*
X100830594Y-125316360D01*
X100735356Y-125268740D01*
X100497260Y-125268740D01*
X100402022Y-125316360D01*
X100354403Y-125363979D01*
X100306784Y-125459217D01*
X100306784Y-125554455D01*
X100354403Y-125697312D01*
X100925832Y-126268740D01*
X100306784Y-126268740D01*
X99735356Y-125697312D02*
X99830594Y-125649693D01*
X99878213Y-125602074D01*
X99925832Y-125506836D01*
X99925832Y-125459217D01*
X99878213Y-125363979D01*
X99830594Y-125316360D01*
X99735356Y-125268740D01*
X99544879Y-125268740D01*
X99449641Y-125316360D01*
X99402022Y-125363979D01*
X99354403Y-125459217D01*
X99354403Y-125506836D01*
X99402022Y-125602074D01*
X99449641Y-125649693D01*
X99544879Y-125697312D01*
X99735356Y-125697312D01*
X99830594Y-125744931D01*
X99878213Y-125792550D01*
X99925832Y-125887788D01*
X99925832Y-126078264D01*
X99878213Y-126173502D01*
X99830594Y-126221121D01*
X99735356Y-126268740D01*
X99544879Y-126268740D01*
X99449641Y-126221121D01*
X99402022Y-126173502D01*
X99354403Y-126078264D01*
X99354403Y-125887788D01*
X99402022Y-125792550D01*
X99449641Y-125744931D01*
X99544879Y-125697312D01*
X104544880Y-127918740D02*
X104544880Y-126918740D01*
X104544880Y-127299693D02*
X104449641Y-127252074D01*
X104259165Y-127252074D01*
X104163927Y-127299693D01*
X104116308Y-127347312D01*
X104068689Y-127442550D01*
X104068689Y-127728264D01*
X104116308Y-127823502D01*
X104163927Y-127871121D01*
X104259165Y-127918740D01*
X104449641Y-127918740D01*
X104544880Y-127871121D01*
X103211546Y-127918740D02*
X103211546Y-127394931D01*
X103259165Y-127299693D01*
X103354403Y-127252074D01*
X103544880Y-127252074D01*
X103640118Y-127299693D01*
X103211546Y-127871121D02*
X103306784Y-127918740D01*
X103544880Y-127918740D01*
X103640118Y-127871121D01*
X103687737Y-127775883D01*
X103687737Y-127680645D01*
X103640118Y-127585407D01*
X103544880Y-127537788D01*
X103306784Y-127537788D01*
X103211546Y-127490169D01*
X102306784Y-127918740D02*
X102306784Y-126918740D01*
X102306784Y-127871121D02*
X102402022Y-127918740D01*
X102592499Y-127918740D01*
X102687737Y-127871121D01*
X102735356Y-127823502D01*
X102782975Y-127728264D01*
X102782975Y-127442550D01*
X102735356Y-127347312D01*
X102687737Y-127299693D01*
X102592499Y-127252074D01*
X102402022Y-127252074D01*
X102306784Y-127299693D01*
X101402022Y-127252074D02*
X101402022Y-128061598D01*
X101449641Y-128156836D01*
X101497260Y-128204455D01*
X101592499Y-128252074D01*
X101735356Y-128252074D01*
X101830594Y-128204455D01*
X101402022Y-127871121D02*
X101497260Y-127918740D01*
X101687737Y-127918740D01*
X101782975Y-127871121D01*
X101830594Y-127823502D01*
X101878213Y-127728264D01*
X101878213Y-127442550D01*
X101830594Y-127347312D01*
X101782975Y-127299693D01*
X101687737Y-127252074D01*
X101497260Y-127252074D01*
X101402022Y-127299693D01*
X100544880Y-127871121D02*
X100640118Y-127918740D01*
X100830594Y-127918740D01*
X100925832Y-127871121D01*
X100973451Y-127775883D01*
X100973451Y-127394931D01*
X100925832Y-127299693D01*
X100830594Y-127252074D01*
X100640118Y-127252074D01*
X100544880Y-127299693D01*
X100497260Y-127394931D01*
X100497260Y-127490169D01*
X100973451Y-127585407D01*
D12*
X147847982Y-72674645D02*
X148133697Y-72817502D01*
X148705125Y-72817502D01*
X148990840Y-72674645D01*
X149133697Y-72531788D01*
X149276554Y-72246074D01*
X149276554Y-71388931D01*
X149133697Y-71103217D01*
X148990840Y-70960360D01*
X148705125Y-70817502D01*
X148133697Y-70817502D01*
X147847982Y-70960360D01*
X145276554Y-72817502D02*
X145276554Y-71246074D01*
X145419411Y-70960360D01*
X145705125Y-70817502D01*
X146276554Y-70817502D01*
X146562268Y-70960360D01*
X145276554Y-72674645D02*
X145562268Y-72817502D01*
X146276554Y-72817502D01*
X146562268Y-72674645D01*
X146705125Y-72388931D01*
X146705125Y-72103217D01*
X146562268Y-71817502D01*
X146276554Y-71674645D01*
X145562268Y-71674645D01*
X145276554Y-71531788D01*
X143847982Y-70817502D02*
X143847982Y-73817502D01*
X143847982Y-70960360D02*
X143562268Y-70817502D01*
X142990840Y-70817502D01*
X142705125Y-70960360D01*
X142562268Y-71103217D01*
X142419411Y-71388931D01*
X142419411Y-72246074D01*
X142562268Y-72531788D01*
X142705125Y-72674645D01*
X142990840Y-72817502D01*
X143562268Y-72817502D01*
X143847982Y-72674645D01*
X141562268Y-70817502D02*
X140419411Y-70817502D01*
X141133697Y-69817502D02*
X141133697Y-72388931D01*
X140990840Y-72674645D01*
X140705125Y-72817502D01*
X140419411Y-72817502D01*
X138276554Y-72674645D02*
X138562268Y-72817502D01*
X139133697Y-72817502D01*
X139419411Y-72674645D01*
X139562268Y-72388931D01*
X139562268Y-71246074D01*
X139419411Y-70960360D01*
X139133697Y-70817502D01*
X138562268Y-70817502D01*
X138276554Y-70960360D01*
X138133697Y-71246074D01*
X138133697Y-71531788D01*
X139562268Y-71817502D01*
X135562268Y-72674645D02*
X135847982Y-72817502D01*
X136419411Y-72817502D01*
X136705125Y-72674645D01*
X136847982Y-72531788D01*
X136990840Y-72246074D01*
X136990840Y-71388931D01*
X136847982Y-71103217D01*
X136705125Y-70960360D01*
X136419411Y-70817502D01*
X135847982Y-70817502D01*
X135562268Y-70960360D01*
X134276554Y-72817502D02*
X134276554Y-69817502D01*
X132990840Y-72817502D02*
X132990840Y-71246074D01*
X133133697Y-70960360D01*
X133419411Y-70817502D01*
X133847982Y-70817502D01*
X134133697Y-70960360D01*
X134276554Y-71103217D01*
X130276554Y-70817502D02*
X130276554Y-72817502D01*
X131562268Y-70817502D02*
X131562268Y-72388931D01*
X131419411Y-72674645D01*
X131133697Y-72817502D01*
X130705125Y-72817502D01*
X130419411Y-72674645D01*
X130276554Y-72531788D01*
X128847982Y-72531788D02*
X128705125Y-72674645D01*
X128847982Y-72817502D01*
X128990840Y-72674645D01*
X128847982Y-72531788D01*
X128847982Y-72817502D01*
X126276554Y-72674645D02*
X126562268Y-72817502D01*
X127133697Y-72817502D01*
X127419411Y-72674645D01*
X127562268Y-72388931D01*
X127562268Y-71246074D01*
X127419411Y-70960360D01*
X127133697Y-70817502D01*
X126562268Y-70817502D01*
X126276554Y-70960360D01*
X126133697Y-71246074D01*
X126133697Y-71531788D01*
X127562268Y-71817502D01*
X123562268Y-72817502D02*
X123562268Y-69817502D01*
X123562268Y-72674645D02*
X123847982Y-72817502D01*
X124419411Y-72817502D01*
X124705125Y-72674645D01*
X124847982Y-72531788D01*
X124990840Y-72246074D01*
X124990840Y-71388931D01*
X124847982Y-71103217D01*
X124705125Y-70960360D01*
X124419411Y-70817502D01*
X123847982Y-70817502D01*
X123562268Y-70960360D01*
X120847982Y-70817502D02*
X120847982Y-72817502D01*
X122133697Y-70817502D02*
X122133697Y-72388931D01*
X121990840Y-72674645D01*
X121705125Y-72817502D01*
X121276554Y-72817502D01*
X120990840Y-72674645D01*
X120847982Y-72531788D01*
D13*
X109010721Y-76686041D02*
X108867864Y-76733660D01*
X108629769Y-76733660D01*
X108534531Y-76686041D01*
X108486912Y-76638422D01*
X108439293Y-76543184D01*
X108439293Y-76447946D01*
X108486912Y-76352708D01*
X108534531Y-76305089D01*
X108629769Y-76257470D01*
X108820245Y-76209851D01*
X108915483Y-76162232D01*
X108963102Y-76114613D01*
X109010721Y-76019375D01*
X109010721Y-75924137D01*
X108963102Y-75828899D01*
X108915483Y-75781280D01*
X108820245Y-75733660D01*
X108582150Y-75733660D01*
X108439293Y-75781280D01*
X108058340Y-76447946D02*
X107582150Y-76447946D01*
X108153579Y-76733660D02*
X107820245Y-75733660D01*
X107486912Y-76733660D01*
X106963102Y-75733660D02*
X106772626Y-75733660D01*
X106677388Y-75781280D01*
X106582150Y-75876518D01*
X106534531Y-76066994D01*
X106534531Y-76400327D01*
X106582150Y-76590803D01*
X106677388Y-76686041D01*
X106772626Y-76733660D01*
X106963102Y-76733660D01*
X107058340Y-76686041D01*
X107153579Y-76590803D01*
X107201198Y-76400327D01*
X107201198Y-76066994D01*
X107153579Y-75876518D01*
X107058340Y-75781280D01*
X106963102Y-75733660D01*
X105582150Y-76733660D02*
X106153579Y-76733660D01*
X105867864Y-76733660D02*
X105867864Y-75733660D01*
X105963102Y-75876518D01*
X106058340Y-75971756D01*
X106153579Y-76019375D01*
X105153579Y-76638422D02*
X105105960Y-76686041D01*
X105153579Y-76733660D01*
X105201198Y-76686041D01*
X105153579Y-76638422D01*
X105153579Y-76733660D01*
X104248817Y-75733660D02*
X104439293Y-75733660D01*
X104534531Y-75781280D01*
X104582150Y-75828899D01*
X104677388Y-75971756D01*
X104725007Y-76162232D01*
X104725007Y-76543184D01*
X104677388Y-76638422D01*
X104629769Y-76686041D01*
X104534531Y-76733660D01*
X104344055Y-76733660D01*
X104248817Y-76686041D01*
X104201198Y-76638422D01*
X104153579Y-76543184D01*
X104153579Y-76305089D01*
X104201198Y-76209851D01*
X104248817Y-76162232D01*
X104344055Y-76114613D01*
X104534531Y-76114613D01*
X104629769Y-76162232D01*
X104677388Y-76209851D01*
X104725007Y-76305089D01*
X103677388Y-76733660D02*
X103486912Y-76733660D01*
X103391674Y-76686041D01*
X103344055Y-76638422D01*
X103248817Y-76495565D01*
X103201198Y-76305089D01*
X103201198Y-75924137D01*
X103248817Y-75828899D01*
X103296436Y-75781280D01*
X103391674Y-75733660D01*
X103582150Y-75733660D01*
X103677388Y-75781280D01*
X103725007Y-75828899D01*
X103772626Y-75924137D01*
X103772626Y-76162232D01*
X103725007Y-76257470D01*
X103677388Y-76305089D01*
X103582150Y-76352708D01*
X103391674Y-76352708D01*
X103296436Y-76305089D01*
X103248817Y-76257470D01*
X103201198Y-76162232D01*
D11*
X94810606Y-81616284D02*
X94761307Y-81800270D01*
X94690662Y-81879938D01*
X94632340Y-81913610D01*
X94469702Y-81968629D01*
X94273391Y-81965327D01*
X93905419Y-81866729D01*
X93825751Y-81796083D01*
X93792079Y-81737762D01*
X93770732Y-81633444D01*
X93820031Y-81449458D01*
X93890677Y-81369790D01*
X93948998Y-81336118D01*
X94053316Y-81314771D01*
X94283298Y-81376395D01*
X94362966Y-81447041D01*
X94396638Y-81505362D01*
X94417985Y-81609680D01*
X94368686Y-81793665D01*
X94298040Y-81873334D01*
X94239719Y-81907005D01*
X94135402Y-81928352D01*
X93499588Y-82645366D02*
X93548887Y-82461381D01*
X93619533Y-82381712D01*
X93677854Y-82348041D01*
X93840493Y-82293022D01*
X94036804Y-82296324D01*
X94404776Y-82394922D01*
X94484444Y-82465568D01*
X94518116Y-82523889D01*
X94539463Y-82628207D01*
X94490164Y-82812193D01*
X94419518Y-82891861D01*
X94361197Y-82925533D01*
X94256879Y-82946880D01*
X94026897Y-82885256D01*
X93947228Y-82814610D01*
X93913557Y-82756289D01*
X93892210Y-82651971D01*
X93941508Y-82467985D01*
X94012154Y-82388317D01*
X94070476Y-82354645D01*
X94174793Y-82333298D01*
X93314718Y-83335313D02*
X93290068Y-83427306D01*
X93311415Y-83531624D01*
X93345087Y-83589945D01*
X93424755Y-83660591D01*
X93596416Y-83755886D01*
X93826399Y-83817510D01*
X94022709Y-83820812D01*
X94127027Y-83799465D01*
X94185348Y-83765794D01*
X94255994Y-83686125D01*
X94280643Y-83594133D01*
X94259296Y-83489815D01*
X94225625Y-83431494D01*
X94145956Y-83360848D01*
X93974295Y-83265552D01*
X93744313Y-83203929D01*
X93548002Y-83200626D01*
X93443685Y-83221974D01*
X93385364Y-83255645D01*
X93314718Y-83335313D01*
X93068223Y-84255243D02*
X93043574Y-84347236D01*
X93064921Y-84451553D01*
X93098593Y-84509875D01*
X93178261Y-84580521D01*
X93349922Y-84675816D01*
X93579904Y-84737439D01*
X93776215Y-84740742D01*
X93880533Y-84719395D01*
X93938854Y-84685723D01*
X94009500Y-84606055D01*
X94034149Y-84514062D01*
X94012802Y-84409744D01*
X93979130Y-84351423D01*
X93899462Y-84280777D01*
X93727801Y-84185482D01*
X93497819Y-84123858D01*
X93301508Y-84120556D01*
X93197190Y-84141903D01*
X93138869Y-84175575D01*
X93068223Y-84255243D01*
X193390019Y-139765066D02*
X192913828Y-139765066D01*
X193485257Y-140050780D02*
X193151923Y-139050780D01*
X192818590Y-140050780D01*
X192485257Y-140050780D02*
X192485257Y-139384114D01*
X192485257Y-139574590D02*
X192437638Y-139479352D01*
X192390019Y-139431733D01*
X192294780Y-139384114D01*
X192199542Y-139384114D01*
X192009066Y-139384114D02*
X191628114Y-139384114D01*
X191866209Y-139050780D02*
X191866209Y-139907923D01*
X191818590Y-140003161D01*
X191723352Y-140050780D01*
X191628114Y-140050780D01*
X190675733Y-139384114D02*
X190294780Y-139384114D01*
X190532876Y-140050780D02*
X190532876Y-139193638D01*
X190485257Y-139098400D01*
X190390019Y-139050780D01*
X190294780Y-139050780D01*
X189818590Y-140050780D02*
X189913828Y-140003161D01*
X189961447Y-139907923D01*
X189961447Y-139050780D01*
X189532876Y-139384114D02*
X189294780Y-140050780D01*
X189056685Y-139384114D02*
X189294780Y-140050780D01*
X189390019Y-140288876D01*
X189437638Y-140336495D01*
X189532876Y-140384114D01*
X188723352Y-140003161D02*
X188628114Y-140050780D01*
X188437638Y-140050780D01*
X188342400Y-140003161D01*
X188294780Y-139907923D01*
X188294780Y-139860304D01*
X188342400Y-139765066D01*
X188437638Y-139717447D01*
X188580495Y-139717447D01*
X188675733Y-139669828D01*
X188723352Y-139574590D01*
X188723352Y-139526971D01*
X188675733Y-139431733D01*
X188580495Y-139384114D01*
X188437638Y-139384114D01*
X188342400Y-139431733D01*
X187437638Y-139384114D02*
X187437638Y-140050780D01*
X187866209Y-139384114D02*
X187866209Y-139907923D01*
X187818590Y-140003161D01*
X187723352Y-140050780D01*
X187580495Y-140050780D01*
X187485257Y-140003161D01*
X187437638Y-139955542D01*
X186961447Y-140050780D02*
X186961447Y-139384114D01*
X186961447Y-139574590D02*
X186913828Y-139479352D01*
X186866209Y-139431733D01*
X186770971Y-139384114D01*
X186675733Y-139384114D01*
X186342400Y-140050780D02*
X186342400Y-139384114D01*
X186342400Y-139574590D02*
X186294780Y-139479352D01*
X186247161Y-139431733D01*
X186151923Y-139384114D01*
X186056685Y-139384114D01*
X185342400Y-140003161D02*
X185437638Y-140050780D01*
X185628114Y-140050780D01*
X185723352Y-140003161D01*
X185770971Y-139907923D01*
X185770971Y-139526971D01*
X185723352Y-139431733D01*
X185628114Y-139384114D01*
X185437638Y-139384114D01*
X185342400Y-139431733D01*
X185294780Y-139526971D01*
X185294780Y-139622209D01*
X185770971Y-139717447D01*
X184437638Y-140050780D02*
X184437638Y-139526971D01*
X184485257Y-139431733D01*
X184580495Y-139384114D01*
X184770971Y-139384114D01*
X184866209Y-139431733D01*
X184437638Y-140003161D02*
X184532876Y-140050780D01*
X184770971Y-140050780D01*
X184866209Y-140003161D01*
X184913828Y-139907923D01*
X184913828Y-139812685D01*
X184866209Y-139717447D01*
X184770971Y-139669828D01*
X184532876Y-139669828D01*
X184437638Y-139622209D01*
X183818590Y-140050780D02*
X183913828Y-140003161D01*
X183961447Y-139907923D01*
X183961447Y-139050780D01*
X183437638Y-139955542D02*
X183390019Y-140003161D01*
X183437638Y-140050780D01*
X183485257Y-140003161D01*
X183437638Y-139955542D01*
X183437638Y-140050780D01*
X182532876Y-140003161D02*
X182628114Y-140050780D01*
X182818590Y-140050780D01*
X182913828Y-140003161D01*
X182961447Y-139955542D01*
X183009066Y-139860304D01*
X183009066Y-139574590D01*
X182961447Y-139479352D01*
X182913828Y-139431733D01*
X182818590Y-139384114D01*
X182628114Y-139384114D01*
X182532876Y-139431733D01*
X181961447Y-140050780D02*
X182056685Y-140003161D01*
X182104304Y-139955542D01*
X182151923Y-139860304D01*
X182151923Y-139574590D01*
X182104304Y-139479352D01*
X182056685Y-139431733D01*
X181961447Y-139384114D01*
X181818590Y-139384114D01*
X181723352Y-139431733D01*
X181675733Y-139479352D01*
X181628114Y-139574590D01*
X181628114Y-139860304D01*
X181675733Y-139955542D01*
X181723352Y-140003161D01*
X181818590Y-140050780D01*
X181961447Y-140050780D01*
X181199542Y-140050780D02*
X181199542Y-139384114D01*
X181199542Y-139479352D02*
X181151923Y-139431733D01*
X181056685Y-139384114D01*
X180913828Y-139384114D01*
X180818590Y-139431733D01*
X180770971Y-139526971D01*
X180770971Y-140050780D01*
X180770971Y-139526971D02*
X180723352Y-139431733D01*
X180628114Y-139384114D01*
X180485257Y-139384114D01*
X180390019Y-139431733D01*
X180342400Y-139526971D01*
X180342400Y-140050780D01*
X102107232Y-90769890D02*
X101400125Y-90062783D01*
X101770515Y-91039264D02*
X101703171Y-91173951D01*
X101534812Y-91342310D01*
X101433797Y-91375982D01*
X101366454Y-91375982D01*
X101265438Y-91342310D01*
X101198095Y-91274967D01*
X101164423Y-91173951D01*
X101164423Y-91106608D01*
X101198095Y-91005592D01*
X101299110Y-90837234D01*
X101332782Y-90736218D01*
X101332782Y-90668875D01*
X101299110Y-90567860D01*
X101231767Y-90500516D01*
X101130751Y-90466844D01*
X101063408Y-90466844D01*
X100962392Y-90500516D01*
X100794034Y-90668875D01*
X100726690Y-90803562D01*
X101097080Y-91780043D02*
X100389973Y-91072936D01*
X100120599Y-91342310D01*
X100086927Y-91443325D01*
X100086927Y-91510669D01*
X100120599Y-91611684D01*
X100221614Y-91712699D01*
X100322629Y-91746371D01*
X100389973Y-91746371D01*
X100490988Y-91712699D01*
X100760362Y-91443325D01*
X137958887Y-138822180D02*
X137958887Y-139536466D01*
X138006506Y-139679323D01*
X138101744Y-139774561D01*
X138244601Y-139822180D01*
X138339840Y-139822180D01*
X137006506Y-139822180D02*
X137482697Y-139822180D01*
X137482697Y-138822180D01*
X136101744Y-139726942D02*
X136149363Y-139774561D01*
X136292220Y-139822180D01*
X136387459Y-139822180D01*
X136530316Y-139774561D01*
X136625554Y-139679323D01*
X136673173Y-139584085D01*
X136720792Y-139393609D01*
X136720792Y-139250752D01*
X136673173Y-139060276D01*
X136625554Y-138965038D01*
X136530316Y-138869800D01*
X136387459Y-138822180D01*
X136292220Y-138822180D01*
X136149363Y-138869800D01*
X136101744Y-138917419D01*
X135387459Y-138822180D02*
X135387459Y-139536466D01*
X135435078Y-139679323D01*
X135530316Y-139774561D01*
X135673173Y-139822180D01*
X135768411Y-139822180D01*
X134435078Y-139822180D02*
X134911268Y-139822180D01*
X134911268Y-138822180D01*
X133530316Y-139726942D02*
X133577935Y-139774561D01*
X133720792Y-139822180D01*
X133816030Y-139822180D01*
X133958887Y-139774561D01*
X134054125Y-139679323D01*
X134101744Y-139584085D01*
X134149363Y-139393609D01*
X134149363Y-139250752D01*
X134101744Y-139060276D01*
X134054125Y-138965038D01*
X133958887Y-138869800D01*
X133816030Y-138822180D01*
X133720792Y-138822180D01*
X133577935Y-138869800D01*
X133530316Y-138917419D01*
X132816030Y-138822180D02*
X132816030Y-139536466D01*
X132863649Y-139679323D01*
X132958887Y-139774561D01*
X133101744Y-139822180D01*
X133196982Y-139822180D01*
X131863649Y-139822180D02*
X132339840Y-139822180D01*
X132339840Y-138822180D01*
X130958887Y-139726942D02*
X131006506Y-139774561D01*
X131149363Y-139822180D01*
X131244601Y-139822180D01*
X131387459Y-139774561D01*
X131482697Y-139679323D01*
X131530316Y-139584085D01*
X131577935Y-139393609D01*
X131577935Y-139250752D01*
X131530316Y-139060276D01*
X131482697Y-138965038D01*
X131387459Y-138869800D01*
X131244601Y-138822180D01*
X131149363Y-138822180D01*
X131006506Y-138869800D01*
X130958887Y-138917419D01*
X130244601Y-138822180D02*
X130244601Y-139536466D01*
X130292220Y-139679323D01*
X130387459Y-139774561D01*
X130530316Y-139822180D01*
X130625554Y-139822180D01*
X129292220Y-139822180D02*
X129768411Y-139822180D01*
X129768411Y-138822180D01*
X128387459Y-139726942D02*
X128435078Y-139774561D01*
X128577935Y-139822180D01*
X128673173Y-139822180D01*
X128816030Y-139774561D01*
X128911268Y-139679323D01*
X128958887Y-139584085D01*
X129006506Y-139393609D01*
X129006506Y-139250752D01*
X128958887Y-139060276D01*
X128911268Y-138965038D01*
X128816030Y-138869800D01*
X128673173Y-138822180D01*
X128577935Y-138822180D01*
X128435078Y-138869800D01*
X128387459Y-138917419D01*
X196128324Y-137759700D02*
X196128324Y-136759700D01*
X195890229Y-136759700D01*
X195747372Y-136807320D01*
X195652134Y-136902558D01*
X195604515Y-136997796D01*
X195556896Y-137188272D01*
X195556896Y-137331129D01*
X195604515Y-137521605D01*
X195652134Y-137616843D01*
X195747372Y-137712081D01*
X195890229Y-137759700D01*
X196128324Y-137759700D01*
X194747372Y-137712081D02*
X194842610Y-137759700D01*
X195033086Y-137759700D01*
X195128324Y-137712081D01*
X195175943Y-137616843D01*
X195175943Y-137235891D01*
X195128324Y-137140653D01*
X195033086Y-137093034D01*
X194842610Y-137093034D01*
X194747372Y-137140653D01*
X194699753Y-137235891D01*
X194699753Y-137331129D01*
X195175943Y-137426367D01*
X194318800Y-137712081D02*
X194223562Y-137759700D01*
X194033086Y-137759700D01*
X193937848Y-137712081D01*
X193890229Y-137616843D01*
X193890229Y-137569224D01*
X193937848Y-137473986D01*
X194033086Y-137426367D01*
X194175943Y-137426367D01*
X194271181Y-137378748D01*
X194318800Y-137283510D01*
X194318800Y-137235891D01*
X194271181Y-137140653D01*
X194175943Y-137093034D01*
X194033086Y-137093034D01*
X193937848Y-137140653D01*
X193461658Y-137759700D02*
X193461658Y-137093034D01*
X193461658Y-136759700D02*
X193509277Y-136807320D01*
X193461658Y-136854939D01*
X193414039Y-136807320D01*
X193461658Y-136759700D01*
X193461658Y-136854939D01*
X192556896Y-137093034D02*
X192556896Y-137902558D01*
X192604515Y-137997796D01*
X192652134Y-138045415D01*
X192747372Y-138093034D01*
X192890229Y-138093034D01*
X192985467Y-138045415D01*
X192556896Y-137712081D02*
X192652134Y-137759700D01*
X192842610Y-137759700D01*
X192937848Y-137712081D01*
X192985467Y-137664462D01*
X193033086Y-137569224D01*
X193033086Y-137283510D01*
X192985467Y-137188272D01*
X192937848Y-137140653D01*
X192842610Y-137093034D01*
X192652134Y-137093034D01*
X192556896Y-137140653D01*
X192080705Y-137093034D02*
X192080705Y-137759700D01*
X192080705Y-137188272D02*
X192033086Y-137140653D01*
X191937848Y-137093034D01*
X191794991Y-137093034D01*
X191699753Y-137140653D01*
X191652134Y-137235891D01*
X191652134Y-137759700D01*
X190794991Y-137712081D02*
X190890229Y-137759700D01*
X191080705Y-137759700D01*
X191175943Y-137712081D01*
X191223562Y-137616843D01*
X191223562Y-137235891D01*
X191175943Y-137140653D01*
X191080705Y-137093034D01*
X190890229Y-137093034D01*
X190794991Y-137140653D01*
X190747372Y-137235891D01*
X190747372Y-137331129D01*
X191223562Y-137426367D01*
X189890229Y-137759700D02*
X189890229Y-136759700D01*
X189890229Y-137712081D02*
X189985467Y-137759700D01*
X190175943Y-137759700D01*
X190271181Y-137712081D01*
X190318800Y-137664462D01*
X190366420Y-137569224D01*
X190366420Y-137283510D01*
X190318800Y-137188272D01*
X190271181Y-137140653D01*
X190175943Y-137093034D01*
X189985467Y-137093034D01*
X189890229Y-137140653D01*
X188033086Y-137283510D02*
X188080705Y-137235891D01*
X188175943Y-137188272D01*
X188271181Y-137188272D01*
X188366420Y-137235891D01*
X188414039Y-137283510D01*
X188461658Y-137378748D01*
X188461658Y-137473986D01*
X188414039Y-137569224D01*
X188366420Y-137616843D01*
X188271181Y-137664462D01*
X188175943Y-137664462D01*
X188080705Y-137616843D01*
X188033086Y-137569224D01*
X188033086Y-137188272D02*
X188033086Y-137569224D01*
X187985467Y-137616843D01*
X187937848Y-137616843D01*
X187842610Y-137569224D01*
X187794991Y-137473986D01*
X187794991Y-137235891D01*
X187890229Y-137093034D01*
X188033086Y-136997796D01*
X188223562Y-136950177D01*
X188414039Y-136997796D01*
X188556896Y-137093034D01*
X188652134Y-137235891D01*
X188699753Y-137426367D01*
X188652134Y-137616843D01*
X188556896Y-137759700D01*
X188414039Y-137854939D01*
X188223562Y-137902558D01*
X188033086Y-137854939D01*
X187890229Y-137759700D01*
X186937848Y-137712081D02*
X187033086Y-137759700D01*
X187223562Y-137759700D01*
X187318800Y-137712081D01*
X187366420Y-137664462D01*
X187414039Y-137569224D01*
X187414039Y-137283510D01*
X187366420Y-137188272D01*
X187318800Y-137140653D01*
X187223562Y-137093034D01*
X187033086Y-137093034D01*
X186937848Y-137140653D01*
X186604515Y-137093034D02*
X186366420Y-137759700D01*
X186128324Y-137093034D02*
X186366420Y-137759700D01*
X186461658Y-137997796D01*
X186509277Y-138045415D01*
X186604515Y-138093034D01*
X185747372Y-137759700D02*
X185747372Y-136759700D01*
X185747372Y-137140653D02*
X185652134Y-137093034D01*
X185461658Y-137093034D01*
X185366420Y-137140653D01*
X185318800Y-137188272D01*
X185271181Y-137283510D01*
X185271181Y-137569224D01*
X185318800Y-137664462D01*
X185366420Y-137712081D01*
X185461658Y-137759700D01*
X185652134Y-137759700D01*
X185747372Y-137712081D01*
X184461658Y-137712081D02*
X184556896Y-137759700D01*
X184747372Y-137759700D01*
X184842610Y-137712081D01*
X184890229Y-137616843D01*
X184890229Y-137235891D01*
X184842610Y-137140653D01*
X184747372Y-137093034D01*
X184556896Y-137093034D01*
X184461658Y-137140653D01*
X184414039Y-137235891D01*
X184414039Y-137331129D01*
X184890229Y-137426367D01*
X183985467Y-137759700D02*
X183985467Y-137093034D01*
X183985467Y-137283510D02*
X183937848Y-137188272D01*
X183890229Y-137140653D01*
X183794991Y-137093034D01*
X183699753Y-137093034D01*
X183509277Y-137093034D02*
X183128324Y-137093034D01*
X183366420Y-136759700D02*
X183366420Y-137616843D01*
X183318800Y-137712081D01*
X183223562Y-137759700D01*
X183128324Y-137759700D01*
X182414039Y-137712081D02*
X182509277Y-137759700D01*
X182699753Y-137759700D01*
X182794991Y-137712081D01*
X182842610Y-137616843D01*
X182842610Y-137235891D01*
X182794991Y-137140653D01*
X182699753Y-137093034D01*
X182509277Y-137093034D01*
X182414039Y-137140653D01*
X182366420Y-137235891D01*
X182366420Y-137331129D01*
X182842610Y-137426367D01*
X181985467Y-137712081D02*
X181890229Y-137759700D01*
X181699753Y-137759700D01*
X181604515Y-137712081D01*
X181556896Y-137616843D01*
X181556896Y-137569224D01*
X181604515Y-137473986D01*
X181699753Y-137426367D01*
X181842610Y-137426367D01*
X181937848Y-137378748D01*
X181985467Y-137283510D01*
X181985467Y-137235891D01*
X181937848Y-137140653D01*
X181842610Y-137093034D01*
X181699753Y-137093034D01*
X181604515Y-137140653D01*
X181271181Y-137093034D02*
X180890229Y-137093034D01*
X181128324Y-136759700D02*
X181128324Y-137616843D01*
X181080705Y-137712081D01*
X180985467Y-137759700D01*
X180890229Y-137759700D01*
X180556896Y-137093034D02*
X180556896Y-138093034D01*
X180556896Y-137140653D02*
X180461658Y-137093034D01*
X180271181Y-137093034D01*
X180175943Y-137140653D01*
X180128324Y-137188272D01*
X180080705Y-137283510D01*
X180080705Y-137569224D01*
X180128324Y-137664462D01*
X180175943Y-137712081D01*
X180271181Y-137759700D01*
X180461658Y-137759700D01*
X180556896Y-137712081D01*
X179652134Y-137759700D02*
X179652134Y-137093034D01*
X179652134Y-136759700D02*
X179699753Y-136807320D01*
X179652134Y-136854939D01*
X179604515Y-136807320D01*
X179652134Y-136759700D01*
X179652134Y-136854939D01*
X179033086Y-137759700D02*
X179128324Y-137712081D01*
X179175943Y-137616843D01*
X179175943Y-136759700D01*
X178509277Y-137759700D02*
X178604515Y-137712081D01*
X178652134Y-137664462D01*
X178699753Y-137569224D01*
X178699753Y-137283510D01*
X178652134Y-137188272D01*
X178604515Y-137140653D01*
X178509277Y-137093034D01*
X178366420Y-137093034D01*
X178271181Y-137140653D01*
X178223562Y-137188272D01*
X178175943Y-137283510D01*
X178175943Y-137569224D01*
X178223562Y-137664462D01*
X178271181Y-137712081D01*
X178366420Y-137759700D01*
X178509277Y-137759700D01*
X177890229Y-137093034D02*
X177509277Y-137093034D01*
X177747372Y-136759700D02*
X177747372Y-137616843D01*
X177699753Y-137712081D01*
X177604515Y-137759700D01*
X177509277Y-137759700D01*
D14*
%TO.C,D8*%
X198830187Y-94275100D02*
G75*
G03*
X198830187Y-94275100I-200000J0D01*
G01*
%TO.C,D6*%
X185256522Y-124446114D02*
G75*
G03*
X185256522Y-124446114I-200000J0D01*
G01*
%TO.C,D7*%
X163966242Y-121189834D02*
G75*
G03*
X163966242Y-121189834I-200000J0D01*
G01*
D13*
%TO.C,QR\u002A\u002A\u002A\u002A\u002A*%
G36*
X93005640Y-111017320D02*
G01*
X93005640Y-110517320D01*
X93505640Y-110517320D01*
X93505640Y-111017320D01*
X93005640Y-111017320D01*
G37*
G36*
X94005640Y-111017320D02*
G01*
X94005640Y-110517320D01*
X94505640Y-110517320D01*
X94505640Y-111017320D01*
X94005640Y-111017320D01*
G37*
G36*
X94505640Y-111017320D02*
G01*
X94505640Y-110517320D01*
X95005640Y-110517320D01*
X95005640Y-111017320D01*
X94505640Y-111017320D01*
G37*
G36*
X96505640Y-111017320D02*
G01*
X96505640Y-110517320D01*
X97005640Y-110517320D01*
X97005640Y-111017320D01*
X96505640Y-111017320D01*
G37*
G36*
X97505640Y-111017320D02*
G01*
X97505640Y-110517320D01*
X98005640Y-110517320D01*
X98005640Y-111017320D01*
X97505640Y-111017320D01*
G37*
G36*
X98005640Y-111017320D02*
G01*
X98005640Y-110517320D01*
X98505640Y-110517320D01*
X98505640Y-111017320D01*
X98005640Y-111017320D01*
G37*
G36*
X98505640Y-111017320D02*
G01*
X98505640Y-110517320D01*
X99005640Y-110517320D01*
X99005640Y-111017320D01*
X98505640Y-111017320D01*
G37*
G36*
X99005640Y-111017320D02*
G01*
X99005640Y-110517320D01*
X99505640Y-110517320D01*
X99505640Y-111017320D01*
X99005640Y-111017320D01*
G37*
G36*
X101505640Y-111017320D02*
G01*
X101505640Y-110517320D01*
X102005640Y-110517320D01*
X102005640Y-111017320D01*
X101505640Y-111017320D01*
G37*
G36*
X103005640Y-111017320D02*
G01*
X103005640Y-110517320D01*
X103505640Y-110517320D01*
X103505640Y-111017320D01*
X103005640Y-111017320D01*
G37*
G36*
X104505640Y-111017320D02*
G01*
X104505640Y-110517320D01*
X105005640Y-110517320D01*
X105005640Y-111017320D01*
X104505640Y-111017320D01*
G37*
G36*
X105005640Y-111017320D02*
G01*
X105005640Y-110517320D01*
X105505640Y-110517320D01*
X105505640Y-111017320D01*
X105005640Y-111017320D01*
G37*
G36*
X106005640Y-111017320D02*
G01*
X106005640Y-110517320D01*
X106505640Y-110517320D01*
X106505640Y-111017320D01*
X106005640Y-111017320D01*
G37*
G36*
X106505640Y-111017320D02*
G01*
X106505640Y-110517320D01*
X107005640Y-110517320D01*
X107005640Y-111017320D01*
X106505640Y-111017320D01*
G37*
G36*
X107005640Y-111017320D02*
G01*
X107005640Y-110517320D01*
X107505640Y-110517320D01*
X107505640Y-111017320D01*
X107005640Y-111017320D01*
G37*
G36*
X107505640Y-111017320D02*
G01*
X107505640Y-110517320D01*
X108005640Y-110517320D01*
X108005640Y-111017320D01*
X107505640Y-111017320D01*
G37*
G36*
X108005640Y-111017320D02*
G01*
X108005640Y-110517320D01*
X108505640Y-110517320D01*
X108505640Y-111017320D01*
X108005640Y-111017320D01*
G37*
G36*
X108505640Y-111017320D02*
G01*
X108505640Y-110517320D01*
X109005640Y-110517320D01*
X109005640Y-111017320D01*
X108505640Y-111017320D01*
G37*
G36*
X109005640Y-111017320D02*
G01*
X109005640Y-110517320D01*
X109505640Y-110517320D01*
X109505640Y-111017320D01*
X109005640Y-111017320D01*
G37*
G36*
X94505640Y-110517320D02*
G01*
X94505640Y-110017320D01*
X95005640Y-110017320D01*
X95005640Y-110517320D01*
X94505640Y-110517320D01*
G37*
G36*
X96005640Y-110517320D02*
G01*
X96005640Y-110017320D01*
X96505640Y-110017320D01*
X96505640Y-110517320D01*
X96005640Y-110517320D01*
G37*
G36*
X96505640Y-110517320D02*
G01*
X96505640Y-110017320D01*
X97005640Y-110017320D01*
X97005640Y-110517320D01*
X96505640Y-110517320D01*
G37*
G36*
X97505640Y-110517320D02*
G01*
X97505640Y-110017320D01*
X98005640Y-110017320D01*
X98005640Y-110517320D01*
X97505640Y-110517320D01*
G37*
G36*
X98005640Y-110517320D02*
G01*
X98005640Y-110017320D01*
X98505640Y-110017320D01*
X98505640Y-110517320D01*
X98005640Y-110517320D01*
G37*
G36*
X98505640Y-110517320D02*
G01*
X98505640Y-110017320D01*
X99005640Y-110017320D01*
X99005640Y-110517320D01*
X98505640Y-110517320D01*
G37*
G36*
X99005640Y-110517320D02*
G01*
X99005640Y-110017320D01*
X99505640Y-110017320D01*
X99505640Y-110517320D01*
X99005640Y-110517320D01*
G37*
G36*
X99505640Y-110517320D02*
G01*
X99505640Y-110017320D01*
X100005640Y-110017320D01*
X100005640Y-110517320D01*
X99505640Y-110517320D01*
G37*
G36*
X102005640Y-110517320D02*
G01*
X102005640Y-110017320D01*
X102505640Y-110017320D01*
X102505640Y-110517320D01*
X102005640Y-110517320D01*
G37*
G36*
X106005640Y-110517320D02*
G01*
X106005640Y-110017320D01*
X106505640Y-110017320D01*
X106505640Y-110517320D01*
X106005640Y-110517320D01*
G37*
G36*
X109005640Y-110517320D02*
G01*
X109005640Y-110017320D01*
X109505640Y-110017320D01*
X109505640Y-110517320D01*
X109005640Y-110517320D01*
G37*
G36*
X95005640Y-110017320D02*
G01*
X95005640Y-109517320D01*
X95505640Y-109517320D01*
X95505640Y-110017320D01*
X95005640Y-110017320D01*
G37*
G36*
X95505640Y-110017320D02*
G01*
X95505640Y-109517320D01*
X96005640Y-109517320D01*
X96005640Y-110017320D01*
X95505640Y-110017320D01*
G37*
G36*
X96005640Y-110017320D02*
G01*
X96005640Y-109517320D01*
X96505640Y-109517320D01*
X96505640Y-110017320D01*
X96005640Y-110017320D01*
G37*
G36*
X97005640Y-110017320D02*
G01*
X97005640Y-109517320D01*
X97505640Y-109517320D01*
X97505640Y-110017320D01*
X97005640Y-110017320D01*
G37*
G36*
X97505640Y-110017320D02*
G01*
X97505640Y-109517320D01*
X98005640Y-109517320D01*
X98005640Y-110017320D01*
X97505640Y-110017320D01*
G37*
G36*
X98005640Y-110017320D02*
G01*
X98005640Y-109517320D01*
X98505640Y-109517320D01*
X98505640Y-110017320D01*
X98005640Y-110017320D01*
G37*
G36*
X99505640Y-110017320D02*
G01*
X99505640Y-109517320D01*
X100005640Y-109517320D01*
X100005640Y-110017320D01*
X99505640Y-110017320D01*
G37*
G36*
X100005640Y-110017320D02*
G01*
X100005640Y-109517320D01*
X100505640Y-109517320D01*
X100505640Y-110017320D01*
X100005640Y-110017320D01*
G37*
G36*
X101005640Y-110017320D02*
G01*
X101005640Y-109517320D01*
X101505640Y-109517320D01*
X101505640Y-110017320D01*
X101005640Y-110017320D01*
G37*
G36*
X102505640Y-110017320D02*
G01*
X102505640Y-109517320D01*
X103005640Y-109517320D01*
X103005640Y-110017320D01*
X102505640Y-110017320D01*
G37*
G36*
X103005640Y-110017320D02*
G01*
X103005640Y-109517320D01*
X103505640Y-109517320D01*
X103505640Y-110017320D01*
X103005640Y-110017320D01*
G37*
G36*
X103505640Y-110017320D02*
G01*
X103505640Y-109517320D01*
X104005640Y-109517320D01*
X104005640Y-110017320D01*
X103505640Y-110017320D01*
G37*
G36*
X104005640Y-110017320D02*
G01*
X104005640Y-109517320D01*
X104505640Y-109517320D01*
X104505640Y-110017320D01*
X104005640Y-110017320D01*
G37*
G36*
X104505640Y-110017320D02*
G01*
X104505640Y-109517320D01*
X105005640Y-109517320D01*
X105005640Y-110017320D01*
X104505640Y-110017320D01*
G37*
G36*
X106005640Y-110017320D02*
G01*
X106005640Y-109517320D01*
X106505640Y-109517320D01*
X106505640Y-110017320D01*
X106005640Y-110017320D01*
G37*
G36*
X107005640Y-110017320D02*
G01*
X107005640Y-109517320D01*
X107505640Y-109517320D01*
X107505640Y-110017320D01*
X107005640Y-110017320D01*
G37*
G36*
X107505640Y-110017320D02*
G01*
X107505640Y-109517320D01*
X108005640Y-109517320D01*
X108005640Y-110017320D01*
X107505640Y-110017320D01*
G37*
G36*
X108005640Y-110017320D02*
G01*
X108005640Y-109517320D01*
X108505640Y-109517320D01*
X108505640Y-110017320D01*
X108005640Y-110017320D01*
G37*
G36*
X109005640Y-110017320D02*
G01*
X109005640Y-109517320D01*
X109505640Y-109517320D01*
X109505640Y-110017320D01*
X109005640Y-110017320D01*
G37*
G36*
X93005640Y-109517320D02*
G01*
X93005640Y-109017320D01*
X93505640Y-109017320D01*
X93505640Y-109517320D01*
X93005640Y-109517320D01*
G37*
G36*
X94005640Y-109517320D02*
G01*
X94005640Y-109017320D01*
X94505640Y-109017320D01*
X94505640Y-109517320D01*
X94005640Y-109517320D01*
G37*
G36*
X95005640Y-109517320D02*
G01*
X95005640Y-109017320D01*
X95505640Y-109017320D01*
X95505640Y-109517320D01*
X95005640Y-109517320D01*
G37*
G36*
X95505640Y-109517320D02*
G01*
X95505640Y-109017320D01*
X96005640Y-109017320D01*
X96005640Y-109517320D01*
X95505640Y-109517320D01*
G37*
G36*
X96005640Y-109517320D02*
G01*
X96005640Y-109017320D01*
X96505640Y-109017320D01*
X96505640Y-109517320D01*
X96005640Y-109517320D01*
G37*
G36*
X97005640Y-109517320D02*
G01*
X97005640Y-109017320D01*
X97505640Y-109017320D01*
X97505640Y-109517320D01*
X97005640Y-109517320D01*
G37*
G36*
X97505640Y-109517320D02*
G01*
X97505640Y-109017320D01*
X98005640Y-109017320D01*
X98005640Y-109517320D01*
X97505640Y-109517320D01*
G37*
G36*
X98005640Y-109517320D02*
G01*
X98005640Y-109017320D01*
X98505640Y-109017320D01*
X98505640Y-109517320D01*
X98005640Y-109517320D01*
G37*
G36*
X99505640Y-109517320D02*
G01*
X99505640Y-109017320D01*
X100005640Y-109017320D01*
X100005640Y-109517320D01*
X99505640Y-109517320D01*
G37*
G36*
X100505640Y-109517320D02*
G01*
X100505640Y-109017320D01*
X101005640Y-109017320D01*
X101005640Y-109517320D01*
X100505640Y-109517320D01*
G37*
G36*
X101005640Y-109517320D02*
G01*
X101005640Y-109017320D01*
X101505640Y-109017320D01*
X101505640Y-109517320D01*
X101005640Y-109517320D01*
G37*
G36*
X102505640Y-109517320D02*
G01*
X102505640Y-109017320D01*
X103005640Y-109017320D01*
X103005640Y-109517320D01*
X102505640Y-109517320D01*
G37*
G36*
X103505640Y-109517320D02*
G01*
X103505640Y-109017320D01*
X104005640Y-109017320D01*
X104005640Y-109517320D01*
X103505640Y-109517320D01*
G37*
G36*
X106005640Y-109517320D02*
G01*
X106005640Y-109017320D01*
X106505640Y-109017320D01*
X106505640Y-109517320D01*
X106005640Y-109517320D01*
G37*
G36*
X107005640Y-109517320D02*
G01*
X107005640Y-109017320D01*
X107505640Y-109017320D01*
X107505640Y-109517320D01*
X107005640Y-109517320D01*
G37*
G36*
X107505640Y-109517320D02*
G01*
X107505640Y-109017320D01*
X108005640Y-109017320D01*
X108005640Y-109517320D01*
X107505640Y-109517320D01*
G37*
G36*
X108005640Y-109517320D02*
G01*
X108005640Y-109017320D01*
X108505640Y-109017320D01*
X108505640Y-109517320D01*
X108005640Y-109517320D01*
G37*
G36*
X109005640Y-109517320D02*
G01*
X109005640Y-109017320D01*
X109505640Y-109017320D01*
X109505640Y-109517320D01*
X109005640Y-109517320D01*
G37*
G36*
X94505640Y-109017320D02*
G01*
X94505640Y-108517320D01*
X95005640Y-108517320D01*
X95005640Y-109017320D01*
X94505640Y-109017320D01*
G37*
G36*
X95005640Y-109017320D02*
G01*
X95005640Y-108517320D01*
X95505640Y-108517320D01*
X95505640Y-109017320D01*
X95005640Y-109017320D01*
G37*
G36*
X95505640Y-109017320D02*
G01*
X95505640Y-108517320D01*
X96005640Y-108517320D01*
X96005640Y-109017320D01*
X95505640Y-109017320D01*
G37*
G36*
X96005640Y-109017320D02*
G01*
X96005640Y-108517320D01*
X96505640Y-108517320D01*
X96505640Y-109017320D01*
X96005640Y-109017320D01*
G37*
G36*
X96505640Y-109017320D02*
G01*
X96505640Y-108517320D01*
X97005640Y-108517320D01*
X97005640Y-109017320D01*
X96505640Y-109017320D01*
G37*
G36*
X97005640Y-109017320D02*
G01*
X97005640Y-108517320D01*
X97505640Y-108517320D01*
X97505640Y-109017320D01*
X97005640Y-109017320D01*
G37*
G36*
X99005640Y-109017320D02*
G01*
X99005640Y-108517320D01*
X99505640Y-108517320D01*
X99505640Y-109017320D01*
X99005640Y-109017320D01*
G37*
G36*
X100005640Y-109017320D02*
G01*
X100005640Y-108517320D01*
X100505640Y-108517320D01*
X100505640Y-109017320D01*
X100005640Y-109017320D01*
G37*
G36*
X103505640Y-109017320D02*
G01*
X103505640Y-108517320D01*
X104005640Y-108517320D01*
X104005640Y-109017320D01*
X103505640Y-109017320D01*
G37*
G36*
X105005640Y-109017320D02*
G01*
X105005640Y-108517320D01*
X105505640Y-108517320D01*
X105505640Y-109017320D01*
X105005640Y-109017320D01*
G37*
G36*
X106005640Y-109017320D02*
G01*
X106005640Y-108517320D01*
X106505640Y-108517320D01*
X106505640Y-109017320D01*
X106005640Y-109017320D01*
G37*
G36*
X107005640Y-109017320D02*
G01*
X107005640Y-108517320D01*
X107505640Y-108517320D01*
X107505640Y-109017320D01*
X107005640Y-109017320D01*
G37*
G36*
X107505640Y-109017320D02*
G01*
X107505640Y-108517320D01*
X108005640Y-108517320D01*
X108005640Y-109017320D01*
X107505640Y-109017320D01*
G37*
G36*
X108005640Y-109017320D02*
G01*
X108005640Y-108517320D01*
X108505640Y-108517320D01*
X108505640Y-109017320D01*
X108005640Y-109017320D01*
G37*
G36*
X109005640Y-109017320D02*
G01*
X109005640Y-108517320D01*
X109505640Y-108517320D01*
X109505640Y-109017320D01*
X109005640Y-109017320D01*
G37*
G36*
X93005640Y-108517320D02*
G01*
X93005640Y-108017320D01*
X93505640Y-108017320D01*
X93505640Y-108517320D01*
X93005640Y-108517320D01*
G37*
G36*
X95005640Y-108517320D02*
G01*
X95005640Y-108017320D01*
X95505640Y-108017320D01*
X95505640Y-108517320D01*
X95005640Y-108517320D01*
G37*
G36*
X97005640Y-108517320D02*
G01*
X97005640Y-108017320D01*
X97505640Y-108017320D01*
X97505640Y-108517320D01*
X97005640Y-108517320D01*
G37*
G36*
X98505640Y-108517320D02*
G01*
X98505640Y-108017320D01*
X99005640Y-108017320D01*
X99005640Y-108517320D01*
X98505640Y-108517320D01*
G37*
G36*
X99505640Y-108517320D02*
G01*
X99505640Y-108017320D01*
X100005640Y-108017320D01*
X100005640Y-108517320D01*
X99505640Y-108517320D01*
G37*
G36*
X100005640Y-108517320D02*
G01*
X100005640Y-108017320D01*
X100505640Y-108017320D01*
X100505640Y-108517320D01*
X100005640Y-108517320D01*
G37*
G36*
X100505640Y-108517320D02*
G01*
X100505640Y-108017320D01*
X101005640Y-108017320D01*
X101005640Y-108517320D01*
X100505640Y-108517320D01*
G37*
G36*
X101005640Y-108517320D02*
G01*
X101005640Y-108017320D01*
X101505640Y-108017320D01*
X101505640Y-108517320D01*
X101005640Y-108517320D01*
G37*
G36*
X101505640Y-108517320D02*
G01*
X101505640Y-108017320D01*
X102005640Y-108017320D01*
X102005640Y-108517320D01*
X101505640Y-108517320D01*
G37*
G36*
X102005640Y-108517320D02*
G01*
X102005640Y-108017320D01*
X102505640Y-108017320D01*
X102505640Y-108517320D01*
X102005640Y-108517320D01*
G37*
G36*
X102505640Y-108517320D02*
G01*
X102505640Y-108017320D01*
X103005640Y-108017320D01*
X103005640Y-108517320D01*
X102505640Y-108517320D01*
G37*
G36*
X103005640Y-108517320D02*
G01*
X103005640Y-108017320D01*
X103505640Y-108017320D01*
X103505640Y-108517320D01*
X103005640Y-108517320D01*
G37*
G36*
X103505640Y-108517320D02*
G01*
X103505640Y-108017320D01*
X104005640Y-108017320D01*
X104005640Y-108517320D01*
X103505640Y-108517320D01*
G37*
G36*
X104005640Y-108517320D02*
G01*
X104005640Y-108017320D01*
X104505640Y-108017320D01*
X104505640Y-108517320D01*
X104005640Y-108517320D01*
G37*
G36*
X106005640Y-108517320D02*
G01*
X106005640Y-108017320D01*
X106505640Y-108017320D01*
X106505640Y-108517320D01*
X106005640Y-108517320D01*
G37*
G36*
X109005640Y-108517320D02*
G01*
X109005640Y-108017320D01*
X109505640Y-108017320D01*
X109505640Y-108517320D01*
X109005640Y-108517320D01*
G37*
G36*
X93005640Y-108017320D02*
G01*
X93005640Y-107517320D01*
X93505640Y-107517320D01*
X93505640Y-108017320D01*
X93005640Y-108017320D01*
G37*
G36*
X93505640Y-108017320D02*
G01*
X93505640Y-107517320D01*
X94005640Y-107517320D01*
X94005640Y-108017320D01*
X93505640Y-108017320D01*
G37*
G36*
X94505640Y-108017320D02*
G01*
X94505640Y-107517320D01*
X95005640Y-107517320D01*
X95005640Y-108017320D01*
X94505640Y-108017320D01*
G37*
G36*
X95005640Y-108017320D02*
G01*
X95005640Y-107517320D01*
X95505640Y-107517320D01*
X95505640Y-108017320D01*
X95005640Y-108017320D01*
G37*
G36*
X96005640Y-108017320D02*
G01*
X96005640Y-107517320D01*
X96505640Y-107517320D01*
X96505640Y-108017320D01*
X96005640Y-108017320D01*
G37*
G36*
X97005640Y-108017320D02*
G01*
X97005640Y-107517320D01*
X97505640Y-107517320D01*
X97505640Y-108017320D01*
X97005640Y-108017320D01*
G37*
G36*
X98005640Y-108017320D02*
G01*
X98005640Y-107517320D01*
X98505640Y-107517320D01*
X98505640Y-108017320D01*
X98005640Y-108017320D01*
G37*
G36*
X98505640Y-108017320D02*
G01*
X98505640Y-107517320D01*
X99005640Y-107517320D01*
X99005640Y-108017320D01*
X98505640Y-108017320D01*
G37*
G36*
X100505640Y-108017320D02*
G01*
X100505640Y-107517320D01*
X101005640Y-107517320D01*
X101005640Y-108017320D01*
X100505640Y-108017320D01*
G37*
G36*
X101505640Y-108017320D02*
G01*
X101505640Y-107517320D01*
X102005640Y-107517320D01*
X102005640Y-108017320D01*
X101505640Y-108017320D01*
G37*
G36*
X103005640Y-108017320D02*
G01*
X103005640Y-107517320D01*
X103505640Y-107517320D01*
X103505640Y-108017320D01*
X103005640Y-108017320D01*
G37*
G36*
X103505640Y-108017320D02*
G01*
X103505640Y-107517320D01*
X104005640Y-107517320D01*
X104005640Y-108017320D01*
X103505640Y-108017320D01*
G37*
G36*
X104005640Y-108017320D02*
G01*
X104005640Y-107517320D01*
X104505640Y-107517320D01*
X104505640Y-108017320D01*
X104005640Y-108017320D01*
G37*
G36*
X104505640Y-108017320D02*
G01*
X104505640Y-107517320D01*
X105005640Y-107517320D01*
X105005640Y-108017320D01*
X104505640Y-108017320D01*
G37*
G36*
X105005640Y-108017320D02*
G01*
X105005640Y-107517320D01*
X105505640Y-107517320D01*
X105505640Y-108017320D01*
X105005640Y-108017320D01*
G37*
G36*
X106005640Y-108017320D02*
G01*
X106005640Y-107517320D01*
X106505640Y-107517320D01*
X106505640Y-108017320D01*
X106005640Y-108017320D01*
G37*
G36*
X106505640Y-108017320D02*
G01*
X106505640Y-107517320D01*
X107005640Y-107517320D01*
X107005640Y-108017320D01*
X106505640Y-108017320D01*
G37*
G36*
X107005640Y-108017320D02*
G01*
X107005640Y-107517320D01*
X107505640Y-107517320D01*
X107505640Y-108017320D01*
X107005640Y-108017320D01*
G37*
G36*
X107505640Y-108017320D02*
G01*
X107505640Y-107517320D01*
X108005640Y-107517320D01*
X108005640Y-108017320D01*
X107505640Y-108017320D01*
G37*
G36*
X108005640Y-108017320D02*
G01*
X108005640Y-107517320D01*
X108505640Y-107517320D01*
X108505640Y-108017320D01*
X108005640Y-108017320D01*
G37*
G36*
X108505640Y-108017320D02*
G01*
X108505640Y-107517320D01*
X109005640Y-107517320D01*
X109005640Y-108017320D01*
X108505640Y-108017320D01*
G37*
G36*
X109005640Y-108017320D02*
G01*
X109005640Y-107517320D01*
X109505640Y-107517320D01*
X109505640Y-108017320D01*
X109005640Y-108017320D01*
G37*
G36*
X93005640Y-107517320D02*
G01*
X93005640Y-107017320D01*
X93505640Y-107017320D01*
X93505640Y-107517320D01*
X93005640Y-107517320D01*
G37*
G36*
X93505640Y-107517320D02*
G01*
X93505640Y-107017320D01*
X94005640Y-107017320D01*
X94005640Y-107517320D01*
X93505640Y-107517320D01*
G37*
G36*
X94005640Y-107517320D02*
G01*
X94005640Y-107017320D01*
X94505640Y-107017320D01*
X94505640Y-107517320D01*
X94005640Y-107517320D01*
G37*
G36*
X95005640Y-107517320D02*
G01*
X95005640Y-107017320D01*
X95505640Y-107017320D01*
X95505640Y-107517320D01*
X95005640Y-107517320D01*
G37*
G36*
X97005640Y-107517320D02*
G01*
X97005640Y-107017320D01*
X97505640Y-107017320D01*
X97505640Y-107517320D01*
X97005640Y-107517320D01*
G37*
G36*
X97505640Y-107517320D02*
G01*
X97505640Y-107017320D01*
X98005640Y-107017320D01*
X98005640Y-107517320D01*
X97505640Y-107517320D01*
G37*
G36*
X99505640Y-107517320D02*
G01*
X99505640Y-107017320D01*
X100005640Y-107017320D01*
X100005640Y-107517320D01*
X99505640Y-107517320D01*
G37*
G36*
X103005640Y-107517320D02*
G01*
X103005640Y-107017320D01*
X103505640Y-107017320D01*
X103505640Y-107517320D01*
X103005640Y-107517320D01*
G37*
G36*
X103505640Y-107517320D02*
G01*
X103505640Y-107017320D01*
X104005640Y-107017320D01*
X104005640Y-107517320D01*
X103505640Y-107517320D01*
G37*
G36*
X105005640Y-107517320D02*
G01*
X105005640Y-107017320D01*
X105505640Y-107017320D01*
X105505640Y-107517320D01*
X105005640Y-107517320D01*
G37*
G36*
X93005640Y-107017320D02*
G01*
X93005640Y-106517320D01*
X93505640Y-106517320D01*
X93505640Y-107017320D01*
X93005640Y-107017320D01*
G37*
G36*
X94005640Y-107017320D02*
G01*
X94005640Y-106517320D01*
X94505640Y-106517320D01*
X94505640Y-107017320D01*
X94005640Y-107017320D01*
G37*
G36*
X95005640Y-107017320D02*
G01*
X95005640Y-106517320D01*
X95505640Y-106517320D01*
X95505640Y-107017320D01*
X95005640Y-107017320D01*
G37*
G36*
X95505640Y-107017320D02*
G01*
X95505640Y-106517320D01*
X96005640Y-106517320D01*
X96005640Y-107017320D01*
X95505640Y-107017320D01*
G37*
G36*
X96005640Y-107017320D02*
G01*
X96005640Y-106517320D01*
X96505640Y-106517320D01*
X96505640Y-107017320D01*
X96005640Y-107017320D01*
G37*
G36*
X96505640Y-107017320D02*
G01*
X96505640Y-106517320D01*
X97005640Y-106517320D01*
X97005640Y-107017320D01*
X96505640Y-107017320D01*
G37*
G36*
X97005640Y-107017320D02*
G01*
X97005640Y-106517320D01*
X97505640Y-106517320D01*
X97505640Y-107017320D01*
X97005640Y-107017320D01*
G37*
G36*
X98005640Y-107017320D02*
G01*
X98005640Y-106517320D01*
X98505640Y-106517320D01*
X98505640Y-107017320D01*
X98005640Y-107017320D01*
G37*
G36*
X98505640Y-107017320D02*
G01*
X98505640Y-106517320D01*
X99005640Y-106517320D01*
X99005640Y-107017320D01*
X98505640Y-107017320D01*
G37*
G36*
X99005640Y-107017320D02*
G01*
X99005640Y-106517320D01*
X99505640Y-106517320D01*
X99505640Y-107017320D01*
X99005640Y-107017320D01*
G37*
G36*
X99505640Y-107017320D02*
G01*
X99505640Y-106517320D01*
X100005640Y-106517320D01*
X100005640Y-107017320D01*
X99505640Y-107017320D01*
G37*
G36*
X100005640Y-107017320D02*
G01*
X100005640Y-106517320D01*
X100505640Y-106517320D01*
X100505640Y-107017320D01*
X100005640Y-107017320D01*
G37*
G36*
X101005640Y-107017320D02*
G01*
X101005640Y-106517320D01*
X101505640Y-106517320D01*
X101505640Y-107017320D01*
X101005640Y-107017320D01*
G37*
G36*
X102005640Y-107017320D02*
G01*
X102005640Y-106517320D01*
X102505640Y-106517320D01*
X102505640Y-107017320D01*
X102005640Y-107017320D01*
G37*
G36*
X103505640Y-107017320D02*
G01*
X103505640Y-106517320D01*
X104005640Y-106517320D01*
X104005640Y-107017320D01*
X103505640Y-107017320D01*
G37*
G36*
X105505640Y-107017320D02*
G01*
X105505640Y-106517320D01*
X106005640Y-106517320D01*
X106005640Y-107017320D01*
X105505640Y-107017320D01*
G37*
G36*
X106005640Y-107017320D02*
G01*
X106005640Y-106517320D01*
X106505640Y-106517320D01*
X106505640Y-107017320D01*
X106005640Y-107017320D01*
G37*
G36*
X107005640Y-107017320D02*
G01*
X107005640Y-106517320D01*
X107505640Y-106517320D01*
X107505640Y-107017320D01*
X107005640Y-107017320D01*
G37*
G36*
X108505640Y-107017320D02*
G01*
X108505640Y-106517320D01*
X109005640Y-106517320D01*
X109005640Y-107017320D01*
X108505640Y-107017320D01*
G37*
G36*
X109005640Y-107017320D02*
G01*
X109005640Y-106517320D01*
X109505640Y-106517320D01*
X109505640Y-107017320D01*
X109005640Y-107017320D01*
G37*
G36*
X93005640Y-106517320D02*
G01*
X93005640Y-106017320D01*
X93505640Y-106017320D01*
X93505640Y-106517320D01*
X93005640Y-106517320D01*
G37*
G36*
X94005640Y-106517320D02*
G01*
X94005640Y-106017320D01*
X94505640Y-106017320D01*
X94505640Y-106517320D01*
X94005640Y-106517320D01*
G37*
G36*
X96005640Y-106517320D02*
G01*
X96005640Y-106017320D01*
X96505640Y-106017320D01*
X96505640Y-106517320D01*
X96005640Y-106517320D01*
G37*
G36*
X97505640Y-106517320D02*
G01*
X97505640Y-106017320D01*
X98005640Y-106017320D01*
X98005640Y-106517320D01*
X97505640Y-106517320D01*
G37*
G36*
X98505640Y-106517320D02*
G01*
X98505640Y-106017320D01*
X99005640Y-106017320D01*
X99005640Y-106517320D01*
X98505640Y-106517320D01*
G37*
G36*
X100005640Y-106517320D02*
G01*
X100005640Y-106017320D01*
X100505640Y-106017320D01*
X100505640Y-106517320D01*
X100005640Y-106517320D01*
G37*
G36*
X100505640Y-106517320D02*
G01*
X100505640Y-106017320D01*
X101005640Y-106017320D01*
X101005640Y-106517320D01*
X100505640Y-106517320D01*
G37*
G36*
X101005640Y-106517320D02*
G01*
X101005640Y-106017320D01*
X101505640Y-106017320D01*
X101505640Y-106517320D01*
X101005640Y-106517320D01*
G37*
G36*
X101505640Y-106517320D02*
G01*
X101505640Y-106017320D01*
X102005640Y-106017320D01*
X102005640Y-106517320D01*
X101505640Y-106517320D01*
G37*
G36*
X102505640Y-106517320D02*
G01*
X102505640Y-106017320D01*
X103005640Y-106017320D01*
X103005640Y-106517320D01*
X102505640Y-106517320D01*
G37*
G36*
X104005640Y-106517320D02*
G01*
X104005640Y-106017320D01*
X104505640Y-106017320D01*
X104505640Y-106517320D01*
X104005640Y-106517320D01*
G37*
G36*
X104505640Y-106517320D02*
G01*
X104505640Y-106017320D01*
X105005640Y-106017320D01*
X105005640Y-106517320D01*
X104505640Y-106517320D01*
G37*
G36*
X107005640Y-106517320D02*
G01*
X107005640Y-106017320D01*
X107505640Y-106017320D01*
X107505640Y-106517320D01*
X107005640Y-106517320D01*
G37*
G36*
X108005640Y-106517320D02*
G01*
X108005640Y-106017320D01*
X108505640Y-106017320D01*
X108505640Y-106517320D01*
X108005640Y-106517320D01*
G37*
G36*
X93505640Y-106017320D02*
G01*
X93505640Y-105517320D01*
X94005640Y-105517320D01*
X94005640Y-106017320D01*
X93505640Y-106017320D01*
G37*
G36*
X94005640Y-106017320D02*
G01*
X94005640Y-105517320D01*
X94505640Y-105517320D01*
X94505640Y-106017320D01*
X94005640Y-106017320D01*
G37*
G36*
X94505640Y-106017320D02*
G01*
X94505640Y-105517320D01*
X95005640Y-105517320D01*
X95005640Y-106017320D01*
X94505640Y-106017320D01*
G37*
G36*
X95505640Y-106017320D02*
G01*
X95505640Y-105517320D01*
X96005640Y-105517320D01*
X96005640Y-106017320D01*
X95505640Y-106017320D01*
G37*
G36*
X97005640Y-106017320D02*
G01*
X97005640Y-105517320D01*
X97505640Y-105517320D01*
X97505640Y-106017320D01*
X97005640Y-106017320D01*
G37*
G36*
X97505640Y-106017320D02*
G01*
X97505640Y-105517320D01*
X98005640Y-105517320D01*
X98005640Y-106017320D01*
X97505640Y-106017320D01*
G37*
G36*
X98005640Y-106017320D02*
G01*
X98005640Y-105517320D01*
X98505640Y-105517320D01*
X98505640Y-106017320D01*
X98005640Y-106017320D01*
G37*
G36*
X99005640Y-106017320D02*
G01*
X99005640Y-105517320D01*
X99505640Y-105517320D01*
X99505640Y-106017320D01*
X99005640Y-106017320D01*
G37*
G36*
X100505640Y-106017320D02*
G01*
X100505640Y-105517320D01*
X101005640Y-105517320D01*
X101005640Y-106017320D01*
X100505640Y-106017320D01*
G37*
G36*
X101505640Y-106017320D02*
G01*
X101505640Y-105517320D01*
X102005640Y-105517320D01*
X102005640Y-106017320D01*
X101505640Y-106017320D01*
G37*
G36*
X102005640Y-106017320D02*
G01*
X102005640Y-105517320D01*
X102505640Y-105517320D01*
X102505640Y-106017320D01*
X102005640Y-106017320D01*
G37*
G36*
X105505640Y-106017320D02*
G01*
X105505640Y-105517320D01*
X106005640Y-105517320D01*
X106005640Y-106017320D01*
X105505640Y-106017320D01*
G37*
G36*
X106005640Y-106017320D02*
G01*
X106005640Y-105517320D01*
X106505640Y-105517320D01*
X106505640Y-106017320D01*
X106005640Y-106017320D01*
G37*
G36*
X108005640Y-106017320D02*
G01*
X108005640Y-105517320D01*
X108505640Y-105517320D01*
X108505640Y-106017320D01*
X108005640Y-106017320D01*
G37*
G36*
X93505640Y-105517320D02*
G01*
X93505640Y-105017320D01*
X94005640Y-105017320D01*
X94005640Y-105517320D01*
X93505640Y-105517320D01*
G37*
G36*
X94505640Y-105517320D02*
G01*
X94505640Y-105017320D01*
X95005640Y-105017320D01*
X95005640Y-105517320D01*
X94505640Y-105517320D01*
G37*
G36*
X95005640Y-105517320D02*
G01*
X95005640Y-105017320D01*
X95505640Y-105017320D01*
X95505640Y-105517320D01*
X95005640Y-105517320D01*
G37*
G36*
X95505640Y-105517320D02*
G01*
X95505640Y-105017320D01*
X96005640Y-105017320D01*
X96005640Y-105517320D01*
X95505640Y-105517320D01*
G37*
G36*
X96005640Y-105517320D02*
G01*
X96005640Y-105017320D01*
X96505640Y-105017320D01*
X96505640Y-105517320D01*
X96005640Y-105517320D01*
G37*
G36*
X97005640Y-105517320D02*
G01*
X97005640Y-105017320D01*
X97505640Y-105017320D01*
X97505640Y-105517320D01*
X97005640Y-105517320D01*
G37*
G36*
X99005640Y-105517320D02*
G01*
X99005640Y-105017320D01*
X99505640Y-105017320D01*
X99505640Y-105517320D01*
X99005640Y-105517320D01*
G37*
G36*
X99505640Y-105517320D02*
G01*
X99505640Y-105017320D01*
X100005640Y-105017320D01*
X100005640Y-105517320D01*
X99505640Y-105517320D01*
G37*
G36*
X100005640Y-105517320D02*
G01*
X100005640Y-105017320D01*
X100505640Y-105017320D01*
X100505640Y-105517320D01*
X100005640Y-105517320D01*
G37*
G36*
X102005640Y-105517320D02*
G01*
X102005640Y-105017320D01*
X102505640Y-105017320D01*
X102505640Y-105517320D01*
X102005640Y-105517320D01*
G37*
G36*
X102505640Y-105517320D02*
G01*
X102505640Y-105017320D01*
X103005640Y-105017320D01*
X103005640Y-105517320D01*
X102505640Y-105517320D01*
G37*
G36*
X103005640Y-105517320D02*
G01*
X103005640Y-105017320D01*
X103505640Y-105017320D01*
X103505640Y-105517320D01*
X103005640Y-105517320D01*
G37*
G36*
X104505640Y-105517320D02*
G01*
X104505640Y-105017320D01*
X105005640Y-105017320D01*
X105005640Y-105517320D01*
X104505640Y-105517320D01*
G37*
G36*
X107505640Y-105517320D02*
G01*
X107505640Y-105017320D01*
X108005640Y-105017320D01*
X108005640Y-105517320D01*
X107505640Y-105517320D01*
G37*
G36*
X108505640Y-105517320D02*
G01*
X108505640Y-105017320D01*
X109005640Y-105017320D01*
X109005640Y-105517320D01*
X108505640Y-105517320D01*
G37*
G36*
X109005640Y-105517320D02*
G01*
X109005640Y-105017320D01*
X109505640Y-105017320D01*
X109505640Y-105517320D01*
X109005640Y-105517320D01*
G37*
G36*
X93005640Y-105017320D02*
G01*
X93005640Y-104517320D01*
X93505640Y-104517320D01*
X93505640Y-105017320D01*
X93005640Y-105017320D01*
G37*
G36*
X93505640Y-105017320D02*
G01*
X93505640Y-104517320D01*
X94005640Y-104517320D01*
X94005640Y-105017320D01*
X93505640Y-105017320D01*
G37*
G36*
X94505640Y-105017320D02*
G01*
X94505640Y-104517320D01*
X95005640Y-104517320D01*
X95005640Y-105017320D01*
X94505640Y-105017320D01*
G37*
G36*
X96005640Y-105017320D02*
G01*
X96005640Y-104517320D01*
X96505640Y-104517320D01*
X96505640Y-105017320D01*
X96005640Y-105017320D01*
G37*
G36*
X96505640Y-105017320D02*
G01*
X96505640Y-104517320D01*
X97005640Y-104517320D01*
X97005640Y-105017320D01*
X96505640Y-105017320D01*
G37*
G36*
X98005640Y-105017320D02*
G01*
X98005640Y-104517320D01*
X98505640Y-104517320D01*
X98505640Y-105017320D01*
X98005640Y-105017320D01*
G37*
G36*
X101005640Y-105017320D02*
G01*
X101005640Y-104517320D01*
X101505640Y-104517320D01*
X101505640Y-105017320D01*
X101005640Y-105017320D01*
G37*
G36*
X101505640Y-105017320D02*
G01*
X101505640Y-104517320D01*
X102005640Y-104517320D01*
X102005640Y-105017320D01*
X101505640Y-105017320D01*
G37*
G36*
X102005640Y-105017320D02*
G01*
X102005640Y-104517320D01*
X102505640Y-104517320D01*
X102505640Y-105017320D01*
X102005640Y-105017320D01*
G37*
G36*
X102505640Y-105017320D02*
G01*
X102505640Y-104517320D01*
X103005640Y-104517320D01*
X103005640Y-105017320D01*
X102505640Y-105017320D01*
G37*
G36*
X103005640Y-105017320D02*
G01*
X103005640Y-104517320D01*
X103505640Y-104517320D01*
X103505640Y-105017320D01*
X103005640Y-105017320D01*
G37*
G36*
X105005640Y-105017320D02*
G01*
X105005640Y-104517320D01*
X105505640Y-104517320D01*
X105505640Y-105017320D01*
X105005640Y-105017320D01*
G37*
G36*
X105505640Y-105017320D02*
G01*
X105505640Y-104517320D01*
X106005640Y-104517320D01*
X106005640Y-105017320D01*
X105505640Y-105017320D01*
G37*
G36*
X106005640Y-105017320D02*
G01*
X106005640Y-104517320D01*
X106505640Y-104517320D01*
X106505640Y-105017320D01*
X106005640Y-105017320D01*
G37*
G36*
X106505640Y-105017320D02*
G01*
X106505640Y-104517320D01*
X107005640Y-104517320D01*
X107005640Y-105017320D01*
X106505640Y-105017320D01*
G37*
G36*
X107005640Y-105017320D02*
G01*
X107005640Y-104517320D01*
X107505640Y-104517320D01*
X107505640Y-105017320D01*
X107005640Y-105017320D01*
G37*
G36*
X107505640Y-105017320D02*
G01*
X107505640Y-104517320D01*
X108005640Y-104517320D01*
X108005640Y-105017320D01*
X107505640Y-105017320D01*
G37*
G36*
X108505640Y-105017320D02*
G01*
X108505640Y-104517320D01*
X109005640Y-104517320D01*
X109005640Y-105017320D01*
X108505640Y-105017320D01*
G37*
G36*
X109005640Y-105017320D02*
G01*
X109005640Y-104517320D01*
X109505640Y-104517320D01*
X109505640Y-105017320D01*
X109005640Y-105017320D01*
G37*
G36*
X93505640Y-104517320D02*
G01*
X93505640Y-104017320D01*
X94005640Y-104017320D01*
X94005640Y-104517320D01*
X93505640Y-104517320D01*
G37*
G36*
X95505640Y-104517320D02*
G01*
X95505640Y-104017320D01*
X96005640Y-104017320D01*
X96005640Y-104517320D01*
X95505640Y-104517320D01*
G37*
G36*
X96505640Y-104517320D02*
G01*
X96505640Y-104017320D01*
X97005640Y-104017320D01*
X97005640Y-104517320D01*
X96505640Y-104517320D01*
G37*
G36*
X97005640Y-104517320D02*
G01*
X97005640Y-104017320D01*
X97505640Y-104017320D01*
X97505640Y-104517320D01*
X97005640Y-104517320D01*
G37*
G36*
X97505640Y-104517320D02*
G01*
X97505640Y-104017320D01*
X98005640Y-104017320D01*
X98005640Y-104517320D01*
X97505640Y-104517320D01*
G37*
G36*
X98005640Y-104517320D02*
G01*
X98005640Y-104017320D01*
X98505640Y-104017320D01*
X98505640Y-104517320D01*
X98005640Y-104517320D01*
G37*
G36*
X99005640Y-104517320D02*
G01*
X99005640Y-104017320D01*
X99505640Y-104017320D01*
X99505640Y-104517320D01*
X99005640Y-104517320D01*
G37*
G36*
X99505640Y-104517320D02*
G01*
X99505640Y-104017320D01*
X100005640Y-104017320D01*
X100005640Y-104517320D01*
X99505640Y-104517320D01*
G37*
G36*
X102505640Y-104517320D02*
G01*
X102505640Y-104017320D01*
X103005640Y-104017320D01*
X103005640Y-104517320D01*
X102505640Y-104517320D01*
G37*
G36*
X104505640Y-104517320D02*
G01*
X104505640Y-104017320D01*
X105005640Y-104017320D01*
X105005640Y-104517320D01*
X104505640Y-104517320D01*
G37*
G36*
X105005640Y-104517320D02*
G01*
X105005640Y-104017320D01*
X105505640Y-104017320D01*
X105505640Y-104517320D01*
X105005640Y-104517320D01*
G37*
G36*
X105505640Y-104517320D02*
G01*
X105505640Y-104017320D01*
X106005640Y-104017320D01*
X106005640Y-104517320D01*
X105505640Y-104517320D01*
G37*
G36*
X106505640Y-104517320D02*
G01*
X106505640Y-104017320D01*
X107005640Y-104017320D01*
X107005640Y-104517320D01*
X106505640Y-104517320D01*
G37*
G36*
X107005640Y-104517320D02*
G01*
X107005640Y-104017320D01*
X107505640Y-104017320D01*
X107505640Y-104517320D01*
X107005640Y-104517320D01*
G37*
G36*
X107505640Y-104517320D02*
G01*
X107505640Y-104017320D01*
X108005640Y-104017320D01*
X108005640Y-104517320D01*
X107505640Y-104517320D01*
G37*
G36*
X109005640Y-104517320D02*
G01*
X109005640Y-104017320D01*
X109505640Y-104017320D01*
X109505640Y-104517320D01*
X109005640Y-104517320D01*
G37*
G36*
X94505640Y-104017320D02*
G01*
X94505640Y-103517320D01*
X95005640Y-103517320D01*
X95005640Y-104017320D01*
X94505640Y-104017320D01*
G37*
G36*
X95505640Y-104017320D02*
G01*
X95505640Y-103517320D01*
X96005640Y-103517320D01*
X96005640Y-104017320D01*
X95505640Y-104017320D01*
G37*
G36*
X97505640Y-104017320D02*
G01*
X97505640Y-103517320D01*
X98005640Y-103517320D01*
X98005640Y-104017320D01*
X97505640Y-104017320D01*
G37*
G36*
X100005640Y-104017320D02*
G01*
X100005640Y-103517320D01*
X100505640Y-103517320D01*
X100505640Y-104017320D01*
X100005640Y-104017320D01*
G37*
G36*
X101005640Y-104017320D02*
G01*
X101005640Y-103517320D01*
X101505640Y-103517320D01*
X101505640Y-104017320D01*
X101005640Y-104017320D01*
G37*
G36*
X102505640Y-104017320D02*
G01*
X102505640Y-103517320D01*
X103005640Y-103517320D01*
X103005640Y-104017320D01*
X102505640Y-104017320D01*
G37*
G36*
X104505640Y-104017320D02*
G01*
X104505640Y-103517320D01*
X105005640Y-103517320D01*
X105005640Y-104017320D01*
X104505640Y-104017320D01*
G37*
G36*
X105005640Y-104017320D02*
G01*
X105005640Y-103517320D01*
X105505640Y-103517320D01*
X105505640Y-104017320D01*
X105005640Y-104017320D01*
G37*
G36*
X105505640Y-104017320D02*
G01*
X105505640Y-103517320D01*
X106005640Y-103517320D01*
X106005640Y-104017320D01*
X105505640Y-104017320D01*
G37*
G36*
X106005640Y-104017320D02*
G01*
X106005640Y-103517320D01*
X106505640Y-103517320D01*
X106505640Y-104017320D01*
X106005640Y-104017320D01*
G37*
G36*
X93005640Y-103517320D02*
G01*
X93005640Y-103017320D01*
X93505640Y-103017320D01*
X93505640Y-103517320D01*
X93005640Y-103517320D01*
G37*
G36*
X94005640Y-103517320D02*
G01*
X94005640Y-103017320D01*
X94505640Y-103017320D01*
X94505640Y-103517320D01*
X94005640Y-103517320D01*
G37*
G36*
X94505640Y-103517320D02*
G01*
X94505640Y-103017320D01*
X95005640Y-103017320D01*
X95005640Y-103517320D01*
X94505640Y-103517320D01*
G37*
G36*
X96505640Y-103517320D02*
G01*
X96505640Y-103017320D01*
X97005640Y-103017320D01*
X97005640Y-103517320D01*
X96505640Y-103517320D01*
G37*
G36*
X97005640Y-103517320D02*
G01*
X97005640Y-103017320D01*
X97505640Y-103017320D01*
X97505640Y-103517320D01*
X97005640Y-103517320D01*
G37*
G36*
X97505640Y-103517320D02*
G01*
X97505640Y-103017320D01*
X98005640Y-103017320D01*
X98005640Y-103517320D01*
X97505640Y-103517320D01*
G37*
G36*
X98005640Y-103517320D02*
G01*
X98005640Y-103017320D01*
X98505640Y-103017320D01*
X98505640Y-103517320D01*
X98005640Y-103517320D01*
G37*
G36*
X98505640Y-103517320D02*
G01*
X98505640Y-103017320D01*
X99005640Y-103017320D01*
X99005640Y-103517320D01*
X98505640Y-103517320D01*
G37*
G36*
X99505640Y-103517320D02*
G01*
X99505640Y-103017320D01*
X100005640Y-103017320D01*
X100005640Y-103517320D01*
X99505640Y-103517320D01*
G37*
G36*
X100005640Y-103517320D02*
G01*
X100005640Y-103017320D01*
X100505640Y-103017320D01*
X100505640Y-103517320D01*
X100005640Y-103517320D01*
G37*
G36*
X100505640Y-103517320D02*
G01*
X100505640Y-103017320D01*
X101005640Y-103017320D01*
X101005640Y-103517320D01*
X100505640Y-103517320D01*
G37*
G36*
X101005640Y-103517320D02*
G01*
X101005640Y-103017320D01*
X101505640Y-103017320D01*
X101505640Y-103517320D01*
X101005640Y-103517320D01*
G37*
G36*
X107005640Y-103517320D02*
G01*
X107005640Y-103017320D01*
X107505640Y-103017320D01*
X107505640Y-103517320D01*
X107005640Y-103517320D01*
G37*
G36*
X107505640Y-103517320D02*
G01*
X107505640Y-103017320D01*
X108005640Y-103017320D01*
X108005640Y-103517320D01*
X107505640Y-103517320D01*
G37*
G36*
X109005640Y-103517320D02*
G01*
X109005640Y-103017320D01*
X109505640Y-103017320D01*
X109505640Y-103517320D01*
X109005640Y-103517320D01*
G37*
G36*
X93505640Y-103017320D02*
G01*
X93505640Y-102517320D01*
X94005640Y-102517320D01*
X94005640Y-103017320D01*
X93505640Y-103017320D01*
G37*
G36*
X94005640Y-103017320D02*
G01*
X94005640Y-102517320D01*
X94505640Y-102517320D01*
X94505640Y-103017320D01*
X94005640Y-103017320D01*
G37*
G36*
X94505640Y-103017320D02*
G01*
X94505640Y-102517320D01*
X95005640Y-102517320D01*
X95005640Y-103017320D01*
X94505640Y-103017320D01*
G37*
G36*
X95005640Y-103017320D02*
G01*
X95005640Y-102517320D01*
X95505640Y-102517320D01*
X95505640Y-103017320D01*
X95005640Y-103017320D01*
G37*
G36*
X96005640Y-103017320D02*
G01*
X96005640Y-102517320D01*
X96505640Y-102517320D01*
X96505640Y-103017320D01*
X96005640Y-103017320D01*
G37*
G36*
X97005640Y-103017320D02*
G01*
X97005640Y-102517320D01*
X97505640Y-102517320D01*
X97505640Y-103017320D01*
X97005640Y-103017320D01*
G37*
G36*
X97505640Y-103017320D02*
G01*
X97505640Y-102517320D01*
X98005640Y-102517320D01*
X98005640Y-103017320D01*
X97505640Y-103017320D01*
G37*
G36*
X98505640Y-103017320D02*
G01*
X98505640Y-102517320D01*
X99005640Y-102517320D01*
X99005640Y-103017320D01*
X98505640Y-103017320D01*
G37*
G36*
X99005640Y-103017320D02*
G01*
X99005640Y-102517320D01*
X99505640Y-102517320D01*
X99505640Y-103017320D01*
X99005640Y-103017320D01*
G37*
G36*
X101505640Y-103017320D02*
G01*
X101505640Y-102517320D01*
X102005640Y-102517320D01*
X102005640Y-103017320D01*
X101505640Y-103017320D01*
G37*
G36*
X102505640Y-103017320D02*
G01*
X102505640Y-102517320D01*
X103005640Y-102517320D01*
X103005640Y-103017320D01*
X102505640Y-103017320D01*
G37*
G36*
X103005640Y-103017320D02*
G01*
X103005640Y-102517320D01*
X103505640Y-102517320D01*
X103505640Y-103017320D01*
X103005640Y-103017320D01*
G37*
G36*
X105005640Y-103017320D02*
G01*
X105005640Y-102517320D01*
X105505640Y-102517320D01*
X105505640Y-103017320D01*
X105005640Y-103017320D01*
G37*
G36*
X106005640Y-103017320D02*
G01*
X106005640Y-102517320D01*
X106505640Y-102517320D01*
X106505640Y-103017320D01*
X106005640Y-103017320D01*
G37*
G36*
X107005640Y-103017320D02*
G01*
X107005640Y-102517320D01*
X107505640Y-102517320D01*
X107505640Y-103017320D01*
X107005640Y-103017320D01*
G37*
G36*
X107505640Y-103017320D02*
G01*
X107505640Y-102517320D01*
X108005640Y-102517320D01*
X108005640Y-103017320D01*
X107505640Y-103017320D01*
G37*
G36*
X108005640Y-103017320D02*
G01*
X108005640Y-102517320D01*
X108505640Y-102517320D01*
X108505640Y-103017320D01*
X108005640Y-103017320D01*
G37*
G36*
X94505640Y-102517320D02*
G01*
X94505640Y-102017320D01*
X95005640Y-102017320D01*
X95005640Y-102517320D01*
X94505640Y-102517320D01*
G37*
G36*
X95005640Y-102517320D02*
G01*
X95005640Y-102017320D01*
X95505640Y-102017320D01*
X95505640Y-102517320D01*
X95005640Y-102517320D01*
G37*
G36*
X95505640Y-102517320D02*
G01*
X95505640Y-102017320D01*
X96005640Y-102017320D01*
X96005640Y-102517320D01*
X95505640Y-102517320D01*
G37*
G36*
X96005640Y-102517320D02*
G01*
X96005640Y-102017320D01*
X96505640Y-102017320D01*
X96505640Y-102517320D01*
X96005640Y-102517320D01*
G37*
G36*
X96505640Y-102517320D02*
G01*
X96505640Y-102017320D01*
X97005640Y-102017320D01*
X97005640Y-102517320D01*
X96505640Y-102517320D01*
G37*
G36*
X97005640Y-102517320D02*
G01*
X97005640Y-102017320D01*
X97505640Y-102017320D01*
X97505640Y-102517320D01*
X97005640Y-102517320D01*
G37*
G36*
X98505640Y-102517320D02*
G01*
X98505640Y-102017320D01*
X99005640Y-102017320D01*
X99005640Y-102517320D01*
X98505640Y-102517320D01*
G37*
G36*
X99005640Y-102517320D02*
G01*
X99005640Y-102017320D01*
X99505640Y-102017320D01*
X99505640Y-102517320D01*
X99005640Y-102517320D01*
G37*
G36*
X99505640Y-102517320D02*
G01*
X99505640Y-102017320D01*
X100005640Y-102017320D01*
X100005640Y-102517320D01*
X99505640Y-102517320D01*
G37*
G36*
X102005640Y-102517320D02*
G01*
X102005640Y-102017320D01*
X102505640Y-102017320D01*
X102505640Y-102517320D01*
X102005640Y-102517320D01*
G37*
G36*
X102505640Y-102517320D02*
G01*
X102505640Y-102017320D01*
X103005640Y-102017320D01*
X103005640Y-102517320D01*
X102505640Y-102517320D01*
G37*
G36*
X103005640Y-102517320D02*
G01*
X103005640Y-102017320D01*
X103505640Y-102017320D01*
X103505640Y-102517320D01*
X103005640Y-102517320D01*
G37*
G36*
X104505640Y-102517320D02*
G01*
X104505640Y-102017320D01*
X105005640Y-102017320D01*
X105005640Y-102517320D01*
X104505640Y-102517320D01*
G37*
G36*
X105005640Y-102517320D02*
G01*
X105005640Y-102017320D01*
X105505640Y-102017320D01*
X105505640Y-102517320D01*
X105005640Y-102517320D01*
G37*
G36*
X107505640Y-102517320D02*
G01*
X107505640Y-102017320D01*
X108005640Y-102017320D01*
X108005640Y-102517320D01*
X107505640Y-102517320D01*
G37*
G36*
X108005640Y-102517320D02*
G01*
X108005640Y-102017320D01*
X108505640Y-102017320D01*
X108505640Y-102517320D01*
X108005640Y-102517320D01*
G37*
G36*
X93505640Y-102017320D02*
G01*
X93505640Y-101517320D01*
X94005640Y-101517320D01*
X94005640Y-102017320D01*
X93505640Y-102017320D01*
G37*
G36*
X95005640Y-102017320D02*
G01*
X95005640Y-101517320D01*
X95505640Y-101517320D01*
X95505640Y-102017320D01*
X95005640Y-102017320D01*
G37*
G36*
X96005640Y-102017320D02*
G01*
X96005640Y-101517320D01*
X96505640Y-101517320D01*
X96505640Y-102017320D01*
X96005640Y-102017320D01*
G37*
G36*
X96505640Y-102017320D02*
G01*
X96505640Y-101517320D01*
X97005640Y-101517320D01*
X97005640Y-102017320D01*
X96505640Y-102017320D01*
G37*
G36*
X99505640Y-102017320D02*
G01*
X99505640Y-101517320D01*
X100005640Y-101517320D01*
X100005640Y-102017320D01*
X99505640Y-102017320D01*
G37*
G36*
X100005640Y-102017320D02*
G01*
X100005640Y-101517320D01*
X100505640Y-101517320D01*
X100505640Y-102017320D01*
X100005640Y-102017320D01*
G37*
G36*
X101005640Y-102017320D02*
G01*
X101005640Y-101517320D01*
X101505640Y-101517320D01*
X101505640Y-102017320D01*
X101005640Y-102017320D01*
G37*
G36*
X102505640Y-102017320D02*
G01*
X102505640Y-101517320D01*
X103005640Y-101517320D01*
X103005640Y-102017320D01*
X102505640Y-102017320D01*
G37*
G36*
X103505640Y-102017320D02*
G01*
X103505640Y-101517320D01*
X104005640Y-101517320D01*
X104005640Y-102017320D01*
X103505640Y-102017320D01*
G37*
G36*
X104505640Y-102017320D02*
G01*
X104505640Y-101517320D01*
X105005640Y-101517320D01*
X105005640Y-102017320D01*
X104505640Y-102017320D01*
G37*
G36*
X105005640Y-102017320D02*
G01*
X105005640Y-101517320D01*
X105505640Y-101517320D01*
X105505640Y-102017320D01*
X105005640Y-102017320D01*
G37*
G36*
X105505640Y-102017320D02*
G01*
X105505640Y-101517320D01*
X106005640Y-101517320D01*
X106005640Y-102017320D01*
X105505640Y-102017320D01*
G37*
G36*
X106005640Y-102017320D02*
G01*
X106005640Y-101517320D01*
X106505640Y-101517320D01*
X106505640Y-102017320D01*
X106005640Y-102017320D01*
G37*
G36*
X106505640Y-102017320D02*
G01*
X106505640Y-101517320D01*
X107005640Y-101517320D01*
X107005640Y-102017320D01*
X106505640Y-102017320D01*
G37*
G36*
X107005640Y-102017320D02*
G01*
X107005640Y-101517320D01*
X107505640Y-101517320D01*
X107505640Y-102017320D01*
X107005640Y-102017320D01*
G37*
G36*
X107505640Y-102017320D02*
G01*
X107505640Y-101517320D01*
X108005640Y-101517320D01*
X108005640Y-102017320D01*
X107505640Y-102017320D01*
G37*
G36*
X108005640Y-102017320D02*
G01*
X108005640Y-101517320D01*
X108505640Y-101517320D01*
X108505640Y-102017320D01*
X108005640Y-102017320D01*
G37*
G36*
X94005640Y-101517320D02*
G01*
X94005640Y-101017320D01*
X94505640Y-101017320D01*
X94505640Y-101517320D01*
X94005640Y-101517320D01*
G37*
G36*
X96005640Y-101517320D02*
G01*
X96005640Y-101017320D01*
X96505640Y-101017320D01*
X96505640Y-101517320D01*
X96005640Y-101517320D01*
G37*
G36*
X96505640Y-101517320D02*
G01*
X96505640Y-101017320D01*
X97005640Y-101017320D01*
X97005640Y-101517320D01*
X96505640Y-101517320D01*
G37*
G36*
X98005640Y-101517320D02*
G01*
X98005640Y-101017320D01*
X98505640Y-101017320D01*
X98505640Y-101517320D01*
X98005640Y-101517320D01*
G37*
G36*
X98505640Y-101517320D02*
G01*
X98505640Y-101017320D01*
X99005640Y-101017320D01*
X99005640Y-101517320D01*
X98505640Y-101517320D01*
G37*
G36*
X99505640Y-101517320D02*
G01*
X99505640Y-101017320D01*
X100005640Y-101017320D01*
X100005640Y-101517320D01*
X99505640Y-101517320D01*
G37*
G36*
X100505640Y-101517320D02*
G01*
X100505640Y-101017320D01*
X101005640Y-101017320D01*
X101005640Y-101517320D01*
X100505640Y-101517320D01*
G37*
G36*
X101005640Y-101517320D02*
G01*
X101005640Y-101017320D01*
X101505640Y-101017320D01*
X101505640Y-101517320D01*
X101005640Y-101517320D01*
G37*
G36*
X103005640Y-101517320D02*
G01*
X103005640Y-101017320D01*
X103505640Y-101017320D01*
X103505640Y-101517320D01*
X103005640Y-101517320D01*
G37*
G36*
X103505640Y-101517320D02*
G01*
X103505640Y-101017320D01*
X104005640Y-101017320D01*
X104005640Y-101517320D01*
X103505640Y-101517320D01*
G37*
G36*
X104005640Y-101517320D02*
G01*
X104005640Y-101017320D01*
X104505640Y-101017320D01*
X104505640Y-101517320D01*
X104005640Y-101517320D01*
G37*
G36*
X104505640Y-101517320D02*
G01*
X104505640Y-101017320D01*
X105005640Y-101017320D01*
X105005640Y-101517320D01*
X104505640Y-101517320D01*
G37*
G36*
X105005640Y-101517320D02*
G01*
X105005640Y-101017320D01*
X105505640Y-101017320D01*
X105505640Y-101517320D01*
X105005640Y-101517320D01*
G37*
G36*
X107005640Y-101517320D02*
G01*
X107005640Y-101017320D01*
X107505640Y-101017320D01*
X107505640Y-101517320D01*
X107005640Y-101517320D01*
G37*
G36*
X108005640Y-101517320D02*
G01*
X108005640Y-101017320D01*
X108505640Y-101017320D01*
X108505640Y-101517320D01*
X108005640Y-101517320D01*
G37*
G36*
X109005640Y-101517320D02*
G01*
X109005640Y-101017320D01*
X109505640Y-101017320D01*
X109505640Y-101517320D01*
X109005640Y-101517320D01*
G37*
G36*
X94505640Y-101017320D02*
G01*
X94505640Y-100517320D01*
X95005640Y-100517320D01*
X95005640Y-101017320D01*
X94505640Y-101017320D01*
G37*
G36*
X95505640Y-101017320D02*
G01*
X95505640Y-100517320D01*
X96005640Y-100517320D01*
X96005640Y-101017320D01*
X95505640Y-101017320D01*
G37*
G36*
X97005640Y-101017320D02*
G01*
X97005640Y-100517320D01*
X97505640Y-100517320D01*
X97505640Y-101017320D01*
X97005640Y-101017320D01*
G37*
G36*
X97505640Y-101017320D02*
G01*
X97505640Y-100517320D01*
X98005640Y-100517320D01*
X98005640Y-101017320D01*
X97505640Y-101017320D01*
G37*
G36*
X99005640Y-101017320D02*
G01*
X99005640Y-100517320D01*
X99505640Y-100517320D01*
X99505640Y-101017320D01*
X99005640Y-101017320D01*
G37*
G36*
X99505640Y-101017320D02*
G01*
X99505640Y-100517320D01*
X100005640Y-100517320D01*
X100005640Y-101017320D01*
X99505640Y-101017320D01*
G37*
G36*
X100005640Y-101017320D02*
G01*
X100005640Y-100517320D01*
X100505640Y-100517320D01*
X100505640Y-101017320D01*
X100005640Y-101017320D01*
G37*
G36*
X102005640Y-101017320D02*
G01*
X102005640Y-100517320D01*
X102505640Y-100517320D01*
X102505640Y-101017320D01*
X102005640Y-101017320D01*
G37*
G36*
X102505640Y-101017320D02*
G01*
X102505640Y-100517320D01*
X103005640Y-100517320D01*
X103005640Y-101017320D01*
X102505640Y-101017320D01*
G37*
G36*
X103505640Y-101017320D02*
G01*
X103505640Y-100517320D01*
X104005640Y-100517320D01*
X104005640Y-101017320D01*
X103505640Y-101017320D01*
G37*
G36*
X105005640Y-101017320D02*
G01*
X105005640Y-100517320D01*
X105505640Y-100517320D01*
X105505640Y-101017320D01*
X105005640Y-101017320D01*
G37*
G36*
X106005640Y-101017320D02*
G01*
X106005640Y-100517320D01*
X106505640Y-100517320D01*
X106505640Y-101017320D01*
X106005640Y-101017320D01*
G37*
G36*
X106505640Y-101017320D02*
G01*
X106505640Y-100517320D01*
X107005640Y-100517320D01*
X107005640Y-101017320D01*
X106505640Y-101017320D01*
G37*
G36*
X107505640Y-101017320D02*
G01*
X107505640Y-100517320D01*
X108005640Y-100517320D01*
X108005640Y-101017320D01*
X107505640Y-101017320D01*
G37*
G36*
X108505640Y-101017320D02*
G01*
X108505640Y-100517320D01*
X109005640Y-100517320D01*
X109005640Y-101017320D01*
X108505640Y-101017320D01*
G37*
G36*
X109005640Y-101017320D02*
G01*
X109005640Y-100517320D01*
X109505640Y-100517320D01*
X109505640Y-101017320D01*
X109005640Y-101017320D01*
G37*
G36*
X93005640Y-100517320D02*
G01*
X93005640Y-100017320D01*
X93505640Y-100017320D01*
X93505640Y-100517320D01*
X93005640Y-100517320D01*
G37*
G36*
X96005640Y-100517320D02*
G01*
X96005640Y-100017320D01*
X96505640Y-100017320D01*
X96505640Y-100517320D01*
X96005640Y-100517320D01*
G37*
G36*
X97005640Y-100517320D02*
G01*
X97005640Y-100017320D01*
X97505640Y-100017320D01*
X97505640Y-100517320D01*
X97005640Y-100517320D01*
G37*
G36*
X98505640Y-100517320D02*
G01*
X98505640Y-100017320D01*
X99005640Y-100017320D01*
X99005640Y-100517320D01*
X98505640Y-100517320D01*
G37*
G36*
X99005640Y-100517320D02*
G01*
X99005640Y-100017320D01*
X99505640Y-100017320D01*
X99505640Y-100517320D01*
X99005640Y-100517320D01*
G37*
G36*
X100005640Y-100517320D02*
G01*
X100005640Y-100017320D01*
X100505640Y-100017320D01*
X100505640Y-100517320D01*
X100005640Y-100517320D01*
G37*
G36*
X100505640Y-100517320D02*
G01*
X100505640Y-100017320D01*
X101005640Y-100017320D01*
X101005640Y-100517320D01*
X100505640Y-100517320D01*
G37*
G36*
X101005640Y-100517320D02*
G01*
X101005640Y-100017320D01*
X101505640Y-100017320D01*
X101505640Y-100517320D01*
X101005640Y-100517320D01*
G37*
G36*
X101505640Y-100517320D02*
G01*
X101505640Y-100017320D01*
X102005640Y-100017320D01*
X102005640Y-100517320D01*
X101505640Y-100517320D01*
G37*
G36*
X102005640Y-100517320D02*
G01*
X102005640Y-100017320D01*
X102505640Y-100017320D01*
X102505640Y-100517320D01*
X102005640Y-100517320D01*
G37*
G36*
X103505640Y-100517320D02*
G01*
X103505640Y-100017320D01*
X104005640Y-100017320D01*
X104005640Y-100517320D01*
X103505640Y-100517320D01*
G37*
G36*
X105005640Y-100517320D02*
G01*
X105005640Y-100017320D01*
X105505640Y-100017320D01*
X105505640Y-100517320D01*
X105005640Y-100517320D01*
G37*
G36*
X105505640Y-100517320D02*
G01*
X105505640Y-100017320D01*
X106005640Y-100017320D01*
X106005640Y-100517320D01*
X105505640Y-100517320D01*
G37*
G36*
X107505640Y-100517320D02*
G01*
X107505640Y-100017320D01*
X108005640Y-100017320D01*
X108005640Y-100517320D01*
X107505640Y-100517320D01*
G37*
G36*
X108005640Y-100517320D02*
G01*
X108005640Y-100017320D01*
X108505640Y-100017320D01*
X108505640Y-100517320D01*
X108005640Y-100517320D01*
G37*
G36*
X93005640Y-100017320D02*
G01*
X93005640Y-99517320D01*
X93505640Y-99517320D01*
X93505640Y-100017320D01*
X93005640Y-100017320D01*
G37*
G36*
X93505640Y-100017320D02*
G01*
X93505640Y-99517320D01*
X94005640Y-99517320D01*
X94005640Y-100017320D01*
X93505640Y-100017320D01*
G37*
G36*
X94505640Y-100017320D02*
G01*
X94505640Y-99517320D01*
X95005640Y-99517320D01*
X95005640Y-100017320D01*
X94505640Y-100017320D01*
G37*
G36*
X96005640Y-100017320D02*
G01*
X96005640Y-99517320D01*
X96505640Y-99517320D01*
X96505640Y-100017320D01*
X96005640Y-100017320D01*
G37*
G36*
X96505640Y-100017320D02*
G01*
X96505640Y-99517320D01*
X97005640Y-99517320D01*
X97005640Y-100017320D01*
X96505640Y-100017320D01*
G37*
G36*
X97505640Y-100017320D02*
G01*
X97505640Y-99517320D01*
X98005640Y-99517320D01*
X98005640Y-100017320D01*
X97505640Y-100017320D01*
G37*
G36*
X98005640Y-100017320D02*
G01*
X98005640Y-99517320D01*
X98505640Y-99517320D01*
X98505640Y-100017320D01*
X98005640Y-100017320D01*
G37*
G36*
X98505640Y-100017320D02*
G01*
X98505640Y-99517320D01*
X99005640Y-99517320D01*
X99005640Y-100017320D01*
X98505640Y-100017320D01*
G37*
G36*
X99005640Y-100017320D02*
G01*
X99005640Y-99517320D01*
X99505640Y-99517320D01*
X99505640Y-100017320D01*
X99005640Y-100017320D01*
G37*
G36*
X100505640Y-100017320D02*
G01*
X100505640Y-99517320D01*
X101005640Y-99517320D01*
X101005640Y-100017320D01*
X100505640Y-100017320D01*
G37*
G36*
X101505640Y-100017320D02*
G01*
X101505640Y-99517320D01*
X102005640Y-99517320D01*
X102005640Y-100017320D01*
X101505640Y-100017320D01*
G37*
G36*
X103005640Y-100017320D02*
G01*
X103005640Y-99517320D01*
X103505640Y-99517320D01*
X103505640Y-100017320D01*
X103005640Y-100017320D01*
G37*
G36*
X103505640Y-100017320D02*
G01*
X103505640Y-99517320D01*
X104005640Y-99517320D01*
X104005640Y-100017320D01*
X103505640Y-100017320D01*
G37*
G36*
X104005640Y-100017320D02*
G01*
X104005640Y-99517320D01*
X104505640Y-99517320D01*
X104505640Y-100017320D01*
X104005640Y-100017320D01*
G37*
G36*
X104505640Y-100017320D02*
G01*
X104505640Y-99517320D01*
X105005640Y-99517320D01*
X105005640Y-100017320D01*
X104505640Y-100017320D01*
G37*
G36*
X106005640Y-100017320D02*
G01*
X106005640Y-99517320D01*
X106505640Y-99517320D01*
X106505640Y-100017320D01*
X106005640Y-100017320D01*
G37*
G36*
X107005640Y-100017320D02*
G01*
X107005640Y-99517320D01*
X107505640Y-99517320D01*
X107505640Y-100017320D01*
X107005640Y-100017320D01*
G37*
G36*
X107505640Y-100017320D02*
G01*
X107505640Y-99517320D01*
X108005640Y-99517320D01*
X108005640Y-100017320D01*
X107505640Y-100017320D01*
G37*
G36*
X93005640Y-99517320D02*
G01*
X93005640Y-99017320D01*
X93505640Y-99017320D01*
X93505640Y-99517320D01*
X93005640Y-99517320D01*
G37*
G36*
X93505640Y-99517320D02*
G01*
X93505640Y-99017320D01*
X94005640Y-99017320D01*
X94005640Y-99517320D01*
X93505640Y-99517320D01*
G37*
G36*
X94005640Y-99517320D02*
G01*
X94005640Y-99017320D01*
X94505640Y-99017320D01*
X94505640Y-99517320D01*
X94005640Y-99517320D01*
G37*
G36*
X94505640Y-99517320D02*
G01*
X94505640Y-99017320D01*
X95005640Y-99017320D01*
X95005640Y-99517320D01*
X94505640Y-99517320D01*
G37*
G36*
X96505640Y-99517320D02*
G01*
X96505640Y-99017320D01*
X97005640Y-99017320D01*
X97005640Y-99517320D01*
X96505640Y-99517320D01*
G37*
G36*
X97505640Y-99517320D02*
G01*
X97505640Y-99017320D01*
X98005640Y-99017320D01*
X98005640Y-99517320D01*
X97505640Y-99517320D01*
G37*
G36*
X100005640Y-99517320D02*
G01*
X100005640Y-99017320D01*
X100505640Y-99017320D01*
X100505640Y-99517320D01*
X100005640Y-99517320D01*
G37*
G36*
X102505640Y-99517320D02*
G01*
X102505640Y-99017320D01*
X103005640Y-99017320D01*
X103005640Y-99517320D01*
X102505640Y-99517320D01*
G37*
G36*
X103505640Y-99517320D02*
G01*
X103505640Y-99017320D01*
X104005640Y-99017320D01*
X104005640Y-99517320D01*
X103505640Y-99517320D01*
G37*
G36*
X104005640Y-99517320D02*
G01*
X104005640Y-99017320D01*
X104505640Y-99017320D01*
X104505640Y-99517320D01*
X104005640Y-99517320D01*
G37*
G36*
X105005640Y-99517320D02*
G01*
X105005640Y-99017320D01*
X105505640Y-99017320D01*
X105505640Y-99517320D01*
X105005640Y-99517320D01*
G37*
G36*
X105505640Y-99517320D02*
G01*
X105505640Y-99017320D01*
X106005640Y-99017320D01*
X106005640Y-99517320D01*
X105505640Y-99517320D01*
G37*
G36*
X108005640Y-99517320D02*
G01*
X108005640Y-99017320D01*
X108505640Y-99017320D01*
X108505640Y-99517320D01*
X108005640Y-99517320D01*
G37*
G36*
X108505640Y-99517320D02*
G01*
X108505640Y-99017320D01*
X109005640Y-99017320D01*
X109005640Y-99517320D01*
X108505640Y-99517320D01*
G37*
G36*
X109005640Y-99517320D02*
G01*
X109005640Y-99017320D01*
X109505640Y-99017320D01*
X109505640Y-99517320D01*
X109005640Y-99517320D01*
G37*
G36*
X93005640Y-99017320D02*
G01*
X93005640Y-98517320D01*
X93505640Y-98517320D01*
X93505640Y-99017320D01*
X93005640Y-99017320D01*
G37*
G36*
X94505640Y-99017320D02*
G01*
X94505640Y-98517320D01*
X95005640Y-98517320D01*
X95005640Y-99017320D01*
X94505640Y-99017320D01*
G37*
G36*
X95005640Y-99017320D02*
G01*
X95005640Y-98517320D01*
X95505640Y-98517320D01*
X95505640Y-99017320D01*
X95005640Y-99017320D01*
G37*
G36*
X95505640Y-99017320D02*
G01*
X95505640Y-98517320D01*
X96005640Y-98517320D01*
X96005640Y-99017320D01*
X95505640Y-99017320D01*
G37*
G36*
X96005640Y-99017320D02*
G01*
X96005640Y-98517320D01*
X96505640Y-98517320D01*
X96505640Y-99017320D01*
X96005640Y-99017320D01*
G37*
G36*
X96505640Y-99017320D02*
G01*
X96505640Y-98517320D01*
X97005640Y-98517320D01*
X97005640Y-99017320D01*
X96505640Y-99017320D01*
G37*
G36*
X97005640Y-99017320D02*
G01*
X97005640Y-98517320D01*
X97505640Y-98517320D01*
X97505640Y-99017320D01*
X97005640Y-99017320D01*
G37*
G36*
X98505640Y-99017320D02*
G01*
X98505640Y-98517320D01*
X99005640Y-98517320D01*
X99005640Y-99017320D01*
X98505640Y-99017320D01*
G37*
G36*
X99505640Y-99017320D02*
G01*
X99505640Y-98517320D01*
X100005640Y-98517320D01*
X100005640Y-99017320D01*
X99505640Y-99017320D01*
G37*
G36*
X100005640Y-99017320D02*
G01*
X100005640Y-98517320D01*
X100505640Y-98517320D01*
X100505640Y-99017320D01*
X100005640Y-99017320D01*
G37*
G36*
X101005640Y-99017320D02*
G01*
X101005640Y-98517320D01*
X101505640Y-98517320D01*
X101505640Y-99017320D01*
X101005640Y-99017320D01*
G37*
G36*
X102005640Y-99017320D02*
G01*
X102005640Y-98517320D01*
X102505640Y-98517320D01*
X102505640Y-99017320D01*
X102005640Y-99017320D01*
G37*
G36*
X102505640Y-99017320D02*
G01*
X102505640Y-98517320D01*
X103005640Y-98517320D01*
X103005640Y-99017320D01*
X102505640Y-99017320D01*
G37*
G36*
X103005640Y-99017320D02*
G01*
X103005640Y-98517320D01*
X103505640Y-98517320D01*
X103505640Y-99017320D01*
X103005640Y-99017320D01*
G37*
G36*
X103505640Y-99017320D02*
G01*
X103505640Y-98517320D01*
X104005640Y-98517320D01*
X104005640Y-99017320D01*
X103505640Y-99017320D01*
G37*
G36*
X104005640Y-99017320D02*
G01*
X104005640Y-98517320D01*
X104505640Y-98517320D01*
X104505640Y-99017320D01*
X104005640Y-99017320D01*
G37*
G36*
X104505640Y-99017320D02*
G01*
X104505640Y-98517320D01*
X105005640Y-98517320D01*
X105005640Y-99017320D01*
X104505640Y-99017320D01*
G37*
G36*
X105005640Y-99017320D02*
G01*
X105005640Y-98517320D01*
X105505640Y-98517320D01*
X105505640Y-99017320D01*
X105005640Y-99017320D01*
G37*
G36*
X105505640Y-99017320D02*
G01*
X105505640Y-98517320D01*
X106005640Y-98517320D01*
X106005640Y-99017320D01*
X105505640Y-99017320D01*
G37*
G36*
X106005640Y-99017320D02*
G01*
X106005640Y-98517320D01*
X106505640Y-98517320D01*
X106505640Y-99017320D01*
X106005640Y-99017320D01*
G37*
G36*
X107005640Y-99017320D02*
G01*
X107005640Y-98517320D01*
X107505640Y-98517320D01*
X107505640Y-99017320D01*
X107005640Y-99017320D01*
G37*
G36*
X109005640Y-99017320D02*
G01*
X109005640Y-98517320D01*
X109505640Y-98517320D01*
X109505640Y-99017320D01*
X109005640Y-99017320D01*
G37*
G36*
X97505640Y-98517320D02*
G01*
X97505640Y-98017320D01*
X98005640Y-98017320D01*
X98005640Y-98517320D01*
X97505640Y-98517320D01*
G37*
G36*
X98505640Y-98517320D02*
G01*
X98505640Y-98017320D01*
X99005640Y-98017320D01*
X99005640Y-98517320D01*
X98505640Y-98517320D01*
G37*
G36*
X100005640Y-98517320D02*
G01*
X100005640Y-98017320D01*
X100505640Y-98017320D01*
X100505640Y-98517320D01*
X100005640Y-98517320D01*
G37*
G36*
X100505640Y-98517320D02*
G01*
X100505640Y-98017320D01*
X101005640Y-98017320D01*
X101005640Y-98517320D01*
X100505640Y-98517320D01*
G37*
G36*
X101005640Y-98517320D02*
G01*
X101005640Y-98017320D01*
X101505640Y-98017320D01*
X101505640Y-98517320D01*
X101005640Y-98517320D01*
G37*
G36*
X101505640Y-98517320D02*
G01*
X101505640Y-98017320D01*
X102005640Y-98017320D01*
X102005640Y-98517320D01*
X101505640Y-98517320D01*
G37*
G36*
X102005640Y-98517320D02*
G01*
X102005640Y-98017320D01*
X102505640Y-98017320D01*
X102505640Y-98517320D01*
X102005640Y-98517320D01*
G37*
G36*
X105005640Y-98517320D02*
G01*
X105005640Y-98017320D01*
X105505640Y-98017320D01*
X105505640Y-98517320D01*
X105005640Y-98517320D01*
G37*
G36*
X93005640Y-98017320D02*
G01*
X93005640Y-97517320D01*
X93505640Y-97517320D01*
X93505640Y-98017320D01*
X93005640Y-98017320D01*
G37*
G36*
X93505640Y-98017320D02*
G01*
X93505640Y-97517320D01*
X94005640Y-97517320D01*
X94005640Y-98017320D01*
X93505640Y-98017320D01*
G37*
G36*
X94005640Y-98017320D02*
G01*
X94005640Y-97517320D01*
X94505640Y-97517320D01*
X94505640Y-98017320D01*
X94005640Y-98017320D01*
G37*
G36*
X94505640Y-98017320D02*
G01*
X94505640Y-97517320D01*
X95005640Y-97517320D01*
X95005640Y-98017320D01*
X94505640Y-98017320D01*
G37*
G36*
X95005640Y-98017320D02*
G01*
X95005640Y-97517320D01*
X95505640Y-97517320D01*
X95505640Y-98017320D01*
X95005640Y-98017320D01*
G37*
G36*
X95505640Y-98017320D02*
G01*
X95505640Y-97517320D01*
X96005640Y-97517320D01*
X96005640Y-98017320D01*
X95505640Y-98017320D01*
G37*
G36*
X96005640Y-98017320D02*
G01*
X96005640Y-97517320D01*
X96505640Y-97517320D01*
X96505640Y-98017320D01*
X96005640Y-98017320D01*
G37*
G36*
X97005640Y-98017320D02*
G01*
X97005640Y-97517320D01*
X97505640Y-97517320D01*
X97505640Y-98017320D01*
X97005640Y-98017320D01*
G37*
G36*
X98005640Y-98017320D02*
G01*
X98005640Y-97517320D01*
X98505640Y-97517320D01*
X98505640Y-98017320D01*
X98005640Y-98017320D01*
G37*
G36*
X99005640Y-98017320D02*
G01*
X99005640Y-97517320D01*
X99505640Y-97517320D01*
X99505640Y-98017320D01*
X99005640Y-98017320D01*
G37*
G36*
X100005640Y-98017320D02*
G01*
X100005640Y-97517320D01*
X100505640Y-97517320D01*
X100505640Y-98017320D01*
X100005640Y-98017320D01*
G37*
G36*
X101005640Y-98017320D02*
G01*
X101005640Y-97517320D01*
X101505640Y-97517320D01*
X101505640Y-98017320D01*
X101005640Y-98017320D01*
G37*
G36*
X102005640Y-98017320D02*
G01*
X102005640Y-97517320D01*
X102505640Y-97517320D01*
X102505640Y-98017320D01*
X102005640Y-98017320D01*
G37*
G36*
X103005640Y-98017320D02*
G01*
X103005640Y-97517320D01*
X103505640Y-97517320D01*
X103505640Y-98017320D01*
X103005640Y-98017320D01*
G37*
G36*
X104005640Y-98017320D02*
G01*
X104005640Y-97517320D01*
X104505640Y-97517320D01*
X104505640Y-98017320D01*
X104005640Y-98017320D01*
G37*
G36*
X105005640Y-98017320D02*
G01*
X105005640Y-97517320D01*
X105505640Y-97517320D01*
X105505640Y-98017320D01*
X105005640Y-98017320D01*
G37*
G36*
X106005640Y-98017320D02*
G01*
X106005640Y-97517320D01*
X106505640Y-97517320D01*
X106505640Y-98017320D01*
X106005640Y-98017320D01*
G37*
G36*
X106505640Y-98017320D02*
G01*
X106505640Y-97517320D01*
X107005640Y-97517320D01*
X107005640Y-98017320D01*
X106505640Y-98017320D01*
G37*
G36*
X107005640Y-98017320D02*
G01*
X107005640Y-97517320D01*
X107505640Y-97517320D01*
X107505640Y-98017320D01*
X107005640Y-98017320D01*
G37*
G36*
X107505640Y-98017320D02*
G01*
X107505640Y-97517320D01*
X108005640Y-97517320D01*
X108005640Y-98017320D01*
X107505640Y-98017320D01*
G37*
G36*
X108005640Y-98017320D02*
G01*
X108005640Y-97517320D01*
X108505640Y-97517320D01*
X108505640Y-98017320D01*
X108005640Y-98017320D01*
G37*
G36*
X108505640Y-98017320D02*
G01*
X108505640Y-97517320D01*
X109005640Y-97517320D01*
X109005640Y-98017320D01*
X108505640Y-98017320D01*
G37*
G36*
X109005640Y-98017320D02*
G01*
X109005640Y-97517320D01*
X109505640Y-97517320D01*
X109505640Y-98017320D01*
X109005640Y-98017320D01*
G37*
G36*
X93005640Y-97517320D02*
G01*
X93005640Y-97017320D01*
X93505640Y-97017320D01*
X93505640Y-97517320D01*
X93005640Y-97517320D01*
G37*
G36*
X96005640Y-97517320D02*
G01*
X96005640Y-97017320D01*
X96505640Y-97017320D01*
X96505640Y-97517320D01*
X96005640Y-97517320D01*
G37*
G36*
X99505640Y-97517320D02*
G01*
X99505640Y-97017320D01*
X100005640Y-97017320D01*
X100005640Y-97517320D01*
X99505640Y-97517320D01*
G37*
G36*
X100505640Y-97517320D02*
G01*
X100505640Y-97017320D01*
X101005640Y-97017320D01*
X101005640Y-97517320D01*
X100505640Y-97517320D01*
G37*
G36*
X101005640Y-97517320D02*
G01*
X101005640Y-97017320D01*
X101505640Y-97017320D01*
X101505640Y-97517320D01*
X101005640Y-97517320D01*
G37*
G36*
X102005640Y-97517320D02*
G01*
X102005640Y-97017320D01*
X102505640Y-97017320D01*
X102505640Y-97517320D01*
X102005640Y-97517320D01*
G37*
G36*
X102505640Y-97517320D02*
G01*
X102505640Y-97017320D01*
X103005640Y-97017320D01*
X103005640Y-97517320D01*
X102505640Y-97517320D01*
G37*
G36*
X103505640Y-97517320D02*
G01*
X103505640Y-97017320D01*
X104005640Y-97017320D01*
X104005640Y-97517320D01*
X103505640Y-97517320D01*
G37*
G36*
X104005640Y-97517320D02*
G01*
X104005640Y-97017320D01*
X104505640Y-97017320D01*
X104505640Y-97517320D01*
X104005640Y-97517320D01*
G37*
G36*
X105005640Y-97517320D02*
G01*
X105005640Y-97017320D01*
X105505640Y-97017320D01*
X105505640Y-97517320D01*
X105005640Y-97517320D01*
G37*
G36*
X106005640Y-97517320D02*
G01*
X106005640Y-97017320D01*
X106505640Y-97017320D01*
X106505640Y-97517320D01*
X106005640Y-97517320D01*
G37*
G36*
X109005640Y-97517320D02*
G01*
X109005640Y-97017320D01*
X109505640Y-97017320D01*
X109505640Y-97517320D01*
X109005640Y-97517320D01*
G37*
G36*
X93005640Y-97017320D02*
G01*
X93005640Y-96517320D01*
X93505640Y-96517320D01*
X93505640Y-97017320D01*
X93005640Y-97017320D01*
G37*
G36*
X94005640Y-97017320D02*
G01*
X94005640Y-96517320D01*
X94505640Y-96517320D01*
X94505640Y-97017320D01*
X94005640Y-97017320D01*
G37*
G36*
X94505640Y-97017320D02*
G01*
X94505640Y-96517320D01*
X95005640Y-96517320D01*
X95005640Y-97017320D01*
X94505640Y-97017320D01*
G37*
G36*
X95005640Y-97017320D02*
G01*
X95005640Y-96517320D01*
X95505640Y-96517320D01*
X95505640Y-97017320D01*
X95005640Y-97017320D01*
G37*
G36*
X96005640Y-97017320D02*
G01*
X96005640Y-96517320D01*
X96505640Y-96517320D01*
X96505640Y-97017320D01*
X96005640Y-97017320D01*
G37*
G36*
X97005640Y-97017320D02*
G01*
X97005640Y-96517320D01*
X97505640Y-96517320D01*
X97505640Y-97017320D01*
X97005640Y-97017320D01*
G37*
G36*
X98505640Y-97017320D02*
G01*
X98505640Y-96517320D01*
X99005640Y-96517320D01*
X99005640Y-97017320D01*
X98505640Y-97017320D01*
G37*
G36*
X99005640Y-97017320D02*
G01*
X99005640Y-96517320D01*
X99505640Y-96517320D01*
X99505640Y-97017320D01*
X99005640Y-97017320D01*
G37*
G36*
X99505640Y-97017320D02*
G01*
X99505640Y-96517320D01*
X100005640Y-96517320D01*
X100005640Y-97017320D01*
X99505640Y-97017320D01*
G37*
G36*
X100005640Y-97017320D02*
G01*
X100005640Y-96517320D01*
X100505640Y-96517320D01*
X100505640Y-97017320D01*
X100005640Y-97017320D01*
G37*
G36*
X102005640Y-97017320D02*
G01*
X102005640Y-96517320D01*
X102505640Y-96517320D01*
X102505640Y-97017320D01*
X102005640Y-97017320D01*
G37*
G36*
X102505640Y-97017320D02*
G01*
X102505640Y-96517320D01*
X103005640Y-96517320D01*
X103005640Y-97017320D01*
X102505640Y-97017320D01*
G37*
G36*
X103505640Y-97017320D02*
G01*
X103505640Y-96517320D01*
X104005640Y-96517320D01*
X104005640Y-97017320D01*
X103505640Y-97017320D01*
G37*
G36*
X105005640Y-97017320D02*
G01*
X105005640Y-96517320D01*
X105505640Y-96517320D01*
X105505640Y-97017320D01*
X105005640Y-97017320D01*
G37*
G36*
X106005640Y-97017320D02*
G01*
X106005640Y-96517320D01*
X106505640Y-96517320D01*
X106505640Y-97017320D01*
X106005640Y-97017320D01*
G37*
G36*
X107005640Y-97017320D02*
G01*
X107005640Y-96517320D01*
X107505640Y-96517320D01*
X107505640Y-97017320D01*
X107005640Y-97017320D01*
G37*
G36*
X107505640Y-97017320D02*
G01*
X107505640Y-96517320D01*
X108005640Y-96517320D01*
X108005640Y-97017320D01*
X107505640Y-97017320D01*
G37*
G36*
X108005640Y-97017320D02*
G01*
X108005640Y-96517320D01*
X108505640Y-96517320D01*
X108505640Y-97017320D01*
X108005640Y-97017320D01*
G37*
G36*
X109005640Y-97017320D02*
G01*
X109005640Y-96517320D01*
X109505640Y-96517320D01*
X109505640Y-97017320D01*
X109005640Y-97017320D01*
G37*
G36*
X93005640Y-96517320D02*
G01*
X93005640Y-96017320D01*
X93505640Y-96017320D01*
X93505640Y-96517320D01*
X93005640Y-96517320D01*
G37*
G36*
X94005640Y-96517320D02*
G01*
X94005640Y-96017320D01*
X94505640Y-96017320D01*
X94505640Y-96517320D01*
X94005640Y-96517320D01*
G37*
G36*
X94505640Y-96517320D02*
G01*
X94505640Y-96017320D01*
X95005640Y-96017320D01*
X95005640Y-96517320D01*
X94505640Y-96517320D01*
G37*
G36*
X95005640Y-96517320D02*
G01*
X95005640Y-96017320D01*
X95505640Y-96017320D01*
X95505640Y-96517320D01*
X95005640Y-96517320D01*
G37*
G36*
X96005640Y-96517320D02*
G01*
X96005640Y-96017320D01*
X96505640Y-96017320D01*
X96505640Y-96517320D01*
X96005640Y-96517320D01*
G37*
G36*
X97005640Y-96517320D02*
G01*
X97005640Y-96017320D01*
X97505640Y-96017320D01*
X97505640Y-96517320D01*
X97005640Y-96517320D01*
G37*
G36*
X98505640Y-96517320D02*
G01*
X98505640Y-96017320D01*
X99005640Y-96017320D01*
X99005640Y-96517320D01*
X98505640Y-96517320D01*
G37*
G36*
X99005640Y-96517320D02*
G01*
X99005640Y-96017320D01*
X99505640Y-96017320D01*
X99505640Y-96517320D01*
X99005640Y-96517320D01*
G37*
G36*
X99505640Y-96517320D02*
G01*
X99505640Y-96017320D01*
X100005640Y-96017320D01*
X100005640Y-96517320D01*
X99505640Y-96517320D01*
G37*
G36*
X100005640Y-96517320D02*
G01*
X100005640Y-96017320D01*
X100505640Y-96017320D01*
X100505640Y-96517320D01*
X100005640Y-96517320D01*
G37*
G36*
X100505640Y-96517320D02*
G01*
X100505640Y-96017320D01*
X101005640Y-96017320D01*
X101005640Y-96517320D01*
X100505640Y-96517320D01*
G37*
G36*
X102005640Y-96517320D02*
G01*
X102005640Y-96017320D01*
X102505640Y-96017320D01*
X102505640Y-96517320D01*
X102005640Y-96517320D01*
G37*
G36*
X103005640Y-96517320D02*
G01*
X103005640Y-96017320D01*
X103505640Y-96017320D01*
X103505640Y-96517320D01*
X103005640Y-96517320D01*
G37*
G36*
X104505640Y-96517320D02*
G01*
X104505640Y-96017320D01*
X105005640Y-96017320D01*
X105005640Y-96517320D01*
X104505640Y-96517320D01*
G37*
G36*
X105005640Y-96517320D02*
G01*
X105005640Y-96017320D01*
X105505640Y-96017320D01*
X105505640Y-96517320D01*
X105005640Y-96517320D01*
G37*
G36*
X106005640Y-96517320D02*
G01*
X106005640Y-96017320D01*
X106505640Y-96017320D01*
X106505640Y-96517320D01*
X106005640Y-96517320D01*
G37*
G36*
X107005640Y-96517320D02*
G01*
X107005640Y-96017320D01*
X107505640Y-96017320D01*
X107505640Y-96517320D01*
X107005640Y-96517320D01*
G37*
G36*
X107505640Y-96517320D02*
G01*
X107505640Y-96017320D01*
X108005640Y-96017320D01*
X108005640Y-96517320D01*
X107505640Y-96517320D01*
G37*
G36*
X108005640Y-96517320D02*
G01*
X108005640Y-96017320D01*
X108505640Y-96017320D01*
X108505640Y-96517320D01*
X108005640Y-96517320D01*
G37*
G36*
X109005640Y-96517320D02*
G01*
X109005640Y-96017320D01*
X109505640Y-96017320D01*
X109505640Y-96517320D01*
X109005640Y-96517320D01*
G37*
G36*
X93005640Y-96017320D02*
G01*
X93005640Y-95517320D01*
X93505640Y-95517320D01*
X93505640Y-96017320D01*
X93005640Y-96017320D01*
G37*
G36*
X94005640Y-96017320D02*
G01*
X94005640Y-95517320D01*
X94505640Y-95517320D01*
X94505640Y-96017320D01*
X94005640Y-96017320D01*
G37*
G36*
X94505640Y-96017320D02*
G01*
X94505640Y-95517320D01*
X95005640Y-95517320D01*
X95005640Y-96017320D01*
X94505640Y-96017320D01*
G37*
G36*
X95005640Y-96017320D02*
G01*
X95005640Y-95517320D01*
X95505640Y-95517320D01*
X95505640Y-96017320D01*
X95005640Y-96017320D01*
G37*
G36*
X96005640Y-96017320D02*
G01*
X96005640Y-95517320D01*
X96505640Y-95517320D01*
X96505640Y-96017320D01*
X96005640Y-96017320D01*
G37*
G36*
X97005640Y-96017320D02*
G01*
X97005640Y-95517320D01*
X97505640Y-95517320D01*
X97505640Y-96017320D01*
X97005640Y-96017320D01*
G37*
G36*
X97505640Y-96017320D02*
G01*
X97505640Y-95517320D01*
X98005640Y-95517320D01*
X98005640Y-96017320D01*
X97505640Y-96017320D01*
G37*
G36*
X98005640Y-96017320D02*
G01*
X98005640Y-95517320D01*
X98505640Y-95517320D01*
X98505640Y-96017320D01*
X98005640Y-96017320D01*
G37*
G36*
X102505640Y-96017320D02*
G01*
X102505640Y-95517320D01*
X103005640Y-95517320D01*
X103005640Y-96017320D01*
X102505640Y-96017320D01*
G37*
G36*
X103005640Y-96017320D02*
G01*
X103005640Y-95517320D01*
X103505640Y-95517320D01*
X103505640Y-96017320D01*
X103005640Y-96017320D01*
G37*
G36*
X104005640Y-96017320D02*
G01*
X104005640Y-95517320D01*
X104505640Y-95517320D01*
X104505640Y-96017320D01*
X104005640Y-96017320D01*
G37*
G36*
X104505640Y-96017320D02*
G01*
X104505640Y-95517320D01*
X105005640Y-95517320D01*
X105005640Y-96017320D01*
X104505640Y-96017320D01*
G37*
G36*
X106005640Y-96017320D02*
G01*
X106005640Y-95517320D01*
X106505640Y-95517320D01*
X106505640Y-96017320D01*
X106005640Y-96017320D01*
G37*
G36*
X107005640Y-96017320D02*
G01*
X107005640Y-95517320D01*
X107505640Y-95517320D01*
X107505640Y-96017320D01*
X107005640Y-96017320D01*
G37*
G36*
X107505640Y-96017320D02*
G01*
X107505640Y-95517320D01*
X108005640Y-95517320D01*
X108005640Y-96017320D01*
X107505640Y-96017320D01*
G37*
G36*
X108005640Y-96017320D02*
G01*
X108005640Y-95517320D01*
X108505640Y-95517320D01*
X108505640Y-96017320D01*
X108005640Y-96017320D01*
G37*
G36*
X109005640Y-96017320D02*
G01*
X109005640Y-95517320D01*
X109505640Y-95517320D01*
X109505640Y-96017320D01*
X109005640Y-96017320D01*
G37*
G36*
X93005640Y-95517320D02*
G01*
X93005640Y-95017320D01*
X93505640Y-95017320D01*
X93505640Y-95517320D01*
X93005640Y-95517320D01*
G37*
G36*
X96005640Y-95517320D02*
G01*
X96005640Y-95017320D01*
X96505640Y-95017320D01*
X96505640Y-95517320D01*
X96005640Y-95517320D01*
G37*
G36*
X97005640Y-95517320D02*
G01*
X97005640Y-95017320D01*
X97505640Y-95017320D01*
X97505640Y-95517320D01*
X97005640Y-95517320D01*
G37*
G36*
X98005640Y-95517320D02*
G01*
X98005640Y-95017320D01*
X98505640Y-95017320D01*
X98505640Y-95517320D01*
X98005640Y-95517320D01*
G37*
G36*
X98505640Y-95517320D02*
G01*
X98505640Y-95017320D01*
X99005640Y-95017320D01*
X99005640Y-95517320D01*
X98505640Y-95517320D01*
G37*
G36*
X99505640Y-95517320D02*
G01*
X99505640Y-95017320D01*
X100005640Y-95017320D01*
X100005640Y-95517320D01*
X99505640Y-95517320D01*
G37*
G36*
X100505640Y-95517320D02*
G01*
X100505640Y-95017320D01*
X101005640Y-95017320D01*
X101005640Y-95517320D01*
X100505640Y-95517320D01*
G37*
G36*
X101505640Y-95517320D02*
G01*
X101505640Y-95017320D01*
X102005640Y-95017320D01*
X102005640Y-95517320D01*
X101505640Y-95517320D01*
G37*
G36*
X103505640Y-95517320D02*
G01*
X103505640Y-95017320D01*
X104005640Y-95017320D01*
X104005640Y-95517320D01*
X103505640Y-95517320D01*
G37*
G36*
X106005640Y-95517320D02*
G01*
X106005640Y-95017320D01*
X106505640Y-95017320D01*
X106505640Y-95517320D01*
X106005640Y-95517320D01*
G37*
G36*
X109005640Y-95517320D02*
G01*
X109005640Y-95017320D01*
X109505640Y-95017320D01*
X109505640Y-95517320D01*
X109005640Y-95517320D01*
G37*
G36*
X93005640Y-95017320D02*
G01*
X93005640Y-94517320D01*
X93505640Y-94517320D01*
X93505640Y-95017320D01*
X93005640Y-95017320D01*
G37*
G36*
X93505640Y-95017320D02*
G01*
X93505640Y-94517320D01*
X94005640Y-94517320D01*
X94005640Y-95017320D01*
X93505640Y-95017320D01*
G37*
G36*
X94005640Y-95017320D02*
G01*
X94005640Y-94517320D01*
X94505640Y-94517320D01*
X94505640Y-95017320D01*
X94005640Y-95017320D01*
G37*
G36*
X94505640Y-95017320D02*
G01*
X94505640Y-94517320D01*
X95005640Y-94517320D01*
X95005640Y-95017320D01*
X94505640Y-95017320D01*
G37*
G36*
X95005640Y-95017320D02*
G01*
X95005640Y-94517320D01*
X95505640Y-94517320D01*
X95505640Y-95017320D01*
X95005640Y-95017320D01*
G37*
G36*
X95505640Y-95017320D02*
G01*
X95505640Y-94517320D01*
X96005640Y-94517320D01*
X96005640Y-95017320D01*
X95505640Y-95017320D01*
G37*
G36*
X96005640Y-95017320D02*
G01*
X96005640Y-94517320D01*
X96505640Y-94517320D01*
X96505640Y-95017320D01*
X96005640Y-95017320D01*
G37*
G36*
X97505640Y-95017320D02*
G01*
X97505640Y-94517320D01*
X98005640Y-94517320D01*
X98005640Y-95017320D01*
X97505640Y-95017320D01*
G37*
G36*
X98005640Y-95017320D02*
G01*
X98005640Y-94517320D01*
X98505640Y-94517320D01*
X98505640Y-95017320D01*
X98005640Y-95017320D01*
G37*
G36*
X98505640Y-95017320D02*
G01*
X98505640Y-94517320D01*
X99005640Y-94517320D01*
X99005640Y-95017320D01*
X98505640Y-95017320D01*
G37*
G36*
X99005640Y-95017320D02*
G01*
X99005640Y-94517320D01*
X99505640Y-94517320D01*
X99505640Y-95017320D01*
X99005640Y-95017320D01*
G37*
G36*
X100505640Y-95017320D02*
G01*
X100505640Y-94517320D01*
X101005640Y-94517320D01*
X101005640Y-95017320D01*
X100505640Y-95017320D01*
G37*
G36*
X101005640Y-95017320D02*
G01*
X101005640Y-94517320D01*
X101505640Y-94517320D01*
X101505640Y-95017320D01*
X101005640Y-95017320D01*
G37*
G36*
X102005640Y-95017320D02*
G01*
X102005640Y-94517320D01*
X102505640Y-94517320D01*
X102505640Y-95017320D01*
X102005640Y-95017320D01*
G37*
G36*
X103505640Y-95017320D02*
G01*
X103505640Y-94517320D01*
X104005640Y-94517320D01*
X104005640Y-95017320D01*
X103505640Y-95017320D01*
G37*
G36*
X104505640Y-95017320D02*
G01*
X104505640Y-94517320D01*
X105005640Y-94517320D01*
X105005640Y-95017320D01*
X104505640Y-95017320D01*
G37*
G36*
X105005640Y-95017320D02*
G01*
X105005640Y-94517320D01*
X105505640Y-94517320D01*
X105505640Y-95017320D01*
X105005640Y-95017320D01*
G37*
G36*
X106005640Y-95017320D02*
G01*
X106005640Y-94517320D01*
X106505640Y-94517320D01*
X106505640Y-95017320D01*
X106005640Y-95017320D01*
G37*
G36*
X106505640Y-95017320D02*
G01*
X106505640Y-94517320D01*
X107005640Y-94517320D01*
X107005640Y-95017320D01*
X106505640Y-95017320D01*
G37*
G36*
X107005640Y-95017320D02*
G01*
X107005640Y-94517320D01*
X107505640Y-94517320D01*
X107505640Y-95017320D01*
X107005640Y-95017320D01*
G37*
G36*
X107505640Y-95017320D02*
G01*
X107505640Y-94517320D01*
X108005640Y-94517320D01*
X108005640Y-95017320D01*
X107505640Y-95017320D01*
G37*
G36*
X108005640Y-95017320D02*
G01*
X108005640Y-94517320D01*
X108505640Y-94517320D01*
X108505640Y-95017320D01*
X108005640Y-95017320D01*
G37*
G36*
X108505640Y-95017320D02*
G01*
X108505640Y-94517320D01*
X109005640Y-94517320D01*
X109005640Y-95017320D01*
X108505640Y-95017320D01*
G37*
G36*
X109005640Y-95017320D02*
G01*
X109005640Y-94517320D01*
X109505640Y-94517320D01*
X109505640Y-95017320D01*
X109005640Y-95017320D01*
G37*
D11*
%TO.C,BT1*%
X125510520Y-142594800D02*
X163000520Y-142594800D01*
X125510520Y-89964800D02*
X125510520Y-142594800D01*
X125510520Y-89964800D02*
X163000520Y-89964800D01*
X163000520Y-142594800D02*
X163000520Y-89964800D01*
D10*
%TO.C,P1*%
X93001858Y-82567907D02*
X90876821Y-81998505D01*
X90263420Y-84287749D02*
X92388457Y-84857151D01*
X92147623Y-77255809D02*
X90263420Y-84287749D01*
X94272660Y-77825211D02*
X92147623Y-77255809D01*
X92388457Y-84857151D02*
X94272660Y-77825211D01*
D15*
%TO.C,U1*%
X111879520Y-91706700D02*
G75*
G03*
X111879520Y-91706700I-150000J0D01*
G01*
D13*
X112486040Y-91443360D02*
X112386040Y-91443360D01*
X112386040Y-91443360D02*
X112036040Y-91093360D01*
X112036040Y-91093360D02*
X112036040Y-90993360D01*
X112036040Y-90993360D02*
X110736040Y-90993360D01*
X119236040Y-91443360D02*
X118786040Y-91443360D01*
X119236040Y-91443360D02*
X119236040Y-90993360D01*
X119236040Y-84243360D02*
X119236040Y-84693360D01*
X119236040Y-84243360D02*
X118786040Y-84243360D01*
X112036040Y-84243360D02*
X112486040Y-84243360D01*
X112036040Y-84243360D02*
X112036040Y-84693360D01*
D10*
%TO.C,C1*%
X106638680Y-88423644D02*
X106638680Y-86969516D01*
X108458680Y-88423644D02*
X108458680Y-86969516D01*
%TO.C,C2*%
X177616440Y-110490084D02*
X177616440Y-109035956D01*
X179436440Y-110490084D02*
X179436440Y-109035956D01*
%TO.C,R2*%
X172466084Y-87798320D02*
X171011956Y-87798320D01*
X172466084Y-85978320D02*
X171011956Y-85978320D01*
%TO.C,R1*%
X172090164Y-80879360D02*
X170636036Y-80879360D01*
X172090164Y-79059360D02*
X170636036Y-79059360D01*
%TO.C,R4*%
X156292736Y-83377360D02*
X157746864Y-83377360D01*
X156292736Y-85197360D02*
X157746864Y-85197360D01*
%TO.C,R3*%
X156866776Y-76981640D02*
X158320904Y-76981640D01*
X156866776Y-78801640D02*
X158320904Y-78801640D01*
%TO.C,R6*%
X172394964Y-84872240D02*
X170940836Y-84872240D01*
X172394964Y-83052240D02*
X170940836Y-83052240D01*
%TO.C,R5*%
X172293364Y-78070120D02*
X170839236Y-78070120D01*
X172293364Y-76250120D02*
X170839236Y-76250120D01*
%TO.C,R8*%
X203596156Y-128335360D02*
X205050284Y-128335360D01*
X203596156Y-130155360D02*
X205050284Y-130155360D01*
%TO.C,R10*%
X166491836Y-116026520D02*
X167945964Y-116026520D01*
X166491836Y-117846520D02*
X167945964Y-117846520D01*
%TO.C,R9*%
X122063404Y-104475960D02*
X120609276Y-104475960D01*
X122063404Y-102655960D02*
X120609276Y-102655960D01*
%TO.C,R13*%
X172258400Y-110824116D02*
X172258400Y-112278244D01*
X170438400Y-110824116D02*
X170438400Y-112278244D01*
%TO.C,R14*%
X181639316Y-125861400D02*
X183093444Y-125861400D01*
X181639316Y-127681400D02*
X183093444Y-127681400D01*
%TO.C,R15*%
X165628236Y-125048600D02*
X167082364Y-125048600D01*
X165628236Y-126868600D02*
X167082364Y-126868600D01*
%TO.C,R16*%
X205703276Y-98678320D02*
X207157404Y-98678320D01*
X205703276Y-100498320D02*
X207157404Y-100498320D01*
%TO.C,R18*%
X184519676Y-107837560D02*
X185973804Y-107837560D01*
X184519676Y-109657560D02*
X185973804Y-109657560D01*
%TO.C,R19*%
X190535476Y-101843160D02*
X191989604Y-101843160D01*
X190535476Y-103663160D02*
X191989604Y-103663160D01*
%TO.C,R20*%
X181503236Y-119872080D02*
X182957364Y-119872080D01*
X181503236Y-121692080D02*
X182957364Y-121692080D01*
%TO.C,Q1*%
X175907480Y-109677120D02*
X174447480Y-109677120D01*
X175907480Y-112837120D02*
X173747480Y-112837120D01*
X175907480Y-112837120D02*
X175907480Y-111907120D01*
X175907480Y-109677120D02*
X175907480Y-110607120D01*
D14*
%TO.C,D2*%
X166898620Y-86160780D02*
G75*
G03*
X166898620Y-86160780I-200000J0D01*
G01*
%TO.C,D10*%
X183004760Y-111732060D02*
G75*
G03*
X183004760Y-111732060I-200000J0D01*
G01*
%TO.C,D11*%
X188608000Y-105757980D02*
G75*
G03*
X188608000Y-105757980I-200000J0D01*
G01*
%TO.C,D12*%
X179895800Y-116039900D02*
G75*
G03*
X179895800Y-116039900I-200000J0D01*
G01*
D10*
%TO.C,R7*%
X121905924Y-109108920D02*
X120451796Y-109108920D01*
X121905924Y-107288920D02*
X120451796Y-107288920D01*
%TO.C,R11*%
X209722636Y-93273200D02*
X211176764Y-93273200D01*
X209722636Y-95093200D02*
X211176764Y-95093200D01*
%TO.C,R12*%
X122153764Y-100025880D02*
X120699636Y-100025880D01*
X122153764Y-98205880D02*
X120699636Y-98205880D01*
D14*
%TO.C,D1*%
X166827500Y-79521220D02*
G75*
G03*
X166827500Y-79521220I-200000J0D01*
G01*
%TO.C,D4*%
X204977340Y-90992000D02*
G75*
G03*
X204977340Y-90992000I-200000J0D01*
G01*
%TO.C,D9*%
X200075140Y-92385840D02*
G75*
G03*
X200075140Y-92385840I-200000J0D01*
G01*
D10*
%TO.C,R17*%
X195517876Y-89986440D02*
X196972004Y-89986440D01*
X195517876Y-91806440D02*
X196972004Y-91806440D01*
%TO.C,D8*%
D11*
X208011020Y-94953864D02*
X207011020Y-94953864D01*
X207011020Y-95191960D01*
X207058640Y-95334817D01*
X207153878Y-95430055D01*
X207249116Y-95477674D01*
X207439592Y-95525293D01*
X207582449Y-95525293D01*
X207772925Y-95477674D01*
X207868163Y-95430055D01*
X207963401Y-95334817D01*
X208011020Y-95191960D01*
X208011020Y-94953864D01*
X207439592Y-96096721D02*
X207391973Y-96001483D01*
X207344354Y-95953864D01*
X207249116Y-95906245D01*
X207201497Y-95906245D01*
X207106259Y-95953864D01*
X207058640Y-96001483D01*
X207011020Y-96096721D01*
X207011020Y-96287198D01*
X207058640Y-96382436D01*
X207106259Y-96430055D01*
X207201497Y-96477674D01*
X207249116Y-96477674D01*
X207344354Y-96430055D01*
X207391973Y-96382436D01*
X207439592Y-96287198D01*
X207439592Y-96096721D01*
X207487211Y-96001483D01*
X207534830Y-95953864D01*
X207630068Y-95906245D01*
X207820544Y-95906245D01*
X207915782Y-95953864D01*
X207963401Y-96001483D01*
X208011020Y-96096721D01*
X208011020Y-96287198D01*
X207963401Y-96382436D01*
X207915782Y-96430055D01*
X207820544Y-96477674D01*
X207630068Y-96477674D01*
X207534830Y-96430055D01*
X207487211Y-96382436D01*
X207439592Y-96287198D01*
%TO.C,D6*%
X194425520Y-125581184D02*
X193425520Y-125581184D01*
X193425520Y-125819280D01*
X193473140Y-125962137D01*
X193568378Y-126057375D01*
X193663616Y-126104994D01*
X193854092Y-126152613D01*
X193996949Y-126152613D01*
X194187425Y-126104994D01*
X194282663Y-126057375D01*
X194377901Y-125962137D01*
X194425520Y-125819280D01*
X194425520Y-125581184D01*
X193425520Y-127009756D02*
X193425520Y-126819280D01*
X193473140Y-126724041D01*
X193520759Y-126676422D01*
X193663616Y-126581184D01*
X193854092Y-126533565D01*
X194235044Y-126533565D01*
X194330282Y-126581184D01*
X194377901Y-126628803D01*
X194425520Y-126724041D01*
X194425520Y-126914518D01*
X194377901Y-127009756D01*
X194330282Y-127057375D01*
X194235044Y-127104994D01*
X193996949Y-127104994D01*
X193901711Y-127057375D01*
X193854092Y-127009756D01*
X193806473Y-126914518D01*
X193806473Y-126724041D01*
X193854092Y-126628803D01*
X193901711Y-126581184D01*
X193996949Y-126533565D01*
%TO.C,D7*%
X172230479Y-123801095D02*
X173230479Y-123801095D01*
X173230479Y-123563000D01*
X173182860Y-123420142D01*
X173087621Y-123324904D01*
X172992383Y-123277285D01*
X172801907Y-123229666D01*
X172659050Y-123229666D01*
X172468574Y-123277285D01*
X172373336Y-123324904D01*
X172278098Y-123420142D01*
X172230479Y-123563000D01*
X172230479Y-123801095D01*
X173230479Y-122896333D02*
X173230479Y-122229666D01*
X172230479Y-122658238D01*
%TO.C,SW1*%
X121435761Y-135999386D02*
X121483380Y-136142243D01*
X121483380Y-136380339D01*
X121435761Y-136475577D01*
X121388142Y-136523196D01*
X121292904Y-136570815D01*
X121197666Y-136570815D01*
X121102428Y-136523196D01*
X121054809Y-136475577D01*
X121007190Y-136380339D01*
X120959571Y-136189862D01*
X120911952Y-136094624D01*
X120864333Y-136047005D01*
X120769095Y-135999386D01*
X120673857Y-135999386D01*
X120578619Y-136047005D01*
X120531000Y-136094624D01*
X120483380Y-136189862D01*
X120483380Y-136427958D01*
X120531000Y-136570815D01*
X120483380Y-136904148D02*
X121483380Y-137142243D01*
X120769095Y-137332720D01*
X121483380Y-137523196D01*
X120483380Y-137761291D01*
X121483380Y-138666053D02*
X121483380Y-138094624D01*
X121483380Y-138380339D02*
X120483380Y-138380339D01*
X120626238Y-138285100D01*
X120721476Y-138189862D01*
X120769095Y-138094624D01*
X116773840Y-140722100D02*
X116583364Y-140722100D01*
X116488126Y-140769720D01*
X116392888Y-140864958D01*
X116345269Y-141055434D01*
X116345269Y-141388767D01*
X116392888Y-141579243D01*
X116488126Y-141674481D01*
X116583364Y-141722100D01*
X116773840Y-141722100D01*
X116869079Y-141674481D01*
X116964317Y-141579243D01*
X117011936Y-141388767D01*
X117011936Y-141055434D01*
X116964317Y-140864958D01*
X116869079Y-140769720D01*
X116773840Y-140722100D01*
X115583364Y-141198291D02*
X115916698Y-141198291D01*
X115916698Y-141722100D02*
X115916698Y-140722100D01*
X115440507Y-140722100D01*
X114726221Y-141198291D02*
X115059555Y-141198291D01*
X115059555Y-141722100D02*
X115059555Y-140722100D01*
X114583364Y-140722100D01*
X116417647Y-131989580D02*
X116227171Y-131989580D01*
X116131933Y-132037200D01*
X116036695Y-132132438D01*
X115989076Y-132322914D01*
X115989076Y-132656247D01*
X116036695Y-132846723D01*
X116131933Y-132941961D01*
X116227171Y-132989580D01*
X116417647Y-132989580D01*
X116512885Y-132941961D01*
X116608123Y-132846723D01*
X116655742Y-132656247D01*
X116655742Y-132322914D01*
X116608123Y-132132438D01*
X116512885Y-132037200D01*
X116417647Y-131989580D01*
X115560504Y-132989580D02*
X115560504Y-131989580D01*
X114989076Y-132989580D01*
X114989076Y-131989580D01*
%TO.C,BT1*%
X148960531Y-139280045D02*
X149008150Y-139422902D01*
X149055769Y-139470521D01*
X149151007Y-139518140D01*
X149293864Y-139518140D01*
X149389102Y-139470521D01*
X149436721Y-139422902D01*
X149484340Y-139327664D01*
X149484340Y-138946712D01*
X148484340Y-138946712D01*
X148484340Y-139280045D01*
X148531960Y-139375283D01*
X148579579Y-139422902D01*
X148674817Y-139470521D01*
X148770055Y-139470521D01*
X148865293Y-139422902D01*
X148912912Y-139375283D01*
X148960531Y-139280045D01*
X148960531Y-138946712D01*
X148484340Y-139803855D02*
X148484340Y-140375283D01*
X149484340Y-140089569D02*
X148484340Y-140089569D01*
X149484340Y-141232426D02*
X149484340Y-140660998D01*
X149484340Y-140946712D02*
X148484340Y-140946712D01*
X148627198Y-140851474D01*
X148722436Y-140756236D01*
X148770055Y-140660998D01*
X155581100Y-135328826D02*
X156581100Y-135662160D01*
X155581100Y-135995493D01*
X156485862Y-136900255D02*
X156533481Y-136852636D01*
X156581100Y-136709779D01*
X156581100Y-136614540D01*
X156533481Y-136471683D01*
X156438243Y-136376445D01*
X156343005Y-136328826D01*
X156152529Y-136281207D01*
X156009672Y-136281207D01*
X155819196Y-136328826D01*
X155723958Y-136376445D01*
X155628720Y-136471683D01*
X155581100Y-136614540D01*
X155581100Y-136709779D01*
X155628720Y-136852636D01*
X155676339Y-136900255D01*
X156485862Y-137900255D02*
X156533481Y-137852636D01*
X156581100Y-137709779D01*
X156581100Y-137614540D01*
X156533481Y-137471683D01*
X156438243Y-137376445D01*
X156343005Y-137328826D01*
X156152529Y-137281207D01*
X156009672Y-137281207D01*
X155819196Y-137328826D01*
X155723958Y-137376445D01*
X155628720Y-137471683D01*
X155581100Y-137614540D01*
X155581100Y-137709779D01*
X155628720Y-137852636D01*
X155676339Y-137900255D01*
X142801720Y-135986615D02*
X142754100Y-135891377D01*
X142754100Y-135748520D01*
X142801720Y-135605662D01*
X142896958Y-135510424D01*
X142992196Y-135462805D01*
X143182672Y-135415186D01*
X143325529Y-135415186D01*
X143516005Y-135462805D01*
X143611243Y-135510424D01*
X143706481Y-135605662D01*
X143754100Y-135748520D01*
X143754100Y-135843758D01*
X143706481Y-135986615D01*
X143658862Y-136034234D01*
X143325529Y-136034234D01*
X143325529Y-135843758D01*
X143754100Y-136462805D02*
X142754100Y-136462805D01*
X143754100Y-137034234D01*
X142754100Y-137034234D01*
X143754100Y-137510424D02*
X142754100Y-137510424D01*
X142754100Y-137748520D01*
X142801720Y-137891377D01*
X142896958Y-137986615D01*
X142992196Y-138034234D01*
X143182672Y-138081853D01*
X143325529Y-138081853D01*
X143516005Y-138034234D01*
X143611243Y-137986615D01*
X143706481Y-137891377D01*
X143754100Y-137748520D01*
X143754100Y-137510424D01*
%TO.C,P1*%
X91133142Y-77528886D02*
X91237459Y-77507539D01*
X91375449Y-77544513D01*
X91501113Y-77627484D01*
X91568457Y-77744126D01*
X91589804Y-77848444D01*
X91586501Y-78044754D01*
X91549527Y-78182744D01*
X91454232Y-78354405D01*
X91383586Y-78434073D01*
X91266944Y-78501417D01*
X91116630Y-78510439D01*
X91024637Y-78485790D01*
X90898972Y-78402819D01*
X90865300Y-78344498D01*
X90951573Y-78022522D01*
X91135559Y-78071821D01*
X90426683Y-78325568D02*
X90685502Y-77359642D01*
X89874725Y-78177672D01*
X90133544Y-77211746D01*
X89414760Y-78054424D02*
X89673579Y-77088499D01*
X89443597Y-77026875D01*
X89293283Y-77035897D01*
X89176640Y-77103241D01*
X89105995Y-77182909D01*
X89010699Y-77354570D01*
X88973725Y-77492560D01*
X88970423Y-77688870D01*
X88991770Y-77793188D01*
X89059113Y-77909830D01*
X89184778Y-77992801D01*
X89414760Y-78054424D01*
X90164793Y-80892885D02*
X90610015Y-80519194D01*
X90716750Y-81040782D02*
X90975569Y-80074856D01*
X90607598Y-79976258D01*
X90503280Y-79997605D01*
X90444959Y-80031277D01*
X90374313Y-80110945D01*
X90337339Y-80248935D01*
X90358686Y-80353252D01*
X90392357Y-80411574D01*
X90472026Y-80482220D01*
X90839997Y-80580817D01*
X89842817Y-80806612D02*
X89509402Y-80027090D01*
X90015363Y-80162662D02*
X89336856Y-80671040D01*
X90296464Y-82701306D02*
X89744506Y-82553409D01*
X89761666Y-83593283D02*
X90020485Y-82627357D01*
X89255705Y-83457711D02*
X88922289Y-82678189D01*
X89428251Y-82813761D02*
X88749743Y-83322139D01*
%TO.C,U1*%
X116397944Y-93545740D02*
X116397944Y-94355264D01*
X116350325Y-94450502D01*
X116302706Y-94498121D01*
X116207468Y-94545740D01*
X116016992Y-94545740D01*
X115921754Y-94498121D01*
X115874135Y-94450502D01*
X115826516Y-94355264D01*
X115826516Y-93545740D01*
X114826516Y-94545740D02*
X115397944Y-94545740D01*
X115112230Y-94545740D02*
X115112230Y-93545740D01*
X115207468Y-93688598D01*
X115302706Y-93783836D01*
X115397944Y-93831455D01*
%TO.C,D5*%
X161225015Y-122512080D02*
X161225015Y-121512080D01*
X160986920Y-121512080D01*
X160844062Y-121559700D01*
X160748824Y-121654938D01*
X160701205Y-121750176D01*
X160653586Y-121940652D01*
X160653586Y-122083509D01*
X160701205Y-122273985D01*
X160748824Y-122369223D01*
X160844062Y-122464461D01*
X160986920Y-122512080D01*
X161225015Y-122512080D01*
X159748824Y-121512080D02*
X160225015Y-121512080D01*
X160272634Y-121988271D01*
X160225015Y-121940652D01*
X160129777Y-121893033D01*
X159891681Y-121893033D01*
X159796443Y-121940652D01*
X159748824Y-121988271D01*
X159701205Y-122083509D01*
X159701205Y-122321604D01*
X159748824Y-122416842D01*
X159796443Y-122464461D01*
X159891681Y-122512080D01*
X160129777Y-122512080D01*
X160225015Y-122464461D01*
X160272634Y-122416842D01*
X160071380Y-118065585D02*
X160071380Y-118637014D01*
X161071380Y-118351300D02*
X160071380Y-118351300D01*
%TO.C,C1*%
X109725822Y-87529913D02*
X109773441Y-87482294D01*
X109821060Y-87339437D01*
X109821060Y-87244199D01*
X109773441Y-87101341D01*
X109678203Y-87006103D01*
X109582965Y-86958484D01*
X109392489Y-86910865D01*
X109249632Y-86910865D01*
X109059156Y-86958484D01*
X108963918Y-87006103D01*
X108868680Y-87101341D01*
X108821060Y-87244199D01*
X108821060Y-87339437D01*
X108868680Y-87482294D01*
X108916299Y-87529913D01*
X109821060Y-88482294D02*
X109821060Y-87910865D01*
X109821060Y-88196580D02*
X108821060Y-88196580D01*
X108963918Y-88101341D01*
X109059156Y-88006103D01*
X109106775Y-87910865D01*
%TO.C,C2*%
X178959782Y-105901113D02*
X179007401Y-105853494D01*
X179055020Y-105710637D01*
X179055020Y-105615399D01*
X179007401Y-105472541D01*
X178912163Y-105377303D01*
X178816925Y-105329684D01*
X178626449Y-105282065D01*
X178483592Y-105282065D01*
X178293116Y-105329684D01*
X178197878Y-105377303D01*
X178102640Y-105472541D01*
X178055020Y-105615399D01*
X178055020Y-105710637D01*
X178102640Y-105853494D01*
X178150259Y-105901113D01*
X178150259Y-106282065D02*
X178102640Y-106329684D01*
X178055020Y-106424922D01*
X178055020Y-106663018D01*
X178102640Y-106758256D01*
X178150259Y-106805875D01*
X178245497Y-106853494D01*
X178340735Y-106853494D01*
X178483592Y-106805875D01*
X179055020Y-106234446D01*
X179055020Y-106853494D01*
%TO.C,D3*%
X201017095Y-128575060D02*
X201017095Y-127575060D01*
X200779000Y-127575060D01*
X200636142Y-127622680D01*
X200540904Y-127717918D01*
X200493285Y-127813156D01*
X200445666Y-128003632D01*
X200445666Y-128146489D01*
X200493285Y-128336965D01*
X200540904Y-128432203D01*
X200636142Y-128527441D01*
X200779000Y-128575060D01*
X201017095Y-128575060D01*
X200112333Y-127575060D02*
X199493285Y-127575060D01*
X199826619Y-127956013D01*
X199683761Y-127956013D01*
X199588523Y-128003632D01*
X199540904Y-128051251D01*
X199493285Y-128146489D01*
X199493285Y-128384584D01*
X199540904Y-128479822D01*
X199588523Y-128527441D01*
X199683761Y-128575060D01*
X199969476Y-128575060D01*
X200064714Y-128527441D01*
X200112333Y-128479822D01*
X199645020Y-123943145D02*
X199645020Y-124514574D01*
X200645020Y-124228860D02*
X199645020Y-124228860D01*
%TO.C,R2*%
X176103846Y-87508340D02*
X176437180Y-87032150D01*
X176675275Y-87508340D02*
X176675275Y-86508340D01*
X176294322Y-86508340D01*
X176199084Y-86555960D01*
X176151465Y-86603579D01*
X176103846Y-86698817D01*
X176103846Y-86841674D01*
X176151465Y-86936912D01*
X176199084Y-86984531D01*
X176294322Y-87032150D01*
X176675275Y-87032150D01*
X175722894Y-86603579D02*
X175675275Y-86555960D01*
X175580037Y-86508340D01*
X175341941Y-86508340D01*
X175246703Y-86555960D01*
X175199084Y-86603579D01*
X175151465Y-86698817D01*
X175151465Y-86794055D01*
X175199084Y-86936912D01*
X175770513Y-87508340D01*
X175151465Y-87508340D01*
%TO.C,R1*%
X175744086Y-80548740D02*
X176077420Y-80072550D01*
X176315515Y-80548740D02*
X176315515Y-79548740D01*
X175934562Y-79548740D01*
X175839324Y-79596360D01*
X175791705Y-79643979D01*
X175744086Y-79739217D01*
X175744086Y-79882074D01*
X175791705Y-79977312D01*
X175839324Y-80024931D01*
X175934562Y-80072550D01*
X176315515Y-80072550D01*
X174791705Y-80548740D02*
X175363134Y-80548740D01*
X175077420Y-80548740D02*
X175077420Y-79548740D01*
X175172658Y-79691598D01*
X175267896Y-79786836D01*
X175363134Y-79834455D01*
%TO.C,R4*%
X157186466Y-86559740D02*
X157519800Y-86083550D01*
X157757895Y-86559740D02*
X157757895Y-85559740D01*
X157376942Y-85559740D01*
X157281704Y-85607360D01*
X157234085Y-85654979D01*
X157186466Y-85750217D01*
X157186466Y-85893074D01*
X157234085Y-85988312D01*
X157281704Y-86035931D01*
X157376942Y-86083550D01*
X157757895Y-86083550D01*
X156329323Y-85893074D02*
X156329323Y-86559740D01*
X156567419Y-85512121D02*
X156805514Y-86226407D01*
X156186466Y-86226407D01*
%TO.C,R3*%
X157760506Y-80164020D02*
X158093840Y-79687830D01*
X158331935Y-80164020D02*
X158331935Y-79164020D01*
X157950982Y-79164020D01*
X157855744Y-79211640D01*
X157808125Y-79259259D01*
X157760506Y-79354497D01*
X157760506Y-79497354D01*
X157808125Y-79592592D01*
X157855744Y-79640211D01*
X157950982Y-79687830D01*
X158331935Y-79687830D01*
X157427173Y-79164020D02*
X156808125Y-79164020D01*
X157141459Y-79544973D01*
X156998601Y-79544973D01*
X156903363Y-79592592D01*
X156855744Y-79640211D01*
X156808125Y-79735449D01*
X156808125Y-79973544D01*
X156855744Y-80068782D01*
X156903363Y-80116401D01*
X156998601Y-80164020D01*
X157284316Y-80164020D01*
X157379554Y-80116401D01*
X157427173Y-80068782D01*
%TO.C,R6*%
X175981926Y-84440020D02*
X176315260Y-83963830D01*
X176553355Y-84440020D02*
X176553355Y-83440020D01*
X176172402Y-83440020D01*
X176077164Y-83487640D01*
X176029545Y-83535259D01*
X175981926Y-83630497D01*
X175981926Y-83773354D01*
X176029545Y-83868592D01*
X176077164Y-83916211D01*
X176172402Y-83963830D01*
X176553355Y-83963830D01*
X175124783Y-83440020D02*
X175315260Y-83440020D01*
X175410498Y-83487640D01*
X175458117Y-83535259D01*
X175553355Y-83678116D01*
X175600974Y-83868592D01*
X175600974Y-84249544D01*
X175553355Y-84344782D01*
X175505736Y-84392401D01*
X175410498Y-84440020D01*
X175220021Y-84440020D01*
X175124783Y-84392401D01*
X175077164Y-84344782D01*
X175029545Y-84249544D01*
X175029545Y-84011449D01*
X175077164Y-83916211D01*
X175124783Y-83868592D01*
X175220021Y-83820973D01*
X175410498Y-83820973D01*
X175505736Y-83868592D01*
X175553355Y-83916211D01*
X175600974Y-84011449D01*
%TO.C,R5*%
X176215606Y-77521060D02*
X176548940Y-77044870D01*
X176787035Y-77521060D02*
X176787035Y-76521060D01*
X176406082Y-76521060D01*
X176310844Y-76568680D01*
X176263225Y-76616299D01*
X176215606Y-76711537D01*
X176215606Y-76854394D01*
X176263225Y-76949632D01*
X176310844Y-76997251D01*
X176406082Y-77044870D01*
X176787035Y-77044870D01*
X175310844Y-76521060D02*
X175787035Y-76521060D01*
X175834654Y-76997251D01*
X175787035Y-76949632D01*
X175691797Y-76902013D01*
X175453701Y-76902013D01*
X175358463Y-76949632D01*
X175310844Y-76997251D01*
X175263225Y-77092489D01*
X175263225Y-77330584D01*
X175310844Y-77425822D01*
X175358463Y-77473441D01*
X175453701Y-77521060D01*
X175691797Y-77521060D01*
X175787035Y-77473441D01*
X175834654Y-77425822D01*
%TO.C,R8*%
X204489886Y-131517740D02*
X204823220Y-131041550D01*
X205061315Y-131517740D02*
X205061315Y-130517740D01*
X204680362Y-130517740D01*
X204585124Y-130565360D01*
X204537505Y-130612979D01*
X204489886Y-130708217D01*
X204489886Y-130851074D01*
X204537505Y-130946312D01*
X204585124Y-130993931D01*
X204680362Y-131041550D01*
X205061315Y-131041550D01*
X203918458Y-130946312D02*
X204013696Y-130898693D01*
X204061315Y-130851074D01*
X204108934Y-130755836D01*
X204108934Y-130708217D01*
X204061315Y-130612979D01*
X204013696Y-130565360D01*
X203918458Y-130517740D01*
X203727981Y-130517740D01*
X203632743Y-130565360D01*
X203585124Y-130612979D01*
X203537505Y-130708217D01*
X203537505Y-130755836D01*
X203585124Y-130851074D01*
X203632743Y-130898693D01*
X203727981Y-130946312D01*
X203918458Y-130946312D01*
X204013696Y-130993931D01*
X204061315Y-131041550D01*
X204108934Y-131136788D01*
X204108934Y-131327264D01*
X204061315Y-131422502D01*
X204013696Y-131470121D01*
X203918458Y-131517740D01*
X203727981Y-131517740D01*
X203632743Y-131470121D01*
X203585124Y-131422502D01*
X203537505Y-131327264D01*
X203537505Y-131136788D01*
X203585124Y-131041550D01*
X203632743Y-130993931D01*
X203727981Y-130946312D01*
%TO.C,R10*%
X167861757Y-119208900D02*
X168195090Y-118732710D01*
X168433185Y-119208900D02*
X168433185Y-118208900D01*
X168052233Y-118208900D01*
X167956995Y-118256520D01*
X167909376Y-118304139D01*
X167861757Y-118399377D01*
X167861757Y-118542234D01*
X167909376Y-118637472D01*
X167956995Y-118685091D01*
X168052233Y-118732710D01*
X168433185Y-118732710D01*
X166909376Y-119208900D02*
X167480804Y-119208900D01*
X167195090Y-119208900D02*
X167195090Y-118208900D01*
X167290328Y-118351758D01*
X167385566Y-118446996D01*
X167480804Y-118494615D01*
X166290328Y-118208900D02*
X166195090Y-118208900D01*
X166099852Y-118256520D01*
X166052233Y-118304139D01*
X166004614Y-118399377D01*
X165956995Y-118589853D01*
X165956995Y-118827948D01*
X166004614Y-119018424D01*
X166052233Y-119113662D01*
X166099852Y-119161281D01*
X166195090Y-119208900D01*
X166290328Y-119208900D01*
X166385566Y-119161281D01*
X166433185Y-119113662D01*
X166480804Y-119018424D01*
X166528423Y-118827948D01*
X166528423Y-118589853D01*
X166480804Y-118399377D01*
X166433185Y-118304139D01*
X166385566Y-118256520D01*
X166290328Y-118208900D01*
%TO.C,R9*%
X121503006Y-102198340D02*
X121836340Y-101722150D01*
X122074435Y-102198340D02*
X122074435Y-101198340D01*
X121693482Y-101198340D01*
X121598244Y-101245960D01*
X121550625Y-101293579D01*
X121503006Y-101388817D01*
X121503006Y-101531674D01*
X121550625Y-101626912D01*
X121598244Y-101674531D01*
X121693482Y-101722150D01*
X122074435Y-101722150D01*
X121026816Y-102198340D02*
X120836340Y-102198340D01*
X120741101Y-102150721D01*
X120693482Y-102103102D01*
X120598244Y-101960245D01*
X120550625Y-101769769D01*
X120550625Y-101388817D01*
X120598244Y-101293579D01*
X120645863Y-101245960D01*
X120741101Y-101198340D01*
X120931578Y-101198340D01*
X121026816Y-101245960D01*
X121074435Y-101293579D01*
X121122054Y-101388817D01*
X121122054Y-101626912D01*
X121074435Y-101722150D01*
X121026816Y-101769769D01*
X120931578Y-101817388D01*
X120741101Y-101817388D01*
X120645863Y-101769769D01*
X120598244Y-101722150D01*
X120550625Y-101626912D01*
%TO.C,R13*%
X169980780Y-110908322D02*
X169504590Y-110574989D01*
X169980780Y-110336894D02*
X168980780Y-110336894D01*
X168980780Y-110717846D01*
X169028400Y-110813084D01*
X169076019Y-110860703D01*
X169171257Y-110908322D01*
X169314114Y-110908322D01*
X169409352Y-110860703D01*
X169456971Y-110813084D01*
X169504590Y-110717846D01*
X169504590Y-110336894D01*
X169980780Y-111860703D02*
X169980780Y-111289275D01*
X169980780Y-111574989D02*
X168980780Y-111574989D01*
X169123638Y-111479751D01*
X169218876Y-111384513D01*
X169266495Y-111289275D01*
X168980780Y-112194037D02*
X168980780Y-112813084D01*
X169361733Y-112479751D01*
X169361733Y-112622608D01*
X169409352Y-112717846D01*
X169456971Y-112765465D01*
X169552209Y-112813084D01*
X169790304Y-112813084D01*
X169885542Y-112765465D01*
X169933161Y-112717846D01*
X169980780Y-112622608D01*
X169980780Y-112336894D01*
X169933161Y-112241656D01*
X169885542Y-112194037D01*
%TO.C,R14*%
X183009237Y-129043780D02*
X183342570Y-128567590D01*
X183580665Y-129043780D02*
X183580665Y-128043780D01*
X183199713Y-128043780D01*
X183104475Y-128091400D01*
X183056856Y-128139019D01*
X183009237Y-128234257D01*
X183009237Y-128377114D01*
X183056856Y-128472352D01*
X183104475Y-128519971D01*
X183199713Y-128567590D01*
X183580665Y-128567590D01*
X182056856Y-129043780D02*
X182628284Y-129043780D01*
X182342570Y-129043780D02*
X182342570Y-128043780D01*
X182437808Y-128186638D01*
X182533046Y-128281876D01*
X182628284Y-128329495D01*
X181199713Y-128377114D02*
X181199713Y-129043780D01*
X181437808Y-127996161D02*
X181675903Y-128710447D01*
X181056856Y-128710447D01*
%TO.C,R15*%
X166998157Y-128230980D02*
X167331490Y-127754790D01*
X167569585Y-128230980D02*
X167569585Y-127230980D01*
X167188633Y-127230980D01*
X167093395Y-127278600D01*
X167045776Y-127326219D01*
X166998157Y-127421457D01*
X166998157Y-127564314D01*
X167045776Y-127659552D01*
X167093395Y-127707171D01*
X167188633Y-127754790D01*
X167569585Y-127754790D01*
X166045776Y-128230980D02*
X166617204Y-128230980D01*
X166331490Y-128230980D02*
X166331490Y-127230980D01*
X166426728Y-127373838D01*
X166521966Y-127469076D01*
X166617204Y-127516695D01*
X165141014Y-127230980D02*
X165617204Y-127230980D01*
X165664823Y-127707171D01*
X165617204Y-127659552D01*
X165521966Y-127611933D01*
X165283871Y-127611933D01*
X165188633Y-127659552D01*
X165141014Y-127707171D01*
X165093395Y-127802409D01*
X165093395Y-128040504D01*
X165141014Y-128135742D01*
X165188633Y-128183361D01*
X165283871Y-128230980D01*
X165521966Y-128230980D01*
X165617204Y-128183361D01*
X165664823Y-128135742D01*
%TO.C,R16*%
X207073197Y-101860700D02*
X207406530Y-101384510D01*
X207644625Y-101860700D02*
X207644625Y-100860700D01*
X207263673Y-100860700D01*
X207168435Y-100908320D01*
X207120816Y-100955939D01*
X207073197Y-101051177D01*
X207073197Y-101194034D01*
X207120816Y-101289272D01*
X207168435Y-101336891D01*
X207263673Y-101384510D01*
X207644625Y-101384510D01*
X206120816Y-101860700D02*
X206692244Y-101860700D01*
X206406530Y-101860700D02*
X206406530Y-100860700D01*
X206501768Y-101003558D01*
X206597006Y-101098796D01*
X206692244Y-101146415D01*
X205263673Y-100860700D02*
X205454149Y-100860700D01*
X205549387Y-100908320D01*
X205597006Y-100955939D01*
X205692244Y-101098796D01*
X205739863Y-101289272D01*
X205739863Y-101670224D01*
X205692244Y-101765462D01*
X205644625Y-101813081D01*
X205549387Y-101860700D01*
X205358911Y-101860700D01*
X205263673Y-101813081D01*
X205216054Y-101765462D01*
X205168435Y-101670224D01*
X205168435Y-101432129D01*
X205216054Y-101336891D01*
X205263673Y-101289272D01*
X205358911Y-101241653D01*
X205549387Y-101241653D01*
X205644625Y-101289272D01*
X205692244Y-101336891D01*
X205739863Y-101432129D01*
%TO.C,R18*%
X185889597Y-111019940D02*
X186222930Y-110543750D01*
X186461025Y-111019940D02*
X186461025Y-110019940D01*
X186080073Y-110019940D01*
X185984835Y-110067560D01*
X185937216Y-110115179D01*
X185889597Y-110210417D01*
X185889597Y-110353274D01*
X185937216Y-110448512D01*
X185984835Y-110496131D01*
X186080073Y-110543750D01*
X186461025Y-110543750D01*
X184937216Y-111019940D02*
X185508644Y-111019940D01*
X185222930Y-111019940D02*
X185222930Y-110019940D01*
X185318168Y-110162798D01*
X185413406Y-110258036D01*
X185508644Y-110305655D01*
X184365787Y-110448512D02*
X184461025Y-110400893D01*
X184508644Y-110353274D01*
X184556263Y-110258036D01*
X184556263Y-110210417D01*
X184508644Y-110115179D01*
X184461025Y-110067560D01*
X184365787Y-110019940D01*
X184175311Y-110019940D01*
X184080073Y-110067560D01*
X184032454Y-110115179D01*
X183984835Y-110210417D01*
X183984835Y-110258036D01*
X184032454Y-110353274D01*
X184080073Y-110400893D01*
X184175311Y-110448512D01*
X184365787Y-110448512D01*
X184461025Y-110496131D01*
X184508644Y-110543750D01*
X184556263Y-110638988D01*
X184556263Y-110829464D01*
X184508644Y-110924702D01*
X184461025Y-110972321D01*
X184365787Y-111019940D01*
X184175311Y-111019940D01*
X184080073Y-110972321D01*
X184032454Y-110924702D01*
X183984835Y-110829464D01*
X183984835Y-110638988D01*
X184032454Y-110543750D01*
X184080073Y-110496131D01*
X184175311Y-110448512D01*
%TO.C,R19*%
X191905397Y-105025540D02*
X192238730Y-104549350D01*
X192476825Y-105025540D02*
X192476825Y-104025540D01*
X192095873Y-104025540D01*
X192000635Y-104073160D01*
X191953016Y-104120779D01*
X191905397Y-104216017D01*
X191905397Y-104358874D01*
X191953016Y-104454112D01*
X192000635Y-104501731D01*
X192095873Y-104549350D01*
X192476825Y-104549350D01*
X190953016Y-105025540D02*
X191524444Y-105025540D01*
X191238730Y-105025540D02*
X191238730Y-104025540D01*
X191333968Y-104168398D01*
X191429206Y-104263636D01*
X191524444Y-104311255D01*
X190476825Y-105025540D02*
X190286349Y-105025540D01*
X190191111Y-104977921D01*
X190143492Y-104930302D01*
X190048254Y-104787445D01*
X190000635Y-104596969D01*
X190000635Y-104216017D01*
X190048254Y-104120779D01*
X190095873Y-104073160D01*
X190191111Y-104025540D01*
X190381587Y-104025540D01*
X190476825Y-104073160D01*
X190524444Y-104120779D01*
X190572063Y-104216017D01*
X190572063Y-104454112D01*
X190524444Y-104549350D01*
X190476825Y-104596969D01*
X190381587Y-104644588D01*
X190191111Y-104644588D01*
X190095873Y-104596969D01*
X190048254Y-104549350D01*
X190000635Y-104454112D01*
%TO.C,R20*%
X182873157Y-123054460D02*
X183206490Y-122578270D01*
X183444585Y-123054460D02*
X183444585Y-122054460D01*
X183063633Y-122054460D01*
X182968395Y-122102080D01*
X182920776Y-122149699D01*
X182873157Y-122244937D01*
X182873157Y-122387794D01*
X182920776Y-122483032D01*
X182968395Y-122530651D01*
X183063633Y-122578270D01*
X183444585Y-122578270D01*
X182492204Y-122149699D02*
X182444585Y-122102080D01*
X182349347Y-122054460D01*
X182111252Y-122054460D01*
X182016014Y-122102080D01*
X181968395Y-122149699D01*
X181920776Y-122244937D01*
X181920776Y-122340175D01*
X181968395Y-122483032D01*
X182539823Y-123054460D01*
X181920776Y-123054460D01*
X181301728Y-122054460D02*
X181206490Y-122054460D01*
X181111252Y-122102080D01*
X181063633Y-122149699D01*
X181016014Y-122244937D01*
X180968395Y-122435413D01*
X180968395Y-122673508D01*
X181016014Y-122863984D01*
X181063633Y-122959222D01*
X181111252Y-123006841D01*
X181206490Y-123054460D01*
X181301728Y-123054460D01*
X181396966Y-123006841D01*
X181444585Y-122959222D01*
X181492204Y-122863984D01*
X181539823Y-122673508D01*
X181539823Y-122435413D01*
X181492204Y-122244937D01*
X181444585Y-122149699D01*
X181396966Y-122102080D01*
X181301728Y-122054460D01*
%TO.C,Q1*%
X174845718Y-114512379D02*
X174940956Y-114464760D01*
X175036194Y-114369521D01*
X175179051Y-114226664D01*
X175274289Y-114179045D01*
X175369527Y-114179045D01*
X175321908Y-114417140D02*
X175417146Y-114369521D01*
X175512384Y-114274283D01*
X175560003Y-114083807D01*
X175560003Y-113750474D01*
X175512384Y-113559998D01*
X175417146Y-113464760D01*
X175321908Y-113417140D01*
X175131432Y-113417140D01*
X175036194Y-113464760D01*
X174940956Y-113559998D01*
X174893337Y-113750474D01*
X174893337Y-114083807D01*
X174940956Y-114274283D01*
X175036194Y-114369521D01*
X175131432Y-114417140D01*
X175321908Y-114417140D01*
X173940956Y-114417140D02*
X174512384Y-114417140D01*
X174226670Y-114417140D02*
X174226670Y-113417140D01*
X174321908Y-113559998D01*
X174417146Y-113655236D01*
X174512384Y-113702855D01*
%TO.C,D2*%
X166019395Y-82747280D02*
X166019395Y-81747280D01*
X165781300Y-81747280D01*
X165638442Y-81794900D01*
X165543204Y-81890138D01*
X165495585Y-81985376D01*
X165447966Y-82175852D01*
X165447966Y-82318709D01*
X165495585Y-82509185D01*
X165543204Y-82604423D01*
X165638442Y-82699661D01*
X165781300Y-82747280D01*
X166019395Y-82747280D01*
X165067014Y-81842519D02*
X165019395Y-81794900D01*
X164924157Y-81747280D01*
X164686061Y-81747280D01*
X164590823Y-81794900D01*
X164543204Y-81842519D01*
X164495585Y-81937757D01*
X164495585Y-82032995D01*
X164543204Y-82175852D01*
X165114633Y-82747280D01*
X164495585Y-82747280D01*
%TO.C,D10*%
X192058240Y-112404994D02*
X191058240Y-112404994D01*
X191058240Y-112643089D01*
X191105860Y-112785946D01*
X191201098Y-112881184D01*
X191296336Y-112928803D01*
X191486812Y-112976422D01*
X191629669Y-112976422D01*
X191820145Y-112928803D01*
X191915383Y-112881184D01*
X192010621Y-112785946D01*
X192058240Y-112643089D01*
X192058240Y-112404994D01*
X192058240Y-113928803D02*
X192058240Y-113357375D01*
X192058240Y-113643089D02*
X191058240Y-113643089D01*
X191201098Y-113547851D01*
X191296336Y-113452613D01*
X191343955Y-113357375D01*
X191058240Y-114547851D02*
X191058240Y-114643089D01*
X191105860Y-114738327D01*
X191153479Y-114785946D01*
X191248717Y-114833565D01*
X191439193Y-114881184D01*
X191677288Y-114881184D01*
X191867764Y-114833565D01*
X191963002Y-114785946D01*
X192010621Y-114738327D01*
X192058240Y-114643089D01*
X192058240Y-114547851D01*
X192010621Y-114452613D01*
X191963002Y-114404994D01*
X191867764Y-114357375D01*
X191677288Y-114309756D01*
X191439193Y-114309756D01*
X191248717Y-114357375D01*
X191153479Y-114404994D01*
X191105860Y-114452613D01*
X191058240Y-114547851D01*
%TO.C,D11*%
X197661480Y-106430914D02*
X196661480Y-106430914D01*
X196661480Y-106669009D01*
X196709100Y-106811866D01*
X196804338Y-106907104D01*
X196899576Y-106954723D01*
X197090052Y-107002342D01*
X197232909Y-107002342D01*
X197423385Y-106954723D01*
X197518623Y-106907104D01*
X197613861Y-106811866D01*
X197661480Y-106669009D01*
X197661480Y-106430914D01*
X197661480Y-107954723D02*
X197661480Y-107383295D01*
X197661480Y-107669009D02*
X196661480Y-107669009D01*
X196804338Y-107573771D01*
X196899576Y-107478533D01*
X196947195Y-107383295D01*
X197661480Y-108907104D02*
X197661480Y-108335676D01*
X197661480Y-108621390D02*
X196661480Y-108621390D01*
X196804338Y-108526152D01*
X196899576Y-108430914D01*
X196947195Y-108335676D01*
%TO.C,D12*%
X188949280Y-116712834D02*
X187949280Y-116712834D01*
X187949280Y-116950929D01*
X187996900Y-117093786D01*
X188092138Y-117189024D01*
X188187376Y-117236643D01*
X188377852Y-117284262D01*
X188520709Y-117284262D01*
X188711185Y-117236643D01*
X188806423Y-117189024D01*
X188901661Y-117093786D01*
X188949280Y-116950929D01*
X188949280Y-116712834D01*
X188949280Y-118236643D02*
X188949280Y-117665215D01*
X188949280Y-117950929D02*
X187949280Y-117950929D01*
X188092138Y-117855691D01*
X188187376Y-117760453D01*
X188234995Y-117665215D01*
X188044519Y-118617596D02*
X187996900Y-118665215D01*
X187949280Y-118760453D01*
X187949280Y-118998548D01*
X187996900Y-119093786D01*
X188044519Y-119141405D01*
X188139757Y-119189024D01*
X188234995Y-119189024D01*
X188377852Y-119141405D01*
X188949280Y-118569977D01*
X188949280Y-119189024D01*
%TO.C,R7*%
X121345526Y-106831300D02*
X121678860Y-106355110D01*
X121916955Y-106831300D02*
X121916955Y-105831300D01*
X121536002Y-105831300D01*
X121440764Y-105878920D01*
X121393145Y-105926539D01*
X121345526Y-106021777D01*
X121345526Y-106164634D01*
X121393145Y-106259872D01*
X121440764Y-106307491D01*
X121536002Y-106355110D01*
X121916955Y-106355110D01*
X121012193Y-105831300D02*
X120345526Y-105831300D01*
X120774098Y-106831300D01*
%TO.C,R11*%
X211092557Y-96455580D02*
X211425890Y-95979390D01*
X211663985Y-96455580D02*
X211663985Y-95455580D01*
X211283033Y-95455580D01*
X211187795Y-95503200D01*
X211140176Y-95550819D01*
X211092557Y-95646057D01*
X211092557Y-95788914D01*
X211140176Y-95884152D01*
X211187795Y-95931771D01*
X211283033Y-95979390D01*
X211663985Y-95979390D01*
X210140176Y-96455580D02*
X210711604Y-96455580D01*
X210425890Y-96455580D02*
X210425890Y-95455580D01*
X210521128Y-95598438D01*
X210616366Y-95693676D01*
X210711604Y-95741295D01*
X209187795Y-96455580D02*
X209759223Y-96455580D01*
X209473509Y-96455580D02*
X209473509Y-95455580D01*
X209568747Y-95598438D01*
X209663985Y-95693676D01*
X209759223Y-95741295D01*
%TO.C,R12*%
X122069557Y-97748260D02*
X122402890Y-97272070D01*
X122640985Y-97748260D02*
X122640985Y-96748260D01*
X122260033Y-96748260D01*
X122164795Y-96795880D01*
X122117176Y-96843499D01*
X122069557Y-96938737D01*
X122069557Y-97081594D01*
X122117176Y-97176832D01*
X122164795Y-97224451D01*
X122260033Y-97272070D01*
X122640985Y-97272070D01*
X121117176Y-97748260D02*
X121688604Y-97748260D01*
X121402890Y-97748260D02*
X121402890Y-96748260D01*
X121498128Y-96891118D01*
X121593366Y-96986356D01*
X121688604Y-97033975D01*
X120736223Y-96843499D02*
X120688604Y-96795880D01*
X120593366Y-96748260D01*
X120355271Y-96748260D01*
X120260033Y-96795880D01*
X120212414Y-96843499D01*
X120164795Y-96938737D01*
X120164795Y-97033975D01*
X120212414Y-97176832D01*
X120783842Y-97748260D01*
X120164795Y-97748260D01*
%TO.C,D1*%
X165948275Y-76107720D02*
X165948275Y-75107720D01*
X165710180Y-75107720D01*
X165567322Y-75155340D01*
X165472084Y-75250578D01*
X165424465Y-75345816D01*
X165376846Y-75536292D01*
X165376846Y-75679149D01*
X165424465Y-75869625D01*
X165472084Y-75964863D01*
X165567322Y-76060101D01*
X165710180Y-76107720D01*
X165948275Y-76107720D01*
X164424465Y-76107720D02*
X164995894Y-76107720D01*
X164710180Y-76107720D02*
X164710180Y-75107720D01*
X164805418Y-75250578D01*
X164900656Y-75345816D01*
X164995894Y-75393435D01*
%TO.C,D4*%
X207402655Y-82643280D02*
X207402655Y-81643280D01*
X207164560Y-81643280D01*
X207021702Y-81690900D01*
X206926464Y-81786138D01*
X206878845Y-81881376D01*
X206831226Y-82071852D01*
X206831226Y-82214709D01*
X206878845Y-82405185D01*
X206926464Y-82500423D01*
X207021702Y-82595661D01*
X207164560Y-82643280D01*
X207402655Y-82643280D01*
X205974083Y-81976614D02*
X205974083Y-82643280D01*
X206212179Y-81595661D02*
X206450274Y-82309947D01*
X205831226Y-82309947D01*
%TO.C,D9*%
X202500455Y-84037120D02*
X202500455Y-83037120D01*
X202262360Y-83037120D01*
X202119502Y-83084740D01*
X202024264Y-83179978D01*
X201976645Y-83275216D01*
X201929026Y-83465692D01*
X201929026Y-83608549D01*
X201976645Y-83799025D01*
X202024264Y-83894263D01*
X202119502Y-83989501D01*
X202262360Y-84037120D01*
X202500455Y-84037120D01*
X201452836Y-84037120D02*
X201262360Y-84037120D01*
X201167121Y-83989501D01*
X201119502Y-83941882D01*
X201024264Y-83799025D01*
X200976645Y-83608549D01*
X200976645Y-83227597D01*
X201024264Y-83132359D01*
X201071883Y-83084740D01*
X201167121Y-83037120D01*
X201357598Y-83037120D01*
X201452836Y-83084740D01*
X201500455Y-83132359D01*
X201548074Y-83227597D01*
X201548074Y-83465692D01*
X201500455Y-83560930D01*
X201452836Y-83608549D01*
X201357598Y-83656168D01*
X201167121Y-83656168D01*
X201071883Y-83608549D01*
X201024264Y-83560930D01*
X200976645Y-83465692D01*
%TO.C,R17*%
X196887797Y-93168820D02*
X197221130Y-92692630D01*
X197459225Y-93168820D02*
X197459225Y-92168820D01*
X197078273Y-92168820D01*
X196983035Y-92216440D01*
X196935416Y-92264059D01*
X196887797Y-92359297D01*
X196887797Y-92502154D01*
X196935416Y-92597392D01*
X196983035Y-92645011D01*
X197078273Y-92692630D01*
X197459225Y-92692630D01*
X195935416Y-93168820D02*
X196506844Y-93168820D01*
X196221130Y-93168820D02*
X196221130Y-92168820D01*
X196316368Y-92311678D01*
X196411606Y-92406916D01*
X196506844Y-92454535D01*
X195602082Y-92168820D02*
X194935416Y-92168820D01*
X195363987Y-93168820D01*
%TD*%
M02*
