%TF.GenerationSoftware,KiCad,Pcbnew,5.1.10-88a1d61d58~88~ubuntu20.04.1*%
%TF.CreationDate,2021-06-09T14:37:20-04:00*%
%TF.ProjectId,avBadge_2021,61764261-6467-4655-9f32-3032312e6b69,rev?*%
%TF.SameCoordinates,Original*%
%TF.FileFunction,Soldermask,Top*%
%TF.FilePolarity,Negative*%
%FSLAX46Y46*%
G04 Gerber Fmt 4.6, Leading zero omitted, Abs format (unit mm)*
G04 Created by KiCad (PCBNEW 5.1.10-88a1d61d58~88~ubuntu20.04.1) date 2021-06-09 14:37:20*
%MOMM*%
%LPD*%
G01*
G04 APERTURE LIST*
%ADD10C,0.100000*%
%ADD11C,1.524000*%
%ADD12C,2.000000*%
%ADD13C,1.600000*%
%ADD14C,2.400000*%
%ADD15R,1.524000X1.524000*%
G04 APERTURE END LIST*
D10*
%TO.C,S1*%
G36*
X99472112Y-111342662D02*
G01*
X103313259Y-110624633D01*
X103402138Y-113698932D01*
X99565437Y-114557413D01*
X99472112Y-111342662D01*
G37*
G36*
X113059392Y-117552962D02*
G01*
X115546137Y-118524366D01*
X114543885Y-121566521D01*
X113805167Y-124195845D01*
X111586286Y-122648138D01*
X111599042Y-122432092D01*
X113059392Y-117552962D01*
G37*
G36*
X116316802Y-119030548D02*
G01*
X119799335Y-120612987D01*
X117859132Y-126941463D01*
X114615761Y-124737733D01*
X116316802Y-119030548D01*
G37*
G36*
X123492908Y-121907561D02*
G01*
X128714756Y-124124555D01*
X126364328Y-132560118D01*
X121396146Y-128969706D01*
X123492908Y-121907561D01*
G37*
G36*
X132527360Y-125738223D02*
G01*
X141080101Y-129696127D01*
X137705282Y-140801134D01*
X129802522Y-135025386D01*
X132527360Y-125738223D01*
G37*
G36*
X116369936Y-129652778D02*
G01*
X118215489Y-131035530D01*
X115618127Y-133661522D01*
X113740427Y-131925022D01*
X116369936Y-129652778D01*
G37*
G36*
X165690138Y-77416415D02*
G01*
X165676107Y-77553558D01*
X165634555Y-77685431D01*
X165567078Y-77806966D01*
X165476268Y-77913492D01*
X165365617Y-78000916D01*
X165239376Y-78065878D01*
X165102396Y-78105881D01*
X164959942Y-78119388D01*
X164817488Y-78105881D01*
X164680509Y-78065878D01*
X164554268Y-78000916D01*
X164443617Y-77913492D01*
X164352807Y-77806966D01*
X164285330Y-77685431D01*
X164243778Y-77553558D01*
X164229747Y-77416415D01*
X164243778Y-77279272D01*
X164285330Y-77147399D01*
X164352807Y-77025864D01*
X164443617Y-76919338D01*
X164554268Y-76831914D01*
X164680509Y-76766952D01*
X164817488Y-76726949D01*
X164959942Y-76713441D01*
X165102396Y-76726949D01*
X165239376Y-76766952D01*
X165365617Y-76831914D01*
X165476268Y-76919338D01*
X165567078Y-77025864D01*
X165634555Y-77147399D01*
X165676107Y-77279272D01*
X165690138Y-77416415D01*
G37*
G36*
X185937748Y-114454243D02*
G01*
X186123001Y-114601408D01*
X184488224Y-116659280D01*
X184302971Y-116512115D01*
X185937748Y-114454243D01*
G37*
G36*
X183347240Y-117942172D02*
G01*
X183532493Y-118089337D01*
X181897716Y-120147209D01*
X181712463Y-120000043D01*
X183347240Y-117942172D01*
G37*
G36*
X188568335Y-111079201D02*
G01*
X188753590Y-111226368D01*
X187118813Y-113284240D01*
X186933558Y-113137073D01*
X188568335Y-111079201D01*
G37*
G36*
X191986222Y-107576083D02*
G01*
X192071003Y-107710580D01*
X190814778Y-109111998D01*
X190729997Y-108977501D01*
X191986222Y-107576083D01*
G37*
G36*
X194327366Y-104961024D02*
G01*
X194412147Y-105095520D01*
X193155920Y-106496940D01*
X193071139Y-106362443D01*
X194327366Y-104961024D01*
G37*
G36*
X197877875Y-100568005D02*
G01*
X197913556Y-100633738D01*
X197384857Y-101318650D01*
X197349175Y-101252917D01*
X197877875Y-100568005D01*
G37*
G36*
X196596307Y-102218823D02*
G01*
X196681088Y-102353320D01*
X195424863Y-103754738D01*
X195340082Y-103620241D01*
X196596307Y-102218823D01*
G37*
G36*
X200714705Y-97594965D02*
G01*
X200750386Y-97660698D01*
X200221687Y-98345610D01*
X200186006Y-98279877D01*
X200714705Y-97594965D01*
G37*
G36*
X199275611Y-99187217D02*
G01*
X199311292Y-99252949D01*
X198782593Y-99937861D01*
X198746912Y-99872129D01*
X199275611Y-99187217D01*
G37*
G36*
X165688701Y-121705433D02*
G01*
X167523281Y-121962751D01*
X166797887Y-123008531D01*
X164963308Y-122751214D01*
X165688701Y-121705433D01*
G37*
G36*
X163269160Y-121359997D02*
G01*
X165103740Y-121617315D01*
X164378347Y-122663096D01*
X162543767Y-122405778D01*
X163269160Y-121359997D01*
G37*
G36*
X167991268Y-122017810D02*
G01*
X169825844Y-122275127D01*
X169100450Y-123320908D01*
X167265875Y-123063591D01*
X167991268Y-122017810D01*
G37*
G36*
X170337322Y-122356024D02*
G01*
X172171902Y-122613341D01*
X171446508Y-123659122D01*
X169611928Y-123401805D01*
X170337322Y-122356024D01*
G37*
G36*
X187332641Y-124961132D02*
G01*
X189171373Y-125186875D01*
X188464063Y-126244971D01*
X186625331Y-126019227D01*
X187332641Y-124961132D01*
G37*
G36*
X184907520Y-124657338D02*
G01*
X186746252Y-124883081D01*
X186038942Y-125941177D01*
X184200210Y-125715433D01*
X184907520Y-124657338D01*
G37*
G36*
X189640238Y-125233882D02*
G01*
X191478965Y-125459626D01*
X190771655Y-126517721D01*
X188932928Y-126291978D01*
X189640238Y-125233882D01*
G37*
G36*
X191991758Y-125531718D02*
G01*
X193830490Y-125757462D01*
X193123180Y-126815557D01*
X191284448Y-126589814D01*
X191991758Y-125531718D01*
G37*
G36*
X203401722Y-96184176D02*
G01*
X203763329Y-96163004D01*
X203682832Y-96425071D01*
X203321225Y-96446243D01*
X203401722Y-96184176D01*
G37*
G36*
X202924486Y-96210757D02*
G01*
X203286092Y-96189584D01*
X203205595Y-96451652D01*
X202843989Y-96472824D01*
X202924486Y-96210757D01*
G37*
G36*
X203854996Y-96155264D02*
G01*
X204216601Y-96134091D01*
X204136104Y-96396159D01*
X203774499Y-96417331D01*
X203854996Y-96155264D01*
G37*
G36*
X204317915Y-96130213D02*
G01*
X204679522Y-96109041D01*
X204599025Y-96371108D01*
X204237418Y-96392280D01*
X204317915Y-96130213D01*
G37*
G36*
X200631371Y-96130905D02*
G01*
X200993595Y-96129526D01*
X200898896Y-96386802D01*
X200536673Y-96388182D01*
X200631371Y-96130905D01*
G37*
G36*
X200153396Y-96131366D02*
G01*
X200515619Y-96129986D01*
X200420920Y-96387263D01*
X200058697Y-96388642D01*
X200153396Y-96131366D01*
G37*
G36*
X201085548Y-96126807D02*
G01*
X201447770Y-96125427D01*
X201353072Y-96382704D01*
X200990849Y-96384083D01*
X201085548Y-96126807D01*
G37*
G36*
X201549145Y-96127091D02*
G01*
X201911368Y-96125712D01*
X201816669Y-96382989D01*
X201454446Y-96384368D01*
X201549145Y-96127091D01*
G37*
%TD*%
D11*
%TO.C,S1*%
X116024625Y-131450233D03*
X101361312Y-112464210D03*
X125178600Y-127297040D03*
X116923708Y-122583352D03*
X113435908Y-120839740D03*
%TD*%
D12*
%TO.C,BT1*%
X143305520Y-140004800D03*
X156005520Y-140004800D03*
%TD*%
D10*
%TO.C,P1*%
G36*
X93491125Y-79582824D02*
G01*
X91945644Y-79168713D01*
X92359755Y-77623232D01*
X93905236Y-78037343D01*
X93491125Y-79582824D01*
G37*
D13*
X92268040Y-81056480D03*
X91610640Y-83509932D03*
%TD*%
D14*
%TO.C,D5*%
X160603760Y-119969280D03*
%TD*%
%TO.C,D3*%
X200177400Y-125846840D03*
%TD*%
%TO.C,J1*%
G36*
G01*
X100044258Y-89303125D02*
X100044258Y-89303125D01*
G75*
G02*
X100044258Y-88171755I565685J565685D01*
G01*
X100044258Y-88171755D01*
G75*
G02*
X101175628Y-88171755I565685J-565685D01*
G01*
X101175628Y-88171755D01*
G75*
G02*
X101175628Y-89303125I-565685J-565685D01*
G01*
X101175628Y-89303125D01*
G75*
G02*
X100044258Y-89303125I-565685J565685D01*
G01*
G37*
G36*
G01*
X98248206Y-91099176D02*
X98248206Y-91099176D01*
G75*
G02*
X98248206Y-89967806I565685J565685D01*
G01*
X98248206Y-89967806D01*
G75*
G02*
X99379576Y-89967806I565685J-565685D01*
G01*
X99379576Y-89967806D01*
G75*
G02*
X99379576Y-91099176I-565685J-565685D01*
G01*
X99379576Y-91099176D01*
G75*
G02*
X98248206Y-91099176I-565685J565685D01*
G01*
G37*
G36*
G01*
X98248206Y-87507074D02*
X98248206Y-87507074D01*
G75*
G02*
X98248206Y-86375704I565685J565685D01*
G01*
X98248206Y-86375704D01*
G75*
G02*
X99379576Y-86375704I565685J-565685D01*
G01*
X99379576Y-86375704D01*
G75*
G02*
X99379576Y-87507074I-565685J-565685D01*
G01*
X99379576Y-87507074D01*
G75*
G02*
X98248206Y-87507074I-565685J565685D01*
G01*
G37*
G36*
G01*
X96452155Y-89303125D02*
X96452155Y-89303125D01*
G75*
G02*
X96452155Y-88171755I565685J565685D01*
G01*
X96452155Y-88171755D01*
G75*
G02*
X97583525Y-88171755I565685J-565685D01*
G01*
X97583525Y-88171755D01*
G75*
G02*
X97583525Y-89303125I-565685J-565685D01*
G01*
X97583525Y-89303125D01*
G75*
G02*
X96452155Y-89303125I-565685J565685D01*
G01*
G37*
D10*
G36*
X97017840Y-86276709D02*
G01*
X95886469Y-85145338D01*
X97017840Y-84013967D01*
X98149211Y-85145338D01*
X97017840Y-86276709D01*
G37*
G36*
G01*
X94656104Y-87507074D02*
X94656104Y-87507074D01*
G75*
G02*
X94656104Y-86375704I565685J565685D01*
G01*
X94656104Y-86375704D01*
G75*
G02*
X95787474Y-86375704I565685J-565685D01*
G01*
X95787474Y-86375704D01*
G75*
G02*
X95787474Y-87507074I-565685J-565685D01*
G01*
X95787474Y-87507074D01*
G75*
G02*
X94656104Y-87507074I-565685J565685D01*
G01*
G37*
%TD*%
D15*
%TO.C,J2*%
X103499920Y-71988680D03*
D11*
X103499920Y-74528680D03*
X106039920Y-71988680D03*
X106039920Y-74528680D03*
X108579920Y-71988680D03*
X108579920Y-74528680D03*
%TD*%
M02*
